<?xml version="1.0" standalone="no"?>
<!DOCTYPE svg PUBLIC "-//W3C//DTD SVG 1.1//EN" "http://www.w3.org/Graphics/SVG/1.1/DTD/svg11.dtd" >
<svg xmlns="http://www.w3.org/2000/svg">
<metadata></metadata>
<defs>
<font id="basic_fontregular" horiz-adv-x="1024" >
<font-face units-per-em="2048" ascent="1647" descent="-401" />
<missing-glyph horiz-adv-x="500" />
<glyph horiz-adv-x="2048" />
<glyph horiz-adv-x="2048" />
<glyph unicode="&#xd;" />
<glyph unicode=" " />
<glyph unicode="A" horiz-adv-x="2228" d="M8 -295q0 57 125 389l176 469q80 213 230 713l41 137q29 168 69 201h658q29 0 84 12t84 12q98 0 135 -43q23 -182 180 -634q98 -285 227 -644q33 -90 127 -331q76 -193 76 -203q0 -39 -27 -76q-305 0 -378 -20q-57 -16 -144 -41q-78 -23 -164 -23q-70 0 -92 23.5 t-33 95.5q-23 150 -69 240q-11 3 -39 3q-14 0 -33 -1l-311 -9q-33 4 -43 -22q-45 -113 -49 -170v-14q0 -34 -7 -84q-39 -29 -91 -29h-7l-706 16q-18 18 -19 33zM49 -244v-51h242q82 0 246.5 -4t246.5 -4q27 152 70 289q10 32 70 32h4q27 0 102 -6q44 -3 76 -3q16 0 29 1 q14 2 77 8q47 6 78 7q59 0 68 -23q18 -55 42.5 -170t43.5 -168q17 -1 37 -1q94 0 231 32q184 43 244 43h223v61q0 12 -14.5 28.5t-16.5 22.5q-37 115 -96 287q-25 43 -59 123q-4 18 -88 287q-18 59 -58 180q-20 55 -73 213l-91 279q-2 4 -114 358q-55 20 -103 20 q-53 -10 -168 -22q-27 -3 -95 -3q-34 0 -77 1l-385 8h-15q-51 0 -69 -12q-78 -258 -98 -334q-86 -322 -151 -500q-31 -82 -119 -319zM942 518q-1 6 -1 14q0 16 3 39q53 119 154 363h39q23 -25 30 -53q48 -164 95 -346q-8 -12 -39 -23.5t-47 -11.5h-148q-57 0 -86 18z M983 549q115 2 238 2q-39 117 -103 342z" />
<glyph unicode="B" horiz-adv-x="1871" d="M16 -311q0 33 12.5 100.5t12.5 99.5v1516q0 18 -8 57t-8 58q0 102 36 106q12 2 45 2q49 0 144 -4h27q61 0 169 6l132 8h15q35 0 91 -7q70 -9 100 -9h269q31 0 182 -47q135 -41 188 -64q94 -39 170 -102q4 -10 23 -59q20 -33 43 -84q12 -129 12 -140q0 -92 -72 -192 q-61 -86 -149 -143q33 -8 80 -25q193 -98 250 -152q96 -88 96 -217q0 -61 -31 -157q-86 -266 -415 -437q-244 -127 -525 -157q-6 0 -117 -23q-82 -16 -112 -16q-27 0 -75 7t-73 7q-45 1 -87 1t-81 -1l-262 -6h-4q-78 0 -78 74zM57 -309v-35h308q145 0 253 -6q37 -2 25 -2 q37 0 148 18l172 29q309 51 538 194q334 207 334 508q0 117 -106 203q-33 27 -207 125q-113 27 -113 61q0 12 59 68q170 158 170 268q0 137 -77 260q-51 80 -293 148q-211 59 -338 59h-864v-157q8 -41 8 -158l8 -1098q0 -4 -2 -262q0 -37 -11.5 -110.5t-11.5 -112.5z M745 158v288q0 53 123 54q76 0 127 -33q62 -39 62 -111q0 -70 -97.5 -143.5t-168.5 -73.5q-27 0 -46 19zM745 821v264q0 14 19.5 34t34.5 20q72 0 108 -29q68 -51 68 -98q0 -57 -64.5 -137t-119.5 -80q-18 0 -46 26zM782 326q0 -76 6 -154q55 18 127 66q101 65 101 122 q0 45 -53 78q-45 29 -95 29q-27 0 -82 -18q-4 -61 -4 -123zM788 836q43 12 94.5 70.5t51.5 101.5q0 51 -64 71q-23 8 -73 19z" />
<glyph unicode="C" horiz-adv-x="1777" d="M25 610q0 121 53 297q59 195 133 262q2 8 4 25q176 184 401 301q33 10 101 33q98 33 196 57q180 45 451 45q233 0 362 -37q27 -8 27 -69q0 -10 -16 -60l-23 -67q-26 -77 -26 -164v-6v-207q0 -70 -77 -70h-9l-201 8q-34 2 -63 2q-43 0 -74 -4q-207 -23 -312 -182 q-68 -102 -67 -184q0 -113 73 -201q78 -94 189 -94q76 0 214 61.5t155 61.5q76 0 114 -10q14 -162 43 -271q8 -27 58 -188q47 -152 47 -166q0 -45 -33 -68q-8 -4 -76 -32q-35 -2 -98 -13q-170 -47 -473 -47q-170 0 -170 -2h2q-55 4 -254 45q-31 16 -92 45 q-119 39 -239 148.5t-167 224.5q-80 106 -121 289q-32 143 -32 232v5zM66 606q0 -51 30 -209q23 -117 45 -174q35 -90 99 -188q20 -25 131 -154q23 -27 196 -121q70 -37 133 -61q201 -35 275 -37q-14 0 -14 1t141 1q477 0 635 100q-8 96 -74 304q-61 199 -68 309h-106 q-8 0 -103 -47q-100 -49 -122 -58q-57 -18 -134 -18q-115 0 -202 113q-84 104 -84 223q0 176 149 297q137 112 307 113q7 0 15 -1l321 -6l13 209q8 123 24 211q2 12 20.5 47t18.5 43v60l-340 26q-53 4 -88 4q-121 0 -305 -32q-174 -47 -248 -74q-129 -45 -231 -111 q-164 -102 -264 -239q-31 -41 -78 -115q-92 -238 -92 -416z" />
<glyph unicode="D" horiz-adv-x="1925" d="M23 -309q0 -8 2 35l57 1220q1 12 1 27q0 95 -22 327l-20 228q0 74 51 92q29 10 127 10h604h-1q0 -3 263 -47q416 -70 672 -356q8 -10 88 -180q72 -154 72 -355q0 -76 -19 -198q-18 -137 -43 -189q-166 -360 -735 -557q-45 -2 -139 -20q-317 -94 -649 -99 q-35 0 -107.5 -11t-109.5 -11q-92 0 -92 55v29zM57 -283v-5q0 -29 19 -64h51q23 0 229 18q238 20 361 41q102 27 287 70q41 2 100 12q221 84 311 133q461 248 461 754q0 135 -27 229q-14 53 -86 215q-20 45 -55 99q-250 256 -664 331l-213 39h-686q-43 -1 -55 -19 q-9 -14 -9 -42q0 -10 1 -21l33 -422v-456q0 -29 -12.5 -83t-12.5 -83v-350q-2 -31 -16 -199zM803 475q0 100 28 426q4 51 31 82q6 0 13 1q22 0 57 -5q102 -29 168 -88q80 -72 80 -166q0 -49 -54 -166q-23 -49 -118 -124t-144 -75q-61 0 -61 115zM854 401q98 33 186 125 q99 101 99 195q0 125 -174 201q-47 20 -52 20h-34q-27 -221 -27 -437q0 -52 2 -104z" />
<glyph unicode="E" horiz-adv-x="1558" d="M8 -303q0 39 17 117q20 94 22 125q28 297 28 446q0 34 -1 61l-58 1049v10q0 82 64 82h612l688 60q13 1 25 1q65 0 74 -38q9 -53 77 -559q-37 -35 -97 -35h-13l-184 8h-7q-60 0 -381 -27q-8 -2 -22 -12v-108h455v-484h-375q-31 -4 -72 -31v-102q10 -4 66 -6l487 65 q41 0 70 -26q-6 -70 -62 -430l-8 -197q-6 -12 -22 -35h-877q-25 -2 -186 -16l-189 -16q-13 -1 -25 -1q-106 0 -106 99zM57 -334q41 -26 72 -26h2q41 0 122 16t122 16h983q16 31 20 142.5t8.5 152.5t30.5 142q25 88 25 133v28h-117q-74 0 -216 -32.5t-216 -32.5q-82 0 -82 78 q0 151 46 151h1h410v393h-426q-39 29 -39 103q0 102 45 108q194 28 344 28q27 0 53 -1l201 -8h7q63 0 63 33q0 -6 -29 151l-31 168q-3 12 -3 51q0 19 1 45q0 59 -14 92h-99q-20 0 -62 -7t-62 -7q-111 0 -197 -14q-109 -18 -109 -21h2h-809q-39 0 -38 -69v-17l49 -1024 q3 -57 2 -116q0 -170 -21 -351q-10 -78 -39 -305z" />
<glyph unicode="F" horiz-adv-x="1458" d="M33 -324l41 467q0 35 -8.5 103.5t-8.5 103.5v408l-16 614v22q0 138 47 138h211q-12 0 -12 1q1 2 107 9q144 10 167 10q82 0 270 15q526 72 529 71h2q96 0 96 -77q0 -4 -10 -66q-21 -126 -21 -312q0 -70 3 -149q-24 -26 -136 -26h-8q-33 0 -96.5 4t-95.5 4 q-102 0 -228 -19q-16 -12 -30 -108q0 -45 41 -45l303 33q98 0 98 -70q0 12 -9 -27t-16 -88q-4 -41 -4 -80q0 -26 2 -51q2 -14 6 -88q1 -21 1 -38q0 -33 -5 -48q-16 -35 -73 -35q39 0 2 2q-41 2 -154 4q-80 2 -145 2q-23 -20 -23 -110q0 -135 8 -270q8 -33 29 -132l29 -147 q0 -20 -17.5 -40.5t-36.5 -20.5h-360l-393 -41q-49 0 -67.5 15t-18.5 62zM84 -360l444 41h349q-66 338 -66 643q0 82 137 82q16 0 46 -2.5t46 -2.5q113 0 170 -8q2 10 2 62v207q0 20 8.5 60t8.5 60q0 35 -9.5 44.5t-43.5 9.5q-47 0 -141.5 -16.5t-141.5 -16.5q-61 0 -68 2 q-31 14 -30 80q0 88 24 123q31 47 113 47l-416 -4h-35q-4 -2 19 -2h69h525h299v137q0 161 14 401q-8 0 -25.5 5t-25.5 5q-14 0 -164 -26q-172 -31 -254 -37l-467 -37h-365v-1558q0 -31 -16 -150q-8 -60 -8 -106q0 -23 2 -43z" />
<glyph unicode="G" horiz-adv-x="1886" d="M16 541q0 156 23 241q8 27 29 109q23 53 102 164q201 279 506 411q197 86 532 133q276 39 308 39q59 0 118 -43q12 -41 56 -272q6 -31 41 -117q30 -72 30 -118q0 -42 -26 -78q-43 -16 -101 -17q-670 -6 -762 -344q-29 -104 -28 -133q0 -98 59 -176q63 -86 158 -86 q20 0 45 20v50q-23 14 -62 14h-63v430h604q106 27 201 27q55 0 76.5 -18.5t21.5 -71.5q0 -41 -12 -124t-12 -124v-578q0 -18 -64 -55q-18 -10 -78 -39q-117 -55 -272 -102q-61 -18 -268 -43q-139 -16 -174 -17q-309 0 -564 146q-279 158 -381 430q-43 115 -43 342zM49 565 q0 -274 109.5 -459.5t351.5 -320.5q217 -121 453 -121q215 0 440 57q240 59 412 166q-1 25 -1 57t1 70q0 16 2 58l2 30v289v-12q1 0 4 65q4 82 4 103q1 37 1 62t-1 36l-8 100h-125q-12 -2 -76 -18h-596v-358q16 8 55 8q45 0 61.5 -13.5t16.5 -56.5q0 -94 -98 -94 q-111 0 -185 96q-70 88 -69 203q0 207 147 342q133 119 348 152q162 25 404 36q4 8 18 25q-23 72 -71 256q-12 72 -47 248q-23 18 -127 18q-31 0 -185 -12l-123 -27q-444 -49 -766 -307q-352 -283 -352 -678z" />
<glyph unicode="H" horiz-adv-x="2009" d="M25 -225l41 491v246q0 41 16 106l12 316l-45 524q-1 7 -1 13q0 59 50 81q29 12 115 13q31 0 94.5 -4.5t93.5 -4.5q68 0 201 20.5t201 20.5q57 0 86 -26v-590q8 -6 37 -6q33 0 182 26q12 6 29 21q-2 45 -9 268q0 29 -8 90.5t-8 92.5q0 116 88 116h2h219l418 41 q59 0 74 -18q4 -98 4 -287v-281q0 -23 8 -68.5t8 -68.5v-338q0 -33 12.5 -97t12.5 -97v-207l57 -373q1 -7 1 -13q0 -28 -22 -46q-26 -22 -65 -23h-252q-76 0 -222 -45t-222 -45q-63 0 -94 27l8 559q10 20 10 35q0 31 -41 35h-67q-109 0 -199 -27q-16 -27 -14 -51l8 -146 q8 -150 10 -215q0 -23 11.5 -68.5t11.5 -70.5q0 -29 -27 -70h-229q-35 0 -103.5 8.5t-103.5 8.5q-47 0 -139.5 -16.5t-139.5 -16.5q-86 0 -102 37q-11 19 -11 68q0 24 3 55zM57 -242q0 -16 4.5 -45.5t4.5 -46.5q25 -10 57 -10q29 0 84 14.5t84 14.5q41 0 125 2l84 2 q16 0 52 -8.5t52 -8.5h221q-30 324 -30 513v12q0 45 10 67q25 55 248 55q90 0 102 -4q37 -16 41 -106q0 -6 2 -37q1 -14 1 -36t-1 -50q-2 -88 -12 -164l-21 -158q-2 -14 -2 -4q0 -59 35 -96h84q14 0 84 25q84 29 96 30q115 6 193 23q59 12 37 12l180 -8h12q84 0 90 53 l-57 377v223q0 31 -12.5 89.5t-12.5 89.5v335l-24 426q0 70 -2 250l-420 -41h-211q-25 0 -80 -18q0 -63 12 -193l13 -129v-219q-14 -14 -23 -20q-184 -35 -283 -35q-39 32 -39 152q0 19 1 40q4 135 12 271q6 115 6 139q-2 8 -20 20h-82q-10 0 -28.5 -7t-23.5 -7 q-148 -26 -216 -26h-5q-4 0 -106 4l-103 4q-20 1 -39 1q-101 0 -139 -28l-2 -51l41 -496q0 -12 -2 -71l-6 -261q0 -16 -8.5 -48.5t-8.5 -49.5v-262z" />
<glyph unicode="I" horiz-adv-x="1216" d="M8 45q0 31 27 66q10 4 108 14q61 6 93 37q2 25 14 90q12 57 12 90v342q0 18 8.5 55t8.5 56q0 37 -8.5 111.5t-8.5 111.5q-49 2 -104 6q-84 6 -84 47v449q0 31 45 32q92 4 704 45q39 2 129 23q82 18 129 18q12 0 60.5 -14t50.5 -20q2 -27 12 -252l8 -172v-18 q0 -68 -28 -83q-16 -6 -137 -6q-14 -88 -15 -149v-412q0 -213 15 -342q115 0 139 -12q35 -19 35 -101q0 35 -7 -41q-4 -61 -8 -116q-6 -104 -6 -209q-12 -23 -41 -25l-373 -18q-121 -6 -214 -6t-158 6l-314 -41q-6 -2 -12 -2q-18 0 -38.5 15t-22.5 32q6 58 6 148v48 q0 33 -12.5 98.5t-12.5 98.5zM57 -37q8 -74 15 -213q-1 -19 -1 -35q0 -51 15 -59q80 16 303 33l582 8q43 0 192 27v223q0 29 8.5 84t8.5 84q-20 2 -97 4q-63 0 -73 26q-33 86 -33 258q0 16 4 109l2 53l16 535q59 8 172 30q-14 84 -16 224l-4 207q0 36 -58 36h-3 q-61 0 -166 -20q-121 -23 -166 -27q-334 -27 -633 -37v-438h108q72 -6 76 -71q10 -162 10 -185q-4 -49 -10 -190l-16 -406q-2 -61 -17 -86q-31 -53 -100 -57q-115 -6 -119 -8v-109z" />
<glyph unicode="J" horiz-adv-x="1570" d="M8 596q10 23 92 27q111 6 117 8l389 8h4q53 0 66 -55l8 -99q12 -59 57 -59q59 0 74 162q4 45 4 182q0 276 -80 584q-10 39 -10 135q10 10 27 22q313 27 411 48q20 4 138 45q97 34 115 34h1q76 0 90 -61q54 -225 54 -676v2q-1 0 -15 -131q-9 -92 -9 -155q0 -21 1 -39 q2 -33 2 -66q0 -335 -188 -608q-68 -98 -202 -184.5t-249 -102.5q-72 -10 -110 -10q-211 0 -334 51q-57 23 -145.5 99.5t-125.5 129.5q-125 182 -153 447zM49 539q0 -66 39 -256q37 -180 45 -199q102 -227 259 -331.5t403 -104.5q100 0 174 28q57 23 159 84q186 113 287 363 q86 212 86 442v21q0 8 12 176l11 139q0 6 -15 254q-16 266 -30 397q0 14 -31 45q-96 -33 -272 -79q-143 -14 -406 -52l57 -331q33 -190 33 -377q0 -154 -6 -203q-23 -178 -117 -178q-63 0 -90 98q-8 57 -18 115h-279q-12 0 -34.5 -7.5t-32.5 -7.5q-84 0 -234 13v-49z" />
<glyph unicode="K" horiz-adv-x="2048" d="M25 1483q-1 10 -1 19q0 35 13 48q10 10 98 19l725 69q51 0 86 -20q14 -23 15 -88v3q-2 0 -19 -243l6 -110q61 88 217 407q12 25 45 31l52 4l503 -74q98 16 156 17q139 0 135 -76l-524 -715q111 -141 194 -215q27 -16 74 -55q61 -66 199 -182q65 -55 65 -121 q0 -33 -51 -78q-23 -18 -82 -70q-43 -37 -475 -420q-20 -18 -110 -18l-197 305q-109 168 -242 277q-1 -22 -1 -47q0 -75 9 -183l19 -219q-10 -10 -19 -20q-16 -14 -26 -15h-483l-263 -32q-23 0 -73 18q-12 35 -13 86q0 37 8.5 110.5t8.5 110.5v539q0 61 -17 180l-8 459z M66 1464q0 -23 11 -67.5t11 -65.5q18 -422 18 -500v-284q2 -16 9 -129l8 -131l-23 -555q8 0 23.5 -5.5t23.5 -5.5q39 0 111 15.5t107 17.5l528 19q-33 231 -33 444q33 29 45 29q29 0 137 -121q100 -111 127 -156q74 -121 154 -250q35 -55 55 -61q10 -2 21 -2l624 547 q-6 43 -63 90l-102 84q-49 57 -99 102q-78 70 -155 142q-113 109 -113 153q0 68 516 696v43q-14 2 -258 3q-102 0 -303 32q-173 28 -173 32q0 1 5 1q-12 0 -35.5 -4t-36.5 -4q-12 -61 -139 -281q-33 -55 -92 -153q-14 -16 -53 -17q-25 11 -25 62v8q2 49 6 156q10 191 10 224 v7q-27 18 -57 18q-29 0 -86 -16t-86 -16h-219q-14 0 -45 -11q-37 -10 -47 -12q-25 -4 -307 -29v-49z" />
<glyph unicode="L" horiz-adv-x="1488" d="M25 -340l14 152q18 197 18 233l-8 1229q0 12 -14 141q-10 92 -10 148q14 14 45 30q32 4 76 5q14 0 30 -1l238 -8l393 41q119 0 119 -65l-74 -774l-8 -381q0 -33 47 -37q-14 1 -14 2q0 2 73 2l426 41q95 0 115 -27q1 -12 1 -22q0 -32 -5 -54l-35 -168q-18 -88 -18 -208 v-248q-16 -15 -77 -15q-34 0 -83 5q-11 1 -25 1q-38 0 -94 -8l-78 -10h-284q-25 0 -71 -4t-71 -4l-532 -57q-94 0 -94 61zM66 1448q0 -4 24 -125l21 -655l-35 -1020h117l393 49q23 -9 60 -9q12 0 26 1l340 24h389q-18 80 -19 176q0 109 23 256l35 230l-482 -39 q-24 -2 -44 -2q-83 0 -103 33q-8 12 -8 157q0 281 18 480l53 575q-10 0 -31.5 5t-31.5 5q-35 0 -88 -12q-68 -16 -88 -18q-78 -10 -209 -11l-360 -2v-98z" />
<glyph unicode="M" horiz-adv-x="2512" d="M33 -336q0 63 61 260q18 57 68 219q57 201 151 680q0 2 66 418q4 25 14 143q8 88 27 146q8 25 100 29q199 10 328 32q4 0 137 29q88 18 96 18q61 0 78 -34q6 -37 23 -99l100 -213q29 -86 90 -252q37 90 90 260q57 182 88 263q16 44 93 44q9 0 20 -1l246 -17q11 -1 24 -1 q45 0 111 11q94 14 135 15q33 0 70 -21q4 -88 16 -213l47 -450q12 -45 35 -139v2q-2 0 -2 -68q0 -4 9 -18.5t9 -22.5q33 -307 88 -655q4 -31 37 -127q27 -86 27 -119q0 -47 -43 -62q-14 -4 -84 -10l-147 -12q-37 -2 -254 -45q-160 -31 -168 -31q-98 0 -99 78v227 q0 74 -20 146q-35 -127 -113 -383q-86 -4 -223 -21q-4 0 -96 -22q-68 -16 -88 -17q-100 0 -119 97q-6 29 -23 159q-18 78 -59 236q-6 -53 -35 -201q-4 -25 -8 -158q-2 -117 -70 -139q-12 -4 -82 -4q-47 0 -120 2l-304 8h-12q-42 0 -114 -11q-82 -13 -123 -13q-78 0 -78 57z M74 -301v-51q146 24 248 24h22l504 -8q20 8 24 37l41 303q6 184 58 184q55 0 76 -120q18 -104 49 -263q12 -66 45 -124q141 20 422 51q10 47 63 264q35 143 78 143q57 0 57 -235v-203q8 -29 70 -29q6 0 164 29q135 25 246 43q80 6 223 20l6 9q4 8 4 18q0 12 -14.5 42 t-16.5 40l-57 320q-20 150 -80 581q-14 90 -49 363l-47 428h-107q-14 0 -38.5 -7.5t-36.5 -7.5q-72 -4 -150 -4t-162 4q-28 1 -50 1q-55 0 -73 -7q-12 -29 -94 -293q-61 -201 -102 -260h-41q-14 0 -27 39q-39 117 -131 332q-57 133 -63 192q-6 12 -23 35q-41 -6 -641 -86 q-70 -469 -113 -712q-14 -78 -63 -269q-41 -156 -64 -256q-29 -129 -100 -368q-57 -193 -57 -199z" />
<glyph unicode="N" horiz-adv-x="1910" d="M18 -295q47 313 117 1069q35 375 35 418v289q0 37 31 78q139 12 319 38l211 31q59 0 105 -78q27 -57 53 -112q156 -254 323 -508q5 5 5 289v102q0 8 -17 102q-10 59 -10 78q0 72 113 72q31 0 94 -5t94 -5q55 0 164.5 18t165.5 18q59 0 77 -16q18 -19 18 -57q0 -7 -1 -15 q-27 -102 -29 -340l-8 -1019l29 -330q1 -6 1 -11q0 -38 -24 -67q-14 -2 -315 -78q-229 -57 -291 -57q-53 0 -76 41q-98 180 -213 342q-61 86 -246 325v-583q-33 -31 -92 -31q-31 0 -90 5t-90 5q-25 -2 -180 -14l-182 -14q-7 -1 -14 -1q-43 0 -77 21zM68 -266q22 -7 58 -8 q14 0 30 2q76 12 172 24h370v457q0 18 -7 52t-7 52q0 39 29 52h45l270 -355q147 -195 219 -352q16 -2 33 -2q80 0 244 45q225 61 245 66h58q27 -1 39 34v1762h-58l-106 -27q-66 -10 -221 -10q-221 0 -230 -2v-617q-14 -25 -34 -24q-47 0 -211 282l-218 377q-23 39 -79 39 q-10 0 -201 -27q-205 -29 -279 -34q-29 -506 -63 -924q-31 -369 -98 -862z" />
<glyph unicode="O" horiz-adv-x="2011" d="M0 553q0 125 76 436q272 649 973 649q291 0 514 -129q143 -51 254 -172q104 -117 149 -268q41 -135 41 -344q0 -211 -119 -526q-23 -31 -43 -66q-100 -176 -266 -319q-80 -70 -221 -131q-23 -2 -66 -13q-18 -14 -51 -28q-197 -27 -299 -27q-395 0 -678 305 q-264 285 -264 633zM49 532q0 -213 141 -456q80 -137 229.5 -244.5t305.5 -140.5q127 -27 254 -27q98 0 221 19q29 14 84 36q18 0 49 5q25 16 74 45q150 63 305 249q100 121 127 189q72 186 86 237q33 115 33 252q0 211 -29 332q-20 84 -106 223q-51 82 -219 195 q-23 8 -58 22q-205 121 -530 121q-449 0 -715 -309q-252 -293 -252 -748zM778 655q0 145 35 219q18 39 86 98.5t105 59.5q41 0 100 -28q133 -64 133 -279q0 -115 -57 -240q-76 -166 -209 -166q-102 0 -154 123q-39 92 -39 213zM819 647q0 -70 29 -151q45 -127 131 -127 q102 0 168 155q49 117 49 197q0 57 -53 186q-12 29 -31 39q-80 45 -108 45q-23 0 -83.5 -61.5t-70.5 -87.5q-31 -80 -31 -195z" />
<glyph unicode="P" horiz-adv-x="1771" d="M8 -193l33 443v221l16 778q-4 39 -14 154l-10 108q0 18 18 66q195 45 703 45q270 0 358 -12q8 -2 33 -11q287 -33 454 -196q179 -174 179 -457q0 -334 -428 -567q-154 -84 -467 -143q-14 -10 -15 -27l50 -430q0 -88 -66 -88h-135q-115 -23 -365 -56q-212 -28 -236 -28h-1 q-80 0 -101 67q-8 29 -8 78q0 25 2 55zM49 -168q0 -7 -1 -16q0 -26 5 -66q6 -61 6 -84q35 -18 56 -18h4l758 100l-50 461q0 55 23 59q82 16 295 70q143 35 313 156q279 197 279 469q0 219 -127 371.5t-343 199.5t-272 47h-579h3q0 -1 -118 -12q-45 -4 -164 -17 q-47 -6 -63 -22l24 -223l-16 -1082zM745 934q0 23 19 176q57 20 100 20q80 0 137 -32q72 -41 72 -115q0 -94 -95 -182q-87 -81 -174 -81l-16 1q-8 14 -24 35q0 31 -9.5 89t-9.5 89zM786 967q0 -12 11 -86l16 -119q68 8 143.5 79.5t75.5 137.5q0 53 -53 88q-45 31 -102 31 q-90 0 -91 -131z" />
<glyph unicode="Q" horiz-adv-x="1861" d="M8 700q0 47 35 230q23 57 61 157q6 23 21 58q102 158 180 235l123 88q123 90 180 109q160 53 338 53q203 0 391.5 -98t304.5 -264q127 -180 127 -453q0 -309 -127 -483q-45 -61 -45 -74q0 -23 244 -244q19 -16 19 -51q0 -33 -125 -110q-33 -20 -156 -93q-10 -8 -104 -94 q-55 -51 -111 -51q-47 0 -57 12q-4 6 -72 129q-57 104 -96 105q-8 0 -60.5 -21.5t-66.5 -25.5q-80 -18 -189 -19q-106 0 -129 2q-70 6 -225 49q-2 2 -57 37q-111 72 -207 183q-117 133 -125 225q-16 39 -37 123zM49 741q0 -109 31 -286q35 -201 78 -273q215 -354 657 -354 q111 0 207 27q14 6 74 30q41 17 66 17h3q109 -94 164 -246h70q152 166 418 289q10 8 10 28q-37 33 -139 123q-131 117 -132 162q0 10 46 86l59 98q14 31 27.5 93.5t25.5 89.5q23 86 23 178q0 332 -227.5 559t-559.5 227q-211 0 -325 -45q-332 -131 -490 -477 q-86 -188 -86 -326zM623 647q0 123 18 178q27 80 92 150q76 82 148 82q92 0 163.5 -82t79.5 -176q0 -12 11.5 -41t11.5 -39v-45q-14 -12 -37 -12q-12 0 -39 5t-39 5q-37 0 -94 -60l-80 -86q-35 -23 -98 -73q-4 -23 -19 -58q-20 -10 -24 -10q-53 0 -78 125q-16 82 -16 137z M655 643q0 -49 15 -113q18 -82 49 -96q-1 4 -1 8q0 32 46 62q76 49 100 80q33 41 101 110q14 10 67 11q51 -1 74 -9v47q0 47 -45 148q-23 51 -64 80q-74 53 -116 53q-63 0 -142 -111q-68 -98 -73 -147q-10 -86 -11 -123z" />
<glyph unicode="R" horiz-adv-x="1851" d="M0 -250l25 352v222l8 868q6 27 6 57q0 35 -11.5 106.5t-11.5 106.5q0 57 19 82q152 39 239 49q338 37 435 37q117 0 442 -45q29 -10 84 -26q186 -55 299 -158q137 -125 137 -299q0 -156 -84 -281q-63 -94 -211 -211q166 -211 457 -434q18 -14 18 -49q0 -53 -90 -98 q-47 -23 -75 -39q-84 -57 -189 -148q-57 -49 -174 -176q-47 -51 -102 -51q-45 0 -56 12q-203 313 -372 512q-4 -29 -5 -57q0 -59 16.5 -170t22.5 -164q-20 -27 -77 -27q-29 0 -86.5 4.5t-85.5 4.5l-492 -49q-12 0 -33.5 4t-34.5 4q-20 39 -18 61zM49 1475q0 4 25 -119 l12 -529l-27 -1106h68q-23 12 -23 21q0 27 195 35q49 2 309 2h176l-47 362q-2 4 -2 11q0 36 41 36h2q59 0 232 -256q45 -68 172 -258q12 -18 43 -18q29 0 129 100l127 127q63 51 180 140q49 27 149 86v28q-82 59 -268 236q-215 203 -215 237q0 16 78 80q100 82 147 154 q78 117 78 258q0 164 -145 287q-131 113 -301 137q-12 4 -236 41q-86 14 -219 14q-184 0 -393 -22q-287 -31 -287 -84zM705 872q0 -17 1 -17t5 103l4 154q18 27 76 27q78 0 127 -44t49 -120q0 -66 -70 -143.5t-135 -77.5q-31 0 -49 10q0 18 -4 54t-4 54zM756 1096 q0 -262 4 -301q51 14 108.5 72.5t57.5 107.5t-45 90t-95 41q-10 0 -20 -4z" />
<glyph unicode="S" horiz-adv-x="1677" d="M16 -254q0 -8 72 203q53 156 102 366q12 53 101 54q49 0 176 -45t197 -45q39 0 90 36v7q0 34 -19 57q-47 57 -147 115l-164 90q-92 55 -135 131q-43 141 -43 198q0 358 293 541q215 135 618 180q37 4 248 4q23 0 115 -12q45 -6 45 -33v-278q0 -51 16 -151.5t16 -151.5 q0 -37 -94 -37q-31 0 -94 8t-94 8q-39 0 -96 -16q-80 -23 -80 -62q0 -47 219 -147q321 -224 321 -496q0 -391 -428 -551q-258 -96 -653 -96q-20 2 -164 8l-168 9q-121 6 -221 43q-29 10 -29 63zM57 -254q0 -23 11 -33l251 -32q125 -16 271 -17q379 0 629 86q419 145 419 512 q0 123 -73 244q-68 111 -176 186q-92 63 -162 99q-129 63 -129 127q0 51 88 86q70 28 121 28h4q43 0 114 -10q84 -10 113 -12q6 6 18 24v37q0 41 -28 244q1 12 1 38.5t-1 67.5q0 20 3 57.5t3 55.5q0 63 -88 63q-252 0 -283 -2q-123 -8 -307 -51q-41 -16 -158 -59 q-82 -31 -180 -99q-106 -74 -147 -137q-92 -143 -92 -323q0 -45 43 -172q27 -80 151 -152q43 -23 164 -92q158 -90 158 -178q0 -41 -40 -67.5t-83 -26.5q-31 0 -226 43q-12 2 -52 24.5t-46 22.5h-108q-70 -274 -144 -494q-2 -6 -20.5 -42t-18.5 -46z" />
<glyph unicode="T" horiz-adv-x="1656" d="M25 950q0 41 18 114t20.5 101.5t2.5 65.5q0 31 -6.5 89t-6.5 89q0 61 23 121q10 26 105 26h7q33 0 113 -10q51 -7 87 -7q14 0 26 1l1122 90q12 1 22 1q97 0 97 -83q0 -51 -33 -148t-33 -149v-231q0 -119 -114 -119l-258 25l-15 -6q0 -23 6 -236l13 -426q12 -76 20 -139 q12 -111 23 -146q55 -197 55 -206q0 -61 -43 -103l-690 -33q-35 -2 -119 -14q-76 -10 -119 -10q-18 0 -78 16v26q0 112 31 210q61 190 92 508l49 512h-11q-46 0 -163 -13l-133 -14q-61 0 -85.5 19.5t-24.5 78.5zM76 903q8 0 26.5 -5t28.5 -5l303 33q49 0 49 -37 q0 -25 -30 -322q-35 -342 -62 -514q-12 -80 -47 -209l-33 -120v-68h144q29 0 69 8l70 14q219 10 657 29q27 25 27 60q0 25 -31 124q-43 143 -55 269q0 20 -6 58t-6 56l-25 611v12q-1 45 13 57q16 14 73 13q41 0 125 -12.5t125 -12.5q25 0 45 27q8 268 47 477q2 14 19 55 q12 32 12 55q0 33 -37 33l-696 -69l-9 8l-454 -21l-201 9h-21q-78 0 -98 -27q0 6 2 -49l4 -107l2 -125q-2 -47 -16 -149.5t-14 -155.5z" />
<glyph unicode="U" horiz-adv-x="1898" d="M8 860q0 125 19 348q8 94 14 144q12 90 35 145q10 25 82 29q4 0 84 -2l600 -17q10 -18 10 -53q0 -29 -16 -78q-20 -57 -23 -78q-51 -346 -51 -450q0 -106 39 -225q59 -180 170 -181q82 0 137 293q39 205 39 297l-41 418q0 74 37 78q102 10 385 53l274 41q74 0 86 -41 q6 -18 4 -53q0 -8 -14 -94q-10 -61 -18 -136l-9 -1081q0 8 17 -287q2 -31 17.5 -99t15.5 -105q0 -94 -107 -95l-176 17q-53 0 -157.5 -16.5t-157.5 -16.5q-63 0 -82 12q-25 16 -25 65q0 13 2 27v5l-127 -54q-113 -47 -158 -47h-235q-68 0 -152 43q-270 139 -376 328 q-33 59 -70 231q-72 338 -72 635zM57 893q0 -203 4 -279q8 -152 52 -317q14 -88 69 -270q16 -39 51 -74q150 -154 248 -211q135 -78 310 -78q145 0 223 27q31 10 104 47q66 33 78 33q51 0 51 -52q0 -20 -10 -53q12 0 36.5 -5t37.5 -5l307 33q31 0 90 -8.5t90 -8.5 q62 0 62 49q0 55 -17 150q-20 104 -22 149q-18 319 -19 467q0 168 2 230q0 12 7.5 36.5t7.5 37.5v344l24 436q-20 10 -45 10l-651 -100v-58v1q2 0 22 -101l11 -266q1 -21 1 -43q0 -187 -61 -453q-4 -16 -47 -80q-55 -80 -102 -80q-76 0 -123 62q-92 119 -111 205 q-8 37 -8 192q0 111 14 215q25 176 29 223q2 18 20.5 67.5t18.5 64.5v36h-324l-299 25q-13 1 -23 1q-42 0 -48 -19q-35 -109 -54 -330q-6 -74 -6 -250z" />
<glyph unicode="V" horiz-adv-x="2033" d="M8 1520q0 61 139 61q23 0 68 -4t68 -4q-6 0 114 10q68 6 252 33q148 22 161 22h1q88 0 96 -61v-31q2 -49 2 -43v-73q0 -129 2 -156q29 -385 93 -619q39 84 57 183q8 47 39 184q20 72 78 285q10 66 32 166l13 55q12 37 32 57q12 12 72 12l705 -92l4 -8q4 -8 4 -18 q0 -8 -22.5 -53.5t-24.5 -61.5q-14 -94 -47 -223q-12 -45 -56 -123q-49 -90 -61 -123q-41 -104 -107 -303q-104 -311 -235 -875q-6 -29 -23 -45q-59 0 -186 4l-127 5h-20q-144 0 -613 -50l-24 19q-43 186 -103 409zM57 1495l478 -1823h75q55 0 156 17q115 18 159 21t95 5 l123 6l297 -8l168 649q74 289 180 549q31 72 92 213q53 125 64 224q2 16 20 60t18 54q0 18 -10 21q-63 10 -379 35q-31 2 -102.5 20t-101.5 18q-20 0 -58.5 -4t-58.5 -4q-57 -260 -225 -919q-4 -6 -19 -23h-41q-18 0 -26 37q-86 371 -103 944q-8 0 -23.5 5t-19.5 5l-393 -59 h-365v-43z" />
<glyph unicode="W" horiz-adv-x="2418" d="M16 1491q0 39 19 57h215q90 0 267 45t265 45q72 0 72 -100q0 -31 -12.5 -91.5t-12.5 -90.5q2 -94 19 -365q29 70 125 441q8 31 16 53q12 35 29 43q45 8 158 31q6 2 161 36q83 20 129 20q8 0 15 -1q32 -44 32 -92q0 -17 -4 -35q-9 -40 -9 -70.5t9 -50.5q29 -66 41.5 -199 t34.5 -200q39 131 51 290q8 106 13 306q32 26 68 26h3l353 -33l333 9q27 -19 27 -62q0 -10 -74 -268q-78 -272 -112 -406q-55 -211 -146 -620q-43 -190 -106 -502q-14 -10 -66 -10q-12 0 -34.5 4t-34.5 4q-72 0 -209.5 -37t-208.5 -37q-63 0 -72 2q-45 6 -63 56 q-4 8 -31 209q-12 47 -92 331q-2 -2 -10 -14q-82 -293 -121 -514q-8 -45 -33 -45h-285q-20 0 -143 -16q-170 -23 -213 -25q-29 29 -33 61l-22 222q-14 150 -48 311l-131 663q-29 74 -45 148q-84 403 -84 471zM57 1497q27 -154 84 -453q18 -55 45 -139l45 -272 q25 -145 62 -271q10 -37 16 -111.5t15.5 -108t25.5 -89.5q10 -133 53 -397h60q47 0 145 18q133 27 150 29q24 -1 52 -1q83 0 198 5v8q0 47 20 115q33 109 33 117q33 154 63 276q10 39 35 64h41q39 -59 70 -193q45 -195 55 -223l12 -131q17 -68 85 -68h8l438 74q92 0 98 2 q0 49 10 92q41 174 84 369q96 434 187 792q12 49 90 299q55 179 55 187v29h-444q-18 0 -80 12q-53 10 -72 10h-6h-119q14 -8 17 -20q-6 -317 -52 -547q-6 -33 -26 -53h-49q-6 6 -19 22q-35 219 -47 326q-14 37 -31 90v217h-49q-39 0 -174 -33q-158 -39 -190 -45 q-6 -4 -25 -31q-29 -147 -135 -508q-6 -23 -51 -22q-16 0 -37 22v205q0 29 -8.5 83t-8.5 83q0 25 25 262h-92q6 -2 -182 -47q-78 -18 -246 -35q-221 0 -234 -10z" />
<glyph unicode="X" horiz-adv-x="2097" d="M0 1487q0 61 121 61h235l471 66q51 0 58 -15q35 -70 69 -182l60 -188h6q43 123 137 364q25 12 109 13l585 -54l11 13h118q10 -18 11 -49q0 -55 -13 -80q-23 -45 -133 -189q-29 -37 -135 -225q-121 -213 -121 -248q0 -33 135 -325q18 -39 88 -197q31 -72 168 -307 q117 -201 117 -224q0 -73 -99 -73h-3q-39 0 -115 8t-115 8q-18 0 -53 -3t-53 -3q-47 0 -180 -4q-212 -28 -212 -31h3q-72 0 -80 27q-53 166 -141 407q-49 -111 -72 -194l-55 -205q-8 -27 -91 -27q-8 0 -79 13q-119 21 -243 21q-25 0 -50 -1l-303 -8h-17q-77 0 -131 16v21 q0 58 10 76q109 137 201 286q346 555 346 617q0 43 -116 213q-88 131 -156 207q-39 45 -150 174q-143 170 -143 221zM49 -256v-39h586q47 -8 123 -18q31 -4 61 -4q41 0 72 8q29 217 137 415h41q29 -31 35 -55q16 -61 63 -189t64 -198h35q39 0 106 12q88 16 107 19 q109 0 180 4l106 6h15q38 0 101 -7q77 -9 110 -9h2q33 0 63 28q-10 23 -194 338q-35 59 -160 330q-154 332 -154 389q0 49 33 111q6 10 61 100q53 109 146 262q12 20 154 205v80h-35q-170 0 -338 10l-371 23q-45 -47 -80 -197q-12 -55 -20 -102q-29 -94 -82 -95 q-29 0 -39 23q-33 78 -121 367q-4 2 -14 12q-66 -8 -307 -43q-213 -31 -293 -31q-184 0 -193 -2v-29q72 -106 184 -239q98 -113 199 -228q29 -33 96 -153q78 -137 78 -180q0 -18 -137 -267q-240 -432 -420 -657z" />
<glyph unicode="Y" horiz-adv-x="1955" d="M8 1169v318q0 20 29 57q41 20 74 21l360 -33q43 0 131 12t131 12q55 0 66 -4q28 -12 28 -54q0 -48 -28.5 -136t-28.5 -133q0 -72 49 -164q55 -106 119 -107q63 0 117 129q31 74 32 343q-8 45 -12 133q22 26 69 26h3q14 0 49 -5t53 -3l594 49h12q21 0 60 -4 q35 -43 35 -156q0 -240 -103 -534q-90 -260 -303 -418q-63 -47 -184 -106l4 -217q2 -100 22 -265q4 -31 29 -106q23 -66 23 -107q0 -23 -4 -43q-16 -34 -56 -34h-2l-413 -9h-244q-31 0 -93.5 -12t-93.5 -12q-53 0 -71 10q-27 14 -27 64q8 41 41 155q43 156 55 242l43 319 q0 18 -108 66q-129 55 -150 72q-211 162 -272 403q-35 137 -35 231zM41 1421q0 -213 14 -317q27 -193 119 -344q102 -168 262 -250l111 -37q59 -31 59 -88q0 -43 -35 -315q-8 -59 -55 -232q-37 -133 -41 -157q0 -23 10 -33l906 41q6 16 6 36q0 23 -8 52q-59 217 -66 424 l-4 205q4 37 39 51q78 31 176 110q92 74 147.5 145.5t124.5 248.5q37 70 70 243q33 164 33 254v-6q-1 0 -4 64q-1 14 -1 27q0 25 3 44l-793 -49q16 -115 16 -209q0 -213 -75 -340q-42 -71 -111 -71h-2q-88 0 -156 116q-57 98 -57 178q0 14 47 301q-235 -23 -305 -23 q-13 0 -20 1l-375 33z" />
<glyph unicode="Z" horiz-adv-x="2019" d="M8 -315v-4q2 0 15 118q1 14 1 33q0 32 -4 78q-8 98 -8 110q0 59 15 101q4 10 123 92q102 92 329 348l187 215q74 84 137 168l-578 -51q-51 0 -64.5 16.5t-13.5 69.5q0 39 15 104q14 76 16 103.5t2 66.5q0 33 -4 99.5t-4 99.5q0 59 10 117q7 38 92 38q12 0 25 -1l463 -25 l545 8l557 41h12q59 0 90 -35q0 -37 -12 -112.5t-12 -112.5t10 -108.5t10 -108.5q0 -63 -33 -111q-61 -35 -219 -159q-45 -35 -223 -217q-197 -201 -275 -326q4 -4 250 -4q205 0 246 2t131 12l90 10q57 0 66 -2q37 -10 37 -59q0 -16 -33 -131q-16 -57 -55 -213 q0 -4 -54 -299l-575 37l-385 -29h-246l-602 -57q-74 0 -74 78zM47 -291q0 -16 19 -61h20q330 45 532 57q446 26 622 26q34 0 58 -1l568 -23q4 119 49 299l76 303q-8 6 -86 10q-286 -32 -442 -32h-9q-236 0 -283 22q-2 8 -2 17q0 63 103 176q20 23 223 237q135 143 223 209 q68 51 178 133q20 20 21 62v438h-125q-6 0 -223 -25l-996 -16h-23q-108 0 -327 16q-4 -43 -4 -86q0 -37 4 -109.5t4 -109.5q0 -43 -19.5 -128t-19.5 -128v-53h136l505 49q23 -8 23 -41q0 -51 -268 -342l-291 -315q-59 -63 -113 -107l-114 -90v-346q0 -12 -10 -26z" />
<glyph unicode="a" horiz-adv-x="1781" d="M6 -311q0 41 100 311l140 375q92 246 184 569l51 197q14 55 39 76h524q23 0 68 9t68 9q78 0 108 -35q14 -137 144 -508q0 -2 182 -514q6 -16 88 -229q74 -195 74 -199q0 -31 -21 -59q-203 0 -303 -19q-23 -4 -115 -30q-63 -18 -131 -19q-55 0 -73.5 19.5t-26.5 74.5 q-18 117 -55 193q-33 2 -58 2l-250 -6q-27 2 -34 -19q-35 -84 -39 -137v-16q0 -26 -4 -62q-37 -22 -77 -22h-3l-563 12q-16 16 -17 27zM39 -270v-41h192q66 0 199 -3t199 -3q20 119 55 231q8 27 57 27q25 1 81 -5q41 -4 67 -5q10 0 18 1q18 0 64 7q39 6 61 6q47 0 53 -19 q20 -61 39 -141q23 -106 31 -129q13 -1 28 -1q75 0 185 26q146 34 194 34h3h178v49q0 10 -11.5 23.5t-13.5 17.5q-27 86 -76 230q-20 35 -49 96q-16 53 -69 229q-10 37 -45 146q-16 45 -60 170q-20 61 -71 223q-2 4 -93 287q-45 16 -81 16q-18 -2 -136 -18h-137l-307 6 q-43 0 -68 -10q-59 -188 -80 -269q-59 -223 -120 -399q-25 -66 -95 -256zM754 338q0 16 2 43q43 96 123 291h30q20 -20 25 -41q29 -95 76 -279q-22 -28 -67 -28h-3h-117q-47 0 -69 14zM786 365h189q-31 94 -80 274z" />
<glyph unicode="b" horiz-adv-x="1497" d="M12 -324q0 27 10.5 80.5t10.5 79.5v1213q0 16 -6.5 45.5t-6.5 46.5q0 80 29 86q8 1 28 1q39 0 124 -3q13 -1 30 -1q49 0 125 5l107 6h14q27 0 70 -5q55 -7 80 -7h215q29 0 145 -37q111 -35 152 -51q76 -31 135 -84q4 -6 18 -47q18 -25 35 -66q10 -82 10 -113 q0 -152 -178 -268q27 -6 66 -18q150 -80 198 -123q78 -70 78 -174q0 -49 -24 -125q-68 -211 -334 -348q-203 -104 -418 -129q-29 -4 -90.5 -16.5t-93.5 -12.5q-20 0 -60.5 5t-58.5 5q-70 0 -207 -2l-137 -2q-66 0 -66 59zM47 -322v-28h244q145 0 203 -4q29 -2 20 -2 q29 0 117 14l139 23q248 39 432 155q266 166 266 406q0 96 -84 164q-20 16 -167 100q-90 20 -91 47q0 -25 11 -25q20 0 82 101q92 150 92 194q0 111 -62 207q-41 63 -233 119q-164 47 -273 47h-690v-127q6 -33 6 -125l7 -878q0 -10 -3 -209q0 -29 -8 -88.5t-8 -90.5zM596 51 v230q0 43 98 43q61 0 103 -27q49 -31 49 -88q0 -53 -78 -112.5t-135 -59.5q-20 0 -37 14zM596 582v211q0 12 15.5 27.5t27.5 15.5q57 0 88 -23q53 -41 53 -80q0 -45 -51 -108.5t-96 -63.5q-14 0 -37 21zM625 176q0 -55 6 -113q45 14 102 52q80 51 80 98q0 37 -40 61.5 t-79 24.5q-20 0 -63 -14q-6 -53 -6 -109zM631 594q35 8 76 55t41 82q0 39 -52 57q-29 6 -59 15z" />
<glyph unicode="c" horiz-adv-x="1421" d="M20 414q0 96 43 235q49 158 105 211q2 6 4 21q141 145 322 239q113 41 235 74q131 35 363 35q186 0 288 -29q23 -6 23 -57q0 -12 -14.5 -51t-16.5 -52q-22 -67 -22 -130v-5v-166q0 -55 -68 -55q-10 0 -80 4l-82 4q-18 1 -36 1q-209 0 -312 -132q-63 -80 -63 -164 q0 -90 60 -163.5t149 -73.5q61 0 171.5 49t122.5 49q59 0 91 -6q12 -133 36 -219q16 -53 52 -170q30 -101 30 -113q0 -35 -24 -53q-8 -4 -62 -27q-29 -2 -80 -10q-135 -37 -376 -37q-138 0 -138 -2h2q-43 4 -202 37q-43 23 -74 35q-98 35 -192.5 121t-133.5 178 q-121 195 -121 422zM53 410q0 -49 23 -168q16 -88 37 -138q29 -68 80 -151q2 -4 104 -123q23 -27 158 -98q39 -20 104 -47q162 -29 221 -31q-12 0 -12 1t113 1q383 0 508 80q-6 80 -56.5 241.5t-54.5 247.5h-88q-8 0 -82 -37q-82 -41 -96 -45q-47 -16 -107 -16 q-94 0 -164 90q-66 84 -65 180q0 139 121 238q108 90 244 90h12l256 -6q6 139 30 336q2 8 16.5 36.5t14.5 34.5v50l-272 20q-31 2 -65 2q-110 0 -251 -24q-109 -31 -194 -58q-244 -76 -400 -282q-33 -43 -61 -93q-74 -188 -74 -331z" />
<glyph unicode="d" horiz-adv-x="1540" d="M20 -295l46 977v14q0 73 -17 269l-16 182q0 59 41 74q23 8 100 8h483q23 -4 211 -37q330 -57 537 -285q129 -229 129 -428q0 -61 -14 -157q-14 -109 -35 -152q-129 -289 -590 -446q-57 -4 -111 -19q-279 -74 -518 -78q-27 0 -98 -8l-76 -8q-61 0 -72 22q-1 14 -1 32t1 40 zM45 -301q0 -29 16 -55h39q100 0 473 47q66 16 230 55q33 2 80 10q168 61 250 107q190 104 279 246.5t89 355.5q0 106 -22 184q-16 57 -68 172q-10 25 -45 80q-201 205 -530 264l-172 31h-549q-50 0 -50 -54q0 -6 1 -12l26 -337v-367q0 -23 -10 -66t-10 -65v-281 q0 -23 -13 -157zM643 305q0 33 16 279l5 61q8 45 26 66q6 1 14 1q16 0 41 -3q80 -23 134 -72q65 -59 65 -133q0 -43 -43 -131q-18 -37 -95 -98.5t-114 -61.5q-49 0 -49 92zM682 246q78 27 149 100q80 82 80 156q0 98 -139 160q-37 16 -43 16h-27q-21 -182 -21 -361 q0 -35 1 -71z" />
<glyph unicode="e" horiz-adv-x="1247" d="M6 -317q0 37 12 96q16 70 19 96q23 241 23 358q0 28 -1 50l-47 837v10q0 64 51 64h490l551 47h7q92 0 114 -199q6 -92 20 -278q-33 -27 -77 -27h-11l-22 2q-12 0 -52 2l-73 2h-9q-60 0 -303 -22q-4 0 -16 -8v-86h365v-387h-302q-25 -4 -57 -25v-82q8 -4 53 -6l389 53 q33 0 56 -20q-2 -45 -15 -135q-29 -119 -32 -207l-9 -160q-6 -10 -18 -29h-702h3q0 -2 -153 -14l-149 -12q-9 -1 -17 -1q-87 0 -88 81zM47 -344q35 -20 57 -21q33 0 97.5 13.5t97.5 13.5h786q14 31 19 111l6 147q2 35 23 117l20 80v24h-94q-57 0 -172 -26.5t-172 -26.5 q-66 0 -66 64q0 120 36 120h1h330v314h-344q-29 23 -29 82q0 80 35 86q137 22 303 22h14q41 0 82 -2l80 -4h7q48 0 48 27q-2 20 -22 121q-6 35 -27 135v75q0 51 -12 74h-78q-16 0 -50 -5t-50 -5q-84 0 -158 -12q-88 -14 -88 -17h2h-647q-29 0 -29 -55v-14l39 -820 q2 -42 2 -86q0 -132 -18 -286z" />
<glyph unicode="f" horiz-adv-x="1167" d="M27 -334l32 373q0 29 -7 83t-7 83v325l-12 492v22q0 107 37 107h168l69 8q70 8 144 8q131 0 215 11q219 27 319 41q104 14 104 16h-2q80 0 80 -61q0 -23 -8 -62q-8 -49 -10 -63q-7 -73 -7 -165q0 -62 3 -132q-20 -20 -117 -21q-27 0 -77 3t-77 3q-82 0 -182 -14 q-12 -10 -24 -88q0 -35 32 -35l244 27q78 0 78 -58q0 12 -1 12q-2 0 -11 -79q-11 -111 -11 -129q2 -12 7 -70q2 -20 2 -36q0 -23 -4 -34q-12 -26 -57 -26h-3h17q0 1 -99 4l-155 2q-18 -16 -19 -88q0 -109 6 -217q12 -43 25 -105l22 -118q0 -16 -14 -33t-31 -17h-286 l-316 -32q-39 0 -53 12t-14 51zM68 -362l354 32h278q-51 244 -51 514q0 66 111 66q12 0 35.5 -2t35.5 -2q92 0 136 -6q4 2 4 47v166q0 16 6 49t6 49q0 43 -43 43q-37 0 -112.5 -13.5t-112.5 -13.5q-49 0 -56 2q-25 10 -24 64q0 70 22.5 102.5t87.5 32.5q-229 -2 -229 -3 t358 -1h240v108q0 105 12 322q-6 0 -19 4t-22 4q-23 0 -133 -20q-53 -10 -202 -31q-268 -29 -373 -29h-291v-1245q0 -33 -12 -119q-7 -54 -7 -92q0 -15 1 -28z" />
<glyph unicode="g" horiz-adv-x="1509" d="M12 356q0 150 43 279q12 41 80 133q166 225 406 330q156 68 426 106q213 31 245 31q16 0 54.5 -12.5t42.5 -22.5q12 -33 43 -217q57 -147 57 -190q0 -31 -20 -60q-39 -14 -82 -14q-537 -4 -609 -275q-23 -86 -22 -106q0 -78 47 -141q51 -70 125 -70q16 0 37 18v37 q-18 12 -49 13h-52v346h484q27 0 81 10t81 10q77 0 77 -74q0 -33 -10 -99t-10 -99v-461q0 -43 -330 -158q-76 -14 -215 -32q-115 -14 -139 -15q-246 0 -451 117q-223 127 -305 344q-35 92 -35 272zM39 377q0 -219 88 -368.5t281 -256.5q174 -96 362 -96q387 0 682 178 q-1 18 -1 43.5t1 59.5l2 69v232q0 -27 4 40.5t4 81.5q1 32 1 52t-1 28l-8 80h-100q-10 0 -30.5 -6t-29.5 -6h-477v-289q14 6 45 6q61 0 62 -55q0 -76 -78 -76q-92 0 -150 76q-53 70 -53 164q0 168 117 272q106 96 278 123q119 18 324 29q4 8 14 20q-20 70 -57 205 q-12 74 -37 199q-18 14 -102 14q-25 0 -148 -8q-49 -14 -98 -23q-379 -57 -612 -245q-283 -227 -283 -543z" />
<glyph unicode="h" horiz-adv-x="1607" d="M18 -303q0 18 2 47l33 393v197q0 33 13 86l10 252l-37 420q0 57 41 73q25 10 90 11q25 0 76 -3.5t76 -3.5q53 0 160.5 16.5t160.5 16.5q45 0 68 -20v-473q6 -4 30 -4q27 0 146 20q8 6 22 16q0 -18 -2 41l-6 174q0 23 -5 72t-5 76q0 92 70 92h176l333 33q47 0 60 -15 q4 -80 4 -231v-223q0 -18 6 -55t6 -56v-270q0 -27 10.5 -78t10.5 -78v-164l45 -299q1 -7 1 -14q0 -51 -69 -51h-2h-201q-61 0 -176.5 -36t-177.5 -36q-51 0 -76 23l7 446q8 16 8 29q0 23 -33 26h-53q-88 0 -160 -20q-12 -20 -12 -41q0 -14 6 -117l10 -172q0 -16 8 -54t8 -58 q0 -23 -20 -56h-184q-27 0 -82.5 7.5t-81.5 7.5q-37 0 -112 -13.5t-111 -13.5q-68 0 -84 33q-6 12 -7 47zM45 -268q0 -12 4 -37t4 -37q18 -8 45 -8q23 0 68 11t67 11q31 0 99 2l67 2q14 0 42 -7t42 -7h179q-27 268 -27 420q0 37 8 55q20 43 199 43q74 0 82 -4q33 -14 32 -84 q0 -156 -8 -229q-14 -133 -16 -133v2q0 -47 26 -76h66q18 0 70.5 20.5t71 22.5t110.5 10l51 10q41 8 27 9l24 -2q10 0 47 -2l72 -3h7q72 0 75 43l-45 302v178q0 25 -10.5 70.5t-10.5 70.5v270l-18 340q0 55 -2 201l-336 -33h-170q-18 0 -63 -14q0 -53 10 -156l10 -102v-176 q-10 -10 -18 -17q-142 -26 -222 -26h-6q-31 25 -31 123q0 14 1 30l16 328q-2 6 -18 16h-66q-8 0 -22.5 -5t-18.5 -5q-122 -22 -167 -22h-9l-27 2q-12 0 -57 2l-82 2h-17q-95 0 -126 -21l-2 -41l32 -397q2 -24 2 -57t-2 -74l-6 -135q0 -12 -6 -39t-6 -39v-209z" />
<glyph unicode="i" horiz-adv-x="972" d="M6 -39q0 25 21 53q4 0 88 11q51 6 73 28q0 25 10.5 72t10.5 72v274q0 14 7 45t7 45q0 31 -6 89.5t-6 88.5q-152 0 -152 41v361q0 25 35 26q197 12 563 35q31 2 100.5 17.5t106.5 15.5q10 0 49 -12.5t41 -16.5q0 -14 11 -170q6 -92 6 -168q0 -72 -29 -82q-5 -3 -50 -3 q-22 0 -54 1q-12 -72 -13 -120v-330q0 -170 13 -273q92 -2 110 -10q29 -17 29 -80q0 29 -6 -32q-4 -51 -6 -93q-4 -70 -4 -168q-10 -18 -33 -20l-299 -14q-88 -4 -162.5 -4t-134.5 4l-252 -33q-4 -4 -10 -4q-14 0 -30.5 13t-19.5 26q4 53 7 157l-13 78q-8 49 -8 80zM47 -18 v-86q6 -59 10 -170q-2 -18 -2 -31q0 -39 13 -45q82 8 243 26l465 7q37 0 154 20v180q0 23 7 66.5t7 66.5q-10 4 -78 4q-51 0 -59 21q-26 65 -26 208q0 28 1 58q3 78 4 78v-8l13 428q47 6 137 24q-8 61 -10 179l-4 166q0 28 -47 28h-3q-49 0 -133 -16q-94 -18 -133 -21 q-344 -23 -508 -28v-353h95q49 -8 53 -57q10 -133 10 -147q-8 -129 -18 -390q-2 -55 -17 -155q-23 -41 -78 -47q-27 -4 -96 -6z" />
<glyph unicode="j" horiz-adv-x="1257" d="M6 401q12 27 168 29l311 6q39 0 58.5 -85t50.5 -85q61 0 61 275q0 221 -63 467q-8 31 -8 108q8 6 20 19q242 20 330 36q23 4 108 35q78 29 95 29q74 0 92 -121q4 -98 8 -178q14 -238 14 -291q0 18 -1 18t-7 -108l-10 -168q2 -29 2 -58q0 -266 -150 -483 q-53 -76 -161.5 -145.5t-198.5 -81.5q-59 -8 -90 -8q-166 0 -266 41q-49 20 -117 78.5t-98 103.5q-102 154 -125 356zM39 354q0 -49 33 -202l20 -97l14 -63q156 -348 529 -348q160 0 297 110q125 100 192 256q76 175 76 364v19q2 25 10 142l9 110q2 29 2 64q0 98 -37 458 q-2 10 -27 35q-76 -27 -217 -63q-115 -12 -324 -41l46 -267q26 -152 26 -291v-10q0 -133 -4 -161q-20 -143 -94 -144q-53 0 -72 80q-2 6 -14 90h-225q-8 2 -28 -4t-26 -6q-66 0 -186 8v-39z" />
<glyph unicode="k" horiz-adv-x="1638" d="M20 1110q-1 7 -1 13q0 36 20 46q8 4 70 11l579 55q41 0 70 -16q10 -18 10 -70v3q-1 0 -14 -196l4 -88q57 78 174 326q10 23 78 29l403 -60q78 12 123 13q113 0 109 -60l-420 -571q90 -115 157 -174q20 -12 60 -43q33 -37 157 -146q52 -45 52 -96q0 -31 -39 -63 q-16 -14 -66 -56l-381 -336q-16 -14 -88 -14q-12 14 -157 244q-86 135 -195 221v-22q0 -59 8 -162l15 -174l-37 -29h-387l-209 -27q-18 0 -60 15q-10 31 -10 69q0 29 7 88.5t7 87.5v432q0 49 -14 144l-6 368zM53 1096q0 -18 8.5 -54t8.5 -53l16 -399v-230q0 -12 6 -102 l6 -104l-18 -445q6 0 19.5 -4t19.5 -4q31 0 87 13.5t85 13.5l422 14q-25 186 -25 356q27 23 37 23q23 0 109 -96q78 -86 103.5 -128t82.5 -135q10 -16 63 -98q9 -14 30 -14h5l500 438q-4 31 -51 70q-66 55 -80 69q-45 47 -205 193q-90 82 -90 125q0 53 414 555v37h-207 q-82 1 -242 27q-138 23 -138 26h3q-10 0 -28.5 -4t-28.5 -4q-8 -47 -111 -224q-33 -57 -74 -122q-12 -12 -43 -13q-20 10 -18 56q0 31 4 125l8 184q-20 14 -47 14q-23 0 -69 -13t-68 -13h-176q-12 0 -37 -8.5t-37 -8.5q-43 -6 -244 -22v-41z" />
<glyph unicode="l" horiz-adv-x="1191" d="M20 -348q0 8 11 121q14 160 14 188l-6 983q0 72 -12 211q-6 35 -7 21q10 12 35 24q19 3 51 3q16 0 35 -1l191 -6q20 2 157 16l156 17q96 0 96 -53l-59 -619l-6 -305q0 -27 37 -29l-12 1q0 1 59 1l342 33q76 0 90 -20q1 -14 1 -25q0 -23 -3 -37q-43 -211 -43 -299v-199 q-15 -13 -68 -13q-26 0 -61 3q-12 1 -26 1q-29 0 -68 -5l-64 -8h-227q-18 0 -56 -3t-57 -3l-426 -47q-74 0 -74 49zM53 1081q2 -16 19 -98l16 -524l-29 -815h95l315 39q15 -8 47 -8q10 0 21 1l272 21h311q-14 61 -14 139q0 86 18 205l29 184l-387 -32q-20 -2 -36 -2 q-66 0 -81 26q-6 10 -6 127q0 213 14 383q10 117 43 461q-8 0 -25.5 4t-25.5 4q-27 0 -71 -10q-51 -12 -70 -15q-70 -8 -168 -8h-287v-82z" />
<glyph unicode="m" horiz-adv-x="2011" d="M27 -344q0 49 49 207q96 307 174 721q4 25 53 334q4 78 33 231q6 18 80 22q158 8 262 27q189 33 189 37h-3q51 0 64 -29q4 -27 18 -78q25 -55 80 -170q23 -68 72 -200q33 76 76 207q49 160 67 209q12 35 74 34h16l197 -12h12q36 0 98 10q72 12 105 11q27 0 55 -19 q2 -51 14 -168l37 -360q10 -37 29 -113q-2 10 -2 -53q2 -2 16 -31q23 -244 70 -524q4 -25 29 -99q20 -63 20 -100t-33 -49q-12 0 -186 -16q-27 -2 -203 -37q-125 -25 -135 -25q-78 0 -78 64v182q0 57 -16 115q-29 -100 -90 -306q-59 -4 -178 -18l-148 -31q-78 0 -96 78 q-18 143 -66 316q-6 -51 -26 -162q-2 -14 -6 -125q-2 -92 -58 -111q-10 -4 -66 -4q-38 0 -96 2l-241 6q-35 0 -101.5 -9t-99.5 -9q-61 0 -61 45zM59 -315v-41q112 18 198 18h17l406 -6q16 8 18 29l33 243q4 147 45 148q43 0 62 -96l39 -211q10 -49 36 -99q113 16 338 39 q2 4 52 211q29 117 61 117q45 0 45 -189v-163q8 -23 55 -23h-3q0 4 331 57q63 4 180 17q0 2 3 9t3 13t-11 32t-13 34l-45 256q-16 119 -64 465q-12 72 -39 289l-39 342h-86q-10 0 -29.5 -5.5t-29.5 -5.5q-68 -3 -130 -3t-120 3q-22 1 -40 1q-44 0 -58 -7q-10 -27 -76 -233 q-51 -162 -82 -209h-33q-10 0 -20 31q-39 111 -105 268q-45 109 -49 151q-8 10 -20 29q-33 -6 -512 -70q-39 -293 -90 -569q0 -4 -103 -418q-51 -205 -78 -297z" />
<glyph unicode="n" horiz-adv-x="1527" d="M16 -311q39 268 93 856q27 291 26 332v233q0 29 25 61q57 4 256 33q158 23 170 23q43 0 78 -58q10 -18 47 -94q125 -203 260 -405q2 47 2 311q-4 33 -12 74q-10 51 -11 71q0 55 92 56q35 0 74 -2l76 -4h12q46 0 123 13q88 15 129 15h2q74 0 74 -62v-9q-20 -94 -23 -271 l-8 -815l25 -264q0 -39 -19 -64q-68 -14 -295 -65q-178 -41 -190 -41q-45 0 -61 31q-94 170 -168 274q-31 43 -199 260v-465q-24 -26 -71 -26h-3q-25 0 -72 4t-71 4l-144 -12l-147 -11h-7q-35 0 -63 17zM53 -289q21 -5 46 -5q13 0 26 1q31 4 137 19h295v366q2 12 -4 43 t-6 41q0 31 22 41h37l211 -276q121 -160 180 -291q11 -1 24 -1q54 0 130 21l152 45q41 6 114 23h43q23 2 33 29v1407h-47q-23 0 -84 -21q-53 -8 -176 -8q-178 0 -185 -2v-492q-12 -20 -28 -20q-35 0 -168 225q-57 98 -174 301q-18 33 -66 33q27 0 23 -2t-41 -7t-107 -14 q-182 -20 -256 -26q-47 -838 -131 -1430z" />
<glyph unicode="o" horiz-adv-x="1609" d="M0 367q0 70 31 223q14 68 30 125q217 520 779 520q231 0 409 -102q20 -8 60 -25q199 -109 264 -328q33 -108 33 -276t-95 -420q-20 -29 -34 -53q-74 -135 -213 -254q-68 -57 -179 -107q-16 -2 -53 -10q-12 -10 -39 -22q-158 -20 -239 -21q-315 0 -543 244 q-211 227 -211 506zM39 350q0 -170 115 -364q63 -106 184 -194.5t242 -115.5q94 -20 202 -20q80 0 179 14q23 10 65 29q16 2 39 4q23 14 59 37q123 51 246 199q82 98 103 151q53 137 67 191q27 91 27 200q0 162 -23 267q-14 68 -86 178q-43 68 -176 155q-16 6 -45 19 q-164 96 -424 96q-358 0 -571 -248q-203 -233 -203 -598zM623 449q0 117 28 176q14 31 68.5 78t83.5 47q33 0 80 -23q106 -51 106 -223q0 -92 -45 -191q-61 -133 -168 -133q-78 0 -121 101q-32 74 -32 163v5zM655 442q0 -72 29 -139q37 -84 98 -84q82 0 136 125 q38 92 38 158q0 51 -41 147q-10 23 -26 33q-59 35 -86 35q-18 0 -64.5 -47t-58.5 -72q-25 -68 -25 -156z" />
<glyph unicode="p" horiz-adv-x="1417" d="M6 -229l27 354v176l12 623q0 10 -10 123l-8 88q0 14 14 51q156 37 561 37q215 0 287 -11q8 -2 26 -8q227 -27 363 -160q143 -139 143 -362q0 -266 -342 -455q-119 -66 -372 -114q-12 -6 -13 -21l39 -344q0 -72 -51 -72h-109q-90 -16 -292 -43q-169 -22 -188 -22h-1 q-87 0 -87 127q0 16 1 33zM39 -209q-1 -7 -1 -16q0 -22 4 -54q5 -45 5 -63q26 -14 44 -14h5l604 80l-38 368q0 41 18 47q182 37 254 62q121 41 233 118q222 156 222 375q0 176 -101.5 297t-275.5 160t-217 39h-463q-14 -2 -90 -10q-2 0 -95 -9q-72 -6 -88 -22l19 -178 l-12 -867zM596 672q0 18 16 141q45 16 80 16q66 0 111 -26q55 -33 55 -92q0 -76 -76 -147q-67 -63 -136 -63q-7 0 -15 1q-8 10 -21 28q0 25 -7 71t-7 71zM629 698v3q2 0 20 -166q55 6 115.5 62.5t60.5 111.5q0 41 -41 67.5t-84 26.5q-72 0 -71 -105z" />
<glyph unicode="q" horiz-adv-x="1488" d="M6 485q0 37 29 185q20 57 65 170q82 127 144 188q61 45 121 88q80 57 122 72q125 41 271 41q160 0 312.5 -79t244.5 -210q100 -143 100 -362q0 -244 -102 -388q-35 -49 -35 -59q0 -16 195 -194q14 -12 14 -41q0 -31 -101 -91q-20 -12 -122 -73q-12 -8 -84 -74 q-43 -41 -88 -41q-39 0 -48 8l-57 105q-47 84 -76 84q-8 0 -49 -18.5t-51 -20.5q-63 -14 -152 -15q-129 0 -282 41q-10 4 -47 29q-84 53 -164 143q-96 109 -103 185q-12 31 -28 98zM39 518q0 -94 24 -231q29 -158 64 -217q170 -283 524 -283q86 0 166 20q92 39 113 39h2 q86 -76 131 -196h55q123 133 336 231q6 7 6 23q-49 43 -108 96q-106 98 -107 131q0 8 37 70l59 98q47 207 48 268q0 266 -181.5 447.5t-447.5 181.5q-170 0 -260 -35q-264 -102 -391 -383q-70 -154 -70 -260zM498 442q0 102 14 142q23 61 76 118q61 68 117 68 q74 0 131 -64.5t63 -142.5q16 -64 18 -64q1 0 1 1v-37q-14 -12 -46 -8q-59 8 -47 8q-29 0 -75 -47q-31 -37 -64 -72q-27 -16 -78 -57q-4 -16 -16 -45q-20 -8 -19 -9q-43 0 -63 99q-12 59 -12 110zM524 438q0 -41 13 -90q14 -63 38 -76q-1 4 -1 7q0 25 36 49q63 41 82 63 q29 35 80 88q10 8 53 8q42 0 60 -6v37q0 37 -35 119q-18 43 -51 65q-59 41 -94 41q-51 0 -113 -88q-55 -78 -60 -116q-8 -80 -8 -101z" />
<glyph unicode="r" horiz-adv-x="1480" d="M0 -274l20 280v178l7 695q4 20 4 45q0 29 -9.5 85t-9.5 85q0 47 17 67q121 31 190 39q272 29 348 29q92 0 355 -35q37 -12 135 -47q280 -111 280 -338q0 -127 -67 -227q-49 -74 -168 -170q137 -174 364 -346q15 -10 15 -39q0 -45 -66 -78q-31 -14 -65 -33 q-86 -61 -152 -117q-39 -33 -141 -141q-39 -41 -80 -41q-37 0 -45 8q-147 231 -299 412q-2 -23 -2 -47q0 -53 12 -133q16 -106 19 -133q-16 -23 -62 -23q-23 0 -69 4t-68 4l-393 -41q-8 0 -26.5 4t-29.5 4q-16 29 -14 50zM39 1104q0 4 1 4q3 0 19 -98l11 -424l-23 -883h53 q-12 0 -12 1q0 3 59 13q72 12 129 19q104 12 209 12h144l-39 289q-2 4 -2 10q0 29 35 29q49 0 186 -205q37 -57 137 -207q10 -14 33 -14q25 0 104 80l103 102q49 41 143 111q39 20 119 69v23q-76 55 -227 201q-160 154 -160 178q0 10 63 63q180 150 181 330q0 127 -117 227 q-106 92 -240 111q-35 6 -190 33q-70 12 -174 12q-143 0 -316 -19q-229 -25 -229 -67zM563 623v-12q1 -1 5 81q4 80 4 108q0 11 -1 13q16 23 62 23q61 0 101 -36t40 -95q0 -53 -56 -115t-108 -62q-25 0 -39 9q0 14 -4 42.5t-4 43.5zM604 803q0 -211 4 -242q43 10 88 56.5 t45 87.5q0 39 -36.5 71.5t-75.5 32.5q-4 0 -13.5 -3t-11.5 -3z" />
<glyph unicode="s" horiz-adv-x="1341" d="M12 -279q0 -31 6 -31q13 0 54 154q10 39 80 334q10 41 81 41q45 0 145.5 -36t151.5 -36q31 0 74 31q0 63 -131 137q-45 25 -133 74q-72 43 -109 107l-24 73q-10 31 -10 86q0 291 231 435q172 106 498 143q18 2 198 2q127 0 127 -35v-225q0 -41 13.5 -121t13.5 -121 q0 -28 -71 -28h-5q-25 0 -75 6t-74 6q-37 0 -78 -12q-63 -18 -64 -50q0 -39 176 -116q256 -181 256 -398q0 -313 -342 -440q-215 -79 -457 -79q-32 0 -65 1l-266 12q-98 4 -174 33q-27 10 -27 53zM45 -279q0 -18 10 -26q336 -39 416 -39q332 0 539 82q301 118 301 397 q0 207 -201 344q-78 53 -129 78q-102 49 -102 102q0 41 67 68q53 23 103 23q14 0 77 -7l105 -10q4 4 14 19v28q0 33 -22 197v84q0 14 2 45t2 45q0 51 -70 51q-190 0 -225 -2q-104 -6 -248 -39q-68 -27 -138.5 -56.5t-129.5 -70.5q-88 -61 -119 -110q-74 -121 -74 -258 q0 -74 62 -189q35 -39 104 -78q33 -18 119 -65q127 -74 127 -144q0 -35 -31 -55t-67 -20q-18 0 -179 35q-10 2 -43.5 19t-35.5 17h-89q-53 -219 -114 -395q0 -4 -15.5 -32.5t-15.5 -37.5z" />
<glyph unicode="t" horiz-adv-x="1325" d="M20 684q0 39 16.5 112.5t16.5 112.5q0 25 -5 72t-5 72q0 49 18 96q8 20 91 20q25 0 90 -8q43 -5 72 -5q10 0 18 1l897 72q9 1 17 1q77 0 77 -67q0 -41 -25.5 -118.5t-25.5 -118.5v-187q0 -94 -92 -94l-207 21l-10 -7q0 -53 4 -188l10 -340q8 -78 35 -229q43 -156 43 -164 q0 -49 -35 -82l-551 -27q-27 -2 -91.5 -10t-98.5 -8q-14 0 -62 12q-1 14 -1 27q0 90 24 162q51 158 75 405q10 115 39 410h-16q-47 0 -123 -9l-106 -12q-51 0 -70 14.5t-19 63.5zM59 647q6 0 21.5 -4t23.5 -4l244 27q39 0 39 -31q0 -154 -76 -668q-4 -27 -35 -141 q-27 -98 -26 -121v-55h112q20 0 57.5 8t55.5 8l367 19q63 4 159 6q20 18 21 47q0 25 -25 104q-29 92 -31.5 110.5t-11.5 100.5q-4 23 -10 90l-20 490q-2 45 10 55t59 10q33 0 99.5 -10t99.5 -10q20 0 37 22l6 160q4 82 31 221q2 10 13 41t11 47q0 27 -28 27l-557 -55l-7 6 l-389 -14q-10 0 -55 2l-80 2h-12q-67 0 -84 -21q0 4 2 -39q2 -33 4 -86l2 -100q-2 -37 -14.5 -119t-12.5 -125z" />
<glyph unicode="u" horiz-adv-x="1519" d="M6 612q0 356 55 510q7 22 100 22q15 0 32 -1l481 -13q8 -14 8 -43q0 -25 -12 -63q-16 -45 -19 -61q-41 -260 -41 -361q0 -86 31 -180q47 -143 135 -143q68 0 111 233q31 166 31 238l-33 335q0 59 28 62q147 16 308 41l221 35q43 0 57 -15.5t14 -60.5q0 -8 -10 -76 l-16 -108l-6 -865q0 -43 4 -98l10 -131q2 -23 14 -82q11 -51 11 -82q0 -76 -84 -76l-142 15q-43 0 -126 -13.5t-126 -13.5q-51 0 -65 10q-20 13 -20 52q0 9 1 20v4l-114 -47q-78 -33 -115 -33h-188q-51 0 -119 35q-211 111 -301 262q-31 51 -58 184q-57 283 -57 508zM45 639 q0 -299 45 -475q4 -51 55 -217q14 -35 41 -62q113 -117 199 -166q111 -63 248 -63q121 0 178 20q10 4 78 37q59 29 67 29q41 0 41 -41q0 -18 -8 -43q49 -8 60 -8l245 26q25 0 72 -7t72 -7q49 0 49 39q0 43 -14 119q-14 86 -17 121q-14 229 -14 346v28l2 183q0 10 5 29.5 t5 29.5v274l21 351q-16 8 -37 8l-520 -80v-47q0 -12 8 -40t8 -40l10 -213q1 -14 1 -28q0 -136 -50 -367q-4 -16 -37 -66q-43 -63 -82 -63q-59 0 -98 49q-74 94 -88 164q-6 29 -6 153q0 92 10 172l22 177q2 14 17.5 55t15.5 51v31h-260l-237 20q-51 4 -58 -16 q-31 -100 -45 -262q-4 -47 -4 -201z" />
<glyph unicode="v" horiz-adv-x="1626" d="M6 1141q0 49 113 49q18 0 53 -3t53 -3h-3q0 1 95 8q41 2 168 25q109 18 164 18q76 0 76 -47v-107q0 -80 4 -137q20 -291 74 -495q20 49 45 143l37 147q14 63 57 232q12 88 39 180q10 33 25.5 42t54.5 9l563 -74q0 -2 4 -7t4 -13q0 -6 -18.5 -43t-20.5 -49 q-20 -111 -37 -178q-10 -39 -45 -101q-39 -68 -49 -96q-49 -135 -135 -477q-76 -299 -141 -477q-6 -16 -15 -25q-96 0 -147 2l-102 4h-20q-117 0 -486 -39q-8 4 -21 15l-84 329zM47 1120l381 -1458h59q29 0 81.5 11.5t72.5 13.5q51 6 174 10l98 4l240 -4q55 221 133 518 q61 236 144 438q25 57 73 170q43 98 51 178q2 12 16.5 49.5t14.5 43.5q0 16 -6 16q-82 10 -303 29q-25 2 -81 16t-85 14q-16 0 -46 -3t-46 -3q-45 -209 -180 -735q-4 -6 -17 -18h-33q-12 0 -20 30q-70 283 -80 756q-6 0 -18.5 3t-18.5 3l-313 -47h-291v-35z" />
<glyph unicode="w" horiz-adv-x="1935" d="M12 1118q0 29 17 45h170q74 0 215 36t213 36q55 0 55 -80q0 -25 -9 -73t-9 -72q2 -66 14 -293q20 51 100 352q10 39 13 43q10 27 24 35q29 2 125 24l129 31q56 13 96 13q10 0 19 -1q27 -35 27 -73q0 -13 -3 -27q-8 -34 -8 -59q0 -22 6 -37q20 -53 32.5 -161.5 t29.5 -158.5q47 156 51 476q27 23 57 22q20 0 142 -12l141 -15l266 7q21 -15 21 -50q0 -6 -58 -213l-90 -323q-41 -143 -117 -500l-86 -399q-10 -8 -51 -8q-10 0 -28.5 3t-28.5 3q-57 0 -167 -30t-167 -30q-51 0 -57 2q-53 6 -64 115q-2 27 -12 96q-4 18 -74 267 q-2 -2 -8 -13q-63 -227 -94 -411q-6 -35 -29 -35h-227q-51 0 -144 -15q-100 -16 -141 -18q-25 25 -27 49q-6 109 -55 424l-106 533q-18 45 -35 116q-68 303 -68 379zM45 1122q23 -123 68 -362q20 -57 34 -111q39 -154 86 -434q6 -45 25 -176q8 -27 21 -72q10 -106 43 -317 h47q41 0 120.5 18.5t116.5 18.5q119 0 199 4q0 35 18 98l27 92q2 6 49 223q6 29 29 50h30q31 -41 58 -154l43 -178q6 -51 10 -103q11 -57 68 -57h8l350 59q72 0 78 3q0 37 8 71q16 72 68 295q68 305 149 637q99 397 113 397q2 0 2 -10v23h-357q-12 0 -64 10t-60 8h-95 q12 -6 13 -16q-4 -254 -41 -437q-6 -29 -21 -45h-39q-6 6 -16 19q-27 176 -37 262q-10 29 -25 70v174h-41q-6 0 -118 -25l-170 -37q-4 -4 -21 -24q-18 -111 -108 -408q-4 -16 -41 -16q-12 0 -29 18v162q0 23 -7 68t-7 67q0 18 18 209h-74q6 0 -145 -37q-59 -14 -195 -29 q-178 0 -188 -8z" />
<glyph unicode="x" horiz-adv-x="1677" d="M0 1114q0 49 96 49h189l377 54q41 0 45 -13q12 -25 104 -297h4q35 98 111 291q27 11 64 11q11 0 22 -1l469 -41l10 9h94q8 -12 8 -39q0 -43 -10 -64q-14 -29 -108 -151q-20 -27 -107 -179q-96 -170 -96 -198q0 -27 108 -262q14 -31 70 -158q12 -29 135 -244 q92 -162 92 -180q0 -57 -82 -57q-31 0 -91 6t-91 6h5q0 -1 -91 -4q-47 0 -143 -4q-38 -2 -108 -14q-62 -10 -61 -11h1q-55 0 -64 23q-70 201 -112 325q-39 -88 -58 -155l-45 -164q-6 -23 -71 -23q-27 0 -78 11.5t-76 11.5q-32 4 -98 4h-47l-242 -6h-18q-61 0 -99 12 q-1 17 -1 31q0 35 7 47q84 109 160 229q279 446 279 494q0 37 -95 170q-66 92 -125 164l-118 141q-115 137 -115 176zM39 -281v-30h469q37 -8 98 -17q23 -3 44 -3q33 0 63 7q23 174 110 334h31q23 -25 29 -43q49 -143 102 -311h27q29 0 86 12.5t86 12.5q57 0 143 4l86 4h15 q30 1 78 -5q60 -8 87 -8q27 1 52 21q-4 14 -156 272q-33 55 -129 264q-121 260 -121 312q0 23 76 168q27 53 115 209q18 25 122 165v62h-28q-123 0 -271 10q-207 14 -295 17q-37 -39 -63 -156q-4 -20 -18 -82q-18 -76 -64 -76q-27 0 -33 17q-29 68 -96 295q-2 2 -12 10 l-244 -35q-172 -25 -235 -25q-145 0 -154 -2v-22q61 -92 147 -193q53 -59 160 -182q29 -35 82 -131q57 -104 57 -135q0 -12 -110 -213q-197 -356 -336 -527z" />
<glyph unicode="y" horiz-adv-x="1564" d="M6 860v254q0 16 23 45q33 16 59 17q23 -2 145 -13l144 -12q10 -1 22 -1q34 0 85 8q71 11 102 11q43 0 53 -4q23 -8 23 -45t-23 -106.5t-23 -106.5q0 -61 37 -133q41 -82 97 -82q51 0 94 103q24 57 24 258v16q-4 35 -8 105q17 22 55 22h3q12 0 39.5 -4t41.5 -2l476 39 q4 0 57 -2q29 -37 29 -125q0 -221 -78 -420q-88 -225 -248 -342q-53 -39 -148 -86q0 -115 23 -385q2 -27 21.5 -83t19.5 -87q0 -18 -4 -35q-12 -29 -45 -29h12q0 -1 -55 -2q-80 -2 -123 -2l-166 -2h-197q-25 0 -73.5 -9t-73.5 -9q-78 0 -78 57q0 35 33 152q37 127 43 168 q33 255 35 255v-1q0 14 -86 53q-72 31 -121 57q-168 127 -217 322q-29 113 -29 186zM33 1061l6 -209q4 -156 88 -299q86 -152 221 -219q45 -14 88 -31q49 -25 49 -70q0 -29 -28 -251q-6 -41 -43 -164q-33 -115 -33 -150q0 -16 8 -24l723 32q5 14 5 32t-5 38q-49 193 -55 340 q-2 51 -2 123v41q4 29 30 39q61 25 139.5 87t123.5 120q16 23 100 200q27 59 53.5 192.5t26.5 203.5q0 103 -2 103v-1l-633 -39q10 -92 10 -168q0 -170 -59 -270q-35 -57 -90 -58q-72 0 -125 93q-45 78 -45 143q0 10 39 242q-183 -20 -245 -20q-11 0 -18 1l-301 25 q-2 -10 -14 -45q-12 -27 -12 -37z" />
<glyph unicode="z" horiz-adv-x="1615" d="M6 -328v-1q1 0 10 93q2 20 2 42t-2 47q-6 74 -6 88q0 47 10 79q6 12 46 39q49 33 53 37q84 74 264 277q37 43 149 174q45 53 111 133l-463 -41q-41 0 -51 13.5t-10 56.5q0 33 8 84q12 74 14 86t2 39q0 39 -4 110q-1 27 -1 52q0 60 7 100q6 28 89 28h6q39 0 186 -8 l184 -10l434 6l447 33h12q45 0 70 -27q0 -20 -10 -84q-6 -39 -9 -57q-1 -12 -1 -27q0 -33 6 -80q10 -78 10 -106q0 -51 -25 -90q-39 -18 -176 -127q-39 -31 -178 -174q-160 -164 -219 -260l198 -4q40 -1 75 -1q70 0 122 3q25 2 88 10q57 8 90 8q47 0 51 -2q31 -8 31 -47 q0 -14 -33 -131q-39 -143 -39 -146q-10 -70 -41 -237l-460 28l-310 -22h-196l-481 -45q-59 0 -60 61zM39 -309q0 -12 14 -47h17q274 37 426 45q362 21 497 21q27 0 45 -1l455 -20q4 115 37 243q18 72 63 240q-6 6 -69 8q-228 -26 -352 -26h-9q-188 0 -227 18q-1 5 -1 11 q0 48 83 143q117 131 170 186q109 115 186 172q39 29 144 107q16 12 16 47v352h-100q-6 0 -179 -21l-796 -12h-25q-92 0 -256 12q-2 -33 -2 -69q0 -29 3 -87.5t3 -86.5q0 -35 -15 -102.5t-15 -102.5v-43h106l377 39q47 0 47 -33q0 -37 -215 -272q-49 -53 -234 -252 q-12 -16 -180 -158v-276q0 -10 -7 -21.5t-7 -13.5z" />
<glyph unicode="&#xa0;" />
<glyph unicode="&#x2000;" horiz-adv-x="824" />
<glyph unicode="&#x2001;" horiz-adv-x="1648" />
<glyph unicode="&#x2002;" horiz-adv-x="824" />
<glyph unicode="&#x2003;" horiz-adv-x="1648" />
<glyph unicode="&#x2004;" horiz-adv-x="549" />
<glyph unicode="&#x2005;" horiz-adv-x="412" />
<glyph unicode="&#x2006;" horiz-adv-x="274" />
<glyph unicode="&#x2007;" horiz-adv-x="274" />
<glyph unicode="&#x2008;" horiz-adv-x="206" />
<glyph unicode="&#x2009;" horiz-adv-x="329" />
<glyph unicode="&#x200a;" horiz-adv-x="91" />
<glyph unicode="&#x202f;" horiz-adv-x="329" />
<glyph unicode="&#x205f;" horiz-adv-x="412" />
<glyph unicode="&#xe000;" horiz-adv-x="1218" d="M0 0v1219h1219v-1219h-1219z" />
</font>
</defs>
</svg>
