<?xml version="1.0" standalone="no"?>
<!DOCTYPE svg PUBLIC "-//W3C//DTD SVG 1.1//EN" "http://www.w3.org/Graphics/SVG/1.1/DTD/svg11.dtd" >
<svg xmlns="http://www.w3.org/2000/svg">
<metadata></metadata>
<defs>
<font id="londrina_shadowregular" horiz-adv-x="950" >
<font-face units-per-em="2048" ascent="1638" descent="-410" />
<missing-glyph horiz-adv-x="487" />
<glyph horiz-adv-x="2048" />
<glyph horiz-adv-x="2048" />
<glyph unicode="&#xd;" horiz-adv-x="2048" />
<glyph unicode=" "  horiz-adv-x="487" />
<glyph unicode="&#x09;" horiz-adv-x="487" />
<glyph unicode="&#xa0;" horiz-adv-x="487" />
<glyph unicode="!" horiz-adv-x="395" d="M41 1055q0 207 12 403h23q122 15 166 15q66 0 108 -15q0 -4 -1 -15t-1 -16q29 -4 43 -10q0 -99 -4 -303.5t-4 -308.5q0 -269 12 -506q-105 -12 -309 -12v41h-41v143q0 99 -2 292t-2 292zM51 45q0 27 6 100t6 111q46 20 105 20q29 0 91.5 -4t94.5 -4q0 -4 -1 -18t-1 -23 h43q0 -39 -3 -137.5t-3 -148.5h-35q-8 0 -21 1t-20 1h-41l-153 -2q-24 0 -27 41h-14q-16 0 -21.5 15.5t-5.5 47.5zM61 1051q0 -94 2.5 -282t2.5 -282v-139h2q225 6 264 10q-10 195 -10 471q0 350 8 613q-34 10 -84 10q-58 0 -168 -14h-6q-11 -180 -11 -387zM72 33 q0 -31 6 -31l153 2h5q15 0 37.5 -1t39.5 -1h15q0 18 6 246q-25 0 -80.5 4t-83.5 4q-56 0 -86 -12v-2q0 -28 -6 -106t-6 -103z" />
<glyph unicode="&#x22;" horiz-adv-x="763" d="M47 1128v76q0 105 6 258h23l37 4q49 9 118 9q72 0 86 -23v-22q31 -3 41 -19q0 -54 2 -281t2 -249h-98q-13 0 -44 -1t-48 -1q-67 0 -82 4v37q-13 0 -41 4q0 44 -1 113t-1 91zM68 1231q0 -30 1 -121.5t1 -167.5l59 -2q27 0 77 1t66 1h29v82q0 70 -2 233t-2 189 q-7 10 -49 10q-36 0 -103 -7t-69 -7h-2v-4q-6 -88 -6 -207zM442 1128v76q0 80 7 258h22l37 4q49 9 119 9q72 0 86 -23v-22q31 -3 41 -19q0 -54 2 -281t2 -249h-99q-13 0 -44 -1t-48 -1q-67 0 -82 4v37q-13 0 -41 4q0 44 -1 113t-1 91zM463 1231q0 -30 1 -121.5t1 -167.5 l59 -2q28 0 78 1t66 1h28v82q0 70 -2 233t-2 189q-7 10 -49 10q-36 0 -103 -7t-69 -7h-2v-4q-6 -88 -6 -207z" />
<glyph unicode="#" horiz-adv-x="1343" d="M16 586q41 -41 154 -41q45 0 80 2q2 4 6.5 24.5t16.5 60.5t30 91q-3 0 -69.5 -1t-149.5 -1v41h-41l-2 268q30 -18 203 -18q67 0 108 2h21q5 0 11 -1t9 -1q16 0 53 121t52 198q33 -6 280 -14q0 -11 -4 -39q7 0 22.5 -1t22.5 -1q0 -7 -0.5 -14.5t-1 -14t-3 -16.5t-4 -17.5 t-5.5 -21t-7 -23.5l-9 -30t-10.5 -33.5t-13.5 -41.5t-15 -48h28h78h45q25 44 103 317q41 -10 83 -10q15 0 43 1t44 1q4 0 22.5 1t27.5 0t21.5 -4.5t18.5 -13.5t6 -26h9.5h9t7 -0.5t6.5 -3t4.5 -6t3.5 -9.5t1 -14q0 -9 -1 -17.5t-4 -21.5t-5.5 -23.5t-9 -31.5t-11.5 -37.5 t-16 -50t-19 -59.5h70v-41h41v-27l16 -211l-227 -6q-6 -18 -17.5 -56t-19.5 -59l-21 -61q15 -1 52 -1.5t74 -2t73 -4.5q3 -7 6 -16.5t4.5 -12.5t5 -6.5t9 -4.5t16.5 -1q12 -30 15 -54.5t3.5 -78t4.5 -101.5q-52 -7 -90.5 -8.5t-95 0t-181.5 -1.5q-3 -8 -18 -52t-29 -84 t-35.5 -91t-40.5 -86h-18q-28 -4 -97 -4q-51 0 -161 4q1 7 4 19.5t4 19.5q-16 2 -49 2q16 63 49 158.5t41 121.5h-12q-69 0 -132 -2q-20 -54 -41.5 -102.5t-50.5 -130.5l2 2l-3 -10q-2 -10 -3 -14t-4.5 -14.5t-6.5 -15.5t-8.5 -13t-11 -12.5t-13.5 -7.5t-17 -3q-32 4 -96 4 q-1 0 -148 -6q5 37 8 43q-28 0 -49 -3q19 109 84 275q-6 -2 -25 -2h-7q-21 0 -27 6t-11 37q-22 0 -36 2q-9 105 -9 291zM37 537q1 -25 1 -71t1 -83.5t4 -69.5h18q17 0 56.5 2t60.5 2q-6 -17 -22.5 -60t-25 -65.5t-20.5 -58.5t-20.5 -68t-15.5 -65q47 2 121 2q29 0 61.5 -1 t36.5 -1q11 0 19.5 10t12 20t8 27t5.5 19q21 55 36.5 91.5t21 48.5t14.5 37t24 69q47 2 115 2h74q32 0 36 -2h15q-12 -44 -50 -149t-55 -171q55 -2 133 -2q30 0 53.5 0.5t35 1t12.5 0.5l6 2q23 42 50.5 116.5t47 131.5t23.5 63h6q55 2 133 2h90q77 0 127 7v4q-4 48 -4.5 91 t-1.5 61.5t-8 37.5q-61 4 -120 5.5t-98 1.5t-48 1q16 44 43.5 129t42.5 129l217 7l-15 188v8q-22 0 -65 1t-64 1q17 60 33.5 115.5t24.5 81.5t15 49t9 33.5t2 19.5q0 5 -2.5 8.5t-7 5.5t-9.5 3t-12.5 1.5t-12 0.5h-12.5h-11q-16 0 -49 -2t-50 -2q-31 0 -65 6h-4 q-69 -262 -103 -314h-59h-137h-47q90 297 90 301q-233 8 -244 11v-2q-12 -53 -47.5 -167.5t-48.5 -140.5l-2 -4q-3 0 -10 -1t-11 -1q-7 0 -21.5 1t-21.5 1q-41 -2 -104 -2q-159 0 -182 10l-7 3l4 -222q79 0 158 1t84 1h41q-44 -129 -61 -194l-13 -43q-3 -9 -11.5 -15 t-22 -7.5t-24 -2t-25.5 0.5t-19 1q-129 0 -133 13zM506 526q15 44 44 131t44 131l4 3q24 0 244 -5l4 -2q-11 -39 -41.5 -121t-40.5 -128l-2 -7zM590 547l155 2q4 15 10.5 34.5t16.5 46.5t16 44q1 3 9 21t12 32h-107h-55q-26 -70 -57 -180z" />
<glyph unicode="$" horiz-adv-x="897" d="M12 391q0 31 0.5 44t4 31.5t10 24.5t19.5 13.5t32.5 9.5t48.5 2q27 0 66 -4t57 -4q24 0 37 -1t31 -5t28.5 -14t15.5 -27q48 -15 48 -80v-33q0 -5 -0.5 -17.5t0 -17.5t2.5 -12t8 -9.5t16 -2.5q27 0 50.5 15.5t23.5 37.5q0 53 -46 114.5t-102.5 107.5t-123.5 100.5 t-93 85.5q-116 136 -116 288q0 107 75 192t189 118v10q0 3 -5 73t-5 78q0 47 61 53q14 1 55 1h50q124 0 169 -35v-47q10 0 20 -0.5t16 -0.5l5 -1v-146q71 -23 139.5 -90t96.5 -127q15 -30 22 -62.5t8 -55t1 -68.5v-12q0 -41 -23 -57.5t-67 -16.5h-33q-20 0 -55.5 -2 t-59.5 -2q-91 0 -115 53q-55 21 -55 113h-6q-27 0 -51.5 -22t-24.5 -50q0 -29 18.5 -59.5t53 -59t64.5 -50t71.5 -47.5t56.5 -36q99 -72 158.5 -179.5t59.5 -215.5q0 -96 -63 -183.5t-187 -146.5q0 -5 -1 -24.5t-1 -34.5v-80q0 -76 -99 -76h-41q-7 0 -22 -1t-23 -1h-57 q-71 0 -88 47q-47 17 -47 84q0 8 1 26t1 27q0 28 -4 37h-2q-120 39 -170 107q-64 51 -83.5 125t-19.5 198zM33 391q0 -51 2.5 -86.5t9.5 -74.5t22 -67t38.5 -55t59.5 -48t85 -37q38 -12 50.5 -35.5t12.5 -59.5q0 -9 -1 -28.5t-1 -28.5q0 -34 14.5 -52t57.5 -18h57 q99 0 131.5 9.5t32.5 48.5v82q0 18 1 44t1 27q7 0 62.5 33.5t66.5 44.5q121 99 121 238q0 89 -46 185t-122 153q-18 13 -74.5 50.5t-87.5 61t-71.5 59t-60 70t-19.5 68.5q0 35 31 63.5t65 28.5q36 0 51 -17t17.5 -41.5t6.5 -49t28 -41.5t73 -17q21 0 58 2t57 2h33 q42 0 55.5 15t13.5 63q0 57 -5 93t-23 73q-29 59 -85.5 111t-125.5 59q-27 3 -27 29v168q-10 26 -156 26h-20h-45q-24 0 -37.5 -1.5t-25 -9t-11.5 -22.5q0 -5 5 -75.5t5 -75.5q0 -4 1 -10t1 -9q-8 -4 -82 -45q-93 -54 -110 -71q-74 -74 -74 -185q0 -71 31 -144.5t80 -129.5 q35 -38 106.5 -95.5t125 -100.5t96 -104.5t42.5 -121.5q0 -31 -30 -52.5t-64 -21.5q-21 0 -37.5 5.5t-25.5 17t-15 22t-8 29t-2.5 28t0 29t0.5 23.5q0 24 -8.5 38.5t-22.5 19.5t-32 7t-38 1t-40 1q-3 0 -32.5 3.5t-47.5 3.5q-36 0 -54.5 -4t-27.5 -19t-10.5 -30t-1.5 -52z M293 1341h2v5q-2 -2 -2 -5z" />
<glyph unicode="%" horiz-adv-x="1249" d="M20 1051l5 55q2 15 8 58.5t10.5 63.5t17.5 51t33 54q79 86 174 86q75 0 134.5 -38.5t93 -97.5t50.5 -121t17 -118v-20q1 2 2 7t3 11.5t5 12.5h-2q8 30 15.5 48.5t16 37t34.5 104.5t65 232q40 -9 84 -9q16 0 47 1t48 1q82 0 135 -26l-4 -8q-1 -3 -3 -7.5t-3 -7.5 q29 -8 51 -18l-8 -17q-9 -15 -9 -22q0 -18 -94 -309l-31 -86q-36 -95 -88 -254q64 55 144 55q75 0 134.5 -38.5t93 -97.5t50.5 -121t17 -118q0 -53 -6 -103.5t-23 -107t-44 -98t-74 -69t-107 -27.5q-49 0 -87.5 15.5t-54.5 29.5t-39 40q-4 5 -6 7q-25 21 -40.5 39t-25.5 46 t-13.5 43.5t-10 62.5t-10.5 71l-2 59q-2 -2 -8 -20v2q-26 -78 -45 -125l-117 -295v2q-5 -14 -17 -21t-33 -9t-53 -1t-76.5 2t-103.5 -1q-22 0 -22 32v11q-3 0 -9.5 -1.5t-9.5 -1.5q-22 0 -22 31q0 41 41 139v-2q4 13 9.5 28t6.5 17h-2q39 120 68 183l-2 -2q35 106 112 311 q-52 -43 -127 -43q-41 0 -72.5 7.5t-55 25t-34 27.5t-28.5 32q-25 21 -40.5 39t-25.5 46t-13.5 43.5t-10 62.5t-10.5 71zM41 1051l2 -52v-2q1 -9 4 -29q4 -34 6.5 -52.5t10 -51.5t16.5 -52t26 -43t38.5 -37t53.5 -22.5t72 -9.5q61 0 107.5 32.5t72.5 85.5t39 111t13 118v20 v20q0 54 -12 105.5t-37.5 99.5t-75 77.5t-115.5 29.5q-49 -2 -86.5 -22t-59 -47t-37 -70.5t-22 -77t-12.5 -80.5zM201 1157q0 37 20 62.5t49 25.5q16 0 28 -9.5t18.5 -29t11 -37.5t6 -46t2 -42.5t0.5 -38.5v-21v-25.5t-1 -25.5t-3 -28t-5 -24.5t-8.5 -23.5t-13 -17t-18 -13 t-23.5 -4q-17 0 -28 7.5t-15 21.5t-5 27.5t-1.5 33.5t-1.5 31l-10 149v3q0 4 -1 12t-1 12zM223 6q0 -8 6 -8h2q47 2 113 2h72h14h26t17.5 1.5t14 4.5t6.5 8l116 295q94 243 222.5 632t144.5 458q3 7 6 18.5t6 18.5q-25 14 -92 14q-19 0 -59 -2t-60 -2q-35 0 -59 6 q-18 -70 -42 -146.5t-39.5 -120.5t-19.5 -50q-61 -185 -111.5 -331t-77.5 -218.5t-45.5 -121.5t-26 -68t-9.5 -31q-29 -64 -65 -181l-11 -28q-12 -29 -21.5 -54t-18.5 -54t-9 -42zM264 1092l10 -152q0 -7 1 -19.5t1 -19.5v-18q6 2 11 5.5t7.5 6.5t5 10.5t3.5 10t3.5 12.5 t2.5 12v-2l1 2q1 2 1 6v10q0 16 2 43t2 43q0 74 -14 140q-19 -6 -29 -23v2q-8 -14 -8 -69zM743 401l2 -51v-2l3 -27q5 -35 7.5 -53.5t10 -51.5t17 -52t26.5 -43.5t38.5 -37.5t53.5 -22.5t72 -9.5q61 0 107.5 32.5t72.5 85t38.5 110.5t12.5 118v21v20q0 54 -12 105.5 t-37.5 99.5t-74.5 77.5t-115 29.5q-49 -2 -86.5 -22t-59 -47t-37 -70.5t-22 -77t-12.5 -80.5zM903 508q0 37 20.5 62.5t49.5 25.5q16 0 28 -9.5t18.5 -29.5t10.5 -37t5.5 -46t2 -42.5t0.5 -38.5v-21v-25.5t-0.5 -26t-2.5 -27.5t-5.5 -24.5t-9 -23t-12.5 -17.5t-17.5 -13 t-23.5 -4q-17 0 -28 7.5t-15 21.5t-5.5 27.5t-2 33.5t-1.5 31l-10 149v2q0 4 -1 12.5t-1 12.5zM967 442l10 -151q0 -7 1 -19.5t1 -19.5v-19q16 4 25.5 23.5t9.5 40.5v10q0 15 2 43t2 43q0 73 -14 139q-20 -7 -29 -22v2q-8 -14 -8 -70z" />
<glyph unicode="&#x26;" horiz-adv-x="1179" d="M29 451q0 100 56.5 206.5t139.5 184.5q-149 199 -149 346q0 90 61 167t156.5 120t198.5 43q85 0 163.5 -34t132 -88t85.5 -120.5t32 -130.5q0 -46 -18 -96.5t-31 -73.5t-51 -84l-12 -19q-60 -87 -60 -108q0 -41 25 -86q1 5 5.5 26t6 26.5t7 22t11 21.5t16 16t23 14.5 t31 7t41.5 3.5h145q38 0 59.5 -10.5t31.5 -38.5q47 -15 47 -88q0 -39 -9 -78.5t-17.5 -61.5t-29.5 -71v2q-6 -15 -11.5 -31t-9.5 -27t-11 -22v2q-9 -23 -20.5 -44.5t-17 -32t-5.5 -17.5q0 -4 24 -33.5t37 -42.5q25 -30 39.5 -50t31 -53t23.5 -67v-26l-2 -13 q-7 -26 -24.5 -42.5t-46.5 -23t-49.5 -8t-55.5 -1.5h-10q-44 0 -57 0.5t-41.5 3.5t-43 10.5t-37 21.5t-46.5 37q-108 -62 -291 -73q-105 0 -196 45.5t-150.5 119t-93 164.5t-33.5 185zM49 451q0 -66 16.5 -131t51 -123t82.5 -102.5t116 -70.5t146 -26q190 11 293 80 q58 -54 99.5 -67t123.5 -13h10q31 0 50 1.5t44.5 7t40.5 18.5t21 34l2 11v18q-3 15 -7.5 29.5t-12.5 29t-13.5 25t-17 26t-17 22t-19 23.5t-16.5 21v-2q-7 9 -23.5 28.5t-23 30t-6.5 17.5q0 11 22.5 58t32.5 63q5 15 17 43v-2q2 4 6 13q18 43 27 66.5t17.5 62t8.5 77.5 q0 44 -18.5 60t-57.5 16h-145q-42 0 -67 -12t-35 -33t-14 -42.5t-9 -47.5t-14 -42q-88 110 -88 189q0 22 27 66.5t59 89t59 107t27 116.5q0 127 -99.5 219t-252.5 92q-98 0 -189 -40.5t-149 -112.5t-58 -156q0 -137 158 -348q-87 -82 -146 -185t-59 -204zM358 432 q0 74 32.5 116t84.5 42q135 0 135 -164q0 -81 -8 -101t-53 -34q-42 -6 -55 -6q-74 0 -105 45t-31 102zM403 1182q0 84 89 84q40 0 40 -43q0 -186 -65 -197v2q-20 0 -42 55t-22 99zM420 393q0 -22 1 -32t7 -26t22.5 -23t43.5 -7q13 0 41 4q4 0 21 3t22 3h2q0 5 5 56.5t5 56.5 q0 24 -1.5 36.5t-8.5 30t-25 25.5t-47 8q-42 0 -65 -35t-23 -100zM465 1141q0 -41 12 -88q31 29 35 149q-47 -9 -47 -61z" />
<glyph unicode="'" horiz-adv-x="358" d="M43 1128v76q0 105 6 258h23l37 4q49 9 118 9q72 0 86 -23v-22q31 -3 41 -19q0 -54 2 -281t2 -249h-98q-13 0 -44 -1t-48 -1q-67 0 -82 4v37q-13 0 -41 4q0 44 -1 113t-1 91zM63 1231q0 -30 1.5 -121.5t1.5 -167.5l59 -2q27 0 77 1t66 1h29v82q0 70 -2 233t-2 189 q-7 10 -49 10q-36 0 -103 -7t-69 -7h-2v-4q-7 -103 -7 -207z" />
<glyph unicode="(" horiz-adv-x="643" d="M29 414q0 64 6 198t6 199v49v49q1 26 1.5 89t2.5 101.5t13.5 91t33.5 91.5q53 94 140 144.5t186 50.5q49 0 170 -17q1 -6 2 -18t2 -17l37 -6q6 -43 6 -106q0 -30 -2 -91.5t-2 -88.5q-123 -36 -167 -112t-56 -253q0 -27 -2 -35v-88q0 -13 -1.5 -38t-1.5 -38 q0 -108 23 -188l-2 2q16 -46 67 -72t107 -26v-33l-2 -4q9 -4 43 -4v-33q-4 -40 -3.5 -121.5t-2.5 -118.5q-6 -9 -14 -15.5t-14 -10t-16.5 -5t-15.5 -2t-18 0t-16 0.5h-47q-140 0 -259 88q-77 54 -133 143v-2q-37 65 -51 121t-20 125zM49 416q11 -131 70 -238q25 -54 86 -94 q122 -84 246 -84h34h25q21 0 34.5 6t20 14.5t9 24t2 27t-1.5 32t-1 31.5q0 87 5 119l-3 10q-62 2 -121.5 44.5t-88.5 107.5q-23 80 -23 200q0 12 -0.5 66.5t0 73t2.5 64.5t6 73t12 64t19 69q11 61 65 102t123 62q4 102 4 158q0 73 -4 94l-2 2q-67 8 -149 12 q-72 -2 -134.5 -27.5t-113.5 -74.5t-80 -132t-29 -190v-123v-49v-45q0 -137 -12 -399z" />
<glyph unicode=")" horiz-adv-x="643" d="M41 157.5q3 76.5 2 94.5l2 33q66 2 126.5 40.5t86.5 98.5l-2 -2q23 80 23 188q0 12 -1.5 38t-1.5 38v88q-1 3 -13.5 126.5t-41.5 170.5q-43 34 -129 62q0 10 -1.5 16.5t-6.5 10.5t-8 6t-12 4.5t-13 3.5q0 26 -2 87t-2 93q0 67 8 108q82 11 168 15q111 -5 209 -68 t158 -168q30 -52 39.5 -112.5t9 -145.5t2.5 -115v-49v-49q0 -64 6 -198t6 -199q-10 -132 -71 -246q-34 -58 -93 -100q-119 -88 -258 -88h-47h-11.5h-15t-15.5 1t-16.5 2.5t-14 5t-12.5 8t-7.5 12t-3.5 16.5q-31 10 -40.5 53.5t-6.5 120zM63 254q3 -36 3.5 -119t3.5 -117 q16 -18 59 -18h27h34q124 0 246 84q36 25 64 61t43 68t26.5 75.5t15 67t7.5 60.5q-12 262 -12 399v45v49q-1 43 -1.5 92.5t-1 93t-12.5 91t-35 86.5q-49 94 -129 139t-178 45q-55 0 -149 -12l-2 -2q-6 -46 -6 -94q0 -5 6 -158q52 -15 87 -37t58.5 -50.5t38.5 -78.5 t23.5 -103t17.5 -143q0 -28 1 -81t1 -81q0 -120 -23 -200q-29 -65 -88.5 -107.5t-121.5 -44.5z" />
<glyph unicode="*" horiz-adv-x="757" d="M14 907q58 80 146 168q-10 16 -45 53.5t-64.5 74.5t-36.5 63q22 11 101 90t100 94q17 -4 81 -60t85 -81q42 29 154 141l233 -233q-6 -39 -66.5 -98.5t-66.5 -69.5q18 -15 71.5 -81.5t65.5 -72.5q0 -3 1 -6t1 -6q0 -9 -2.5 -18t-9 -17t-10.5 -13t-13.5 -13.5t-11.5 -10.5 l-20 -20l-156 -119q-12 16 -39 43l-2 -2q-1 1 -17.5 16.5t-31.5 30.5t-31 32t-22 25q-9 -8 -44.5 -44t-65 -59.5t-48.5 -23.5q-71 67 -195 176q2 2 2 4zM39 1255q5 -17 74 -94.5t69 -87.5v-2q-16 -18 -50.5 -55t-59 -64t-31.5 -39q46 -38 176 -161q14 0 77 62.5t73 66.5 q12 -5 108 -101q2 -1 21 -21t20 -20q2 0 4 2l133 107l30 28q30 28 30 42v4q-3 2 -70 81.5t-74 79.5q7 20 70 81t66 87l-89 86q-68 65 -84 86q3 3 -34 -31t-76 -70t-41 -38q-10 7 -82 74t-80 69l-2 -2q-17 -12 -92 -89.5t-86 -80.5zM162 1071q0 -2 2 -2q-2 0 -2 2z" />
<glyph unicode="+" horiz-adv-x="884" d="M6 815q4 -2 41 -2q145 0 219 12q0 40 2 84t5 78.5t5.5 62.5t4.5 45l2 17q45 -29 112 -29q25 0 78.5 2t81.5 2q38 0 66 -4v-39q31 0 41 -2v-168q0 -10 -1 -25t-1 -22q8 0 25 1t26 1q114 0 161 -8q0 -7 -1 -18.5t-1 -18.5q15 0 43 -4q-2 -38 -1.5 -156t-8.5 -171 q-23 -12 -128 -14t-111 -3q0 -40 -8.5 -132.5t-8.5 -106.5q0 -29 -84 -29q-21 0 -71 2t-74 2q-93 0 -121 -12l-2 39v-2q-2 2 -2 10q-31 -3 -37 -6l-2 39v-2q-6 40 -6 73q0 7 1 20t1 17v80q-172 16 -199 35q0 3 1 12t1 14q-34 6 -43 15q0 6 1 26.5t1 34.5q0 59 -4 146.5 t-4 103.5zM27 786q0 -4 2.5 -45t5 -95t2.5 -89q0 -10 -1 -24.5t-1 -18.5q0 -12 88.5 -18.5t140.5 -6.5h4q6 -6 6 -96q0 -17 -1 -44t-1 -42q0 -49 4 -67v-4l3 -3h18q18 0 96.5 -2t118.5 -2q76 0 76 9v4q0 14 7 102t7 123v25q15 9 126 9.5t118 4.5q6 55 6 152t2 145 q-31 6 -123 6h-67q-7 0 -20.5 -1t-18.5 -0.5t-12 4t-9 13.5t-2 27v213h-29q-19 0 -79.5 -1t-92.5 -1q-79 0 -96 10q-7 -38 -12.5 -128.5t-5.5 -137.5q-8 -3 -114 -12t-138 -9h-8z" />
<glyph unicode="," horiz-adv-x="350" d="M23 20q0 86 10 240q45 16 98 16q34 0 193 -14l-2 -39q8 0 22 -1t21 -1l-17 -260q0 -15 -4 -29.5t-4 -19.5l-16 -86q-5 -25 -11.5 -55t-9.5 -47q-31 14 -80 14h-86q-12 12 -12 41h-29q-10 10 -10 33q0 14 5 37t14 55.5t10 38.5q-8 3 -16.5 1t-19 2.5t-16.5 18.5v21h-14 q-6 0 -10 1t-10 9t-6 24zM43 8q2 -2 6 -2l96 -8q-5 -36 -24 -110t-19 -85q0 -6 48 -6q31 0 49 2q31 0 47 -4q3 14 8 40.5t8 39.5l17 82q1 5 4.5 22t3.5 23l2 6h4v236h6q-126 12 -166 12q-49 0 -80 -10l-2 -2q-8 -134 -8 -228v-8z" />
<glyph unicode="-" horiz-adv-x="1048" d="M43 414q0 36 3 179t3 169h948v-41h41q0 -39 -2 -113.5t-2 -107.5q0 -91 10 -162q-30 0 -475 7t-465 7l-20 21v20h-21zM63 414q11 0 176 -4t365 -7.5t297 -3.5h82q-10 59 -10 138q0 34 2 102t2 102h-907q0 -2 -3.5 -146t-3.5 -181z" />
<glyph unicode="." horiz-adv-x="385" d="M43 106q0 32 2 82t2 64q57 24 160 24q79 0 131 -24l4 -29q4 -1 11 -2.5t10 -2t8 -3.5t7 -7.5t3.5 -12.5t1.5 -19q0 -39 -6 -123.5t-10 -113.5l-275 2q-1 7 -3 20.5t-3 20.5h-35q-8 52 -8 124zM63 96q0 -67 7 -94l6 -2h231h4v4q0 17 3.5 76t6.5 111t3 53q-27 12 -117 12 q-104 0 -139 -16q0 -8 -2.5 -60t-2.5 -84z" />
<glyph unicode="/" horiz-adv-x="806" d="M10 8q0 41 41 139v-2q5 13 10.5 28t6.5 17h-2q42 128 67 183l-2 -2q6 28 195 532q18 52 51 152h-2q8 30 15.5 48.5t16 37t34.5 104.5t65 232q40 -9 84 -9q16 0 47 1t47 1q82 0 135 -26l-4 -8q-1 -3 -3 -7.5t-3 -7.5q29 -8 51 -18l-8 -17q-8 -13 -8 -22q0 -18 -94 -309 l-31 -86q-33 -92 -97 -286t-104 -300v2q-26 -78 -45 -125l-117 -295v2q-5 -14 -16.5 -21t-32.5 -9t-53 -1t-76.5 2t-103.5 -1q-23 0 -23 32v11q-3 0 -9 -1.5t-9 -1.5q-23 0 -23 31zM27 6q0 -8 6 -8h2q47 2 112 2h72h14h26t17.5 1.5t14 4.5t6.5 8l117 295q94 242 221.5 631 t144.5 459q2 7 6 18t7 19q-25 14 -93 14q-19 0 -58.5 -2t-59.5 -2q-36 0 -60 6q-18 -70 -41.5 -146.5t-39 -120.5t-19.5 -50q-61 -185 -111.5 -331t-77.5 -218.5t-45.5 -121.5t-26 -68t-9.5 -31q-32 -71 -66 -181q-1 -2 -8.5 -20.5t-15 -39t-16 -44t-14 -44t-5.5 -30.5z" />
<glyph unicode="0" horiz-adv-x="1058" d="M37 815q0 278 110 459l3 2q58 88 156 143.5t212 55.5q113 0 206.5 -45.5t154 -118.5t102.5 -167t60 -187.5t18 -184.5v-49v-25q0 -81 -13 -166t-38.5 -170.5t-68 -160t-96.5 -133t-129 -92t-161 -33.5q-114 0 -203 42.5t-143 108.5q-32 29 -57 64.5t-41.5 67.5t-28.5 80 t-18.5 78.5t-10.5 87.5t-5 84t-3 89q-6 165 -6 170zM57 815q0 -5 6 -170q2 -68 3.5 -107t8.5 -103t18 -104.5t32.5 -92.5t51 -86.5t74.5 -67.5t103 -53q79 -29 172 -29q83 0 153.5 31t121 85t89.5 123.5t62.5 150t35 160.5t11.5 159q0 9 -1 26.5t-1 26.5q2 18 2 55 q0 85 -15 169.5t-51.5 169.5t-89.5 150t-136 105.5t-185 40.5q-110 0 -207.5 -51.5t-148.5 -136.5q-109 -172 -109 -451zM188 1233v2h2zM360 711q0 83 3 142t13 114.5t27 89t46 53.5t69 20q139 0 139 -370v-40q1 -30 0.5 -62t-1.5 -64.5t-5 -64t-10 -60t-16.5 -52.5 t-24.5 -41.5t-35 -27.5t-47 -10q-31 0 -47 8q-42 7 -69 77.5t-34.5 142.5t-7.5 145zM424 670q0 -131 29 -234l-2 2q6 -14 11.5 -38t8.5 -33h4l2 -2q21 -9 43 -9q36 0 60 25.5t34 66t14 78t5 74t2 41.5q2 33 2 119q0 204 -47 301q-18 6 -39 6q-14 0 -19.5 -0.5t-18.5 -3.5 t-19.5 -9.5t-18 -19.5t-17 -32.5t-13.5 -49.5t-11.5 -69t-6.5 -93t-3 -120z" />
<glyph unicode="1" horiz-adv-x="733" d="M-8 1004q5 59 120.5 253t139.5 218l18 4q110 4 176 4q119 0 234 -10v-8.5v-8v-6t1 -5t2 -4.5t3 -4t5 -2t7.5 -1.5t10 -1t12.5 -0.5q12 -176 12 -363q0 -159 -11 -466.5t-11 -463.5q0 -96 2 -143q0 -57 -146 -57q-108 0 -221 18v35q-7 1 -20.5 3t-20.5 3v217 q0 127 10.5 360t12.5 302q-13 -13 -27 -13q-31 0 -149.5 38t-118.5 61q0 6 2 8q-43 21 -43 33zM12 1001q0 -16 110.5 -45.5t137.5 -29.5q19 0 36 28t29.5 56t22.5 28q2 -4 2 -18v-19q0 -132 -12 -393t-12 -393v-201q128 -14 200 -14q125 0 125 37q-2 23 -2 72v71 q0 156 11.5 465t11.5 465q0 198 -10 344q-99 8 -216 8q-60 0 -186 -4q-24 -24 -133.5 -211t-114.5 -246z" />
<glyph unicode="2" horiz-adv-x="1026" d="M45 4q4 49 5.5 133t3.5 138t19.5 125t51.5 128q58 65 135 119.5t166.5 107.5t134.5 87q66 51 66 129q0 76 -49 86q-32 0 -56 -17.5t-37.5 -41.5t-22.5 -61.5t-12.5 -65.5t-5.5 -64q-103 -16 -227 -16q-73 0 -115 12q-3 15 -6 21t-4.5 8.5t-12 5.5t-18.5 6q-14 71 -14 149 q0 224 119 355v-2q51 66 153 98.5t222 32.5q224 0 357.5 -131.5t133.5 -346.5q0 -16 1 -53t1 -55q0 -83 -30 -149t-76 -105.5t-107 -76t-117.5 -61t-112.5 -60t-87 -74.5q0 -3 -4 -12t-9.5 -22t-7.5 -20h74q65 0 190 3t195 3q9 -21 12 -41h29q23 -64 23 -126q0 -12 -1 -33 t-1 -33v-47v-25q0 -28 4 -37q0 -12 -0.5 -17.5t-6.5 -8t-7 -2.5h-15l-778 -10h-101q-14 14 -14 26v14h-27q-14 14 -14 27zM66 4q0 -4 2 -6h92h778q1 2 4 6l4 6q-6 21 -6 45q0 20 2 63.5t2 65.5q0 75 -16 113q-70 0 -195 -3t-190 -3q-5 0 -25.5 -1t-35 -0.5t-32 1.5t-27 5.5 t-9.5 12.5q0 44 17 79.5t56.5 66t64 45.5t78.5 43q2 2 3.5 2.5t3.5 1.5l4 2l113 57q102 50 160.5 126t58.5 194q0 67 -4 120t-15.5 110t-31 99.5t-52.5 82t-77.5 64.5t-108 39.5t-143.5 14.5q-239 0 -356 -121.5t-117 -341.5q0 -65 12 -133l2 -4q47 -6 94 -6q78 0 209 16 l2 4q2 32 4.5 53.5t8 54t16 54t26 43t40.5 32.5t57 11q52 -7 79 -48.5t27 -98.5q0 -44 -18.5 -84t-53.5 -62q-54 -44 -140 -94.5t-162.5 -102.5t-133.5 -116q-40 -64 -53 -141.5t-13.5 -197t-4.5 -169.5z" />
<glyph unicode="3" horiz-adv-x="974" d="M20 1108q0 59 15 92l-2 -2q26 90 99.5 154t166.5 92.5t197 28.5q148 0 269.5 -64.5t182.5 -163.5q31 -53 31 -158q0 -42 2 -135.5t2 -134.5q0 -79 -5 -234t-5 -229q-18 -417 -449 -417q-140 0 -262 40v-2q-62 18 -104 60q-47 47 -69.5 77t-37.5 80t-18.5 108.5 t-3.5 170.5q16 -2 45 -2q36 0 96.5 9t101.5 9h12.5h11t9 -0.5t9 -2.5t8 -5t9.5 -7.5t9.5 -11.5t11.5 -16q14 0 22 -7.5t16 -23t13 -22.5q41 -35 93 -35t82 43l-3 -2q17 31 17 62q0 82 -127 82q-25 0 -98 -15q-12 24 -19 45q-4 -1 -11 -2t-11 -2q-27 46 -27 121q0 24 3 73 t3 73q0 32 -2 55q30 12 85.5 16t96.5 6t73 23.5t32 66.5v7q0 19 -1.5 28t-11 17t-30.5 8q-51 0 -105 -35.5t-71 -83.5q-35 -6 -181 -6h-98l-26 4v37l-41 4q0 29 -2.5 67t-2.5 60zM41 1106q0 -20 2 -55t2 -50v-4q1 0 19.5 0.5t47 1t54.5 0.5h90q49 0 59 2q17 49 75.5 85 t115.5 36q48 0 76 -29t28 -92q0 -45 -20.5 -70.5t-55 -33t-70 -8.5t-76 -2.5t-62.5 -9.5v-3q2 -14 2 -36q0 -23 -3 -75t-3 -77q0 -69 14 -94q36 8 88 8q83 0 135.5 -36t52.5 -105q0 -61 -36 -92t-80 -31q-54 0 -106.5 39t-70.5 90l-4 2h-26q-41 0 -113 -10.5t-104 -10.5 q-4 0 -11.5 1.5t-11.5 1.5l-4 -3q3 -33 7.5 -104t9 -102.5t22 -75.5t47.5 -74q20 -27 121 -59.5t231 -32.5q156 0 251 52.5t145 162.5q12 26 18.5 59t8.5 56t4 64t3 59q9 199 9 405q0 88 -4 272v21q0 97 -60.5 167t-154 103t-207.5 33q-67 0 -131 -13t-123 -40.5 t-103.5 -67.5t-71 -98t-26.5 -127z" />
<glyph unicode="4" horiz-adv-x="958" d="M0 635q0 22 1.5 36t9 33t11.5 27.5t22 40.5t28 49q136 264 389 637q4 0 112.5 3t159.5 3q63 0 84 -4l-1 -6q0 -6 -0.5 -15t-0.5 -16q11 0 43 -4v-9q-1 -10 -1.5 -24t-0.5 -24q-14 -292 -14 -664v-2q14 0 46 -2t52 -2l-2 -41q3 0 7 -1t7 -1q5 0 14.5 1t14.5 1l-12 -332 q-37 -12 -68 -12q-7 0 -19.5 1t-19.5 1q-17 0 -47 -6h6q21 0 21 -18q-18 -269 -29 -330q-12 -16 -50.5 -19.5t-139.5 -3.5h-131q-9 9 -9 41h-32q-11 11 -11 74q0 64 15 254l2 29h-146q-235 0 -245 16q-1 2 -2 6.5t-2.5 10.5t-4.5 12q-32 5 -44.5 57.5t-12.5 202.5zM20 633 q0 -86 8 -152t15 -84q3 -3 105.5 -4t210.5 -2t122 -4q0 -2 -12 -173t-12 -210v-8q0 -2 2 -2h100t82 0.5t54.5 1.5t41 4t17.5 8q4 21 28 361q6 2 27 2q9 0 27.5 -1t27.5 -1q22 0 43 6l13 297q-12 0 -47 3t-52 3q-20 0 -26 -2l-13 -2q-2 8 -2 67q0 53 2 144t4 183.5t4.5 177 t4.5 140t2 56.5h-4q-10 2 -58 2q-54 0 -159 -3l-105 -3l-2 -2q-132 -199 -232.5 -370.5t-147.5 -259t-66 -112.5q-3 -34 -3 -61zM266 672q15 33 136.5 235.5t138.5 202.5q2 0 2 -2l-6 -438q-10 -2 -60 -2q-27 1 -89 1t-85 1zM358 688h113q14 0 24 -1t11 -1q3 0 5 1t5 1 l4 303q-108 -190 -162 -303z" />
<glyph unicode="5" horiz-adv-x="1015" d="M27 1319q0 20 1 62.5t1 64.5q6 0 166 3.5t358.5 7t296.5 3.5q10 0 27.5 0.5t23 0t16 -2t14 -6t8 -12.5t7.5 -21q30 -6 37.5 -24t7.5 -72q0 -38 -7 -114.5t-7 -94.5v-39q-34 -5 -158.5 -9.5t-234.5 -4.5q2 -2 8 -2q105 -18 186.5 -78t131.5 -148.5t75 -194.5t25 -224 q0 -89 -13 -185q-22 -96 -98.5 -167.5t-179 -106.5t-215.5 -35q-127 0 -234.5 47t-174 139.5t-66.5 212.5q0 73 14 144l330 8v-43h41l2 -27q2 -31 9 -46t30 -15q69 0 108 52.5t39 121.5q0 112 -70 141h3q-47 9 -107 9q-44 0 -134 -5.5t-134 -5.5q-49 0 -88 6v35q-5 1 -13 1 t-15 1t-13 4q0 123 -2 318t-2 301zM47 1425q0 -98 2 -264.5t2 -253.5v-188q0 -4 62 -4q39 0 130 4t138 4q61 0 117 -6q58 -18 91.5 -76t33.5 -127q0 -77 -44 -136t-124 -59q-40 0 -71.5 34t-31.5 98v2h-291v-15q-12 -71 -12 -125q0 -83 34.5 -148t93 -104t131.5 -59t155 -20 q109 0 207.5 33t171.5 100.5t94 158.5q12 89 12 181q0 97 -13.5 180.5t-46.5 161t-83.5 131.5t-128.5 86.5t-178 32.5q-53 0 -123 -13l-6 4q-6 9 -8.5 35.5t-4.5 34.5l-2 12h56q104 0 286.5 5.5t218.5 9.5v22q9 71 9 201v55q0 9 -0.5 14t-3.5 8.5t-6 4.5t-11 1.5t-15 0 t-21 -1t-27 -0.5q-94 0 -286.5 -4t-347 -7.5t-157.5 -3.5h-2z" />
<glyph unicode="6" horiz-adv-x="1067" d="M55 698q0 63 8.5 185.5t8.5 177.5q0 98 24 147v-2q56 126 200.5 195t311.5 69q116 0 213.5 -62.5t151 -159t53.5 -199.5q0 -46 -16 -115q-91 -14 -312 -14q-1 7 -2 20.5t-2 20.5h-37q0 49 -12 90t-43 41q-44 0 -72.5 -32t-39.5 -77.5t-11 -101.5q0 -70 10 -162 q97 37 209 37q72 0 136.5 -29.5t108.5 -77.5t72.5 -105.5t37.5 -117.5l4 -49q0 -7 1 -18.5t1 -18.5q0 -100 -42.5 -179.5t-115 -128.5t-163 -74.5t-191.5 -25.5q-109 0 -180 29.5t-127 93.5q-185 157 -185 643zM76 698q0 -85 4.5 -156.5t17.5 -145.5t33.5 -132t53.5 -110.5 t77 -87t106 -54.5t138 -20q98 0 184.5 23t156 67.5t110 118.5t40.5 168q0 31 -2 47l-4 49q-13 117 -89 193.5t-204 76.5q-148 0 -270 -69v2v24q0 36 -5 114t-5 116q0 97 34 163t107 66q105 0 119 -170l4 -2q22 1 122.5 3.5t147.5 10.5q13 54 13 97q0 148 -101 254t-262 106 q-100 0 -204.5 -31t-190 -97.5t-103.5 -152.5q-9 -33 -12 -96.5t-4 -71.5q-12 -144 -12 -303zM516 401q0 49 48 80t95 31q43 0 68 -25.5t25 -68.5v-27q-7 -37 -46 -60.5t-83 -23.5q-45 0 -76 26t-31 68zM578 358q0 -21 9 -26.5t31 -5.5q35 0 67.5 19.5t45.5 45.5v27 q0 17 -6 31h-2h-21q-40 0 -82 -25t-42 -66z" />
<glyph unicode="7" horiz-adv-x="985" d="M23 0q55 118 240.5 500.5t279.5 593.5q-273 14 -359 14q-14 0 -39 -1t-36 -1l-25 22q0 15 2 19h-18l-25 22q5 34 7.5 78.5t3 67.5t0 83.5t-0.5 69.5q330 11 553 11q211 0 381 -19q-1 -5 -2 -18t-2 -19q17 0 45 -4q-4 -62 -4 -96q0 -35 2 -102.5t2 -108.5 q-77 -177 -181 -373t-230.5 -419.5t-200.5 -366.5q-25 0 -103 -5t-123 -5q-78 0 -127 16l13 31q-34 4 -53 10zM51 14q34 -10 99 -10q39 0 113 5t99 5q74 146 198.5 366.5t229.5 415.5t177 361q0 41 -2 106t-2 97q0 51 2 82v2q-161 14 -365 14q-249 0 -526 -10v-2 q0 -19 -1 -64t-1.5 -74t-3 -69.5t-5.5 -71.5h5q11 0 36 1t39 1q62 0 140 -3.5t172.5 -9t134.5 -7.5q-93 -210 -282.5 -600t-256.5 -535z" />
<glyph unicode="8" horiz-adv-x="1105" d="M100 401q0 193 121 320q-102 120 -102 299q0 83 25 161.5t70 141.5t114.5 103t152.5 44q74 3 129 3q88 0 145.5 -12t110.5 -42l19 -12q2 -1 9.5 -6t10 -6.5t10 -7t11.5 -9l12 -10.5t14 -14t14.5 -17t16.5 -21t18 -25.5t21 -30.5q18 -30 30 -69t15.5 -58t9.5 -62 q0 -10 2 -12v2q2 -6 2 -31v-57q0 -41 -10 -70l2 2q-18 -77 -48 -131.5t-89 -107.5l6 -7q133 -116 133 -307q0 -192 -120.5 -315t-338.5 -123q-118 0 -216.5 38.5t-163.5 105t-100.5 155t-35.5 188.5zM121 401q0 -194 119 -310t335 -116q212 0 325.5 117.5t113.5 298.5 q0 96 -38 178.5t-114 137.5v2q158 129 158 305v57q0 206 -164 332q-49 28 -103.5 38.5t-142.5 10.5q-80 0 -129 -2q-79 -4 -145 -42.5t-108.5 -99t-65.5 -135t-23 -153.5q0 -182 111 -299q-129 -129 -129 -320zM453 446q0 47 29.5 84t74.5 37q48 0 90.5 -30.5t42.5 -77.5 v-10q0 -3 -1 -8l-1 -5q-5 -20 -9.5 -30t-16.5 -24.5t-35 -21t-58 -6.5q-58 0 -87 24.5t-29 67.5zM469 1016q0 3 1 8t1 8v4l2 2q6 16 20.5 26.5t32.5 15t29.5 6t19.5 1.5q45 0 69 -27t24 -65q0 -39 -25.5 -69.5t-67.5 -30.5q-51 0 -78.5 37t-27.5 84zM514 406q0 -9 2.5 -15.5 t4.5 -10t9.5 -5.5t9.5 -2h13h12q29 0 53 6h-2q26 8 31 16q4 5 8 15v-2l7 12q2 2 6 14v4l1 4q1 4 1 7q0 57 -74 57q-17 0 -23 -2l2 2q-28 -10 -44.5 -39t-16.5 -61zM530 958q9 -43 43 -43t54 23.5t20 56.5q0 18 -6.5 23.5t-26.5 5.5q-53 -1 -63 -18q-1 -1 -4 -3.5t-4 -3.5z " />
<glyph unicode="9" horiz-adv-x="1001" d="M20 375q0 55 5 74v26q41 0 125 5t126 5q55 0 107 -8q4 -16 6.5 -22.5t11 -12.5t23.5 -6q15 -53 61 -53q87 0 99 149q-41 -8 -90 -8q-131 0 -240 68t-171.5 184t-62.5 254q0 97 27.5 173t73 124.5t110 81t132 47t145.5 17.5q50 0 72 -0.5t66 -3t68 -8.5t60.5 -18 t61.5 -29.5t53.5 -44.5t52.5 -62v2q32 -49 49 -118t20.5 -122t4.5 -145l4 -303q0 -29 4 -88.5t4 -86.5q0 -221 -121 -395q-104 -121 -332 -121q-148 0 -275.5 57.5t-203.5 160.5t-76 227zM39 373q0 -118 70 -206t181.5 -131.5t244.5 -43.5q218 0 323 125q107 150 107 362 q0 31 -3.5 91t-3.5 92l-4 303q-1 89 -4.5 141t-19.5 119t-45 112q-20 31 -48.5 52.5t-53.5 32.5t-67 17.5t-65.5 8t-74 2.5t-68.5 2q-74 -3 -139.5 -17.5t-126.5 -46t-104.5 -78t-70 -118.5t-26.5 -162q0 -199 118.5 -321.5t293.5 -122.5q75 0 149 30l2 -2q0 -7 1 -21.5 t1 -21.5q0 -40 -5.5 -74.5t-19 -66t-38.5 -50t-60 -18.5q-42 0 -73.5 27.5t-42.5 69.5q-46 6 -97 6q-43 0 -122 -4.5t-103 -5.5v-11q-6 -37 -6 -71zM395 1032q0 41 40.5 66.5t84.5 25.5q54 0 89.5 -31.5t35.5 -78.5q0 -23 -2 -27q-10 -23 -17 -36t-21 -29.5t-34.5 -24.5 t-48.5 -8q-80 0 -112 65v2q-15 35 -15 76zM457 991q0 -47 10.5 -64.5t54.5 -17.5q39 0 58.5 17.5t44.5 68.5v19q0 29 -17 39t-47 10q-36 0 -70 -20t-34 -52z" />
<glyph unicode=":" horiz-adv-x="387" d="M43 106q0 32 2 82t2 64q57 24 160 24q79 0 131 -24l4 -29q4 -1 11 -2.5t10 -2t8 -3.5t7 -7.5t3.5 -12.5t1.5 -19q0 -39 -6 -123.5t-10 -113.5l-275 2q-1 7 -3 20.5t-3 20.5h-35q-8 52 -8 124zM43 795q0 31 2 81t2 64q60 25 160 25q76 0 131 -25l4 -29q4 -1 11 -2.5t10 -2 t8 -3.5t7 -7.5t3.5 -12.5t1.5 -19q0 -39 -6 -123.5t-10 -113.5l-275 2q-1 7 -3 20.5t-3 20.5h-35q-8 52 -8 125zM63 96q0 -67 7 -94l6 -2h231h4v4q0 17 3.5 76t6.5 111t3 53q-27 12 -117 12q-104 0 -139 -16q0 -8 -2.5 -60t-2.5 -84zM63 784q0 -67 7 -94h6l231 -2h4v4 q0 17 3.5 76t6.5 111t3 53q-27 12 -117 12q-104 0 -139 -16q0 -8 -2.5 -60t-2.5 -84z" />
<glyph unicode=";" horiz-adv-x="360" d="M25 795q0 31 2 81t2 64q60 25 159 25q76 0 131 -25l5 -29q4 -1 11 -2.5t10 -2t8 -3.5t7 -7.5t3.5 -12.5t1.5 -19q0 -32 -8.5 -128.5t-8.5 -108.5l-274 2q-1 7 -3 20.5t-3 20.5h-35q-8 52 -8 125zM27 20q0 86 10 240q45 16 98 16q34 0 193 -14l-2 -39q8 0 22 -1t21 -1 l-17 -260q0 -15 -4 -29.5t-4 -19.5l-16 -86q-5 -25 -11.5 -55t-9.5 -47q-31 14 -80 14h-86q-10 10 -10 31v10h-31q-10 10 -10 33q0 14 5 37t14 55.5t10 38.5q-8 3 -16.5 1t-18.5 2.5t-16 18.5v21h-17q-24 0 -24 34zM45 784q0 -71 6 -94h6h232l4 -2v4q0 17 3 76t6 111t3 53 q-27 12 -117 12q-104 0 -139 -16q0 -8 -2 -60t-2 -84zM47 8q2 -2 6 -2l97 -8q-5 -36 -24.5 -110t-19.5 -85q0 -6 48 -6q31 0 49 2q31 0 47 -4q3 14 8 40.5t8 39.5l17 82q1 5 4.5 22t3.5 23l2 6h4v236h6q-126 12 -166 12q-49 0 -80 -10l-2 -2q-8 -134 -8 -228v-8z" />
<glyph unicode="&#x3c;" horiz-adv-x="727" d="M-18 553q51 65 115.5 134.5t154 159t127.5 128.5l10 10q35 39 119 123q11 -7 21.5 -14.5t22.5 -18t18.5 -17.5t20.5 -21l19 -19l27 -27q31 -31 57 -47q-4 -4 -4 -6q22 -22 45 -35q-61 -74 -185.5 -204.5t-172.5 -188.5q9 -9 77.5 -78.5t94 -93.5t75.5 -70t91 -78l-4 -4 q7 -6 22 -17t23 -19l-39 -35l-33 -33q-50 -49 -123 -111l-41 41q-4 0 -4 4q-41 39 -167.5 149.5t-209.5 196.5t-157 191zM8 553q68 -92 157 -179.5t193.5 -179.5t163.5 -153l2 -2q41 35 78 72l60 59l22 20q-72 58 -197.5 183t-181.5 174q54 68 188.5 206.5t172.5 186.5 q-22 15 -76 71t-80 70q-136 -144 -215 -223l-102 -104q-131 -131 -185 -201z" />
<glyph unicode="=" horiz-adv-x="915" d="M43 244q0 34 3 157t3 144h817v-41h41q0 -33 -2 -95t-2 -85q0 -62 10 -154q-25 0 -401.5 6t-407.5 6l-20 21v20h-21zM43 668q0 34 3 157t3 144h817v-41h41q0 -33 -2 -95t-2 -85q0 -62 10 -154q-25 0 -401.5 6t-407.5 6l-20 21v20h-21zM63 244q10 0 151.5 -3t312.5 -6.5 t253 -3.5h72q-8 52 -8 119q0 28 1 87t1 87h-776q0 -3 -3.5 -125.5t-3.5 -154.5zM63 668q10 0 151.5 -3t312.5 -6.5t253 -3.5h72q-8 52 -8 119q0 28 1 87t1 87h-776q0 -3 -3.5 -125.5t-3.5 -154.5z" />
<glyph unicode="&#x3e;" horiz-adv-x="729" d="M14 193q73 61 199.5 184t181.5 172q-27 30 -160.5 170t-199.5 225q35 21 91 80.5t95 81.5l41 -41q17 -17 58 -59t61 -62l10 -10q26 -28 48.5 -51.5t46 -46t28.5 -27.5l6 -6q42 -50 134.5 -145t133.5 -146q-76 -100 -167.5 -191t-201.5 -189t-173 -163q-61 53 -93 82.5 t-38 36t-11 13.5t-14 16l-37 39zM45 190l23 -20l32 -33q48 -48 105 -98l2 2q60 62 163 154t192.5 179.5t158.5 178.5q-58 75 -184 201l-103 104q-79 79 -215 223q-25 -14 -80 -70t-76 -71q42 -52 174.5 -190.5t186.5 -202.5q-56 -49 -181.5 -174t-197.5 -183z" />
<glyph unicode="?" horiz-adv-x="919" d="M2 1004q4 84 37 166t87 147t132.5 106t167.5 45h-2q14 2 43 2q119 0 227.5 -60.5t174 -160.5t65.5 -209q0 -53 -13 -101t-42.5 -94t-49.5 -73t-64 -74.5t-56 -62.5q-43 -65 -74 -144.5t-31 -140.5q0 -17 6 -41q-63 -8 -133 -8h-33h-122q-18 18 -21 41h-20q-3 3 -6 6.5 t-5 6.5t-3.5 7t-2.5 6t-2 6.5t-1.5 6t-0.5 6.5v6.5v7.5v7l4 81q16 101 48.5 179.5t103.5 171.5q5 7 21 28.5t22.5 31t19 28.5t18.5 30.5t13.5 26.5t10.5 28t3 25q0 21 -20.5 30t-40.5 9q-24 0 -42 -15.5t-29 -35t-31 -41t-46 -31.5q-54 -4 -82 -4q-47 0 -190 13q0 22 2 36 q-5 1 -21 2.5t-22 2.5zM23 1020l81 -4.5t99 -3.5q19 0 69 4q19 7 36.5 29t29 42.5t32 37t46.5 16.5q59 0 93 -33t34 -68q0 -42 -34 -99.5t-82 -121t-62 -90.5q-34 -51 -50.5 -106.5t-29.5 -137.5l-4 -77v-25q0 -13 8 -21h2q27 3 55 3q20 0 58 -1.5t57 -1.5q59 0 82 5v2 q-2 4 -2 16q0 26 10 53q28 149 100 250q19 25 67 79t76 90t53 99.5t25 133.5q0 152 -118 256t-285 104q-188 0 -313 -126t-133 -302v-2zM256 106q0 32 2 82t2 64q57 24 160 24q78 0 131 -24l4 -29q4 -1 11 -2.5t10 -2t8 -3.5t7 -7.5t3.5 -12.5t1.5 -19q0 -39 -6 -123.5 t-10 -113.5l-275 2q-1 7 -3 20.5t-3 20.5h-35q-8 52 -8 124zM276 96q0 -67 7 -94l6 -2h231h4v4q0 17 3 76t6.5 111t3.5 53q-27 12 -117 12q-104 0 -139 -16q0 -8 -2.5 -60t-2.5 -84z" />
<glyph unicode="@" horiz-adv-x="1134" d="M34.5 624q-0.5 23 0 78t0.5 68v61q0 120 22 214.5t84 175.5q55 68 130.5 98.5t183.5 44.5h-2q31 6 108 6q127 0 226 -25.5t178 -97.5q5 -5 12.5 -13t14.5 -15t14 -13q45 -43 74 -100t41.5 -125t16 -120t3.5 -124v-110q0 -150 -25 -229.5t-108 -116.5l22 -52q3 3 9.5 5.5 t9.5 5.5l92 -201q-131 -85 -250.5 -116.5t-261.5 -31.5q-144 0 -246 30.5t-170 113.5q-29 23 -53 53.5t-41.5 60.5t-31 73t-22.5 75t-15 83t-9 80.5t-4.5 85t-2 78.5zM55 770q0 -162 15 -371q5 -61 35 -149.5t67 -140.5q67 -91 168 -123.5t248 -32.5q137 0 253.5 29.5 t233.5 103.5l-78 168q-96 -48 -216 -80.5t-195 -32.5q-86 0 -146.5 21.5t-98 60t-59 106.5t-29 146.5t-7.5 194.5v45q0 58 3 103.5t12.5 103t29.5 99t51.5 79t82 57t116.5 19.5q44 0 103.5 -10t98.5 -29h-2q135 -78 146 -301v-58q0 -11 1.5 -38.5t0.5 -45.5q0 -185 -33 -209 q-43 7 -43 213v62q0 26 2 69t2 56q0 38 -20 61l-6 4q-47 31 -121 31q-91 0 -160.5 -33t-108.5 -87t-58 -115t-19 -125q0 -58 12 -107.5t37.5 -92.5t72.5 -68t111 -25q99 0 166 55q1 -2 20 -27l17 -14q48 -27 84 -27q60 0 102.5 17t68 45.5t40 75.5t19.5 96.5t5 118.5v110 q0 68 -3.5 120t-16 114.5t-34.5 108.5t-61 91t-92.5 74t-132.5 46.5t-178 17.5q-295 0 -403 -142q-60 -79 -81.5 -170.5t-21.5 -206.5v-61zM307 700q15 107 86 187v-2q37 47 115.5 81.5t161.5 34.5q82 0 131 -34h6q2 -3 7.5 -11t9 -12.5t8.5 -10t10 -7.5h6q1 -3 4 -6.5 t4 -6.5q-9 57 -26.5 96.5t-55.5 67.5h2q-35 16 -95.5 26.5t-98.5 10.5q-58 0 -103.5 -16.5t-74.5 -47.5t-49 -68.5t-30 -87t-14 -94.5t-4 -100zM309 516q6 -110 26 -205.5t58 -113.5v2q58 -37 193 -37q8 0 19 1t16 1h22q70 4 177 39.5t188 77.5q-52 -27 -123 -27 q-78 0 -125 59q-65 -47 -162 -47q-116 0 -190 80l-11 10q-28 27 -30 31q-45 51 -58 129zM498 586v6q0 192 118 192q19 0 33 -2v-10v-38.5t-1 -40t-3.5 -43t-7 -39.5t-11.5 -37t-16.5 -27.5t-23.5 -20t-31 -6.5q-25 0 -41 18.5t-16 47.5zM559 541q27 0 41 20t17 43t4.5 60.5 t3.5 52.5q-66 -22 -66 -158v-18z" />
<glyph unicode="A" d="M6 -16l29 151q141 806 295 1317q17 2 53 2h27h8q59 0 196 12q6 -30 11 -45q5 1 15 2t15 2q7 -43 40 -186.5t80 -340.5t52 -216l158 -739q-88 -15 -131 -15q-90 0 -184 21q-3 9 -5.5 14.5t-5 9.5t-4 6.5t-5.5 4.5l-5 2.5t-7 1.5t-9 2q-18 55 -38 136.5t-32.5 120 t-26.5 38.5q-13 0 -27 -1t-30 -1q-11 -29 -34.5 -154.5t-57.5 -187.5q-3 0 -16 -2t-29 -2q-6 0 -182 4l-109 2l6 41h-47zM33 4q2 -2 4 -2h49q68 0 136 -2t75 -2q23 0 27 2l6 2q26 47 49.5 175t40.5 167q18 0 36 1t23 1h27q5 0 41 -4q20 -43 51 -169.5t45 -164.5h2 q79 -18 168 -18q52 0 107 10v2l-154 717q-19 79 -89.5 385t-78.5 340q-90 -8 -178 -8h-43q-25 0 -31 -2q-87 -290 -160.5 -630.5t-112.5 -568t-40 -231.5zM406 586q8 57 17.5 133.5t15.5 121t13 89t13.5 64.5t13.5 20q13 0 30.5 -97t47.5 -331q-18 0 -52 -1t-50 -1 q-9 0 -25 1t-24 1zM473 606h59q-6 56 -15 135.5t-11 98.5q-3 -23 -15 -107.5t-18 -126.5z" />
<glyph unicode="B" horiz-adv-x="993" d="M43 481q0 113 2 337t2 339v279q164 49 336 49q88 0 168 -17.5t152 -55.5t124.5 -94t83.5 -137.5t31 -181.5q0 -151 -102 -329v-4q0 -7 8 -15v-2q38 -46 57 -71.5t44.5 -68t36.5 -86t11 -93.5q0 -99 -31 -173.5t-79 -117t-119.5 -68.5t-139 -34.5t-149.5 -8.5 q-103 0 -198 9h2q-107 5 -127 6h-9q-1 0 -6 -0.5t-9 -0.5t-10.5 1t-11.5 3.5t-10 7t-7.5 12.5t-2.5 18q-36 9 -39 10q-8 216 -8 487zM63 477q0 -232 9 -469q16 -4 20 -4h25q38 -1 148 -7.5t173 -6.5q56 0 103.5 4t100 14.5t94 28t80 47t64 68.5t41 95t15.5 124 q0 47 -10.5 88.5t-35.5 82.5t-43.5 66t-55.5 70q-17 17 -17 27q0 7 6 16q101 169 101 319q0 93 -27.5 166.5t-74 121t-111 79t-135 44.5t-150.5 13q-155 0 -315 -45l-2 -2q2 -96 2 -284q0 -111 -2.5 -328t-2.5 -328zM334 412q0 95 22 163q15 -2 44.5 -3t50 -2.5t48.5 -6.5 t47 -15.5t36.5 -27t26.5 -44t9 -64.5q0 -48 -20 -74q-44 -53 -158 -53q-13 0 -37.5 1t-35.5 1l-5 2q-28 38 -28 123zM346 965q0 25 2 65.5t2 56.5v27q25 14 76 14q32 0 62.5 -5t63 -17.5t52 -38t19.5 -61.5q0 -40 -27 -84q-38 -68 -150 -68q-48 0 -88 6q-12 42 -12 105z M394 338q0 -4 1.5 -11.5t4.5 -9.5t8.5 -6t13.5 -5t20 -1q102 0 140 45q16 22 16 62q0 25 -12 71v-2l-2 2q-25 15 -54 20t-64.5 6t-51.5 3q-19 -97 -19 -141q-1 -5 -1 -17v-10v-6zM408 887q0 -3 1 -6.5t1 -6.5h36q101 0 132 58q24 39 24 74q0 24 -12.5 35t-38.5 18h2 q-41 8 -86 8q-37 0 -53 -6v-21q0 -20 -3 -74t-3 -79z" />
<glyph unicode="C" horiz-adv-x="1079" d="M31 688q0 78 4 410q0 3 -1 10.5t-1 11.5q0 69 26 125v-2q46 130 140 197t254 67q142 0 272.5 -75.5t210.5 -199.5t80 -259q0 -82 -33 -170q-65 -15 -129 -15q-85 0 -203 23l-4 33q-8 1 -13.5 2t-10 3.5t-7 4t-5 7t-3.5 8.5t-2 12.5t-1 15.5t-1 20.5t-2 24.5q-1 11 -2 32 t-2 32.5t-5 28t-11.5 25t-21.5 15t-34 6.5q-24 0 -51 -8t-37 -18q-2 -2 -6 -34.5t-9 -127t-5 -221.5v-60v-38v-28q0 -22 1 -59.5t5.5 -58t11.5 -44.5t19 -36.5t28 -15.5h-2q3 0 9.5 -1t9.5 -1q42 0 67 14.5t35 44t13.5 59.5t7.5 78t12 82q43 -6 84 -6q17 0 48 1t48 1 q78 0 125 -12q3 -7 5 -17.5t5 -17.5l31 -6q29 -79 29 -164q0 -217 -146 -347t-377 -130q-106 0 -202.5 39t-164.5 118t-79 181q-10 205 -10 440zM51 688q0 -233 10 -438q6 -72 42 -127t91 -87.5t119 -48.5t133 -16q220 0 361 124.5t141 332.5q0 78 -22 145q-43 11 -107 11 q-20 0 -55.5 -1t-52.5 -1q-24 0 -60 4q-6 -23 -9.5 -58.5t-5 -63t-8.5 -58t-20 -50.5t-41 -33.5t-69 -13.5q-30 0 -54 12.5t-39 34.5t-25.5 51.5t-15.5 63.5t-8 70q-3 31 -3 61q1 5 1 10v68v33q0 135 6.5 231.5t12.5 129t10 36.5q16 16 49 24.5t62 8.5q36 0 61 -13.5t37 -33 t19.5 -50.5t9 -57.5t3.5 -62t5 -56.5q90 -20 184 -20q57 0 115 12q26 71 26 152q0 128 -69.5 237.5t-185 172.5t-246.5 63q-138 0 -233 -58.5t-142 -191.5q-25 -63 -25 -113q0 -18 2 -24q-4 -332 -4 -412z" />
<glyph unicode="D" horiz-adv-x="987" d="M57 668q0 88 2 266.5t2 273.5q0 133 -2 199q0 4 2 6q3 9 15 21q83 24 235 24q31 0 95 -2t96 -2q53 0 80 2q82 -24 161 -88.5t119 -134.5h-2q87 -133 127 -307l-2 2q17 -52 21 -137q-2 -36 -5 -120.5t-8 -146.5t-16 -114q-43 -124 -111 -234.5t-161 -226.5q-66 -2 -570 -8 l-6 43q-7 0 -19 -1t-16 -1q-37 266 -37 686zM78 659q0 -423 35 -657l2 2q358 0 538 6q94 119 158.5 220.5t101.5 213.5l2 5q9 44 14.5 97.5t7 90t4 102.5t3.5 95q-6 109 -43.5 222.5t-97.5 207.5q-37 61 -97.5 108t-125.5 64q-12 0 -30 -1t-30 -1q-33 0 -101 2t-102 2 q-136 0 -231 -23q-1 -1 -3 -4t-3 -4q2 -66 2 -197q0 -94 -2 -277t-2 -274zM371 600q0 46 2 133.5t2 126.5q0 47 -4 125v8h6q37 6 78 6q52 0 92 -19.5t63 -49t37.5 -71t19.5 -79t5 -78.5q0 -91 -58 -182q-54 -78 -96 -78h-4q-34 -6 -72 -6q-45 0 -67 19q-4 94 -4 145z M430 489q0 -5 1 -16t1 -16h10q5 0 74 6q1 0 2 -1t2 -1q7 0 23 12h-2q32 18 57 59v-2q53 79 53 172q0 45 -16.5 109.5t-44.5 112.5l-21 10q-50 4 -73 4q-18 0 -64 -4q4 -78 4 -129q0 -52 -3 -158t-3 -158z" />
<glyph unicode="E" horiz-adv-x="1003" d="M51 899q0 241 17 533q383 18 716 18q161 0 170 -25q0 -21 20.5 -30.5t20.5 -10.5v2q9 -53 9 -108q0 -32 -4.5 -100t-4.5 -105q-100 -24 -264 -24h-74q-13 0 -39 1t-40 1q-52 0 -127 -7q0 -29 -3.5 -77t-3.5 -70v-18q7 0 18.5 -1t18.5 -1q13 0 40 1t40 1q19 0 60 -3.5 t43 -3.5q1 -5 2.5 -13.5t2 -11t3 -7t6 -6t10.5 -2.5t17 -1q10 -54 10 -124q0 -31 -2 -96.5t-2 -98.5q-58 -17 -149 -17t-101 -3q-6 -31 -6 -95q0 -61 2 -88q246 -12 389 -12q49 0 115 4v-25q0 -3 1 -9t1 -9q24 0 38 2v-24q5 -77 5 -95q0 -93 -25 -196q-90 0 -269 -3t-268 -3 q-184 0 -340 12v39q-7 0 -20.5 1t-20.5 1q0 158 -6 458t-6 449zM74 920q0 -151 5 -453t5 -457q120 -10 297 -10q90 0 271.5 3t271.5 3q20 79 20 174q0 32 -4 94v5q-47 -3 -88 -3q-77 0 -224.5 6.5t-224.5 6.5l-2 2q-8 52 -8 147q0 65 8 109q13 10 109.5 10t138.5 12 q0 32 1 91.5t1 87.5q0 71 -6 106v2q-28 1 -80 1t-94 1t-78 4l-2 2q-8 31 -8 78q0 28 3 81t3 81l8 2q31 4 138 4h161q149 0 238 20v3q0 31 3 96t3 98q0 47 -6 96q0 7 -150 7q-297 0 -698 -19q-12 -199 -12 -491z" />
<glyph unicode="F" horiz-adv-x="999" d="M41 -6q0 233 2 653.5t2 763.5q71 13 238.5 25t326.5 12q245 0 391 -35v-33q7 -3 41 -8q0 -23 2.5 -91t2.5 -107q0 -32 -7 -140q-10 -1 -229.5 -12t-321.5 -21q-12 -46 -12 -71q0 -4 -0.5 -13.5t-0.5 -13t2.5 -8.5t9.5 -6.5t18 -2.5q128 0 207 11q6 -14 10 -45q5 1 15.5 2 t15.5 2q14 -43 14 -94q0 -22 -2 -80t-2 -88q0 -21 2 -52.5t2 -43.5t-23 -20.5t-60 -14t-72 -8.5t-71 -5.5t-46 -3.5q-15 -221 -15 -421v-82q-99 -11 -239 -11q-130 0 -160 21v27q-34 7 -41 14zM61 233l2 -231q13 -8 138 -8q146 0 219 8q5 363 16 502h2q41 7 130.5 15.5 t131.5 15.5q7 0 7 4q-5 57 -5 75q0 32 2.5 95t2.5 90q0 54 -7 75q-35 -6 -139 -6h-21q-34 0 -49 0.5t-33.5 5.5t-25 16t-11.5 30.5t-5 50.5q0 50 18 90q99 9 304.5 19.5t242.5 13.5q2 18 2 65v84q0 33 -1 86t-1 68q-117 30 -371 30q-159 0 -317 -10.5t-227 -23.5v-293 q0 -181 -2.5 -455t-2.5 -412z" />
<glyph unicode="G" horiz-adv-x="999" d="M32 896v23q0 38 4 77q5 50 11.5 98.5t22.5 94.5t37.5 86.5t57 74t80 57.5t106 37.5t136.5 13.5q135 0 248 -54.5t181.5 -158t68.5 -235.5v-19.5v-20.5t-1 -17.5t-3.5 -17t-7.5 -12.5t-12 -11t-17 -6t-24 -3h-78q-9 0 -32.5 -0.5t-35 0t-36 2.5t-54.5 6q-1 2 -4 15 t-10 17.5t-27 8.5q-22 70 -37 90q-30 39 -94 39h-12.5h-11.5t-9 -1t-9 -2.5t-7.5 -4.5t-7.5 -8t-6.5 -12t-7.5 -16l-7 -21q-39 -127 -39 -377q0 -7 -1 -56v-41v-24q1 -16 3 -57t6.5 -62.5t12.5 -50t20 -49.5l25 -6h-2q8 -2 26 -2q53 0 93 18h-3q29 12 41 34.5t23 82.5h-14 h-25q-51 0 -80 10q-3 16 -7 24t-7 9.5t-12.5 3.5t-14.5 4q-9 74 -9 131v6q1 12 1 24q0 47 -2 93h6q6 0 6 -4l4 4q40 23 166 23q60 0 155 -6.5t109 -6.5l25 -2q0 -11 4 -39l37 -2q18 -207 18 -278q0 -134 -16 -209v2q-33 -307 -483 -307q-135 0 -238.5 69t-156 183t-52.5 252 q-20 173 -20 338v53v37q0 29 -1 58zM52 808q1 -59 1 -67v-5q0 -96 1 -147.5t8.5 -145.5t22 -149t44.5 -125.5t72 -108.5t108 -65.5t150 -27.5q66 0 123.5 7t118 26.5t105 50.5t76.5 83.5t40 121.5q16 75 16 205q0 94 -16 258l-7 2q-8 0 -106 6t-162 6q-117 0 -151 -20l-7 -4 v-2q5 -28 5 -82v-58q0 -54 4 -75q7 -5 41 -5q14 0 42 1t40 1q3 0 11 0.5t9.5 0t6.5 -2.5t5.5 -5.5t2 -10.5t1.5 -18q0 -48 -10.5 -82.5t-26 -53.5t-40 -30t-47 -14t-52.5 -3q-31 0 -55.5 14t-40 33.5t-26.5 53t-16 61t-7.5 70t-2.5 66t0.5 63t0.5 49.5q0 150 16.5 280 t44.5 158q25 25 74 25q8 0 25 -1t26 -1q28 0 52.5 -17.5t41.5 -46.5t27.5 -54.5t17.5 -51.5q63 -8 107 -8q147 0 152 10l2 12q4 46 4 66q0 185 -123 286t-314 101t-290 -82q-35 -25 -61.5 -63.5t-41.5 -90t-25 -96t-13 -108.5t-4 -98v-39v-53z" />
<glyph unicode="H" horiz-adv-x="1005" d="M47 1210q0 174 2 240l31 2q27 -6 55 -6q18 0 63.5 4t71.5 4h14.5h16t14.5 -1t15 -4t11.5 -8t10.5 -13t6 -19q8 -1 21.5 -4.5t15.5 -3.5q6 -59 13.5 -233t25.5 -269h23q62 0 114 8h15q12 147 12 291q0 160 -6 242q98 28 235 28q59 0 86 -4v-39q25 0 41 -2l56 -1470 q-70 -14 -194 -14.5t-134 -1.5l-6 43q-20 0 -35 -3q-15 106 -19 288.5t-10 246.5q-46 4 -55 4q-59 0 -108 -10q-3 -47 -3 -100q0 -42 2.5 -122.5t2.5 -121.5q0 -124 -15 -201q-38 -22 -100 -22q-24 0 -71.5 4t-67.5 4q-35 0 -76 -21q-1 9 -2 28.5t-2 29.5q-18 -4 -37 -17 q-12 148 -22.5 536.5t-10.5 706.5zM68 1210q0 -325 9.5 -693.5t20.5 -514.5q13 8 45 8q23 0 76.5 -5t79.5 -5q55 0 78 14q10 71 10 176q0 40 -2 120t-2 120q0 66 6 133q58 15 125 15q42 0 113 -11l2 -2q11 -84 13 -277t17 -288h3q16 2 59 2h74q94 0 153 10l-55 1434 q-23 2 -66 2q-129 0 -215 -25q6 -123 6 -227q0 -149 -14 -307h-2q-72 -10 -141 -10q-49 0 -80 8h-2q-18 94 -25 274.5t-18 263.5q-30 9 -74 9q-9 0 -27.5 -1t-27.5 -1l-68 -5q-3 0 -9 -1t-9 -1q-21 0 -45 7l-6 -2q-2 -66 -2 -220z" />
<glyph unicode="I" horiz-adv-x="507" d="M53 -37q15 227 15 385q0 118 -7.5 353t-7.5 354q0 191 21 411q28 4 37 4q58 0 119 -5t122 -5h49h70v-41h41v-28q0 -163 -7 -493.5t-7 -500.5q0 -225 12 -436q-33 -33 -150 -33q-30 0 -90.5 2t-87.5 2q-44 0 -88 -10q0 8 1 24.5t1 24.5q-35 -5 -43 -8zM74 1057 q0 -118 7 -357.5t7 -363.5q0 -172 -12 -344q28 4 47 4q25 0 96 -4t109 -4q99 0 121 22q-13 239 -13 447q0 165 7.5 490t7.5 485v8h-50h-47q-77 0 -147.5 5t-106.5 5h-8v-4q-18 -166 -18 -389z" />
<glyph unicode="J" horiz-adv-x="960" d="M-2 528q0 12 1 39t1 39q50 15 150 15q122 0 208 -19v-35q7 -1 20.5 -3t20.5 -3v-29q1 -6 2 -23t2 -26t3 -25t4.5 -26t7 -23t10 -21t13 -15.5t18 -11t22.5 -3.5q38 0 58.5 35.5t25.5 89.5q-8 240 -8 580q-1 28 -1 66q0 57 2 136q5 131 5 175v35l340 4v-41h41v-123 q0 -89 5 -277t5 -288q0 -34 -2 -100.5t-2 -100.5q-1 -51 -2 -76t-4.5 -75t-8 -78t-14 -72.5t-21.5 -72t-31 -62.5t-42.5 -58t-55.5 -45.5t-71 -36.5h2q-94 -51 -239 -51q-89 0 -161 24t-122 68t-86 100t-56.5 126t-30 140.5t-9.5 147.5zM18 526q0 -85 11.5 -162t38 -154.5 t78.5 -133t124 -76.5q82 -16 152 -16q130 0 231 49q41 15 74.5 38.5t57 55.5t41 64t28 75.5t17.5 79t10.5 85t4.5 82.5t2.5 84t2.5 77v104q0 99 -5 291.5t-5 286.5q0 67 2 102l-299 -4v-14q-6 -190 -6 -377q0 -329 8 -580q-5 -62 -31 -103.5t-74 -41.5q-41 0 -70 21.5 t-43.5 60.5t-20.5 73.5t-9 79.5v13q-96 14 -188 14q-75 0 -130 -10q-2 -23 -2 -64z" />
<glyph unicode="K" horiz-adv-x="993" d="M53 410q0 169 6.5 515t6.5 527h49q49 0 136 -2t130 -2v-41h41q2 -80 2 -266v-84q22 39 62 117t78 143t87 133q7 0 19.5 -1t19.5 -1q25 0 68.5 1t66.5 1q73 0 142 -10q-3 -7 -6.5 -17.5t-6.5 -17.5q7 -1 16 -2t20.5 -2t17.5 -2q-36 -116 -103 -243t-141 -253t-109 -207 l357 -743q-65 -16 -142 -16q-32 0 -91 3t-91 3q-13 13 -33 41h-8q-104 112 -213 389q0 -71 4 -216t4 -204q-64 -19 -161 -19q-90 0 -179 19q-3 17 -7 25.5t-6 10.5t-12.5 3t-15.5 2q-8 177 -8 416zM74 412q0 -225 8 -402q68 -14 158 -14q92 0 141 14q0 59 -4 207t-4 221 q0 68 2 101q31 -54 81 -168t100 -211t101 -156q153 -6 168 -6q68 0 117 10l-350 727q38 90 114 219.5t140.5 249.5t93.5 219q-58 7 -100 7q-22 0 -63.5 -1.5t-61.5 -1.5q-29 0 -53 3q-51 -74 -138.5 -239t-148.5 -243q-2 -2 -4.5 -5.5t-3.5 -4.5l-2 -2q-3 74 -3 151v189 q0 102 -2 151q-38 0 -116 2.5t-119 2.5q-16 0 -24.5 -1.5t-12 -7t-4 -9.5t0.5 -15.5t1 -18.5q0 -164 -6 -486t-6 -482z" />
<glyph unicode="L" horiz-adv-x="946" d="M41 -23v58q14 289 14 680q0 438 -8 739q62 25 172 25q124 0 197 -33q0 -4 -1 -13.5t-1 -13.5q7 -3 21.5 -7t21.5 -7q-4 -148 -4 -244q0 -123 3 -367t3 -364v-82q277 -16 405 -16q38 0 84 4v-45q7 1 20.5 2t20.5 2q0 -38 -3 -76t-3 -51q0 -4 1 -11t1 -10v-2q4 -98 4 -110 q0 -16 -1 -28.5t-1.5 -22t-4 -17t-4.5 -12.5t-7 -8t-8 -5t-11 -2.5t-12 -0.5h-15h-16q-5 0 -16.5 1t-18.5 1q-15 0 -66.5 -2t-146.5 -3.5t-215 -1.5q-156 0 -364 3v40h-41zM61 -2q300 -4 367 -4q117 0 208.5 2t141 4t62.5 2q10 0 24 -1t21 -1q27 0 35 12.5t8 63.5 q0 12 -4 110q0 3 -1 10.5t-1 10.5q0 17 3 52t3 52q-4 -2 -31 -2q-43 0 -209.5 9.5t-228.5 9.5q-34 0 -62 -4v2q0 28 1 80t1 79q0 114 -4 350.5t-4 352.5q0 86 4 246q-59 24 -176 24q-102 0 -151 -18q8 -407 8 -725q0 -370 -15 -680v-37z" />
<glyph unicode="M" horiz-adv-x="993" d="M43 338q0 555 6 1081q58 19 125 19q19 0 61 -2t64 -2q36 0 59 2q17 -24 29 -43q3 0 6 1t6 1q16 -18 32.5 -50.5t26.5 -59t25 -69t21 -57.5q15 66 46 154.5t60 128.5q28 -4 49 -4q36 0 139 5t144 5q0 -7 -1 -20.5t-1 -20.5h43q-2 -51 -2 -176q0 -73 2 -216t2 -216 q0 -149 -4 -191v2l-6 -676q-65 9 -131 9q-34 0 -94 -2t-86 -2q-2 14 -2 43q-9 0 -22.5 -1t-16.5 -1q-6 109 -7.5 330.5t-3.5 287.5q-4 -11 -12.5 -34t-13 -34.5t-11.5 -29t-12.5 -27t-12 -19.5t-13 -14t-13.5 -4q-17 0 -41 41q-28 2 -73 105q-2 -49 -2 -144q0 -179 20 -491 q-86 -13 -170 -13q-8 0 -28.5 -0.5t-33 -0.5t-31.5 1t-30.5 4t-23.5 8t-17.5 13.5t-5.5 20.5h-10q-17 0 -29 24q-6 16 -6 334zM63 338q0 -111 0.5 -175t2.5 -102t4.5 -49.5t7.5 -11.5q22 0 73 -1t80 -1q79 0 134 8q-19 296 -19 473q0 153 12 303l7 -20q5 -12 18 -49t25 -70 t26.5 -68t28 -56t22.5 -21t33.5 62t53.5 138.5t42 98.5q16 -136 22 -452t7 -345q15 0 59 1t70 1h74q21 0 67 -4l7 653q4 45 4 201q0 69 -2 209t-2 211q0 104 2 155q-37 0 -139 -5t-132 -5q-29 0 -33 2q-20 -27 -47.5 -108.5t-47 -147t-25.5 -63.5q-15 0 -42.5 67.5 t-58 147.5t-47.5 100h-2q-23 -2 -72 -2l-73 2h-33q-66 0 -100 -10q-7 -611 -7 -1067z" />
<glyph unicode="N" horiz-adv-x="983" d="M43 885q0 321 20 565q49 12 111 12q43 0 115 -11.5t76 -27.5q5 -20 22.5 -30t18.5 -11q55 -132 210 -462v43q0 53 -3 149t-3 148v18q0 24 2 62q2 52 2 75v45q77 15 168 15q69 0 156 -17v-35q7 -1 20.5 -3t20.5 -3v-676q0 -52 1 -175t1 -175q0 -21 -1 -59.5t-1 -57.5v-192 q0 -14 1 -41.5t1 -40.5l-2 -57q-4 -1 -17 -5t-30.5 -7t-38.5 -3q-32 0 -102 5.5t-99 5.5q-3 7 -9 20.5t-9 20.5h-23q-31 68 -84 180.5t-90.5 196.5t-62.5 153q0 -464 4 -567q-46 -15 -111 -15q-37 0 -109 6.5t-108 6.5v41h-41v163q0 131 -3 372.5t-3 367.5zM63 885 q0 -127 3.5 -368t3.5 -372v-143q31 0 97 -6t99 -6q51 0 90 10q-2 23 -2 78v92q0 180 4.5 350t10.5 170t26 -61l21 -62q28 -78 67.5 -168t95 -210.5t85.5 -188.5q28 0 94 -5t94 -5q38 0 68 10v41q0 28 -1 82.5t-1 81.5q0 38 1 112.5t1 114.5v176q0 117 -2 174v660 q-58 12 -136 12q-76 0 -147 -12q-4 -136 -4 -182q0 -48 3 -144.5t3 -152.5q0 -37 -4 -73t-10 -40q-4 0 -81.5 154.5t-90.5 187.5q-14 33 -33.5 72l-24.5 49l-22 47q-13 26 -27 61q0 8 -66.5 14.5t-103.5 6.5q-56 0 -92 -8q-19 -236 -19 -549z" />
<glyph unicode="O" horiz-adv-x="989" d="M39 799v34v82.5t3 86.5t9 94.5t18.5 88t30.5 85t46.5 68.5t64.5 55q129 63 283 63q106 0 207 -35.5t159 -105.5q67 -67 96 -137v2q18 -39 27.5 -88t11.5 -85t1 -92v-124.5t-0.5 -130t-3 -116t-7.5 -124.5l-6 -68q-16 -187 -82 -286q-57 -80 -168.5 -118t-228.5 -38 q-139 0 -239.5 44t-154.5 155v-3q-21 37 -33.5 89.5t-15.5 85t-5 106t-3 88.5q-10 173 -10 324zM59 803q0 -70 2.5 -145t7.5 -170.5t7 -143.5q2 -109 30 -184t80.5 -115.5t117.5 -57t155 -16.5q111 0 219.5 37t161.5 111q63 99 78 276l6 68q5 58 8 129q2 72 2 108v52v84v120 q0 64 -1 92t-9.5 77.5t-26.5 86.5q-39 111 -152 166.5t-251 55.5q-95 0 -182.5 -23.5t-137.5 -73.5q-18 -21 -33.5 -46.5t-26.5 -46.5t-20 -55t-14.5 -53t-9.5 -59.5t-6.5 -55t-3.5 -59.5t-1 -53.5v-56.5v-49zM281 741q0 412 227 412q34 0 61 -14t44 -35t29 -52t18 -57 t9.5 -59t4 -49t0.5 -35l4 -139v-99v-37q0 -126 -6.5 -172.5t-38.5 -82.5q-25 -31 -66 -47.5t-84 -16.5q-50 0 -85 18.5t-53 44.5t-29.5 69t-15 78t-7.5 87.5t-8 81.5q-4 70 -4 104zM344 700q0 -67 2 -102v2q5 -29 14 -131.5t25 -155.5l-2 2l6 -12q40 -24 94 -24q84 0 135 57 l-2 -2q30 38 35.5 74.5t5.5 161.5v44v99l-4 139v8q-1 8 -2.5 42t-3.5 52t-8.5 48.5t-16 47t-28 29.5t-43.5 13q-64 0 -117 -49.5t-69 -116.5v2q-21 -94 -21 -228z" />
<glyph unicode="P" horiz-adv-x="991" d="M41 1440q153 43 319 43q99 0 192.5 -19t179.5 -60t151 -100.5t106.5 -146.5t48.5 -192v-2q0 -131 -72.5 -245.5t-189.5 -180.5t-246 -66q-35 0 -51 2v-86q0 -197 6 -426q-9 0 -84 -9t-127 -9q-93 0 -178 10q0 21 -5.5 30t-11.5 10t-24 1q-8 199 -8 700v248q0 344 -6 498z M61 1423q9 -258 9 -727v-360q0 -174 6 -324q55 -8 157 -8q136 0 185 16l6 5q-6 199 -6 376v80q0 40 -2 58q44 -7 73 -7q115 0 227 58t186.5 162t74.5 223v31q-6 123 -61.5 214.5t-145.5 142.5t-193 75t-219 24q-148 0 -297 -39zM360 1137q12 12 86 12q103 0 172 -57 q64 -40 64 -119q0 -32 -10 -56.5t-31.5 -39.5t-42 -24.5t-53.5 -13.5t-54.5 -6t-57 -2.5t-48.5 -1.5h-6q-11 37 -15 95q-2 41 -3 77q1 15 1 31v35q0 34 -2 70zM422 1079q2 -31 2 -88v-59q0 -63 4 -80h10q35 0 61 1.5t59 8.5t53.5 19.5t35.5 36.5t15 57q0 41 -29.5 67.5 t-66.5 35.5t-79 9q-38 0 -65 -8z" />
<glyph unicode="Q" horiz-adv-x="1021" d="M47 516v285q0 308 45 471q29 93 149.5 152t282.5 59q124 0 193.5 -19t124.5 -86q98 -76 141 -254.5t43 -410.5q0 -50 -5 -134t-5 -147q0 -110 -27 -196l2 4q-16 -62 -43 -117q35 -35 35 -66q0 -47 -54.5 -91t-109.5 -44q-13 0 -36.5 17t-41.5 38q-36 -24 -90.5 -38.5 t-107.5 -14.5q-65 0 -117 11t-96.5 37t-76.5 52.5t-77 71.5q-79 76 -104 175.5t-25 244.5zM68 481q0 -76 13.5 -144.5t45.5 -134t80.5 -112.5t124 -75.5t170.5 -28.5q60 0 118.5 18.5t81.5 44.5q13 -19 39 -42t37 -23q44 0 94 38.5t50 75.5q0 5 -2 11t-6.5 12.5t-8.5 11.5 t-11 13.5t-11 13.5q49 116 57 178q7 29 10 63t4.5 75.5t3.5 64.5q7 96 7 213q0 291 -60 479q-23 54 -46 93t-52 64t-55 39.5t-66 21.5t-73 9t-89 2q-154 0 -268 -54.5t-143 -141.5q-45 -161 -45 -486v-299zM317 555q0 178 2.5 253t14.5 191q3 46 8 70.5t15 44.5t31.5 28 t50 11.5t79.5 3.5q91 0 129.5 -42.5t46.5 -123.5q17 -230 17 -391q0 -138 -21 -227q-13 13 -27.5 40.5t-27 44.5t-27.5 17q-14 0 -26 -7t-24.5 -19t-20.5 -17q-9 -7 -29.5 -17t-29.5 -20t-9 -28q0 -19 16 -44.5t30.5 -41.5t41.5 -43q-4 -2 -18 -2h-19q-114 0 -158.5 68.5 t-44.5 250.5zM379 502q0 -127 18 -187l-2 2q11 -37 41 -49t76 -12q-63 63 -63 111q0 27 13 40.5t39.5 27t41.5 28.5q2 2 7.5 6.5t8.5 6.5t8.5 6t9.5 6t9.5 4t10.5 3t11 1q19 0 38.5 -23t31.5 -29q4 56 8 64v-4q2 23 2 82v153v30.5v35.5t-0.5 35.5t-1 38.5t-2 37t-3.5 38.5 t-5 34.5t-6.5 33.5t-9 27.5t-11.5 25q-37 21 -90 21q-45 0 -70.5 -3.5t-44.5 -10t-28 -24.5t-13.5 -39.5t-7.5 -62.5q-14 -164 -14 -294v-54q0 -15 -1 -50.5t-1 -55.5z" />
<glyph unicode="R" horiz-adv-x="1163" d="M37 1448q8 1 54.5 7.5t61.5 8.5t55.5 7.5t63.5 7.5t57 5t63.5 4t58.5 1q165 0 285 -38.5t202 -133.5q147 -180 147 -338q0 -88 -35.5 -176t-112 -156.5t-177.5 -79.5q41 -71 120 -186t136.5 -212.5t93.5 -197.5l12 -26h-28q-35 0 -118 -4t-130 -4q-43 0 -109 4 q-2 4 -6 13.5t-6.5 14t-10 9t-18.5 4.5q-108 255 -219 426v-54q0 -78 8.5 -214.5t8.5 -170.5q-65 -32 -220 -32q-17 0 -47 1t-43 1h-118q-3 61 -3 88q0 80 -2 186q1 85 1 181q0 238 -6 540q-8 422 -19 514zM61 1432q23 -124 23 -1016v-211q0 -98 -2 -137v-64q6 -2 14 -2 q10 0 53 -2t72 -2q160 0 211 25q-16 203 -16 370q0 77 6 129l4 -6q139 -170 285 -514h2q70 -4 106 -4q43 0 121.5 4t110.5 4q-36 99 -99.5 205t-144 224t-121.5 190l10 2q63 5 117.5 31.5t92 66t64.5 90t39.5 102.5t12.5 103q0 109 -53.5 208t-151.5 163t-217 69 q-68 8 -151 8q-129 0 -388 -36zM360 1145q73 33 146 33q70 0 115 -42.5t45 -113.5q0 -74 -42.5 -104.5t-136.5 -30.5q-61 0 -114 6h-2q-6 34 -7.5 129t-3.5 123zM422 1090q4 -54 4 -95q0 -8 -1 -27.5t-1 -31.5q0 -5 1 -14.5t1 -14.5h61q47 0 91 6h-3q35 7 53.5 37.5 t18.5 71.5q0 94 -100 94q-57 0 -125 -26z" />
<glyph unicode="S" horiz-adv-x="1126" d="M98 385q0 4 1 13.5t1 13.5v28q61 9 119 9q38 0 118.5 -2.5t117.5 -2.5q0 -23 6 -41h35q0 -51 22.5 -70.5t67.5 -19.5q44 0 75 25t31 70q0 20 -6 36.5t-14 28t-24 21.5t-27.5 15.5t-33.5 11t-33.5 8t-36 6.5t-32.5 6l-30 6q-61 12 -102.5 40t-88.5 75q-143 137 -143 325 q0 193 139 329t340 136q136 0 252 -49t190 -148t74 -229q0 -52 -12 -117h-17q-89 -14 -167 -14q-97 0 -168 20q2 6 2 31q-30 4 -43 10q2 6 2 27q0 43 -21 57.5t-57 14.5q-41 0 -69.5 -25t-28.5 -72q0 -16 3.5 -27t13.5 -16.5t16 -7.5t23 -3.5t21 -2.5q126 -19 240 -96.5 t183 -190t69 -227.5q0 -138 -63 -244.5t-163 -160.5t-218 -54q-136 0 -265 59t-214 166t-85 232zM121 387q0 -74 29.5 -138.5t79 -111t114 -80.5t136 -50.5t143.5 -16.5q84 0 159 28.5t134 81.5t93.5 137.5t34.5 188.5q0 169 -128.5 301.5t-303.5 153.5q-137 13 -137 120 q0 56 35 85.5t84 29.5q57 0 100 -33t43 -86q0 -18 -2 -24q71 -19 142 -19q57 0 165 17h2q11 64 11 96q0 94 -37.5 166t-102 114.5t-144 63.5t-171.5 21q-195 0 -327 -129.5t-132 -315.5q0 -52 17 -111t49.5 -115.5t87.5 -98.5t123 -54q12 -3 47.5 -10t52 -10.5t48 -13 t47.5 -17.5t38.5 -23t33.5 -32t19.5 -41t8.5 -53q0 -57 -36.5 -86t-90.5 -29q-60 0 -104 34t-48 97q-30 0 -100 2t-107 2q-57 0 -106 -6v-12v-23z" />
<glyph unicode="T" horiz-adv-x="944" d="M16 1305q0 110 2 157q65 0 195 2t197 2q297 0 495 -22l19 -19v-20q4 0 11 -1t11 -1l19 -19q4 -70 4 -122q0 -86 -17 -222q-71 11 -94 11q-41 0 -151 -7h-11q-2 -18 -2 -108q0 -138 15 -983q-47 -8 -129 -8h-60q-109 0 -178 -11q-6 10 -10 46q-3 0 -7.5 -1t-11 -2 t-12.5 -2q-10 18 -10 78q0 13 1 125t1 189q0 271 -19 680q-27 3 -49 3q-11 0 -21 -1q-15 -1 -31.5 -1t-34.5 1q-36 2 -64 12q0 1 -2 11.5t-10 16.5t-29 13q-6 14 -11.5 74t-5.5 129zM37 1305q0 -168 12 -189q7 -2 107 -3.5t139 -20.5l2 -2q16 -373 16 -738q0 -111 -2 -220.5 t-2 -113.5t0.5 -8.5t1 -7.5t0.5 -4q37 6 80 6h86q121 0 170 8v4q-14 785 -14 961q0 114 4 123l2 6h6q108 6 168 6q47 0 82 -6q12 89 12 197q0 42 -4 120q-213 21 -493 21q-66 0 -188.5 -1t-182.5 -1l2 -4q-4 -29 -4 -133z" />
<glyph unicode="U" horiz-adv-x="1015" d="M39 301q0 147 5 447t5 456q0 146 -2 209q25 0 80.5 2t83.5 2q96 0 166 -20q0 -5 -1 -15.5t-1 -15.5q7 -3 21.5 -5t21.5 -5q-8 -153 -8 -365q0 -296 26 -655v4q7 -37 60 -37q38 0 69 23t41 63v-4q8 184 11.5 527t7.5 483q110 16 211 16q86 0 120 -25l9 -16v-10 q22 -6 32 -14l9 -17q10 -218 10 -395q0 -359 -35 -668q-21 -159 -135.5 -259.5t-284.5 -100.5q-129 0 -245 46.5t-194 138.5t-83 210zM59 301q2 -82 43.5 -148t108.5 -105.5t146 -60t163 -20.5q173 0 277 92t123 250q34 278 34 666q0 177 -10 395q-35 21 -113 21 q-69 0 -186 -15q-3 -109 -6 -456t-12 -535q-10 -47 -48 -74.5t-83 -27.5q-41 0 -74.5 23.5t-46.5 68.5q-27 332 -27 657q0 195 8 348v2q-58 15 -137 15q-29 0 -80 -2t-71 -2h-2l2 -2q0 -31 1 -95.5t1 -97.5q0 -151 -5.5 -450t-5.5 -447z" />
<glyph unicode="V" horiz-adv-x="952" d="M23 1403q37 43 192 43q95 0 137 -10q4 -29 10.5 -35t30.5 -6q8 -40 11 -155.5t14.5 -283.5t40.5 -327q17 77 30.5 152.5t27 160.5t20.5 125v-2q4 26 15 96.5t17 102.5t17.5 84.5t25.5 95.5q72 -15 174 -15.5t140 -7.5l16 -24q-2 -2 -2 -13q4 -1 13 -2t14 -2l16 -24 q-63 -333 -143.5 -656.5t-200.5 -758.5q-17 0 -62.5 -4.5t-82.5 -4.5q-130 0 -189 23q-2 5 -3.5 11t-3 8t-3 5t-6 5.5t-9.5 5t-16 6.5q-181 650 -241 1407zM43 1395q61 -737 240 -1385q49 -16 170 -16q33 0 77.5 4t51.5 4q120 438 199 754t141 645q-44 7 -145.5 7t-149.5 11 q-4 0 -4 -4q-26 -100 -75.5 -409.5t-105.5 -548.5q-48 195 -70 408.5t-27 367.5t-11 184q-24 8 -119 8q-150 0 -172 -28v-2z" />
<glyph unicode="W" horiz-adv-x="966" d="M31 1444q73 12 153 12q33 0 93.5 -3t84.5 -3q0 -15 2.5 -24.5t8 -13t9 -4.5t11.5 0t10 1q11 -127 11 -342v-121q0 -140 4 -178q19 163 63 207q21 -21 33 -49l8 8q21 -16 35.5 -55.5t30.5 -110.5q1 42 4 160t5 188t6.5 164t10.5 158q72 16 164 16q78 0 146 -6l14 -25 q0 -3 -1 -7t-1 -7q5 0 14.5 -1t14.5 -1l14 -25q-18 -217 -67 -693.5t-70 -735.5q-31 -8 -72 -8h-125q-3 4 -24 41h-17q-16 22 -30 55.5t-21.5 59.5t-19 71.5t-17.5 65.5q-9 -30 -21.5 -91t-26.5 -108.5t-36 -83.5q-64 -12 -110 -12q-42 0 -99 8l-6 37q-7 0 -35 4l-26 186 q-37 260 -57.5 420.5t-42.5 406t-25 439.5zM51 1423q2 -115 10.5 -244.5t16.5 -222t27.5 -249.5t28 -220.5t35 -249l32.5 -227.5h2q46 -6 78 -6q42 0 100 10q19 31 52 172.5t59 167.5h2q24 -38 60 -177t60 -171h136q12 0 32 4q21 252 69 723.5t67 691.5l-3 2q-79 7 -137 7 q-84 0 -145 -13v-2q-11 -120 -18 -436t-19 -434q-13 32 -37 130t-45 179.5t-31 89.5q-1 -1 -4 -10q-10 -39 -28 -114t-33 -134.5t-31 -114.5q-35 132 -35 424v228q0 124 -8 203q-147 6 -160 6q-58 0 -133 -11v-2z" />
<glyph unicode="X" horiz-adv-x="1009" d="M25 1430q147 10 233 10h39h10q22 0 32.5 -0.5t24 -4.5t19.5 -13t6 -25q25 -3 46.5 -59.5t45 -156.5t31.5 -126q19 59 57 196.5t56 192.5q96 8 268 8h82v-29l-4 -12h45v-29q-22 -67 -77.5 -219t-91 -270t-52.5 -234q29 -141 102.5 -391.5t93.5 -328.5q-55 6 -80 6 q-21 0 -63 -2t-68 -2q-4 0 -20.5 -0.5t-22.5 0t-19 1.5t-19.5 4.5t-15.5 8.5t-14.5 13.5t-9.5 19.5q-17 3 -31 21t-24 49t-16.5 56.5t-14 62.5t-10.5 48q-23 96 -31 117q-10 -30 -47 -169t-79 -230q-62 -4 -109 -4q-136 0 -207 26q1 4 3 13.5t3 13.5q-7 3 -23.5 7t-23.5 7 q20 78 103.5 320t113.5 385q-7 39 -17 80.5t-18.5 74.5t-24 80t-24.5 72.5t-28.5 78.5t-27 72.5t-31 79t-29.5 74.5zM53 1411q8 -20 44 -112t47.5 -122.5t40 -108.5t42.5 -123.5t31.5 -110.5t28.5 -123q-9 -40 -22.5 -89t-25 -84t-31 -94.5t-28.5 -89.5l-57 -174 q-35 -110 -49 -162q51 -18 182 -18q34 0 96 4q33 70 76 230.5t78 238.5l2 -2q35 -69 73 -233.5t66 -225.5l2 -2q31 -8 90 -8q24 0 67 2t64 2h27q21 0 27 -2q-7 28 -47 170l-54 174q-66 199 -90 350q17 114 52 233t91.5 276.5t77.5 222.5l2 4h-2q-205 0 -313 -9v-2 q-8 -25 -60 -214t-81 -253q-14 36 -34 101.5t-35 118t-37 131.5t-29 102q-7 10 -29 10h-78q-88 0 -205 -8z" />
<glyph unicode="Y" horiz-adv-x="966" d="M27 -20q76 232 276 731q-24 104 -78 232t-107.5 256.5t-78.5 238.5q34 0 101.5 6t101.5 6h6h4q101 0 110 -51q15 -3 35 -13q27 -130 113 -348q24 58 69.5 199t67.5 190q67 17 230 17q23 0 98 -6v-27q-3 -9 -4 -10q32 -4 45 -4v-27q-49 -161 -133.5 -357.5t-162.5 -353.5 t-168 -358.5t-146 -363.5q-22 4 -64 4q-28 0 -94 -3.5t-98 -3.5q-48 0 -82 5l12 36q-8 0 -27 2t-26 3zM55 -2h4q6 -2 25 -2h25q32 0 98 3t94 3h27q18 0 24 -2q54 159 141.5 355t164 350.5t161 351t135.5 360.5v2q-32 4 -77 4q-146 0 -215 -14q-19 -43 -77 -216t-89 -228 q-39 83 -89 222t-69 226q-38 17 -96 17q-30 0 -89.5 -6.5t-86.5 -6.5q28 -116 128.5 -351t129.5 -355v-4q-205 -512 -269 -709z" />
<glyph unicode="Z" horiz-adv-x="1026" d="M12 1430q223 20 428 20q84 0 260.5 -4t272.5 -4q1 -8 2 -21t2 -20h37q6 -47 6 -113q0 -75 -2 -114v2q-2 -41 -2 -121l-2 -13q-61 -106 -141 -224t-188.5 -270t-147.5 -208q100 8 346 8q9 0 24 1.5t22 1t16 -3.5t14 -13t8 -27h34q11 -67 11 -139q0 -36 -15 -236 q-272 15 -467 15q-237 0 -401 -10q-9 21 -12 43q-20 0 -29 -3q-27 67 -27 156q0 19 2.5 59t2.5 60q0 14 -5 76q20 46 46.5 96t48.5 90t59.5 97t58 88.5t65.5 94t60 83.5t65 88.5t58 78.5q-233 17 -403 17q-5 8 -10.5 23t-6.5 18h-24q-16 27 -20 75q-2 28 -2 54q0 19 2 36v17 q0 34 -8 72q-10 46 -38 74zM57 1413q4 -4 4 -8v-2q13 -45 13 -121v-45q0 -86 16 -115q88 0 248.5 -7.5t245.5 -18.5q-20 -29 -122.5 -170t-149 -208.5t-117.5 -183t-113 -208.5q2 -23 2 -68q0 -21 -1 -61.5t-1 -59.5q0 -84 18 -139q218 10 389 10q235 0 449 -12v4 q10 105 10 207q0 63 -6 121v6q-77 -3 -177.5 -5t-170 -6t-168.5 -16l2 2q53 82 244 356t282 429v2q0 36 3.5 111t3.5 114q0 42 -7 100q-90 0 -262 3t-256 3q-256 0 -379 -14z" />
<glyph unicode="[" horiz-adv-x="653" d="M51 -27v719q0 416 23 770q67 11 139 11q49 0 143 -5.5t140 -5.5q67 0 116 6v-45q9 0 41 4v-67v-38v-41t-1.5 -34.5t-4 -38.5t-8 -31.5t-12.5 -33.5h-33q-28 0 -78 -3t-74 -3q-4 0 -13.5 1t-14.5 1q-8 -107 -8 -242q0 -116 16 -596q31 -4 91 -6.5t85 -5.5q0 -16 1.5 -24.5 t8 -12t11 -4t20.5 -0.5q10 -105 10 -209q0 -44 -4 -98l-217 -2h-45q-207 0 -291 -7v45q-8 -1 -21 -2t-20 -2zM72 4v-8q62 4 153 4h162h199q2 27 2 80q0 106 -8 190q-20 2 -66 4t-84 6t-70 11v2q0 90 -8 312t-8 337q0 158 10 258h2q14 -2 35 -2q25 0 75 4t73 4q7 0 17 -1 t17 -1h7q12 40 12 107v135q-21 -4 -94 -4q-44 0 -137 5t-142 5q-70 0 -127 -8v-2q-20 -308 -20 -752q0 -78 1 -226.5t1 -221.5q0 -40 -1 -119t-1 -119z" />
<glyph unicode="\" horiz-adv-x="806" d="M-12 1444q53 26 133 26q17 0 48 -1t48 -1q35 0 84 9q3 -8 6 -23.5t6 -23.5q10 3 29 6q38 -148 63 -233t33.5 -103.5t17.5 -38t17 -47.5h-2q5 -14 14.5 -46.5t18 -57.5t18.5 -48q189 -522 195 -532l-2 2q26 -58 67 -182h-2q1 -2 6.5 -17.5t10.5 -28.5v2q39 -105 39 -139 q0 -30 -23 -30q-89 2 -137.5 1.5t-71.5 -1t-32.5 0.5t-22.5 5q-12 12 -17 24v-2l-6 17q-25 0 -34 26v-2l-117 295q-1 3 -45 125v-2q-46 116 -119.5 340t-114.5 332q-15 48 -42 131.5t-39.5 124.5t-12.5 53h2q-1 1 -3 9t-5 13zM14 1436q7 -14 19 -52t57.5 -180.5 t106.5 -326.5q11 -33 45 -136.5t50.5 -153.5t45.5 -131t55 -147l117 -295q2 -5 6.5 -8t14.5 -4.5t16.5 -1.5h24.5h12h73q68 0 115 -2h2q4 0 4 8q0 26 -57 178q-34 110 -66 181q-2 5 -12.5 30t-27 69t-44 120.5t-76 219.5t-110.5 331q-4 6 -19.5 50t-39 120.5t-41.5 146.5 q-27 -6 -60 -6q-19 0 -59 2t-60 2q-67 0 -92 -14z" />
<glyph unicode="]" horiz-adv-x="651" d="M40.5 1308q-0.5 14 0 49.5t0.5 43.5v67q49 -6 117 -6q44 0 138 5.5t144 5.5q76 0 140 -13q0 -8 0.5 -13t1 -9t2.5 -6.5t3 -4t6 -3t7 -2t9.5 -1.5t11.5 -2q20 -279 20 -706v-490q-1 -50 0.5 -140t1.5 -120v-31q-89 7 -291 7h-45l-217 2q-1 7 -2 20.5t-2 20.5h-37 q-4 54 -4 98q0 104 10 209q21 2 63.5 4.5t80 6t73.5 9.5q0 85 8.5 300t8.5 329q0 100 -6 199q-26 0 -73 3t-71 3h-39q-5 12 -10 41h-31q-7 18 -11 37.5t-5.5 46t-2 40.5zM61 1311q0 -63 13 -107h6q5 0 16.5 1t16.5 1q25 0 75 -4t74 -4q21 0 35 2h2q10 -100 10 -258 q0 -115 -8 -337t-8 -312v-2q-32 -7 -70 -11t-83.5 -6t-65.5 -4q-8 -84 -8 -190q0 -53 2 -78l198 -2h162q92 0 154 -4v8q-4 208 -4 315q0 70 1 214.5t1 218.5q0 425 -19 690v2q-57 8 -129 8q-48 0 -140 -5t-138 -5q-72 0 -93 4v-135z" />
<glyph unicode="^" horiz-adv-x="901" d="M-16 961q51 72 114 142t110.5 114t123.5 112.5t119 110.5l485 -486l-29 -28q0 -1 1 -2t1 -2q0 -3 -24.5 -8t-69.5 -9t-90 -4q-7 0 -30.5 -0.5t-31.5 0t-28.5 3.5t-33 11t-32 20.5t-39 34t-41.5 50.5h3q-3 1 -5.5 4t-5.5 4q-3 -3 -38.5 -41t-58 -57.5t-36.5 -22.5 q-46 -4 -49 -4q-12 0 -47 3t-97.5 7t-129.5 7q4 7 13 18t13 18q-12 1 -34 2.5t-33 2.5zM23 979q204 -12 239 -12q25 0 43 2q13 3 67.5 62.5t71.5 64.5q15 -7 68 -67t68 -60q39 -6 102 -6q46 0 90.5 4.5t72 9t32.5 4.5h4l-430 430q-38 -36 -113 -104t-118.5 -108t-99.5 -101 t-97 -119z" />
<glyph unicode="_" horiz-adv-x="1294" d="M43 -66q52 0 211 3q107 0 385 4q124 0 267 1t239.5 2t109.5 1q-1 -7 -3 -20.5t-3 -20.5h47q-14 -80 -14 -150q0 -8 1 -50t1 -73q-11 0 -433.5 2t-596.5 2h-166q0 1 -1 16t-1 25h-39q0 12 -2 104.5t-2 133.5v20zM63 -86v-59q0 -39 2.5 -98t2.5 -60h82q64 0 328 -2t405 -2 h340q0 31 -1 67.5t-1 49.5q0 45 10 114h-199q-141 0 -374 -2.5t-410.5 -5t-184.5 -2.5z" />
<glyph unicode="`" horiz-adv-x="522" d="M-2 1270l168 170q68 -55 196 -189.5t191 -183.5l-2 -2q29 -29 43 -39q-94 -20 -219 -20q-68 0 -111 6q-56 68 -143 141v-2q-32 26 -57 50.5t-44.5 45.5t-21.5 23zM27 1270l2 -2q6 -6 98 -90t109 -107q21 -4 98 -4q136 0 176 12q-13 12 -149 150.5t-193 183.5z" />
<glyph unicode="a" horiz-adv-x="991" d="M29 545q0 232 115.5 362.5t293.5 130.5q57 0 89 -8.5t59 -40.5q1 7 2 17.5t1.5 15t2 11.5t3 9.5t4 6.5t6.5 5t9.5 2t12.5 1q12 0 33.5 -3t29.5 -3h19q37 0 202 -11l19 -18q0 -4 1 -11.5t1 -11.5h20l19 -18q4 -32 4 -51v-21q-2 -55 -2 -159q0 -78 2 -230.5t2 -230.5 q0 -122 -6 -248v-14v-9q0 -24 -1 -36.5t-11.5 -27t-30.5 -17.5h-29q-26 0 -70.5 3t-62.5 3q-16 0 -44 -3t-44 -3q-34 9 -43 40q-26 11 -33 23q-107 -66 -211 -66q-82 0 -152.5 58t-115 149t-69.5 197t-25 207zM49 545q0 -68 10.5 -141t35 -146.5t58.5 -131.5t85 -94t112 -36 q70 0 145 34t126 85q0 -13 -4.5 -34.5t-4.5 -37.5q0 -36 25 -45q15 0 44 3t44 3q21 0 66 -3t67 -3h25q17 4 21.5 17t4.5 38v29q9 135 9 268q0 77 -3.5 227t-3.5 228q0 96 2 145v21q0 17 -4 49q-58 4 -200 10h-23q-8 0 -27.5 1t-27.5 1q-10 0 -16.5 -7.5t-9 -23.5t-3 -27.5 t-0.5 -32.5v-7v-10q-14 34 -33.5 54t-51 28.5t-54.5 10t-70 1.5q-146 -5 -245 -138t-99 -335zM301 504q0 66 12 108q11 56 60.5 93.5t130.5 37.5q29 0 45.5 -2.5t30.5 -9.5t18 -20q6 -13 10 -34q3 -16 3 -37q-1 -7 -1 -15q-1 -19 0 -41v-32v-22v-21.5v-25.5 q0 -44 -1.5 -69.5t-8.5 -54t-20 -43t-37 -24t-60 -9.5q-84 0 -133 63t-49 158zM362 463q0 -160 121 -160q22 0 39 5t28.5 12.5t19 23t11.5 28.5t6 39t2.5 43.5t0.5 51.5v53q0 13 0.5 32t0.5 28t-1 21.5t-3.5 18.5t-7.5 12.5t-13.5 8.5t-20.5 2q-70 0 -114.5 -33.5 t-55.5 -81.5v-2q-13 -45 -13 -102z" />
<glyph unicode="b" horiz-adv-x="933" d="M51 250q0 159 7.5 514t7.5 543v153q54 10 139 10q60 0 110 -9.5t50 -20.5v-23q41 -9 41 -18v-23q2 -38 5 -72.5t4 -57t1 -64.5q0 -17 -0.5 -36.5t-1.5 -52.5t-2 -65q64 21 147 21q203 0 307.5 -127.5t104.5 -378.5q-2 -61 -5.5 -107t-11 -104.5t-21 -102.5t-33.5 -91 t-50 -80t-68.5 -60.5t-92 -41t-118.5 -13.5q-105 0 -157 73v-39q0 -11 -3.5 -18.5t-11.5 -12t-16 -7t-21.5 -3t-23 -0.5t-26 0.5t-25.5 0.5q-31 0 -96 2t-97 2q0 7 -1 20.5t-1 20.5h-39q-2 80 -2 268zM72 227q0 -153 2 -225q24 0 83 -2t89 -2q4 0 23 -1h17h12q10 0 25 2 t22 6.5t7 12.5q0 84 15 84q3 0 8 -8q44 -90 151 -90q57 0 105 11t83.5 29t64 48t48 60t34 74.5t22.5 81t14 90t8 91.5t4 95q0 156 -40.5 270.5t-125.5 144.5q-69 29 -184 29q-80 0 -143 -16t-66 -39q2 63 2 155v95q0 49 -8 194v23q0 10 -139 10q-75 0 -119 -8v-135 q0 -192 -7 -552.5t-7 -527.5zM342 555q0 59 1 91.5t5.5 63t11.5 43.5t22.5 23.5t34.5 12.5t50 2q174 0 195 -146q14 -39 14 -119q0 -108 -51.5 -188t-135.5 -80q-41 0 -69 15.5t-43 38.5t-23 65.5t-10 79.5t-2 98zM403 428q0 -18 2 -46.5t7.5 -43t15 -30.5t25 -22.5 t36.5 -6.5q75 0 120.5 73.5t45.5 173.5q0 85 -12 113l-2 4q-10 52 -40.5 69t-92.5 17q-26 0 -42 -2t-29 -11.5t-18.5 -21t-9.5 -39.5t-5 -57.5t-1 -83.5v-32v-54z" />
<glyph unicode="c" d="M61 659q0 80 7 134t34 125l-2 -3q19 75 114.5 114.5t221.5 39.5q16 -2 76 -2q6 0 23 1t26 1q93 0 176.5 -32t128.5 -95q1 -1 4 -3t4 -3q56 -40 72.5 -136t16.5 -265q-71 -11 -97 -11q-30 0 -64 3t-81 9t-57 7q-1 3 -2 10t-1.5 8.5t-2.5 6t-4.5 5.5t-6.5 3.5t-9.5 4 t-14.5 3.5q-7 46 -25.5 69t-62.5 23q-9 0 -37 -4h2q-20 -6 -35 -16t-24 -26t-14.5 -29t-7 -36t-1.5 -36v-39v-35q0 -19 -3 -68t-3 -61q0 -18 15.5 -27.5t29 -10.5t37.5 -1q57 0 84 18h-3q5 2 9.5 7t8 13.5t7 16.5t6.5 20t5 19.5t5.5 20.5t4.5 18q50 -4 79 -4q20 0 62.5 2 t62.5 2q49 0 76 -6l17 -23q0 -3 -1.5 -7t-1.5 -7q5 -1 14 -2t13 -2l16 -23q-7 -96 -11.5 -144.5t-17.5 -107.5t-32 -80q-43 -61 -116.5 -83.5t-172.5 -22.5q-61 0 -88.5 0.5t-81 5.5t-85 15.5t-70.5 31t-68 51.5l-18 19q-129 97 -129 389v63q0 113 -7 172zM82 662 q6 -56 6 -117q0 -19 -1 -58t-1 -59q0 -85 11 -152t39.5 -131.5t86 -106.5t142.5 -56q30 0 98.5 -3.5t105.5 -3.5q95 0 163.5 20.5t107.5 76.5q13 13 22.5 42.5t16.5 82t10 89t8 107.5q-27 6 -78 6q-27 0 -79.5 -2t-71.5 -2q-25 0 -31 2q-7 -35 -14.5 -56t-23 -40.5t-41 -28 t-64.5 -8.5q-60 0 -101 27t-41 80v38v65.5t1 57.5t4 53.5t7.5 44t12 39t18.5 29t26 23.5t34.5 12.5t44.5 5.5q58 0 94 -37t47 -100q106 -18 184 -18q49 0 76 8q0 14 -1 40q-2 62 -3.5 92.5t-6.5 76t-12.5 70.5t-22 50t-34.5 40q-92 88 -268 88q-14 0 -40 -1t-38 -1 q-27 0 -41 2q-200 0 -276 -85.5t-76 -301.5z" />
<glyph unicode="d" horiz-adv-x="933" d="M4 584q0 158 45 278.5t135 155.5q74 31 191 31q123 0 188 -35q-1 40 -2 88t-1.5 75t-0.5 46q0 43 1 65.5t4 56.5t5 72v23q0 11 50 20.5t110 9.5q80 0 139 -12v-35q7 -1 20.5 -3t20.5 -3v-151q0 -182 7.5 -535t7.5 -522q0 -188 -2 -268q-32 0 -97 -2t-96 -2 q-9 0 -25.5 -0.5t-26 -0.5t-23 0.5t-21.5 3t-16 7t-11.5 12t-3.5 18.5v5q-5 0 -14 1t-13 1l-4 4q-53 -45 -133 -45q-177 0 -272 118q-162 129 -162 523zM25 584q1 -70 4.5 -122t13.5 -116t26 -109.5t45 -92.5t68 -75.5t96.5 -46.5t129.5 -18q105 0 151 90q3 8 8 8 q11 0 18 -72q2 -28 -1 -26q46 -6 104 -6q29 0 88 2t84 2q2 72 2 223q0 167 -7 528.5t-7 553.5v135q-44 8 -119 8q-139 0 -139 -10v-23q-8 -145 -8 -194v-95q0 -92 2 -155q-7 23 -69 39t-142 16q-91 0 -183 -29q-85 -30 -125 -144t-40 -271zM258 526q0 80 14 119 q21 146 195 146q31 0 50 -2t34.5 -12.5t22.5 -23.5t11.5 -43.5t5.5 -63t1 -91.5q0 -50 -1.5 -82.5t-6 -70.5t-14.5 -61t-26 -43.5t-41 -30t-59 -9.5q-84 0 -135 79.5t-51 188.5zM319 485q0 -87 28.5 -146.5t96.5 -59.5q30 0 51.5 8.5t35 28t22 40.5t12.5 57t5 65.5t1 76.5 q0 16 0.5 38t0.5 33.5t-0.5 28t-2 24t-4 18t-7.5 15t-11.5 9.5t-16 6.5t-22.5 1.5q-156 0 -174 -127l-2 -4q-13 -31 -13 -113z" />
<glyph unicode="e" horiz-adv-x="933" d="M31 547q0 200 47 325q42 98 149.5 150.5t237.5 52.5q119 0 212 -40.5t150 -110t86 -157.5t29 -189q0 -12 -6 -105q-39 -11 -207 -19t-295 -8q-24 0 -45 3v-35q0 -54 7 -87.5t30 -72.5v-4q25 -14 66 -14q42 0 71 39t29 120v21q46 -4 67 -4q23 0 71 2t71 2q34 0 92 -10 q0 -2 -1 -14.5t-1 -20.5l43 -6q0 -106 -10.5 -184t-35.5 -126.5t-51 -78.5t-72 -43.5t-83 -17t-98 -3.5h-25q-56 0 -84.5 0.5t-74 5.5t-72.5 14.5t-58 28.5t-55 47q-94 78 -139 224t-45 315zM49 526q0 -99 16 -187t49 -166.5t92 -129.5t138 -63q28 0 94.5 -3.5t104.5 -3.5 q96 0 164.5 20.5t107.5 76.5q13 11 22.5 38t15.5 74t9.5 82t7.5 99q1 17 2 26q-30 6 -79 6q-25 0 -77 -2t-71 -2q-25 0 -31 2v-16q0 -81 -35 -121.5t-87 -40.5q-158 0 -164 262v37q25 -6 141 -6q112 0 243.5 7t164.5 15q4 62 4 88q0 77 -11 139t-39.5 119t-74.5 95.5 t-119.5 61t-171.5 22.5q-124 0 -227.5 -50t-141.5 -139q-47 -125 -47 -340zM330 694q0 158 174 158q36 0 71 -21q37 -19 58.5 -55t21.5 -78v-22q0 -6 -14 -6q-2 0 -40 2t-75 2q-36 0 -79 -1t-54 -1q-38 0 -50.5 4.5t-12.5 17.5zM397 692q7 0 19 1t20 1h90q23 0 52.5 -1 t35.5 -1l21 -2v8q0 47 -27 74l-2 2q-27 17 -61 17q-72 0 -104 -25.5t-44 -73.5z" />
<glyph unicode="f" horiz-adv-x="823" d="M8 995h101h45q0 57 11 113t35 114t71 103t110 66v-2q125 43 307 43q71 0 98 -2q1 -5 3 -14t3.5 -12.5t5.5 -7.5t11 -5.5t18 -1.5q21 -57 21 -132q0 -40 -7 -105t-7 -83q-14 2 -46 2q-64 0 -227 -24q-45 -9 -49 -58h285q-9 -35 -9 -41h50q-11 -54 -11 -57t1 -6.5t1 -7.5 v-43q0 -27 -5 -73.5t-5 -111.5q-56 4 -124.5 9t-107 7.5t-77.5 2.5v-725q-47 6 -78 6q-32 0 -81 -5t-77 -5q-6 0 -17.5 -0.5t-16.5 -0.5q-2 -1 -3 -1q-5 0 -11 2q-8 2 -12 6.5t-8 13.5t-5 23q-7 0 -17.5 1t-17.5 1q-10 61 -10 295q0 55 1 162.5t1 150.5v74q-18 0 -53 -1 t-50 -1l-2 43q-7 0 -19.5 -1t-19.5 -1zM29 975l6 -250q27 2 76 2h69q0 -22 -2 -189.5t-2 -271.5q0 -209 8 -264q14 -2 39 -2q27 0 86 5t92 5q34 0 48 -2v721q53 -1 309 -16q10 100 10 125v36v17v47q0 25 2 31h-313q-6 24 -6 49q0 82 65 90q170 25 229 25h27q14 110 14 165 q0 65 -14 111q-31 2 -84 2q-182 0 -301 -41q-60 -20 -103.5 -59t-66.5 -89.5t-33 -101t-10 -104.5q0 -29 2 -43q-23 2 -70 2h-77z" />
<glyph unicode="g" horiz-adv-x="962" d="M35 362q0 56 0.5 92t4 94.5t10 98.5t19 93t30.5 89.5t45.5 76t62.5 64.5t82.5 44t105.5 24q128 0 191 -63q0 38 14 63q83 9 133 9q27 0 85.5 -2.5t90.5 -2.5q0 -7 1 -20.5t1 -20.5h39q8 -240 8 -577q0 -318 -10 -553v-49q0 -70 -21.5 -124.5t-51 -84.5t-69.5 -49.5 t-67 -26t-53 -8.5q-28 -4 -51 -4q-63 0 -106 2t-95.5 9t-92 21t-81 36.5t-77.5 58.5t-68 84q-33 47 -33 158q0 24 2 34q52 21 129 21q83 0 104 -4q-72 18 -135.5 65.5t-87.5 106.5v-2q-49 95 -59 247zM55 365q10 -146 58 -240q63 -129 266 -129q14 1 59.5 2.5t68.5 4 t54.5 14t50.5 32.5q-2 -14 -2 -37q0 -9 1 -25t1 -24q0 -85 -33.5 -126.5t-91.5 -41.5q-51 0 -86.5 32t-35.5 89q-58 10 -152 10h-12q-26 0 -38.5 -0.5t-30 -3t-25 -9.5t-7.5 -19q0 -137 95.5 -220.5t234.5 -83.5q43 0 99 -1t71 -1q35 0 41 2q23 3 46 7.5t62 21.5t67 41 t49.5 70t21.5 104v57q0 100 5 290.5t5 283.5q0 317 -8 557q-29 0 -86 1t-86 1q-3 0 -24 1q-11 1 -18.5 1t-12.5 -1q-10 -1 -26 -3.5t-23 -10.5t-7 -20l2 -35v-18q0 -18 -4 -18q-2 0 -4 2q-44 96 -178 96q-76 0 -136 -23.5t-98 -56t-65 -91.5t-40 -105t-19.5 -122.5 t-7.5 -118.5t-1 -117v-19zM287 467v57q0 89 53 165.5t137 76.5q27 0 49 -8.5t37 -26.5t26 -37t17 -49t10 -54t5 -59.5t1 -57.5t-0.5 -57.5t-0.5 -49.5q-5 -37 -9.5 -55.5t-17.5 -41t-39.5 -32t-67.5 -9.5q-94 0 -147 69.5t-53 168.5zM348 426q0 -36 5.5 -64t19.5 -54.5 t43.5 -41t72.5 -14.5q35 0 56 6.5t32 25t14.5 34t8.5 51.5q0 207 -27 323q-26 13 -55 13q-58 0 -92 -31l4 2q-82 -94 -82 -215v-35zM379 -63q3 0 4.5 -7t2.5 -16.5t3 -13.5q24 -4 37 -6q0 -40 12.5 -59t48.5 -19q35 0 69 28t34 74q0 5 1 16.5t1 16.5q-24 -8 -53 -11 t-63.5 -3.5t-53.5 -2.5q-22 0 -43 3z" />
<glyph unicode="h" horiz-adv-x="911" d="M47 975q0 441 4 528q49 -6 92 -6q7 0 53 6t105 6q54 0 57 -24v-17q13 -1 21.5 -6.5t14 -17.5t8 -24.5t3 -36.5t0 -44t-1 -57t-0.5 -65q0 -47 -1 -129t-1 -113q89 59 213 59q65 0 127 -22.5t93 -69.5l24 -18q53 -41 53 -344q0 -78 -4 -237t-4 -230q0 -82 4 -168 q-81 -11 -172 -11h-39h-84q-2 14 -2 41h-39q-6 63 -6 248v103q0 78 -0.5 114t-6.5 92t-19 89q-15 6 -43 6q-61 0 -85 -41.5t-24 -157.5q0 -52 4 -153t4 -150q0 -89 -8 -154v-22q-75 -19 -119 -19q-15 0 -45.5 2t-48.5 2q-51 0 -82 -4v45q-7 -1 -20 -2t-21 -2q0 96 -2 449.5 t-2 554.5zM68 727q0 -157 2 -410.5t2 -322.5q25 2 65 2q22 0 53.5 -1t45.5 -1q43 0 90 12v8q8 68 8 152q0 52 -4 155.5t-4 155.5q0 122 30.5 166.5t98.5 44.5q26 0 46 -5.5t33 -20t21 -26.5t13 -37t6.5 -38.5t4 -45.5t3.5 -44q4 -34 4 -170v-151q0 -125 4 -154q24 0 62 -1 t57 -1q73 0 137 10q-4 78 -4 129q0 72 4 235t4 242q0 298 -47 340q-69 64 -191 64q-27 0 -54 -5t-44 -9t-47.5 -18.5t-39 -19t-45 -25.5t-42.5 -24v514v17.5t0.5 14t0 10.5t-1 8.5t-2 5.5t-3 4t-5 2.5t-7 1.5h-9.5q-56 0 -108.5 -7t-61.5 -7q-49 0 -71 4q-4 -246 -4 -471 v-283z" />
<glyph unicode="i" horiz-adv-x="417" d="M45 -29q10 137 10 283q0 82 -4 246t-4 250q0 143 14 301q15 0 21 2q28 4 33 4q6 0 59 -3t102 -3h48l55 -11v-34l41 -7q0 -118 -5 -356t-5 -362q0 -183 8 -316q-26 -28 -119 -28q-59 0 -90 2h2q-8 0 -24.5 1t-24.5 1q-42 0 -76 -11q0 16 4 52q-27 -3 -45 -11zM51 1454v43 l320 -6v-41h41q0 -22 3 -131.5t3 -157.5q-22 -35 -99 -35q-17 0 -79 4h2q-11 0 -33.5 1.5t-36.5 1.5q-26 0 -72 -3v44q-7 0 -20.5 -1.5t-20.5 -1.5q0 40 -4 128.5t-4 154.5zM68 0q4 2 32 2q19 0 76 -2t86 -2q84 0 94 14q-8 145 -8 330q0 128 4.5 362.5t5.5 319.5v6h-34h-48 q-58 0 -114 3t-74 3h-8v-2q-12 -108 -12 -280q0 -81 4 -248t4 -254q0 -140 -8 -252zM72 1444q0 -57 4 -137.5t4 -112.5h35q29 0 84 -3t77 -3q68 0 80 20q0 47 -3 148.5t-3 113.5l-278 7v-33z" />
<glyph unicode="j" horiz-adv-x="696" d="M4 -272q0 40 7 105t7 83q16 -2 58 -2q82 0 155 17t103 53q2 95 2 369t6 392v295q35 -6 64 -6q32 0 87.5 6.5t84.5 6.5q6 0 17.5 0.5t16.5 0.5t12.5 -2t11 -6.5t7.5 -13.5t6 -22q7 0 18.5 -1.5t18.5 -1.5q8 -73 8 -165q0 -48 -2 -139.5t-2 -127.5q0 -51 2 -69v-287 q0 -277 -30 -459q-24 -57 -76.5 -98t-123.5 -62.5t-144 -30.5t-156 -9q-9 0 -28 -2q-15 -1 -24 -1q-3 0 -6 1q-9 0 -21.5 3t-19.5 13t-10 26q-9 0 -16 3t-12 10t-9 14t-6 18.5t-3.5 19t-2 20.5t-0.5 18.5v17.5v13zM23 -272q0 -73 16 -111q27 -2 82 -2q80 0 151 8.5t139.5 28 t118 56.5t70.5 89q33 208 33 467q0 56 -2 169t-2 181q0 38 2 132t2 141q0 79 -6 137q-14 2 -39 2q-26 0 -86.5 -5t-93.5 -5q-32 0 -46 2v-275q-6 -106 -6 -378v-203q0 -130 -2 -187q-29 -45 -108 -64.5t-164 -19.5q-22 0 -43 3q-16 -125 -16 -166zM330 1454v43l313 -6v-41 h41q0 -22 3 -131.5t3 -157.5q-22 -35 -94 -35q-21 0 -68 3.5t-82 3.5q-30 0 -67 -3v44q-7 0 -20.5 -1.5t-20.5 -1.5q0 40 -4 128.5t-4 154.5zM350 1444q0 -57 4 -137.5t4 -112.5h35q29 0 82 -3t76 -3q65 0 78 20q0 47 -3 148.5t-3 113.5l-273 7v-33z" />
<glyph unicode="k" horiz-adv-x="921" d="M49 475q0 167 4 510.5t4 521.5q30 0 102 2t109 2q18 0 59.5 -3t49.5 -3v-39q7 0 20.5 -1t20.5 -1v-467q0 -19 -2 -62t-2 -63q13 19 38.5 62.5t50 79.5t54.5 73q43 -14 113 -14q29 0 89.5 3t92.5 3q45 0 72 -2q-4 -7 -13.5 -19.5t-13.5 -19.5q41 0 68 -2 q-48 -74 -99.5 -147t-85.5 -117.5t-87 -112.5t-77 -100q22 -35 89.5 -142.5t100 -161t84 -144.5t91.5 -172q-35 0 -120.5 -4.5t-131.5 -4.5h-25h-16h-10q-6 0 -22 1t-23 4.5t-17.5 8.5t-17 13.5t-12.5 19.5q-3 1 -7.5 2t-7 2t-4.5 1q-37 56 -63 105.5t-49.5 101.5t-34.5 73 q0 -19 1 -59.5t1 -61.5q0 -122 -16 -204q-31 2 -93 2h-34h2q-83 -5 -103 -5q-5 0 -17.5 -0.5t-19 -0.5t-16.5 2t-15.5 6.5t-9.5 13.5t-4 22q-4 0 -39 5q-8 216 -8 493zM70 473q0 -257 8 -473q46 -4 67 -4q30 0 87 3t79 3q7 0 20 -1t17 -1q12 66 12 180q0 43 -2 117t-2 98 q53 -68 122 -207t100 -188q36 -8 104 -8q43 0 122 4t103 4q-36 75 -84.5 159.5t-84 142.5t-96.5 154t-91 144q38 52 110 145t128 169t100 145h-29q-26 0 -92 -3t-100 -3q-73 0 -103 12q-34 -39 -96 -143.5t-113 -149.5q-4 46 -4 78q0 28 2 93t2 95v449q-36 4 -61 4 q-11 0 -36 -1t-38 -1l-143 -2q0 -171 -4 -507t-4 -507z" />
<glyph unicode="l" horiz-adv-x="425" d="M51 1112q0 206 19 397l317 -6v-41h41q0 -108 -5 -493t-5 -588q0 -283 8 -416q-26 -28 -119 -28q-59 0 -90 2h2q-8 0 -24.5 1t-24.5 1q-42 0 -76 -11q0 8 1 25t1 25q-22 0 -43 -9q15 216 15 371q0 128 -8.5 384t-8.5 386zM70 1098q0 -130 9 -386t9 -384q0 -164 -12 -328 q4 2 33 2q19 0 75.5 -2t85.5 -2q85 0 95 14q-7 117 -7 412q0 202 4.5 581.5t4.5 477.5l-279 6q-18 -197 -18 -391z" />
<glyph unicode="m" horiz-adv-x="1425" d="M47 750q0 108 4 292q49 -6 92 -6q7 0 53 6.5t105 6.5q54 0 57 -25q0 -13 19 -21.5t22 -19.5v-10q99 61 217 61q150 0 218 -90q16 8 49 25.5t51.5 25.5t47 19t56.5 15.5t60 4.5q65 0 126.5 -22.5t92.5 -69.5l24 -18q54 -41 54 -344q0 -78 -4.5 -237t-4.5 -230 q0 -61 5 -168q-81 -11 -172 -11h-39h-84q-2 14 -2 41h-39q-6 63 -6 248v103q0 73 -1 112.5t-7 94t-19 88.5q-15 6 -41 6q-41 0 -68 -19v-49q0 -76 -4 -232.5t-4 -228.5q0 -36 6 -153q-81 -11 -172 -11h-41h-84q-2 14 -2 41h-39q-6 63 -6 248v103v35.5v37.5t-0.5 34.5 t-1 37.5t-1.5 33.5t-3 34t-5 29t-6.5 29.5t-8.5 24q-15 6 -43 6q-61 0 -85 -41.5t-24 -157.5q0 -52 4 -153t4 -150q0 -89 -8 -154v-22q-75 -19 -119 -19q-15 0 -45.5 2t-48.5 2q-51 0 -82 -4v45q-7 -1 -20 -2t-21 -2q0 131 -3 389t-3 390zM68 709q0 -124 3 -360t3 -355 q25 2 65 2q22 0 53.5 -1t45.5 -1q43 0 90 12v8q8 68 8 152q0 52 -4 155.5t-4 155.5q0 122 30.5 166.5t98.5 44.5q26 0 46 -5.5t33 -20t21 -26.5t13 -37t6.5 -38.5t4 -45.5t3.5 -44q4 -34 4 -170v-151q0 -125 4 -154q24 0 62 -1t57 -1q73 0 137 10q-4 70 -4 115q0 67 4 220 t4 230v90q40 29 88 29q23 0 41 -5.5t30 -13.5t21 -23t13.5 -27t8.5 -34t5 -36t3 -39.5t3 -38.5q4 -34 4 -170v-151q0 -125 4 -154q25 0 63 -1t56 -1q73 0 137 10q-4 78 -4 129q0 72 4 235t4 242q0 298 -47 340q-69 64 -190 64q-48 0 -94.5 -13.5t-78 -30t-80.5 -44.5 q-4 -3 -6 -4t-5.5 -3t-6.5 -4q-20 50 -83 74.5t-128 24.5q-27 0 -54 -5t-44 -9t-47.5 -18.5t-39 -19t-45 -25.5t-42.5 -24q0 3 1 21t0.5 31.5t-2.5 30t-9 25.5t-19 9q-56 0 -108.5 -7t-61.5 -7q-49 0 -71 4q-4 -71 -4 -311z" />
<glyph unicode="n" horiz-adv-x="937" d="M45 750q0 108 4 292q49 -6 92 -6q7 0 53 6.5t105 6.5q54 0 57 -25q0 -13 19 -21.5t22 -19.5v-10q99 61 217 61q65 0 127 -22.5t93 -69.5l24 -18q53 -41 53 -344q0 -78 -4 -237t-4 -230q0 -82 4 -168q-81 -11 -172 -11h-39h-84q-2 14 -2 41h-39q-6 63 -6 248v103v35.5 v37.5t-0.5 34.5t-1 37.5t-1.5 33.5t-3 34t-5 29t-6.5 29.5t-8.5 24q-15 6 -43 6q-61 0 -85 -41.5t-24 -157.5q0 -52 4 -153t4 -150q0 -89 -8 -154v-22q-75 -19 -119 -19q-15 0 -45.5 2t-48.5 2q-51 0 -82 -4v45q-7 -1 -20 -2t-21 -2q0 131 -3 389t-3 390zM66 709 q0 -124 3 -360t3 -355q25 2 65 2q22 0 53.5 -1t45.5 -1q43 0 90 12v8q8 68 8 152q0 52 -4 155.5t-4 155.5q0 122 30.5 166.5t98.5 44.5q26 0 46 -5.5t33 -20t21 -26.5t13 -37t6.5 -38.5t4 -45.5t3.5 -44q4 -34 4 -170v-151q0 -125 4 -154q24 0 62 -1t57 -1q73 0 137 10 q-4 78 -4 129q0 72 4 235t4 242q0 298 -47 340q-69 64 -191 64q-27 0 -54 -5t-44 -9t-47.5 -18.5t-39 -19t-45 -25.5t-42.5 -24q0 3 1 21t0.5 31.5t-2.5 30t-9 25.5t-19 9q-56 0 -108.5 -7t-61.5 -7q-49 0 -71 4q-4 -71 -4 -311z" />
<glyph unicode="o" horiz-adv-x="958" d="M63 664v26v27t0.5 24t1.5 26t2.5 24.5t4 27.5t6 26t9 29.5t11.5 30.5h-2q1 10 6 25.5t7 15.5v-2q0 -1 -1.5 -3t-1.5 -3l3 4q30 65 122 98t205 33q16 -2 76 -2q6 0 23 1t26 1q78 0 152 -24.5t123 -71.5h-2q5 -5 12.5 -14t14 -16t13.5 -11l-2 2q39 -26 61 -97t28 -146.5 t6 -178.5q0 -144 -18.5 -300t-51.5 -193q-77 -107 -289 -107q-79 0 -121.5 2.5t-100.5 14t-103.5 38.5t-89.5 72l-19 18q-63 60 -85.5 153t-22.5 218v74q0 13 1 35.5t1 33.5q0 17 -2.5 46.5t-2.5 42.5zM84 666q0 -13 1 -41.5t1 -44.5v-152q0 -67 7 -122.5t25.5 -111t49 -96 t80.5 -71t117 -41.5q30 0 98.5 -3t105.5 -3q96 0 164 20t107 76q17 17 29.5 63.5t19 123t9.5 126t6 135.5q1 22 1 33q0 12 -1 37q-3 82 -5.5 124t-10.5 101.5t-24.5 93.5t-42.5 50q-94 90 -268 90q-14 0 -40 -1t-38 -1q-27 0 -41 2q-105 0 -192 -30.5t-115 -88.5 q-43 -147 -43 -268zM352 385q1 23 1 107t6.5 135.5t23.5 64.5q41 51 123 51q143 0 143 -213q0 -53 -1.5 -82t-9.5 -68t-24 -59t-46.5 -34.5t-75.5 -14.5q-61 0 -100.5 27t-39.5 86zM414 342q0 -23 14 -34.5t27 -13t37 -1.5q124 0 124 86q13 111 13 149q0 26 -0.5 36.5 t-2.5 33t-7 33.5t-14.5 24.5t-25 19t-36.5 5.5q-13 0 -45 -4h2q-38 -9 -60 -37l-4 -4q-6 -3 -10 -18.5t-6 -40.5t-3.5 -50.5t-2 -58t-0.5 -53.5v-45.5v-26.5z" />
<glyph unicode="p" horiz-adv-x="929" d="M49 774q0 188 2 268q31 0 96 2.5t97 2.5h19.5h20.5t19 -0.5t18.5 -1.5t16 -2.5t14 -5t10 -7.5t7.5 -10t2 -14v-5q28 0 28 -6q53 45 136 45q172 0 272 -120q48 -40 79.5 -96.5t48 -131.5t23 -137.5t11.5 -155.5q0 -160 -45.5 -279.5t-135.5 -154.5q-77 -31 -190 -31 q-109 0 -188 33q4 -196 4 -207q0 -43 -1.5 -66.5t-4.5 -56.5t-5 -71v-23q0 -11 -49.5 -20.5t-109.5 -9.5q-86 0 -140 10v35q-7 1 -20.5 3t-20.5 3v153q0 183 -7 537t-7 520zM70 797q0 -167 7 -527.5t7 -552.5v-135q44 -8 119 -8q139 0 139 10v23q8 145 8 194v95q0 90 -2 153 q5 -22 66 -37.5t143 -15.5q115 0 184 29q85 30 125.5 144.5t40.5 270.5q-2 57 -4 95t-8 91.5t-14 90t-22.5 81t-34 74.5t-48 60t-64 48t-83.5 29t-105 11q-107 0 -151 -90q-5 -8 -8 -8q-11 0 -18 72q-2 28 1 26q-22 4 -104 4q-30 0 -88.5 -1t-83.5 -1q-2 -74 -2 -225z M340 469q0 61 2 98t10 79.5t23 65.5t43 38.5t69 15.5q84 0 135.5 -80t51.5 -188q0 -77 -15 -119q-21 -146 -194 -146q-31 0 -50 2t-34.5 12.5t-22.5 23.5t-11.5 43.5t-5.5 63t-1 91.5zM401 428q0 -134 11 -170q9 -4 53 -4q156 0 174 127l2 4q12 28 12 113q0 51 -10.5 95 t-40 78t-74.5 34q-30 0 -51.5 -8.5t-35 -28.5t-22 -41t-12.5 -57t-5 -65.5t-1 -76.5z" />
<glyph unicode="q" horiz-adv-x="929" d="M2 440q2 80 8 143.5t21 137t43 127t70 99t107 69.5t148 24q106 0 158 -73l2 -2v41q0 8 2 14t7.5 10t10 7.5t14 5t16 2.5t18.5 1.5t19 0.5h20.5h19.5q32 0 97 -2.5t96 -2.5v-41h41q2 -80 2 -268q0 -159 -7.5 -514t-7.5 -543v-153q-54 -10 -139 -10q-60 0 -110 9.5 t-50 20.5v23q-41 9 -41 18v23q-2 36 -5 70.5t-4 57.5t-1 66q0 72 2 152q-78 -19 -145 -19q-412 0 -412 506zM23 440q0 -157 40 -271t125 -144q69 -29 183 -29q81 0 142.5 15t68.5 38q-2 -63 -2 -153v-95q0 -49 8 -194v-23q0 -10 139 -10q75 0 119 8v135q0 192 7 552.5 t7 527.5q0 151 -2 225q-25 0 -84 1t-88 1q-5 0 -23.5 0.5t-29.5 0.5t-25 -1.5t-21 -6t-7 -11.5q0 -84 -15 -84q-5 0 -8 8q-46 90 -151 90q-72 0 -129.5 -18t-96.5 -46.5t-68 -75.5t-45 -92.5t-26 -109.5t-13.5 -116t-4.5 -122zM256 498q0 109 51 188.5t135 79.5 q41 0 69 -15.5t43.5 -38.5t23.5 -65t10 -79.5t2 -98.5q0 -59 -1 -91.5t-5.5 -63t-11.5 -43.5t-22.5 -23.5t-34.5 -12.5t-50 -2q-174 0 -195 146q-14 39 -14 119zM317 457q0 -82 13 -113l2 -4q4 -51 37 -68.5t96 -17.5q26 0 41.5 2t28.5 11.5t19 21t10 39.5t4.5 57.5 t0.5 83.5v32v54t-2 47t-7.5 43.5t-15 30.5t-25 22.5t-36.5 6.5q-75 0 -120.5 -74t-45.5 -174z" />
<glyph unicode="r" horiz-adv-x="743" d="M45 750q0 108 4 292q49 -6 92 -6q7 0 53 5.5t105 5.5q68 0 68 -25v-18q25 -4 32 -9q116 37 224 37q34 0 63.5 -2.5t45.5 -5.5t16 -6v-31q40 -6 40 -10q0 -68 -2 -154t-2 -110q0 -17 7 -125l-48 16l2 -2l-24 8l2 -2q-25 6 -44 10.5t-32.5 8t-26 5.5t-18.5 3t-16.5 1.5 t-14 0.5h-16.5h-18q-70 0 -104 -27.5t-34 -99.5q9 -282 9 -537v-24q-69 -19 -121 -19q-17 0 -53 2t-58 2q-53 0 -84 -4v45q-7 -1 -20 -2t-21 -2q0 131 -3 389t-3 390zM66 709q0 -124 3 -360t3 -355q25 2 67 2q23 0 59.5 -1t51.5 -1q49 0 96 12v8q0 105 -4 278.5t-4 270.5 q0 75 40 105t118 30q10 0 26.5 0.5t25 0t25.5 -2t39 -6t54 -12.5q7 -3 21.5 -7t21.5 -7l18 -7q-2 23 -2 66v76q0 24 1 96.5t1 122.5q0 4 -43 4q-79 0 -184.5 -21.5t-151.5 -48.5q0 10 -1 20t-1 11v39q0 4 -24 4q-62 0 -118 -5t-63 -5q-49 0 -71 4q-4 -71 -4 -311z" />
<glyph unicode="s" horiz-adv-x="1024" d="M78 311v29q63 8 139 8q37 0 105 -2t98 -2q0 -18 10 -41h31q0 -72 92 -72q84 0 84 82q0 32 -39 47.5t-113 29.5t-116 32h2q-125 43 -199 140t-74 202q0 96 63 182t165 117q70 20 213 20q66 0 110 -3t96.5 -13.5t92.5 -33.5t69 -60q123 -101 123 -305l-16 -21 q-70 -12 -158 -12q-73 0 -164 16q0 3 1 8.5t1 8.5q0 6 -2.5 10t-5 6t-8 4t-9 2t-10 1t-8.5 1q0 3 1 8.5t1 8.5q0 33 -20 46t-53 19q-37 -10 -57.5 -30.5t-20.5 -45.5q0 -40 41 -55l-4 2q86 -14 151 -31t129.5 -46.5t106 -69t67 -98.5t25.5 -134q0 -97 -35 -168.5t-98 -112.5 t-141 -60t-173 -19q-217 0 -355 117t-138 288zM98 311q0 -157 118.5 -250.5t313.5 -93.5q69 0 128 9.5t115 33.5t95 61.5t62.5 97.5t23.5 138q0 66 -19.5 115t-52 82t-88 56.5t-114 37.5t-143.5 27q-47 16 -72 47t-25 65q0 36 27.5 67.5t77.5 31.5q46 0 89.5 -34.5 t43.5 -76.5q0 -12 -2 -16q70 -13 139 -13q78 0 154 13q0 253 -178 329q-116 25 -252 25q-420 0 -420 -299q0 -92 55 -169.5t162 -113.5q50 -22 141 -39.5t135.5 -40t44.5 -73.5q0 -62 -26 -89.5t-78 -27.5q-57 0 -102.5 30.5t-49.5 82.5q-24 0 -87.5 1t-98.5 1 q-94 0 -117 -4v-11z" />
<glyph unicode="t" horiz-adv-x="823" d="M8 745l6 291q55 -2 146 -2q0 35 -2 112t-2 118q0 93 8 161q58 5 67 5q31 0 84 -5.5t84 -5.5q51 0 68 4v-45q13 0 41 4v-350q27 1 260 17q18 -25 23 -43q3 0 9 1t9 1q29 -34 29 -97q0 -23 -4.5 -67.5t-4.5 -69.5q0 -16 7 -63h-322q0 -256 2 -377q75 -37 219 -37q40 0 56 2 q0 -3 1 -17.5t1 -17.5v-8q24 0 38 2q0 -22 7.5 -85.5t7.5 -102.5q0 -74 -21 -131q-27 -2 -96 -2q-93 0 -174.5 12.5t-155 40t-128.5 75.5t-83 113q-15 81 -22 168.5t-8.5 147.5t-1.5 159v49q-18 0 -54 1.5t-53 1.5v40h-41zM29 766h77q47 0 70 2v-115q0 -290 33 -473 q74 -182 479 -182q55 0 82 2q14 46 14 111q0 55 -14 165q-14 -2 -43 -2q-86 0 -163.5 19.5t-108.5 64.5q-2 63 -2 197v217h317q-2 6 -2 33q0 21 4 71t4 74q0 57 -18 78q-256 -15 -309 -16q0 21 -1.5 59t-1.5 55v275q-14 -2 -47 -2t-92 5t-86 5q-25 0 -39 -2q-6 -59 -6 -141 q0 -46 2 -131.5t2 -120.5h-69q-49 0 -76 2z" />
<glyph unicode="u" horiz-adv-x="940" d="M68 403q0 78 4 237t4 230q0 82 -4 168q78 11 168 11h43h84q0 -27 2 -41h39q6 -63 6 -248v-103v-35.5v-38t0.5 -34.5t1 -37t2 -32.5t3.5 -34.5t5 -29.5t7 -30.5t9 -25q28 -4 41 -4q57 0 83 37t26 137q0 51 -5 156t-5 160q0 104 10 168v20q62 17 117 17q15 0 45 -1t51 -1 q51 0 82 4v-45q6 1 20 2t21 2q0 -131 3 -389t3 -390q0 -108 -4 -292q-12 1 -33 2.5t-36 2.5t-23 1q-9 0 -55.5 -6.5t-102.5 -6.5q-32 0 -45.5 8.5t-13.5 32.5q-36 3 -39 25q0 1 -1 4t-1 4q-106 -59 -215 -59q-67 0 -132.5 21.5t-87.5 66.5q-43 35 -60 118t-17 248zM86 412 q0 -297 49 -338q69 -64 189 -64q50 0 98 14.5t75.5 28.5t83.5 48q11 7 17 10q0 -3 -1 -21t-0.5 -31.5t2.5 -30t8.5 -25.5t17.5 -9q57 0 110.5 7t61.5 7q5 0 71 -4q4 212 4 311q0 124 -3 360t-3 355q-25 -2 -65 -2q-22 0 -54.5 1t-46.5 1q-41 0 -88 -12v-8q-10 -64 -10 -156 q0 -52 5 -158t5 -159q0 -115 -31.5 -158t-97.5 -43q-24 0 -43 6.5t-31.5 15t-22 26t-14 30.5t-8 38t-4.5 39.5t-3 42.5q-1 13 -1 19q-4 34 -4 168v153q0 125 -4 154q-24 0 -62 1t-57 1q-73 0 -137 -10q2 -39 2 -129q0 -72 -4 -236t-4 -243z" />
<glyph unicode="v" horiz-adv-x="921" d="M6 1051q69 -11 103 -11q46 0 71 2q113 0 142 -4l18 -16q0 -17 4 -21t18 -4l19 -16q14 -69 42.5 -258.5t45.5 -273.5q13 57 36 183t46 230.5t49 173.5q42 0 114.5 4t114.5 4q62 0 89 -4q-3 -7 -7.5 -18t-7.5 -18q6 0 14.5 -1t20 -2t20.5 -2q-57 -153 -101.5 -336.5 t-87 -387.5t-79.5 -336q-67 -11 -164 -11q-46 0 -133 2t-123 2q-1 7 -3 20.5t-3 20.5h-35q-97 610 -223 1078zM35 1024q116 -426 213 -1030q29 0 108.5 -2t124.5 -2q95 0 152 8q29 107 109.5 476t146.5 548q-11 0 -32 1t-32 1q-41 0 -108 -4t-103 -4q-35 -86 -83 -354.5 t-76 -344.5q-26 72 -50.5 198.5t-48.5 282.5t-37 220q-54 4 -79 4q-19 0 -58.5 -1t-60.5 -1q-65 0 -86 4z" />
<glyph unicode="w" horiz-adv-x="1462" d="M16 1051q69 -11 103 -11q46 0 71 2q115 0 144 -4l18 -16q0 -17 4.5 -21t18.5 -4l18 -16q12 -65 42 -257.5t48 -283.5q6 24 127 607q29 -5 80 -5q22 0 56 2.5t53 2.5t73 -7l7 -36q4 0 9.5 -1t12.5 -2t12 -2q16 -74 43.5 -268.5t47.5 -290.5q19 71 63 299t72 297 q37 0 104.5 4t104.5 4q46 0 100 -4q-3 -7 -7 -19.5t-7 -19.5q13 0 31 -1t24 -1q-57 -153 -101.5 -336.5t-87 -387.5t-79.5 -336q-67 -11 -154 -11q-41 0 -122.5 2t-119.5 2q-1 7 -4 20.5t-4 20.5h-33q-12 59 -36 236q-3 -22 -9.5 -64.5t-10.5 -69t-11.5 -64.5t-16.5 -72 q-67 -11 -163 -11q-45 0 -132 2t-124 2q-1 7 -3.5 20.5t-3.5 20.5h-34q-96 601 -224 1078zM45 1024q116 -426 213 -1030q29 0 109 -2t125 -2q94 0 151 8q21 80 43.5 243t36.5 228q18 -93 48 -278t32 -197q30 0 103.5 -2t113.5 -2q86 0 143 8q29 107 109.5 476t146.5 548 q-25 2 -67 2q-38 0 -102 -4t-97 -4q-22 -56 -77.5 -334.5t-90.5 -364.5q-35 97 -80.5 389.5t-50.5 315.5q-35 6 -59 6q-19 0 -56 -3t-61 -3q-33 0 -51 2l-4 -23l-19 -98l-4 -22q-19 -85 -40 -187t-31 -149.5t-26.5 -108.5t-37.5 -119q-27 73 -50.5 199.5t-46.5 281 t-36 220.5q-54 4 -82 4q-20 0 -59 -1t-58 -1q-67 0 -88 4z" />
<glyph unicode="x" d="M29 1036q84 8 170 8q178 0 194 -16q4 -22 12 -29.5t17 -8t12 -3.5q27 -130 51 -205q12 47 38.5 146t29.5 110q99 9 365 9q0 -37 -7 -41h47q0 -40 -8 -43l-55 -154q-2 -7 -22.5 -62.5t-26.5 -74t-20.5 -62.5t-22.5 -78t-15 -69q21 -103 76.5 -276t75.5 -253q-50 7 -63 7 h-50q-9 0 -26 -1t-25 -1q-154 0 -176 8q-3 7 -8 18.5t-8 18.5q-4 1 -13 2t-12 2q-18 39 -35.5 106.5t-25.5 89.5q-6 -20 -18.5 -74.5t-25.5 -93t-34 -79.5h-84q-19 0 -46 -1.5t-32 -1.5h-14q-111 0 -158 21q1 5 3 14.5t3 14.5q-26 3 -47 12q17 74 79.5 253t82.5 257 q-18 81 -44.5 164.5t-75.5 212t-58 153.5zM55 1018q9 -25 37.5 -96.5t42 -108.5t34.5 -96.5t35 -110.5t23 -100q-21 -87 -80.5 -262t-76.5 -236q30 -12 147 -12h29q16 0 47.5 1t44.5 1h29q24 49 54 164.5t54 169.5v-2q21 -47 49 -162t49 -162h2q12 -6 127 -6h33q17 0 51.5 1 t49.5 1h18q14 0 18 -2q-16 65 -71.5 239.5t-73.5 264.5q14 80 42 167.5t67.5 191t58.5 161.5l2 2h-92q-197 0 -236 -6q-12 -35 -46 -171t-52 -179q-12 32 -30 98t-38.5 145t-27.5 105q-6 6 -72 6h-104q-53 0 -144 -6z" />
<glyph unicode="y" horiz-adv-x="1009" d="M29 -203q0 75 12 133q34 0 82 -2t67 -2q58 0 88.5 18t30.5 70q0 19 -2 33v-2q-67 375 -246 1006q69 -11 105 -11q14 0 39 1t39 1q122 0 151 -4l19 -16v-8t1 -6.5t3 -6t6.5 -3t11.5 -1.5l19 -16q6 -32 22 -125.5t26.5 -155t27.5 -145.5t32 -145q4 29 24 192.5t40 268 t47 171.5q33 0 98 2.5t98 2.5q1 0 144 -7q-4 -10 -10 -39q10 0 27 -1t24 -1q-95 -365 -158 -657q-21 -96 -36.5 -156.5t-46 -150t-64 -146.5t-88 -123t-120 -103.5t-158.5 -63t-204 -25.5q-51 0 -84 4q-2 5 -4 15.5t-4 14t-10 7.5t-23 4q-26 89 -26 178zM49 -203 q0 -91 23 -159q34 -3 67 -3q92 0 170.5 16.5t138 43t109.5 70t85 88t65.5 106t49.5 115t37.5 124.5t30 125.5t27 126.5t27.5 119q90 383 108 453q-35 2 -96 2q-33 0 -91 -1t-85 -1h-27q-34 -85 -70.5 -374t-64.5 -367q-21 57 -45.5 161t-41.5 190.5t-41 215t-32 170.5 q-54 4 -84 4q-20 0 -63.5 -1t-65.5 -1q-69 0 -90 4q7 -28 49 -180.5t57 -211t45.5 -179t50.5 -215.5t36 -189q2 -14 2 -37q0 -62 -37.5 -84t-104.5 -22q-20 0 -63.5 2t-65.5 2q-10 -55 -10 -113z" />
<glyph unicode="z" horiz-adv-x="968" d="M41 238q0 23 17 53.5t52 67t61 62t71.5 66t56.5 50.5q16 16 46.5 44t55 51.5t45.5 45.5q-244 -16 -348 -31q-4 28 -4 45q-7 -1 -18.5 -2t-18.5 -2q-6 99 -6 105q0 30 3 77.5t3 75.5q0 10 -1 43t-1 49q64 0 188.5 1t174.5 1h233q20 -4 41 -4t76.5 2t79.5 2q60 0 67 -4 l13 -18v-19q12 0 28 -4l13 -18q0 -38 -2 -100t-2 -89q0 -49 6 -92q-73 -75 -216 -214t-175 -171q18 -2 53 -2h78q111 0 207 13v-48q7 1 20 3.5t20 3.5q0 -52 2.5 -163.5t2.5 -164.5q-508 -12 -877 -12q0 7 1 20.5t1 20.5h-43q4 54 4 90q0 45 -4 94t-4 72zM61 227 q0 -19 4.5 -66t4.5 -91q0 -11 -1 -33t-1 -35q329 0 833 12q0 49 -2 145.5t-2 139.5q-89 -12 -180 -12q-27 0 -83 1t-83 1q-67 0 -98 -2q74 83 232.5 235.5t221.5 220.5q-4 21 -4 88q0 27 2 88t2 99q-4 2 -41 2q-23 0 -83.5 -2t-86.5 -2q-23 0 -51 4q-64 0 -256.5 -1 t-312.5 -1q0 -12 1 -30t1 -25q0 -28 -3 -77t-3 -81q0 -16 4 -94q139 19 456 32q-56 -67 -146.5 -152.5t-178.5 -170t-144 -156.5q-2 -14 -2 -37z" />
<glyph unicode="{" horiz-adv-x="655" d="M-6 656v14v12q0 63 14 145q10 -2 33 -2q55 0 95 21t61.5 58t31 79t9.5 92q0 11 -5 74v-2q-6 27 -6 53q0 116 75 164.5t212 48.5q11 0 92 -6q1 -11 2 -17.5t3.5 -11.5t3 -7t5.5 -3.5t6 -1.5h9.5h11.5q8 -57 8 -117q0 -44 -4 -106q-31 -10 -47 -16t-35.5 -21.5t-23.5 -34.5 v2q-6 -43 -6 -88q0 -21 2 -59.5t2 -57.5q0 -75 -18.5 -126.5t-69.5 -84.5q86 -70 86 -231q0 -12 -1 -36t-1 -36q0 -23 0.5 -34.5t4.5 -31t11.5 -29.5t23 -19t37.5 -11v-32q21 -9 41 -9v-153q0 -53 -2 -76l-18 -18q-46 -4 -64 -4q-79 0 -147 27.5t-110 69t-65.5 88.5 t-23.5 89q0 17 4.5 54t4.5 57q0 35 -2.5 61t-11 57.5t-23.5 52t-43 34.5t-66 14h-10q-9 0 -14 1t-12.5 4t-11 12.5t-3.5 23.5q-8 0 -15 2t-11.5 7t-8 9.5t-5.5 12.5t-3 13.5t-1.5 15t-0.5 14.5zM14 682q0 -80 25 -80h12q58 0 100 -24t64 -65.5t31.5 -88.5t9.5 -102 q0 -20 -4 -56.5t-4 -52.5q0 -87 77 -151t207 -64q16 0 62 4q4 54 4 88q0 22 -1 62t-1 59q-119 7 -119 182q0 13 1 37.5t1 38.5q0 169 -108 231q35 13 57.5 34t33.5 50.5t15 59t4 69.5q0 21 -1 62t-1 61q0 45 5.5 72.5t21 44t30.5 24t45 18.5l9 3q4 62 4 92q0 50 -6 99 q-54 4 -74 4q-60 0 -105.5 -8.5t-83 -29t-57.5 -59.5t-20 -96q0 -19 5 -61t5 -64q0 -55 -9.5 -101t-31 -86t-62 -62.5t-96.5 -22.5q-22 0 -32 2q-13 -85 -13 -123z" />
<glyph unicode="|" horiz-adv-x="360" d="M47 -72v1579q39 0 84.5 -2t56.5 -2q46 0 125 10v-45q1 0 41 5q0 -32 2 -798t2 -794h-39q-42 0 -130 3t-101 3v39q-23 2 -41 2zM68 -51q2 0 87 -3t124 -3h18v774q0 105 -0.5 221.5t-1 208.5t-1 168.5t-1 123.5t-0.5 52v2q-61 -10 -103 -10q-13 0 -50 2t-72 2v-1538z" />
<glyph unicode="}" horiz-adv-x="655" d="M39 76v153q65 4 92 52.5t27 115.5q0 13 -2 36t-2 34q0 151 82 227q-2 6 -9 13q-45 29 -59 76.5t-14 125.5q0 19 1 56.5t1 58.5q0 17 -3 48t-3 46q-8 5 -27.5 10t-29 14t-9.5 29l-37 13q-8 52 -8 106q0 63 10 117q81 6 92 6q53 0 87 -3t81.5 -22t75.5 -55q82 -58 82 -176 q0 -40 -4 -51v2q-4 -50 -4 -74q0 -37 2 -62.5t11 -55.5t25 -48t45.5 -30.5t71.5 -12.5q23 0 33 2l6 -43q21 0 35 2q14 -110 14 -145v-7q0 -19 -0.5 -30t-4.5 -28.5t-14 -26t-26 -8.5h-12q-52 0 -89.5 -22.5t-57 -62t-28.5 -82.5t-9 -93q0 -20 4 -56.5t4 -52.5 q0 -94 -83 -164.5t-222 -70.5q-18 0 -64 4l-18 18q-1 4 -2.5 10.5t-2.5 8t-5 3t-13 1.5l-18 18q-2 23 -2 76zM57 90q0 -34 4 -88q46 -4 60 -4q137 0 212 65.5t75 157.5q-9 46 -9 101t9.5 102t31.5 88.5t63.5 65.5t98.5 24h14q25 0 25 75v5q0 45 -12 123q-14 -2 -33 -2 q-56 0 -96.5 22.5t-62 62.5t-31 86t-9.5 101q0 22 4.5 64t4.5 61q0 57 -19.5 96t-57.5 59.5t-83 29t-105 8.5q-23 0 -73 -4q-9 -49 -9 -99q0 -41 7 -92q59 -23 74 -36q35 -35 36 -126q0 -20 -1 -61t-1 -62q0 -84 22.5 -136.5t88.5 -76.5q-111 -64 -111 -231q0 -14 2 -38.5 t2 -37.5q0 -175 -119 -182q0 -19 -1 -59t-1 -62z" />
<glyph unicode="~" horiz-adv-x="1177" d="M10 256q21 85 72 207t98 178q98 98 238 98q80 0 147 -43t142 -143q17 -12 38 -12q42 0 78.5 57.5t48.5 108.5q133 10 246 10l19 -19q0 -4 1 -11.5t1 -10.5h20l19 -19q6 -30 6 -61q0 -120 -66.5 -233.5t-159.5 -145.5h3q-50 -20 -109 -20q-88 0 -165.5 53.5t-117.5 134.5 q-13 8 -45 8t-84 -22l2 2q-43 -26 -43 -78q0 -11 11 -57l-25 -27q-33 8 -176 8q-64 0 -158 -4q3 20 12 43q-18 -2 -53 -2zM37 279q47 2 131 2q143 0 180 -9v2q-10 42 -10 60q0 45 38 83t113 38q35 0 55.5 -14.5t43.5 -45.5q30 -67 89.5 -102t131.5 -35q88 0 160.5 55 t111.5 141.5t39 180.5q0 43 -4 55l-6 6q-185 -5 -221 -8q-6 -28 -25 -65.5t-52.5 -70t-68.5 -32.5q-28 0 -54 20.5t-50.5 50t-52.5 58.5t-71.5 49.5t-96.5 20.5q-68 0 -125.5 -29.5t-96.5 -72.5t-72 -106.5t-51.5 -115.5t-35.5 -116z" />
<glyph unicode="&#xa1;" horiz-adv-x="395" d="M41 954q157 13 309 13q0 -7 -1 -21.5t-1 -21.5q16 2 43 2q-2 -72 -2 -238q0 -81 2 -240.5t2 -240.5q0 -235 -8 -412h-25q-89 -14 -165 -14q-70 0 -109 14v31q-26 4 -41 10q0 99 4 304t4 309q0 268 -12 505zM41 1026q0 38 3 137.5t3 149.5h35q8 0 21 -1t20 -1h41l153 2 q24 0 27 -41h14q16 0 21.5 -15.5t5.5 -48.5q0 -28 -6 -101.5t-6 -111.5q-44 -18 -105 -18q-32 0 -93 4t-93 4v39q-14 2 -41 2zM61 1047q24 0 80 -4.5t84 -4.5q53 0 86 13v2q0 27 6.5 106t6.5 103q0 30 -7 30l-153 -2h-4q-15 0 -38 1t-40 1h-14q0 -47 -3.5 -141t-3.5 -104z M63 936q11 -286 11 -473q0 -347 -8 -610q34 -11 84 -11q49 0 167 15h7q8 175 8 391q0 90 -2 265.5t-2 264.5q0 113 2 168h-2q-226 -6 -265 -10z" />
<glyph unicode="&#xa2;" horiz-adv-x="722" d="M31 590q0 47 2 149.5t2 163.5q-2 6 -2 31q0 113 63.5 203t167.5 90q25 0 39 -2v104q14 25 64 25q28 0 49 -15q0 -4 -1 -12.5t-1 -13.5q22 0 43 -15q0 -17 -2 -49t-2 -39q103 -25 186.5 -137.5t83.5 -232.5q0 -52 -21 -113q-55 -8 -100 -8q-77 0 -137 14q-4 8 -5 20t-1 13 q-1 0 -3 1t-3 1v-41q0 -17 1 -51.5t1 -54.5h75h33q61 0 103 -17v-29q7 -3 20.5 -6t20.5 -6q0 -34 4 -84t4 -76q0 -98 -78.5 -173t-181.5 -97q0 -15 1 -38.5t1 -31.5v-11v-13t-1.5 -11.5t-3.5 -12t-7 -9.5t-11.5 -8.5t-17 -5t-23.5 -2.5q-16 0 -32.5 9.5t-16.5 31.5 q-16 2 -25 9t-13 21.5t-4.5 25t-0.5 32.5v10q-92 13 -170.5 78.5t-87.5 150.5q-12 101 -12 232zM51 598q0 -132 12 -238q11 -80 77.5 -126t146.5 -46q21 0 35 2q0 -8 -1 -32.5t-0.5 -39t2.5 -33t9 -27.5t18 -9q24 0 37 10l6 2q2 6 2 33q0 12 -1 34t-1 34q0 22 2 28l4 3 q103 13 179.5 85t76.5 171q0 23 -5 70t-5 71v2q-31 8 -74 8q-14 0 -40.5 -1t-38.5 -1q-27 0 -33 2q-2 -15 -3.5 -48t-4 -54t-16 -44t-38.5 -32h-2q0 69 -1 161t-1 124v118q0 91 2 146q25 -16 34 -45.5t9 -72.5t4 -60q67 -13 119 -13q39 0 86 6v2q15 40 15 93 q0 120 -75 215.5t-190 99.5h-2q-2 14 -2 41q0 15 1 45t1 47v2q-8 8 -28 8q-25 0 -34 -8t-9 -28v-54q0 -37 -5 -49q-27 6 -51 6q-97 0 -156 -81t-59 -187q0 -23 2 -33q0 -61 -2 -161.5t-2 -145.5zM257.5 603q-0.5 15 0 46t0.5 39q0 98 4 127q1 11 1.5 35.5t2 41.5t6.5 36 t16.5 29t30.5 10q5 -225 5 -273q0 -46 -1 -137t-1 -135q-16 8 -27.5 21t-18.5 33.5t-11 37.5t-5.5 45.5t-2 43.5z" />
<glyph unicode="&#xa3;" horiz-adv-x="970" d="M2 719q0 18 10.5 30.5t22 18.5t32.5 9t30 3h26q8 0 25 -1t26 -1q18 -2 57 -2q29 0 43 2q-2 72 -2 232q0 335 17 381h26q164 0 250 14v-47q7 1 20.5 3t20.5 3q4 -226 4 -340q0 -78 -4 -258h25q25 -1 65 -3.5t56 -2.5q44 0 82 14q0 -19 4 -51q19 3 36 10q1 -16 4 -50.5 t3 -49.5q0 -29 -4.5 -81t-4.5 -69q0 -38 33 -71q-126 4 -192 4h-14h-43.5t-29.5 -1.5t-22 -4t-6 -7.5q0 -20 6 -41q34 -2 128.5 -8t160.5 -10t74 -4q-1 -7 -2 -19.5t-2 -19.5q25 -2 45 -2q-19 -290 -19 -356h-188h-28q-250 0 -342 4.5t-118 25.5q0 4 1 12.5t1 12.5 q-33 6 -43 16q4 31 4 162q0 86 -4 246h-163q-37 0 -60 10v31q-21 0 -41 10q0 66 -1.5 121.5t-3 86.5t-1.5 38zM23 725q0 -7 1.5 -35.5t3 -82t1.5 -122.5q2 -2 14 -2h119q76 0 127 -2q8 -123 8 -305q0 -122 -4 -153q27 -19 360 -19h275q0 91 16 318q-7 0 -181.5 11t-197.5 11 q-5 5 -14.5 48.5t-9.5 66.5q0 13 19.5 16t79.5 2h44q74 0 129 -2q-4 4 -4 23q0 13 5 72.5t5 101.5q0 26 -4 76h-2q-18 -9 -57 -9l-211 11q4 218 4 313q0 91 -4 317v2q-56 -12 -187 -12h-53q-12 -24 -12 -360q0 -199 4 -252h-18q-32 -4 -48 -4q-20 0 -56.5 3t-53.5 3 q-98 0 -98 -35z" />
<glyph unicode="&#xa4;" horiz-adv-x="1267" d="M14 219q31 37 68 81t57 68t31 38l8 8q-10 30 -15.5 54t-8 55.5t-3 44t0 59t0.5 61.5q0 200 26 316q-17 20 -35.5 40t-36.5 41q-1 3 -4 5.5t-4 5.5v-2q-30 30 -78 94l242 205q7 -7 19.5 -21.5t19.5 -21.5l2 2q24 -28 81.5 -92t86.5 -97l25 6q76 13 131 13q77 0 180 -15 q18 20 60 69.5t75.5 87t63.5 69.5l241 -207l-4 -4l45 -37q-51 -55 -174 -197q24 -53 33.5 -106.5t9.5 -136.5v-39q0 -192 -55 -297q82 -108 153 -138l-12 -10q30 -23 53 -31l-65 -53q-17 -6 -57 -43.5t-81.5 -70.5t-68.5 -33q-14 0 -45 41h-2l-105 104l-43 43 q-101 -16 -190 -16q-80 0 -168 16q-83 -110 -139 -188q-26 0 -63 25t-69.5 56.5t-73.5 63.5t-71 43q1 0 4.5 4t6.5 8q-24 18 -52 29zM49 227q14 -6 110 -91t122 -85q26 35 57.5 78t50.5 69t33 44q90 -19 176 -19q104 0 203 21q45 -53 91.5 -96.5t94.5 -96.5q24 0 99.5 68.5 t93.5 75.5l39 32q-64 30 -183 183q27 53 41.5 123t16.5 118t2 129q0 122 -47 211q28 33 86.5 98.5t83.5 94.5l-211 180q-32 -35 -97 -109t-98 -110q-101 16 -186 16q-28 0 -90.5 -8t-79.5 -10q-38 43 -197 221l-211 -180q33 -46 66.5 -77.5t85.5 -100.5q-29 -101 -29 -318 q0 -80 0.5 -108.5t7 -77t21.5 -90.5v-2q-10 -11 -36 -45t-54 -66zM389 717q0 86 22.5 136.5t84.5 72.5q75 14 139 14q248 0 248 -176q0 -290 -140 -307h-4q-25 0 -75 -8.5t-76 -8.5q-41 0 -71 5.5t-51.5 14.5t-35.5 27.5t-22.5 37t-12.5 52t-5 62.5t-1 78zM450 597 q0 -15 1 -37.5t5 -36.5t10 -28t17.5 -21.5t26.5 -8.5q18 -4 78 -4q25 0 75.5 8t79.5 8h-2q121 17 121 289q0 28 -8 48.5t-25.5 32t-32.5 19t-41.5 10t-39.5 3t-39 0.5q-47 0 -135 -15l2 2q-29 -9 -48 -27.5t-28 -45.5t-12.5 -54.5t-3.5 -64.5q0 -11 -0.5 -36.5t-0.5 -40.5z " />
<glyph unicode="&#xa5;" horiz-adv-x="1069" d="M24.5 598q-0.5 17 0 27t1 24.5t3 28.5t6.5 29q88 10 233 10h58q36 0 59 2q-24 78 -121 322.5t-125 398.5q27 -4 86 -4q29 0 87 3t87 3q2 0 12.5 0.5t15 0t14.5 -2.5t16.5 -6.5t14.5 -14t15 -22.5q6 -2 27 -2q13 -39 41 -131t47 -144q25 52 129 291q7 10 86 17.5t146 7.5 q62 0 106 -9q-3 -7 -6 -17t-6 -17q21 0 53 -7q-122 -364 -279 -667q3 0 7.5 1t7.5 1h-2h35q54 0 84 -19v-24q4 -2 18.5 -6.5t22.5 -9.5v-76v-47q0 -52 4 -64l-23 -26q-36 4 -59 4q-215 0 -226 -17h21q17 0 49 1t47 1q68 0 146 -4v-39q14 -2 41 -2v-65q0 -12 -1.5 -35 t-1.5 -35q0 -29 13 -92h-51q-174 0 -379 -10q-18 -37 -42 -102.5t-50 -116.5q-41 8 -89 8q-22 0 -72.5 -3t-86.5 -3q-16 0 -78 4q0 21 6 39q-7 0 -23 1t-24 1q8 80 47 159q0 1 1 4.5t1 4.5h-12h-13.5t-12 0.5t-13.5 1t-13 2.5t-14 4t-13.5 5.5t-14.5 8.5v23q-21 3 -41 18v68 q0 96 18 147q62 -4 74 -4q166 0 166 14h-9q-12 0 -33 -1t-32 -1q-68 0 -139 19q-3 15 -6.5 22.5t-6 9.5t-12.5 4.5t-16 4.5q-6 40 -6 75q0 8 -0.5 25zM45 569q0 -9 4 -55q33 -14 117 -14q24 0 67 1t62 1h37l2 -2q-10 -10 -22 -43.5t-17 -42.5v-2q-26 0 -88 -3t-98 -3t-52 2 q-6 -17 -8 -51.5t-1.5 -66t-0.5 -63.5v-2q21 -12 86 -12h47q24 0 39 -6q-8 -22 -26.5 -66.5t-30.5 -79.5t-15 -59h7q16 -2 49 -2q28 0 84.5 3t81.5 3q37 0 71 -6l2 2q9 20 38.5 99t49.5 116q205 10 365 10h51q-4 28 -4 41v146q-33 2 -106 2q-37 0 -114.5 -1t-115.5 -1l2 2 q9 13 18 38.5t20 39.5t34 14q32 0 99 3t98 3q23 0 69 -4v2q-4 15 -4 74v78v28l-2 2q-13 8 -55 8q-12 0 -38 -1t-40 -1q-48 0 -66 13q173 313 301 698q-36 4 -79 4q-199 0 -215 -16q-92 -226 -162 -350q-25 52 -46 113t-45.5 141.5t-35.5 113.5q-23 2 -64 2q-29 0 -85.5 -3 t-84.5 -3q-15 0 -61 4q24 -128 122 -373t126 -342l2 -4q-51 -3 -181.5 -2.5t-179.5 -7.5h-4q0 -24 -2 -62t-2 -57z" />
<glyph unicode="&#xa6;" horiz-adv-x="1705" />
<glyph unicode="&#xa7;" horiz-adv-x="1705" />
<glyph unicode="&#xa8;" horiz-adv-x="714" d="M47 1159q0 28 2 73.5t2 59.5q63 19 146 19q71 0 118 -21v-28q7 -3 20.5 -6.5t20.5 -6.5q0 -11 -7 -111t-11 -132l-242 2q0 1 -3 17t-3 24h-35q-8 41 -8 110zM68 1151q0 -52 6 -82h6h199h4v2q0 16 3 67t6 95t3 45q-23 10 -98 10q-85 0 -125 -12q0 -8 -2 -52.5t-2 -72.5z M403 1159q0 28 2.5 73.5t2.5 59.5q63 19 145 19q73 0 119 -21v-28q7 -3 20.5 -6.5t20.5 -6.5q0 -10 -7.5 -110t-11.5 -133l-241 2q-1 4 -4 18.5t-3 22.5h-34q-9 46 -9 110zM424 1151q0 -52 6 -82h6l199 -2h4v4q0 16 3 67t6 95t3 45q-23 10 -98 10q-85 0 -125 -12 q0 -8 -2 -52.5t-2 -72.5z" />
<glyph unicode="&#xa9;" horiz-adv-x="1140" d="M35 733v15q0 61 1.5 94.5t9 85.5t27 94.5t50.5 79.5q39 48 91 79.5t115 45t115 18t123 4.5q99 0 176 -17.5t164 -70.5q8 0 38 -26t42 -43q67 -56 94 -134.5t27 -181.5q0 -58 -13.5 -163t-15.5 -146v-2q-15 -52 -38.5 -93.5t-49 -69t-63 -49t-67 -33t-76.5 -20.5 t-77.5 -12.5t-82 -9t-78.5 -8.5q-270 0 -389 143q-94 81 -105 191v-2q-18 114 -18 231zM55 733q0 -49 1.5 -86.5t7 -82.5t15 -78t26 -69.5t40 -62.5t57.5 -50.5t77 -39.5t100 -24t125 -9q161 13 199 19q184 31 263 144q34 49 52 116q3 30 11.5 96t13 117t4.5 96 q-2 106 -31 185t-101 129l-24 16q-121 80 -324 80q-477 0 -504 -316q-8 -84 -8 -180zM205 671q-1 31 0 62v37q0 38 2 66t7 62.5t17 59.5t30 49t47.5 39.5t68.5 22.5q27 0 81 5t81 5q241 0 319 -92q9 -11 15.5 -24t10.5 -29t6.5 -27t3.5 -31t1 -28v-29.5v-25.5v-13 q0 -40 -0.5 -63t-3.5 -66.5t-9.5 -70.5t-19 -62t-30.5 -56.5t-46.5 -39.5t-64.5 -23q-56 -11 -168.5 -15.5t-130.5 -6.5q-40 3 -72.5 13t-54.5 25.5t-38.5 37t-26 46t-15.5 53t-7.5 58.5t-2.5 61zM266 733q0 -253 31 -295q44 -31 123 -41q17 0 31 2q-70 35 -90.5 99.5 t-20.5 214.5q0 19 1 69t1 84v8q0 30 12 54v-2q13 50 45 75q-31 -9 -54.5 -24.5t-37.5 -37.5t-23 -43.5t-12.5 -53t-4.5 -53t-1 -56.5zM360 711q0 -69 2.5 -109.5t11 -77.5t25.5 -54.5t44.5 -27.5t70.5 -10q88 0 141.5 47t53.5 131q0 18 -0.5 24t-5 16.5t-16 14t-32.5 3.5 h-51h-12q-1 -9 -2 -29t-3 -30t-7 -22.5t-17 -18t-31 -5.5q-10 0 -17.5 3t-13 10t-9.5 13t-6.5 17.5t-4 18.5t-2 21t-0.5 19v19v16v72q0 46 1.5 68t3 25t5.5 7t19.5 8.5t19.5 6.5q17 0 28 -6t17 -20.5t8 -23.5t4 -31.5t3 -27.5q33 -8 71 -8q16 0 26.5 3.5t15.5 7t7.5 15 t2.5 15v20.5q0 77 -60 132t-139 55q-57 0 -103.5 -36t-46.5 -108v-6q0 -34 -1 -85t-1 -72zM541 664q0 -48 2 -66v-12q11 2 18 9.5t9 21t2.5 23.5t-0.5 26.5t-1 21.5h56h18h14h14t12 -0.5t12 -2.5t9 -5t9 -7.5t6 -11.5t4 -16q16 0 25.5 -5.5t13 -18t4 -19.5t0.5 -24 q0 -99 -76 -162q38 0 67.5 14.5t48.5 35t32.5 56t19.5 63t9.5 71t4 66t0.5 60.5v11v38v21q0 3 -0.5 16t-1 17t-1.5 15.5t-2.5 17t-4 14.5t-6 16.5t-8.5 14.5q-39 29 -123 47h2q-22 3 -123 8q65 -33 116.5 -96t51.5 -131q0 -22 -14 -76q-34 -6 -62 -6q-38 0 -90 10 q0 22 -6.5 30t-15 7t-15 8.5t-6.5 34.5q0 3 -1 10.5t-1 11.5q-2 -2 -6 -2l-12 -4v-12q-4 -54 -4 -139z" />
<glyph unicode="&#xaa;" horiz-adv-x="561" d="M29 1239q0 115 54.5 188.5t139.5 73.5q65 0 90 -14q0 16 4 20t13 4q4 0 16 -2t19 -2h22q47 -4 100 -6l21 -20q0 -17 4 -21h16l21 -20q0 -3 2 -12t2 -13v-211q0 -16 1 -44t1 -44q0 -106 -6 -155v-7v-12.5v-12.5t-2 -9.5t-5.5 -10t-10 -6t-15.5 -4.5h-49q-7 0 -18 1t-15 1 t-12 -1t-12 -1h-27q-23 3 -29 33q-53 -35 -112 -35q-67 0 -109 61q-52 34 -78 115t-26 166zM49 1239q0 -63 14.5 -124.5t50.5 -109t87 -47.5q36 0 75 17.5t64 44.5q0 -7 -3 -18t-3 -19q0 -19 12 -22q8 0 23.5 1t23.5 1q11 0 34 -1t34 -1h12q14 3 14 14v29q0 24 2.5 71 t2.5 70q0 33 -1.5 100t-1.5 103q0 48 3 100v8q0 4 -2.5 12.5t-2.5 12.5q-58 2 -102 6h-6h-33q-16 0 -16 -48v-7q-6 18 -16 28.5t-27 14.5t-29 5t-35 1q-74 0 -124 -69t-50 -173zM176 1219q0 37 8 53q5 30 30 48.5t67 18.5q35 0 44 -8.5t9 -40.5v-57v-13q0 -27 -0.5 -40 t-3.5 -31t-9.5 -25.5t-19 -13.5t-31.5 -6q-41 0 -67.5 33.5t-26.5 81.5zM238 1162.5q0 -4.5 1.5 -14t5 -13.5t10 -7.5t15.5 -3.5q16 0 25 6t12.5 21.5t4.5 28.5t1 41v57q-56 -3 -67 -51l-2 -4q-6 -14 -6 -45v-15.5z" />
<glyph unicode="&#xab;" horiz-adv-x="1206" d="M-2 537q51 65 116 134.5t153.5 157.5t127.5 129l11 11q44 49 118 123q33 -20 93.5 -82.5t93.5 -81.5q-4 -4 -4 -6q23 -22 45 -35q-61 -74 -186 -204.5t-173 -188.5q20 -20 57 -56t56 -55q22 -21 69.5 -67t84.5 -81t69 -61l-2 -2q7 -7 21.5 -19.5t21.5 -19.5l-70 -67 q-55 -55 -122 -111q-59 59 -147 137t-151 133.5t-141.5 139t-140.5 172.5zM25 537q68 -92 157 -179.5t193.5 -179.5t163.5 -153l2 -2q41 35 77 71l60 60l22 20q-72 58 -197 182.5t-181 173.5q54 68 188 207t172 187q-22 15 -76 71t-80 70q-136 -144 -215 -223l-102 -105 q-130 -130 -184 -200zM100 453v2v2v-2v-2zM451 537q51 65 116 134.5t153.5 157.5t127.5 129l10 11q35 39 119 123q37 -21 98.5 -84t87.5 -80q-4 -4 -4 -6q23 -22 45 -35q-61 -74 -185.5 -204.5t-172.5 -188.5q194 -202 338 -320l-4 -4q6 -5 21.5 -17t23.5 -20l-39 -35 l-33 -32q-49 -50 -123 -111l-45 45q-52 52 -133 123.5t-140.5 123t-132 130t-128.5 160.5zM477 537q68 -92 157 -179.5t193.5 -179.5t163.5 -153l2 -2q48 41 78 71l59 60l23 20q-72 58 -198 182.5t-181 173.5q54 68 188.5 207t172.5 187q-22 15 -76 71t-80 70 q-136 -144 -215 -223l-102 -105q-134 -134 -185 -200zM729 174l6 6l-4 -6h-2zM770 133l6 6l-4 -6h-2z" />
<glyph unicode="&#xac;" horiz-adv-x="919" d="M-16 987q1 0 57 0.5t126 0.5h163t180.5 -1t165.5 -3t131 -5.5t65 -9.5v-33q24 -2 41 -8q0 -11 -3 -175t-3 -227v-73h-153v41h-41v63q0 25 -1 103t-1 122q-117 0 -282.5 4.5t-282 10t-119.5 8.5v37q-37 0 -41 4v28q0 14 -1 58t-1 55zM4 936q0 -13 1 -36.5t1 -31.5v-14 l37 -2q55 0 319 -4t369 -4v-101q0 -40 1 -104t1 -84v-41h113v31q0 13 5 160.5t1 201.5l-2 49l2 7l-106 1q-106 1 -257 2t-260 1h-225v-31z" />
<glyph unicode="&#xad;" horiz-adv-x="735" d="M43 623l20 20q4 0 302 2t331 2q-3 -25 -6 -41h47q-10 -78 -10 -86v-24q0 -7 1 -25t1 -25h-92q-85 0 -295.5 1.5t-226.5 1.5h-29v40h-41v41q0 14 -1 48t-1 45zM63 592q0 -13 1.5 -36.5t1.5 -31.5v-14h40q23 0 105.5 -1t136.5 -1h320v84q0 7 4 35h-164q-70 0 -214 -2 t-179 -2h-52v-31z" />
<glyph unicode="&#xae;" horiz-adv-x="1130" d="M35 733v15q0 61 1.5 94.5t9 85.5t27 94.5t50.5 79.5q39 48 91 79.5t115 45t115 18t123 4.5q99 0 176 -17.5t164 -70.5q11 0 76 -65q125 -104 125 -324q0 -112 -27 -289v2q-4 -11 -6 -29l-2 -18h-2q-17 -48 -41.5 -86t-50 -63.5t-62.5 -44.5t-66 -29.5t-74.5 -18.5 t-74.5 -11t-79 -7.5t-76 -7.5q-270 0 -389 143q-94 81 -105 191v-2q-18 114 -18 231zM55 733q0 -49 1.5 -86.5t7 -82.5t15 -78t26 -69.5t40 -62.5t57.5 -50.5t77 -39.5t100 -24t125 -9q18 2 57.5 4.5t60.5 4t58 6.5t60 10t56 15t54.5 22t48 30.5t45.5 41.5t37 53.5t31 66.5 q32 103 32 328q0 108 -28 187.5t-101 132.5l-24 16q-121 80 -324 80q-477 0 -504 -316q-8 -84 -8 -180zM205 770q0 43 2 66l6 67q5 58 57 113t117 55q65 8 152 8q241 0 319 -92q9 -11 15.5 -24t10.5 -29t6.5 -27t3.5 -31t1 -28v-29.5v-25.5v-13q0 -40 -0.5 -63t-3.5 -66.5 t-9.5 -70.5t-19 -62t-30.5 -56.5t-46.5 -39.5t-64.5 -23l-31 -6l-164 -12q-23 -2 -57 -2q-77 0 -129 15.5t-79.5 46t-38.5 66t-11 83.5q-6 177 -6 180zM266 741q0 -38 4 -120v2q1 -19 1 -51.5t1 -48.5t6 -39t15 -35t30 -24t50 -19h-2q25 -5 28 -5l-2 17q-3 0 -9 -1t-9 -1 q-5 0 -9 0.5t-6 0.5t-3.5 0.5t-2.5 0.5l-10 4q-6 0 -6 201q0 61 -3 183t-3 163q-53 -43 -62 -109l-6 -67q0 -8 -1 -25.5t-1 -26.5zM354 1020q8 -41 8 -397q0 -185 -4 -185h21q82 0 125 11q0 13 -4 66t-4 83q0 44 4 53l2 -4q6 -7 12 -14.5t12.5 -17t11 -16.5t11 -19t9.5 -18 l10 -20t9 -18.5t9 -20t8 -18.5l27 -47h20q20 0 58.5 2t54.5 2q-15 40 -39 81.5t-59 92t-50 74.5l6 2q59 4 95 52.5t36 107.5q0 87 -62.5 134.5t-160.5 47.5q-56 0 -166 -14zM475 905q33 13 57 13q28 0 47 -15.5t19 -46.5q0 -59 -68 -59q-15 0 -51 4h-2q-1 14 -1 51t-1 53z M537 817q38 0 38 37h-12q-18 0 -26 -2v-35zM555 528q0 -18 5 -58.5t5 -66.5q11 1 31.5 3.5t32.5 3.5q-8 8 -23 8q-15 17 -24 49q-6 11 -11 22t-9 22t-7 17zM678 1014q127 -95 127 -203q0 -59 -33.5 -112t-91.5 -64q12 -25 54 -84t59 -96q29 24 47 59t24.5 84.5t8 81.5 t1.5 89v24v38v21q0 3 -0.5 16t-1 17t-1.5 15.5t-2.5 17t-4 14.5t-6 16.5t-8.5 14.5q-32 21 -81 36t-91 15z" />
<glyph unicode="&#xb0;" horiz-adv-x="616" d="M36 1027q0 14 0.5 38t0.5 31q0 114 44.5 173.5t139.5 78.5h17q16 0 48.5 2t45.5 2q29 0 71 -11q23 -8 37 -10l2 -2h-2q61 -18 84 -41h-2q9 -9 24 -23t19 -18h-2q38 -32 50 -75.5t12 -108.5v-19q0 -41 -6.5 -78.5t-21 -75.5t-43.5 -66.5t-69 -41.5h2q-50 -22 -153 -22 q-72 0 -133 18l-2 2q-34 16 -61 36t-44.5 39t-29.5 44t-17.5 43t-8 44.5t-2.5 40.5zM57 1096q1 -13 1 -36.5t1 -42t4 -34.5l5 -29q6 -39 29 -64t69 -50q65 -19 127 -19q39 0 104 10l21 5q56 19 89.5 58t44.5 84t11 107v45q0 84 -55.5 142.5t-175.5 58.5h-39 q-119 0 -177.5 -54.5t-58.5 -180.5zM178 1087q0 48 12.5 77t45.5 40q37 6 77 6q136 0 136 -92q0 -157 -78 -170h-2q-16 0 -44.5 -4t-41.5 -4q-70 0 -87.5 29t-17.5 118zM242 1012l2 -49q4 0 17 -1t20 -1q37 0 67 6h12q24 0 39.5 20t21 53t6.5 47.5t1 30.5q0 6 -2 10.5 t-5.5 7.5t-8 5.5t-10.5 4t-10.5 2t-11.5 1t-10 0.5h-9h-7q-36 0 -73 -6l2 2q-27 -10 -34 -30.5t-7 -59.5v-43z" />
<glyph unicode="&#xb1;" horiz-adv-x="999" d="M20 23q0 36 3.5 179t3.5 169h948v-41h41q0 -39 -2 -113.5t-2 -107.5q0 -91 10 -162q-30 0 -475 7t-465 7l-21 21v20h-20zM41 23q11 0 176 -3.5t365 -7.5t297 -4h82q-11 65 -11 137q0 34 2 102.5t2 102.5h-907q0 -2 -3 -146t-3 -181zM55 1106q4 -2 41 -2q145 0 219 12 q0 40 2 84t4.5 78.5t5.5 62.5t5 45l2 17q45 -29 112 -29q25 0 78.5 2t81.5 2q38 0 66 -4v-39q31 0 41 -2v-168q0 -9 -1 -25t-1 -22q8 0 25 1t26 1q115 0 162 -8q0 -7 -1 -18.5t-1 -18.5q15 0 43 -4q-2 -36 -2 -140.5t-9 -187.5q-23 -12 -127.5 -13.5t-111.5 -2.5 q0 -40 -8.5 -133t-8.5 -107q0 -28 -84 -28q-21 0 -71 2t-74 2q-93 0 -121 -12l-2 38v-2q-2 2 -2 11q-31 -3 -37 -6l-2 38v-2q-6 41 -6 74q0 8 1 20t1 17v80q-172 16 -199 35q0 2 1 11.5t1 14.5q-34 6 -43 15q0 6 1 26.5t1 34.5q0 59 -4 146.5t-4 103.5zM76 1077 q0 -4 2.5 -45t5 -95t2.5 -89q0 -10 -1 -24.5t-1 -18.5q0 -12 88.5 -18.5t140.5 -6.5h4q7 -7 7 -96q0 -17 -1 -44t-1 -42q0 -50 4 -68v-4l2 -2h18q18 0 96.5 -2t118.5 -2q76 0 76 8v4q0 14 7 102.5t7 123.5v24q15 9 126 10t118 5q5 55 5 152t3 145q-31 6 -123 6h-67 q-7 0 -20.5 -1t-18.5 -0.5t-12 4t-9 13.5t-2 27v213h-28q-19 0 -79.5 -1t-92.5 -1q-79 0 -97 10q-7 -38 -12.5 -128.5t-5.5 -137.5q-8 -3 -114 -12t-138 -9h-8z" />
<glyph unicode="&#xb2;" horiz-adv-x="524" d="M35 666q3 35 3 79.5t0.5 69t8.5 54.5t25 57q33 33 106 84q-4 0 -12 -1t-12 -1q-2 0 -16 -0.5t-17.5 0t-14 3t-14 7t-7 13t-3.5 20.5q-7 1 -17.5 2t-17.5 2q-8 31 -8 80q0 106 61 167.5t181 61.5q65 0 115 -26.5t79.5 -72.5t44.5 -101.5t15 -119.5q-3 -46 -29.5 -80.5 t-57 -51t-75.5 -38.5t-68 -38h160q6 -15 10 -41h31q12 -37 12 -84v-27v-10q0 -4 -1 -23t-1 -24l-375 -6l-65 4q0 7 1 20t1 17zM57 682h43l355 6h4q-4 16 -4 17q0 9 2 29.5t2 29.5q0 35 -8 51q-41 0 -114.5 -1t-115.5 -1q-4 4 -4 10q0 35 25.5 60.5t62 42.5t73.5 35.5 t64.5 50t30.5 75.5q0 44 -3 75.5t-14 68t-31 59t-56.5 38t-87.5 15.5q-113 0 -167.5 -55t-54.5 -153q0 -27 7 -62v-2q8 0 23.5 -1t23.5 -1q37 0 90 6v2q0 113 71 113q22 -4 35 -23t13 -43q0 -40 -40 -73t-102 -69t-90 -67q-18 -31 -24 -66.5t-6.5 -87.5t-2.5 -75v-4z M266 1063l4 4q31 19 31 57q-16 -5 -23 -19.5t-12 -41.5z" />
<glyph unicode="&#xb3;" horiz-adv-x="495" d="M20 1176q0 32 9 53l-2 -2q18 64 80.5 97.5t140.5 33.5q79 0 142 -38t97 -93l-2 2q17 -22 17 -60v-20q0 -28 1 -80t1 -76v-12q0 -63 -0.5 -93t-4.5 -78t-12.5 -70t-24.5 -51.5t-40 -41.5t-59.5 -21.5t-83.5 -9.5q-114 0 -158 39v2l-12 5q-11 8 -31 36l4 -2h-2l2 2l-14 4 q-16 14 -25.5 32.5t-13.5 44.5t-5 41t0 47t1 36q28 0 66 4t63 4q18 0 26 -5t16.5 -18t16.5 -20h10q0 -16 27 -16q18 0 26 14l-2 -2q7 10 7 23h-13q-34 0 -61 -6q-12 22 -17 45q-4 0 -24 -4q-19 42 -19 77q0 5 1.5 14.5t1.5 14.5v41h-87v41h-40v41q0 4 -1.5 12.5t-1.5 12.5z M41 1180q0 -8 1 -24t1 -23l55 -3q16 -1 27.5 0t24.5 2t16 1q6 23 32.5 39t53.5 16q49 0 49 -49q0 -35 -20.5 -46t-58.5 -11t-52 -5q0 -3 1 -9.5t1 -10.5q0 -11 -2 -33t-2 -33q0 -32 8 -45q18 6 43 6q34 0 58 -16t24 -49q0 -27 -16.5 -42.5t-36.5 -15.5q-24 0 -48 18t-32 42 h-2h-12q-20 0 -52 -3t-47 -3h-10h-2q3 -20 4.5 -50.5t3 -47t9.5 -35.5t22 -31q2 -1 18.5 -9t32 -14t45 -12t60.5 -6q143 0 184 96q8 17 12.5 40t6 54.5t2 52.5t0 60.5t-0.5 52.5q0 25 -1 77.5t-1 80.5v18q0 58 -58 92.5t-134 34.5q-85 0 -146 -41t-61 -116zM242 1104 q29 0 37 22q-26 -11 -37 -22z" />
<glyph unicode="&#xb4;" horiz-adv-x="522" d="M-31 1073q72 65 192.5 188.5t194.5 182.5l39 -43l2 2l166 -172q-3 -3 -78 -72h2q-126 -104 -147 -143q-43 -6 -111 -6q-145 0 -219 22q5 4 15.5 13.5t15.5 13.5zM12 1083q37 -12 174 -12q80 0 101 4q10 17 52.5 57t92.5 84t62 56l2 2l-142 143q-57 -45 -193 -183.5 t-149 -150.5z" />
<glyph unicode="&#xb5;" horiz-adv-x="892" d="M43 100q0 252 6 458t6 370q0 48 -4 110q78 11 170 11h43h84q0 -27 2 -41h39q6 -63 6 -248v-103v-19q0 -69 1 -106t7.5 -88t20.5 -84q28 -4 41 -4q57 0 82.5 37.5t25.5 138.5q0 58 -6 174t-6 173q0 86 10 157q79 8 136 8h16q51 0 145 9v-45q13 0 41 4q0 -131 3 -389 t3 -390q0 -106 -4 -290q-38 0 -112.5 -6.5t-112.5 -6.5q-48 0 -66 11.5t-18 33.5q-24 6 -35 17q-55 -32 -159 -43q0 -170 4 -228t4 -94q-20 -26 -119 -26q-59 0 -90 2h2q-8 0 -24 1t-23 1q-42 0 -76 -11v50q-20 0 -41 -9v91q0 39 -1 173t-1 201zM63 16v-159q0 -44 0.5 -89 t1.5 -73t1 -31q4 2 32 2q19 0 76 -2t86 -2q84 0 94 14q0 30 -4 65t-4 134v133q45 5 69 9t60.5 15t62 30.5t42.5 48.5v-46t4 -63q2 -10 57 -10q40 0 120.5 6t88.5 6q4 212 4 311q0 124 -3 360t-3 355q-50 -6 -78 -6h-102q-26 0 -78 -6q-10 -59 -10 -144q0 -57 7 -172t7 -174 q0 -109 -32 -150.5t-97 -41.5q-24 0 -43 6.5t-31.5 15t-22 26t-14 30.5t-8 38t-4.5 39.5t-3 42.5q-1 13 -1 19q-4 34 -4 168v153q0 125 -4 154q-24 0 -62 1t-57 1q-73 0 -137 -10q0 -14 1 -48t1 -54q0 -112 -6.5 -355t-6.5 -547z" />
<glyph unicode="&#xb6;" horiz-adv-x="1388" d="M23 1079q0 42 0.5 65t3 65t7 68t14 61.5t23 58t35 44.5t48.5 34q36 16 79.5 21.5t113 7.5t104.5 5l362 2l332 5h215v-46h41q0 -18 3 -136.5t3 -170.5q-22 -35 -102 -35q-17 0 -53.5 3t-51.5 4q0 -162 -7 -607.5t-7 -625.5q0 -279 6 -355q-26 -28 -119 -28q-59 0 -90 2h2 q-8 0 -24.5 1t-24.5 1q-45 0 -76 -10q0 15 4 51q-31 -4 -45 -10q20 250 23 888t4 695q-25 2 -74 2q-14 -761 -14 -1159q0 -313 8 -433q-26 -28 -119 -28q-59 0 -90 2h2q-8 0 -24.5 1t-24.5 1q-45 0 -76 -10q0 15 4 51q-31 -4 -45 -10q21 234 21 659q0 127 -4 373 q-3 0 -7.5 -1t-7.5 -1q-128 0 -202 56.5t-146 195.5q-24 107 -24 243zM43 1077q0 -122 25 -233q38 -73 69.5 -113t78 -63t112.5 -23q37 0 102 10q4 -278 4 -442q0 -428 -18 -631q4 2 33 2q19 0 75.5 -2t85.5 -2q85 0 95 14q-9 135 -9 426q0 365 15 1180l157 -2 q-6 -185 -6.5 -781t-19.5 -835q4 2 32 2q19 0 76 -2t86 -2q84 0 94 14q-6 76 -6 353q0 257 17 1249q14 -1 39 -2.5t45 -2.5t37 -1q74 0 84 20q0 47 -3.5 159t-3.5 122l-194 4h-332l-360 -6q-25 -1 -76 -2.5t-75.5 -3.5t-64.5 -7t-62 -15.5t-47.5 -28t-41.5 -45.5t-25 -66 q-18 -129 -18 -244z" />
<glyph unicode="&#xb7;" horiz-adv-x="305" d="M39 782v43l225 -2v-41h41q0 -23 3 -130t3 -156q-21 -37 -78 -37q-7 0 -24 1t-29 1q-51 0 -92 -2v43q-7 0 -20.5 -1t-20.5 -1q0 40 -4 128t-4 154zM59 772q0 -57 4.5 -137.5t4.5 -112.5h38q21 0 50.5 -1t38.5 -1q43 0 55 21q0 47 -3 148.5t-3 113.5l-185 2v-33z" />
<glyph unicode="&#xb8;" horiz-adv-x="389" d="M14 -301q56 153 79 224t38 114q13 -17 21 -21t26 -4l203 -4q-5 -21 -12 -39l53 -2q-8 -31 -54.5 -171t-52.5 -161h-172q-23 0 -34.5 0.5t-26.5 2.5t-21 7t-6 13l6 18q-47 3 -47 23zM35 -301q0 -2 28 -2l195 2q4 12 47 138t49 151l-176 4l-20 4q-3 1 -9.5 2t-9.5 2 q-16 -44 -37 -108t-67 -193z" />
<glyph unicode="&#xb9;" horiz-adv-x="358" d="M-8 1116q0 28 52 116.5t52 100.5q8 0 32.5 1t31.5 1h39q17 0 110 -6q0 -29 7 -35t34 -6q6 -59 6 -137v-31q0 -64 -5 -195.5t-5 -203.5v-62q0 -12 -6 -20t-19.5 -10.5t-21.5 -3t-25 -0.5q-79 0 -108 14v29q-20 0 -41 12v98q0 108 10 248q-29 8 -65.5 25t-36.5 24 q0 11 2 15q-43 17 -43 26zM12 1116q0 -5 48.5 -19t56.5 -14q13 0 24.5 25t16.5 25v-17q0 -58 -6.5 -169t-6.5 -169v-86q75 -6 88 -6q52 0 52 14v62q0 71 5 202.5t5 196.5v76q0 24 -4 74q-62 4 -92 4q-13 0 -39.5 -1t-42.5 -1l-13 -20q-13 -20 -27 -42.5t-29.5 -49.5 t-25.5 -50.5t-10 -34.5z" />
<glyph unicode="&#xba;" horiz-adv-x="520" d="M33 986v34.5v28.5q0 126 53 204l-2 -4v-2l11 17l1 2q73 80 162 80q65 0 118.5 -34.5t85.5 -87t49 -109.5t17 -109v-27v-27q0 -57 -13 -112t-38.5 -104.5t-71 -80t-104.5 -30.5q-109 0 -168 77q-16 12 -29.5 28t-23 30.5t-17 36.5t-12.5 36.5t-8.5 40.5t-5.5 38t-3 39.5 t-1 34.5zM52.5 978q-0.5 -24 2 -49.5t5 -50.5t10 -49t17.5 -45.5t26 -39t36 -30.5t48.5 -20.5t62.5 -7.5q69 0 118 49t69 115t20 139v31v27q0 47 -10.5 92.5t-33 89t-64.5 70t-97 26.5q-47 0 -98 -24t-62 -60q-49 -72 -49 -192v-24q0 -23 -0.5 -47zM188 993 q0 100 14.5 144.5t55.5 44.5q61 0 61 -158v-25v-29t-0.5 -28.5t-2 -29t-4.5 -25.5t-8 -24t-11 -17.5t-15.5 -12.5t-21.5 -4q-8 0 -18 7q-27 7 -38.5 55t-11.5 102zM250 952q0 -53 10 -94q0 -1 -1 -2t-1 -2t1 -2t1 -2q0 2 2 2h2q11 5 17.5 17.5t8.5 24t4 30t3 26.5v17 q2 18 2 57q0 58 -8 94q-41 0 -41 -166z" />
<glyph unicode="&#xbb;" horiz-adv-x="1206" d="M23 176q73 60 199 183t181 173q-25 29 -159.5 170t-200.5 226q35 21 91 80.5t95 81.5l41 -41q17 -17 58 -59t61 -62l10 -10q39 -41 123 -125l6 -7q42 -50 135 -144.5t134 -145.5q-40 -54 -64 -80q3 3 123 116q-25 29 -159.5 170t-200.5 226q35 21 91 80.5t95 81.5 q24 -27 57 -60l113 -112q23 -23 49.5 -51t43 -45.5t30.5 -28.5l6 -7q42 -50 134.5 -144.5t133.5 -145.5q-76 -100 -167.5 -191t-201.5 -189t-173 -163q-61 53 -93 82.5t-38 36t-11 13t-14 15.5l-37 39l-33 29q-32 -32 -111 -105t-116 -110q-61 53 -93 82.5t-38 36t-11 13 t-14 15.5l-37 39zM53 174l23 -20l33 -33q55 -55 104 -98l2 2q60 62 163 154t192.5 179.5t158.5 178.5q-54 70 -184 200l-103 105q-79 79 -215 223q-25 -14 -79.5 -70t-75.5 -71q42 -52 174 -191t186 -203q-55 -49 -181 -173.5t-198 -182.5zM506 174l22 -20l33 -33 q48 -48 105 -98l2 2q60 62 163 154t192.5 179.5t158.5 178.5q-51 66 -185 200l-102 105q-79 79 -215 223q-25 -14 -80 -70t-76 -71q42 -52 174.5 -191t186.5 -203q-55 -49 -181 -173.5t-198 -182.5z" />
<glyph unicode="&#xbc;" horiz-adv-x="1214" d="M8 1118q4 33 62.5 132.5t72.5 113.5h54q7 0 23 1t24 1q55 0 125 -4q0 -12 1.5 -20t2.5 -12.5t6.5 -6.5t7.5 -2.5t11 0t12 0.5q6 -68 6 -158v-33q0 -79 -5 -230.5t-5 -229.5v-35q0 -23 2 -35v-2q0 -39 -84 -39q-54 0 -119 10v37q-21 0 -41 4v117q0 126 10 293 q-17 3 -37 12l-41 17q-47 17 -47 28t2 15q-43 17 -43 26zM29 1116q0 -7 55.5 -22t67.5 -15q13 0 26.5 29t16.5 29q2 -4 2 -21q0 -66 -6.5 -195t-6.5 -194v-100q15 0 48.5 -3t50.5 -3q63 0 63 18q-2 6 -2 18v54q0 78 5 230t5 230v84q0 24 -4 86q-88 5 -106 5q-16 0 -46 -1.5 t-46 -1.5q-11 -11 -65 -104t-58 -123zM221 -29q36 110 230 647.5t280 858.5q25 -7 45 -7q12 0 39 1.5t43 1.5q69 0 98 -23l-8 -20q34 -6 49 -21l-127 -383q-22 -64 -71.5 -210.5t-77 -227.5t-69 -200.5t-78.5 -221.5t-74 -199l-2 -4q-2 -8 -6.5 -12.5t-8.5 -7.5t-12.5 -4 t-14 -1t-19 0.5t-21.5 0.5q-12 0 -37 2t-37 2q-36 0 -80 -13q3 9 8.5 27t8.5 27q-30 -3 -58 -13zM254 2q2 2 27 2q17 0 62 -2t63 -2q24 0 26 2l4 8l4 6q61 159 131 355.5t116.5 335.5t127.5 381.5t119 353.5v2q-13 10 -55 10q-18 0 -55 -2t-52 -2q-23 0 -27 2 q-77 -284 -265 -809.5t-226 -640.5zM702 365q0 6 0.5 9.5t0.5 6.5t1.5 6t2.5 4.5t4.5 7t5.5 9.5q28 47 221 340h76q24 0 70.5 1t50.5 1v-43q11 0 25 1t16 1v-240q0 -20 -1 -46.5t-1 -33.5h22l-2 -39q6 -2 20 -2h23l-10 -201h-33h-2.5t-2.5 0.5t-4.5 1.5t-9 2t-16.5 3 q3 -44 -6 -62q-1 -7 -2 -23t-2 -24q-1 -19 1 -37t4.5 -30t2.5 -15q-12 -12 -38 -15t-89 -3h-67v41h-41v180h-62h-16q-29 0 -41 0.5t-25.5 4.5t-19 13t-8.5 25q-4 1 -11.5 1.5t-10.5 1t-8 3.5t-6.5 9t-4.5 17t-4 27.5t-2 40t-1 56.5zM723 358q0 -87 10 -127v-2q2 -2 33 -2 h139q37 0 39 -2q0 -1 -0.5 -18t-1 -43.5t-0.5 -50.5v-107h109q17 0 26.5 2.5t15 5.5t7.5 13.5t2 19.5t0.5 30.5t1.5 39.5v2q1 8 2 17t1.5 14t0.5 8q0 16 2 22l4 29q4 2 16 2h21q12 0 16 2h2l7 156q-7 0 -22.5 3t-23.5 3q-10 0 -12 -2q-4 16 -4 104v252h-88q-15 0 -33 -0.5 t-30.5 -1t-14.5 -0.5q-75 -113 -131.5 -200.5t-74 -115.5t-19.5 -30v-23zM877 371q2 2 27 39.5t50 72.5t29 35l2 -2l-4 -143l-2 -2q-6 0 -41 -1t-49 -1z" />
<glyph unicode="&#xbd;" horiz-adv-x="1220" d="M8 1118q4 33 62.5 132.5t72.5 113.5h54q7 0 23 1t24 1q55 0 125 -4q0 -12 1.5 -20t2.5 -12.5t6.5 -6.5t7.5 -2.5t11 0t12 0.5q6 -68 6 -158v-33q0 -79 -5 -230.5t-5 -229.5q0 -45 2 -70v-2q0 -39 -84 -39q-54 0 -119 10v37q-21 0 -41 4v117q0 126 10 293q-33 8 -79 28 t-46 29q0 11 2 15q-43 17 -43 26zM29 1116q0 -7 55.5 -22t67.5 -15q13 0 26.5 29t16.5 29q2 -4 2 -21q0 -66 -6.5 -195t-6.5 -194v-100q15 0 48.5 -3t50.5 -3q63 0 63 18q-2 14 -2 35v37q0 78 5 230t5 230v84q0 24 -4 86q-88 5 -106 5q-16 0 -46 -1.5t-46 -1.5 q-11 -11 -65 -104t-58 -123zM221 -29q36 110 230 647.5t280 858.5q25 -7 45 -7q12 0 39 1.5t43 1.5q69 0 98 -23l-8 -20q34 -6 49 -21l-127 -383q-84 -252 -127 -377q5 8 15 21t12 16v-2q56 70 197 70q74 0 129.5 -28t86 -75.5t45.5 -101t15 -113.5q0 -44 -12.5 -78 t-37.5 -58.5t-50.5 -40t-63.5 -32.5q-63 -26 -94 -57q27 0 89.5 2t96.5 2q2 -5 7 -19t8 -22h26q17 -38 17 -78v-20v-35q0 -4 -1 -25t-1 -28l-410 -4l-69 2q0 8 1 21t1 20h-43q3 36 3.5 84.5t1 75t10 62t28.5 68.5q8 9 18.5 19t18 16.5t22.5 17t19.5 14t23.5 15.5t20 13 q-16 -2 -49 -2q-3 0 -14 -0.5t-16.5 -0.5t-14.5 2t-14 6.5t-8.5 13t-3.5 20.5q-7 1 -17.5 3t-17.5 3q-8 36 -8 86q0 23 4 59q-168 -480 -213 -594l-2 -4q-2 -8 -6.5 -12.5t-8.5 -7.5t-12.5 -4t-14 -1t-19 0.5t-21.5 0.5q-12 0 -37 2t-37 2q-36 0 -80 -13q3 9 8.5 27t8.5 27 q-30 -3 -58 -13zM254 2q2 2 27 2q17 0 62 -2t63 -2q24 0 26 2l4 8q1 1 2 3t2 3q61 159 131 355.5t116.5 335.5t127.5 381.5t119 353.5v2q-13 10 -55 10q-18 0 -55 -2t-52 -2q-23 0 -27 2q-77 -284 -265 -809.5t-226 -640.5zM729 6l47 -2l389 4q4 0 4 2q-4 16 -4 19 q0 11 2 35t2 36q0 31 -10 54q-37 0 -101 -1t-97 -1q-2 0 -11 -0.5t-16 -0.5t-14.5 0.5t-12 3t-4.5 7.5q0 30 15.5 53t40 38.5t54 30t59.5 31t54.5 36.5t40 52.5t15.5 73.5q0 56 -8 97.5t-30 80t-66.5 58.5t-110.5 20q-120 0 -179 -60t-59 -171q0 -34 6 -68l2 -2q14 -2 41 -2 q48 0 111 8v2q0 48 17 85.5t59 37.5q28 -4 41.5 -25t13.5 -49q0 -43 -45.5 -79.5t-113.5 -76.5t-97 -73q-15 -24 -22.5 -57.5t-9 -60t-1.5 -70t-2 -66.5zM952 422q18 11 24.5 16.5t14.5 19t8 31.5q0 9 -2 11q-21 -4 -30.5 -23.5t-14.5 -54.5z" />
<glyph unicode="&#xbe;" horiz-adv-x="1271" d="M12 1165q0 37 8 56h-2q19 69 87.5 106t152.5 37q86 0 151.5 -38.5t106.5 -98.5h-2q18 -30 18 -70v-16q0 -29 1.5 -85t1.5 -83q0 -32 -5 -170v-25q-4 -48 -15.5 -84t-36.5 -69t-72 -50.5t-115 -17.5h-10q-74 0 -119 21v-3q-15 3 -27 11q-2 2 -11 10t-26.5 23t-36.5 32 q-30 34 -37.5 73.5t-7.5 139.5q35 0 69.5 4t59.5 4q4 0 18.5 -1t24.5 -1q6 -20 27 -41q20 -20 45 -20q23 0 33 16l-2 -2q6 9 6 25q0 8 -33 8q-23 0 -55 -4q-12 23 -14 45q-20 -4 -27 -4q-16 43 -16 82q0 13 2 39t2 43l-101 2v39h-41v43q0 3 -1 11t-1 13zM33 1169q0 -8 1 -25 t1 -24l61 -2q18 -1 30.5 -0.5t26.5 1.5t17 1q11 25 40 43.5t58 18.5q49 0 49 -64q0 -28 -22 -40.5t-48.5 -12.5t-48.5 -3t-22 -13q0 -12 -2 -40t-2 -44q0 -37 8 -50q35 5 43 5q40 0 68 -19t28 -53q0 -28 -19 -45t-40 -17q-29 0 -54.5 19.5t-33.5 46.5h-2q-26 0 -70 -4 t-63 -4l-2 -2q3 -19 5 -51t4 -48t10.5 -38t23.5 -41l19 -9.5t34.5 -16t50 -14t68.5 -6.5q51 0 87 8t61 30t39.5 49t22.5 76t10.5 100t2.5 131q0 28 -1 86t-1 86v14q0 67 -64 106t-149 39q-58 0 -107 -17.5t-83.5 -58.5t-34.5 -98zM240 1083q20 1 29.5 3t18 9.5t9.5 22.5 q-31 -5 -57 -35zM279 -29q61 185 166.5 472t191.5 540t151 494q24 -7 46 -7q12 0 38.5 1.5t42.5 1.5q70 0 99 -23l-8 -20q34 -6 49 -21l-127 -383q-269 -792 -371 -1059l-2 -4q-2 -8 -6.5 -12.5t-8.5 -7.5t-12.5 -4t-14 -1t-19 0.5t-21.5 0.5q-12 0 -36.5 2t-37.5 2 q-36 0 -80 -13q3 9 8.5 27t8.5 27q-29 -3 -57 -13zM311 2q2 2 27 2q18 0 63 -2t62 -2q24 0 26 2l5 8q1 1 2 3t2 3q61 159 130 354.5t117 338t127 378.5t119 355v2q-12 10 -55 10q-18 0 -55 -2t-52 -2q-22 0 -26 2q-58 -213 -141.5 -457.5t-187 -528t-163.5 -464.5zM760 369 q0 17 1.5 21t12.5 22q28 47 221 340h76q24 0 70.5 1t50.5 1v-43q10 0 25 1t16 1v-240q0 -20 -1 -46.5t-1 -33.5h22l-2 -39q6 -2 21 -2h22l-10 -200h-33h-3t-3 0.5t-9.5 2t-18.5 3.5q3 -42 -7 -62q-1 -7 -2 -23t-2 -24q-1 -19 1 -37t4.5 -30t2.5 -15q-12 -12 -38 -15t-89 -3 h-67v41h-41v180h-61h-16q-29 0 -41 0.5t-26 4.5t-19.5 13t-8.5 25q-4 1 -11.5 1.5t-10 1t-7.5 3.5t-7 9t-5 16.5t-3.5 27.5t-1.5 40.5t-1 56.5zM780 362q0 -82 11 -126v-3q2 -2 32 -2h140q36 0 38 -2q0 -1 -0.5 -18t-1 -43.5t-0.5 -50.5v-107h109q17 0 26.5 2.5t15 5.5 t7.5 13.5t2 19.5t0.5 30.5t1.5 39.5v2q1 8 2 17t1.5 14t0.5 8q0 16 2 22l4 29q4 2 17 2h20q13 0 17 2h2l6 156q-7 0 -22 3t-23 3q-10 0 -12 -2q-5 20 -5 104v252h-88q-15 0 -33 -0.5t-30 -1t-14 -0.5q-75 -113 -132 -200.5t-74.5 -115.5t-19.5 -30v-23zM934 375q2 2 27 39.5 t50 72.5t29 35l2 -2l-4 -143l-2 -2q-6 0 -41 -1t-49 -1z" />
<glyph unicode="&#xbf;" horiz-adv-x="919" d="M27 176q0 55 14 104.5t41.5 93t51.5 74t62 73.5t56 65q67 98 96 241q0 7 4 21t4 24q0 18 -6 39q74 9 135 9q8 0 44.5 -1t72.5 -1q9 0 22 1t15 1q15 -18 18 -43q4 0 12 1t11 1q5 -5 8.5 -9.5t5.5 -10t3.5 -8.5t2 -9.5t0.5 -8.5v-11v-11l-4 -80q-19 -105 -51.5 -184 t-101.5 -170q-35 -47 -52.5 -72t-36 -62t-18.5 -63q0 -21 22 -29t42 -8q21 0 39 15t29.5 34t31.5 41t43 33q54 4 84 4q59 0 191 -12q-1 -7 -2.5 -19.5t-2.5 -19.5q8 0 23 -1t22 -1q-5 -114 -58.5 -217.5t-150.5 -173t-214 -74.5h2q-16 -2 -52 -2q-117 0 -223.5 60 t-170.5 159t-64 207zM47 176q0 -154 116.5 -259t282.5 -105q125 0 227.5 59.5t160.5 157t63 211.5v2q-177 6 -180 6q-47 0 -70 -2q-19 -7 -37 -29t-30 -42.5t-32.5 -37t-45.5 -16.5q-59 0 -93 32.5t-34 65.5q0 41 34 99t83 123t63 91q34 51 50.5 106.5t29.5 137.5l4 78v23 q0 14 -8 22h-2q-18 -2 -56 -2q-19 0 -57.5 1t-58.5 1q-26 0 -80 -4v-2q2 -4 2 -19q0 -24 -10 -51q-28 -147 -101 -250q-19 -25 -66.5 -77.5t-76 -88.5t-53.5 -99t-25 -132zM362 1006q0 29 6 134.5t13 141.5l274 -2q4 -28 4 -41h37q9 -53 9 -125q0 -32 -2.5 -82t-2.5 -65 q-71 -23 -163 -23q-87 0 -134 21v28q-24 3 -41 13zM383 1018q27 -12 111 -12q95 0 145 16q0 8 1 58.5t1 84.5q0 78 -4 95h-6h-232l-4 2v-5q0 -18 -3 -76.5t-6 -109.5t-3 -53z" />
<glyph unicode="&#xc0;" horiz-adv-x="946" d="M14 -16q13 87 43 259.5t110.5 541.5t168.5 667q23 3 80 2t205 12q5 -23 12 -45q4 1 14 2t15 2q15 -48 49.5 -199t73 -325t49.5 -219l157 -739q-88 -15 -131 -15q-90 0 -184 21q-3 9 -5.5 14.5t-5 9.5t-4 6.5t-5.5 4.5l-5 2.5t-7 1.5t-9 2q-18 55 -38 136.5t-32 120 t-26 38.5q-13 0 -27.5 -1t-30.5 -1q-11 -29 -34.5 -154.5t-57.5 -187.5q-3 0 -16 -2t-29 -2q-6 0 -182 4l-107 2q0 3 0.5 8t1.5 14.5t2 18.5h-45zM39 4q2 -2 4 -2h49q68 0 136 -2t75 -2q23 0 27 2l6 2q26 47 49.5 175t40.5 167q18 0 36 1t23 1h27q5 0 41 -4 q20 -43 51 -169.5t45 -164.5h2q79 -18 168 -18q52 0 107 10v2l-154 717q-11 46 -48.5 216t-71 317.5t-48.5 191.5q-90 -8 -178 -8h-43q-25 0 -31 -2q-88 -292 -167 -655t-105 -519t-41 -256zM113 1735l168 170q68 -55 196 -189.5t191 -183.5l-2 -2q29 -29 43 -39 q-99 -21 -220 -21q-60 0 -110 7q-56 68 -143 141v-2q-32 26 -57 50.5t-44.5 45.5t-21.5 23zM141 1735l2 -2q6 -6 98 -90t109 -107q21 -4 99 -4q135 0 176 12q-13 12 -149 150.5t-193 183.5zM412 586q8 57 17.5 133.5t15.5 121t13 89t13.5 64.5t13.5 20q13 0 30.5 -97 t47.5 -331q-18 0 -52 -1t-50 -1q-9 0 -25 1t-24 1zM479 606h60q-6 55 -15.5 134t-11.5 100q-3 -23 -15 -107.5t-18 -126.5z" />
<glyph unicode="&#xc1;" horiz-adv-x="948" d="M0 -16q126 832 322 1468q23 3 79.5 2t204.5 12q4 -23 12 -45q4 1 14 2t15 2q15 -48 49.5 -199t73 -325t49.5 -219l158 -739q-88 -15 -131 -15q-90 0 -184 21q-3 9 -5.5 14.5t-5 9.5t-4 6.5t-5.5 4.5l-5 2.5t-7 1.5t-9 2q-18 55 -38 136.5t-32.5 120t-26.5 38.5 q-13 0 -27 -1t-30 -1q-11 -29 -34.5 -154.5t-57.5 -187.5q-3 0 -16 -2t-29 -2q-5 0 -183 4l-106 2q0 3 0.5 8t1.5 14.5t2 18.5h-45zM25 4q2 -2 4 -2h49q68 0 136 -2t75 -2q22 0 26 2l7 2q26 47 49.5 175t40.5 167q18 0 36 1t23 1h27q5 0 41 -4q20 -43 51 -169.5t45 -164.5h2 q79 -18 168 -18q51 0 106 10v2l-153 717q-11 46 -48.5 216t-71 317.5t-48.5 191.5q-90 -8 -178 -8h-43q-25 0 -31 -2q-88 -292 -167 -655t-105 -519t-41 -256zM244 1534q72 65 192.5 188.5t194.5 182.5l39 -43l2 2l166 -172q-3 -3 -78 -72h2q-128 -106 -148 -143 q-50 -7 -110 -7q-142 0 -219 23q5 4 15 13.5t15 13.5q-70 13 -71 14zM287 1544q37 -12 174 -12q79 0 100 4q10 17 52.5 57t92.5 84t62 56l2 2l-141 143q-57 -45 -193 -183.5t-149 -150.5zM397 586q8 55 18 133t15.5 121.5t13 88.5t14 65t13.5 20q13 0 30.5 -97t47.5 -331 q-18 0 -52.5 -1t-50.5 -1q-9 0 -25 1t-24 1zM465 606h59q-6 56 -15 135.5t-11 98.5q-3 -23 -15 -107.5t-18 -126.5z" />
<glyph unicode="&#xc2;" d="M6 -16l29 151q141 806 295 1317q23 3 79.5 2t204.5 12q6 -30 11 -45q5 1 15 2t15 2q7 -43 40 -186.5t80 -340.5t52 -216l158 -739q-88 -15 -131 -15q-90 0 -184 21q-3 9 -5.5 14.5t-5 9.5t-4 6.5t-5.5 4.5l-5 2.5t-7 1.5t-9 2q-18 55 -38 136.5t-32.5 120t-26.5 38.5 q-13 0 -27 -1t-30 -1q-11 -29 -34.5 -154.5t-57.5 -187.5q-3 0 -16 -2t-29 -2q-6 0 -182 4l-109 2l6 41h-47zM33 4q2 -2 4 -2h49q68 0 136 -2t75 -2q23 0 27 2l6 2q26 47 49.5 175t40.5 167q18 0 36 1t23 1h27q5 0 41 -4q20 -43 51 -169.5t45 -164.5h2q79 -18 168 -18 q52 0 107 10v2l-154 717q-19 79 -89.5 385t-78.5 340q-90 -8 -178 -8h-43q-25 0 -31 -2q-87 -290 -160.5 -630.5t-112.5 -568t-40 -231.5zM106 1528q31 41 64 80t58 66.5t63.5 64.5t58 55t65 58.5t62.5 56.5l41 -41l365 -334l-45 -41q2 -2 2 -4q0 -1 -21 -5t-58 -7.5 t-71 -3.5q-3 0 -21.5 -0.5t-23.5 0.5t-21 3.5t-26 9t-26 17.5t-32 28.5t-34 41.5q-11 -8 -28 -27t-30 -34t-34 -27t-45 -12q-10 0 -35 1.5t-80 5.5t-107 7q3 4 27 35zM145 1546q145 -12 183 -12q5 0 37 4q11 3 54 49t52 51q12 -7 52.5 -53.5t51.5 -46.5q18 -4 76 -4 q36 0 71.5 3.5t58 7t26.5 3.5h4l-334 332q-27 -25 -88 -80.5t-92.5 -85t-75.5 -77t-76 -91.5zM406 586q8 57 17.5 133.5t15.5 121t13 89t13.5 64.5t13.5 20q13 0 30.5 -97t47.5 -331q-18 0 -52 -1t-50 -1q-9 0 -25 1t-24 1zM473 606h59q-6 56 -15 135.5t-11 98.5 q-3 -23 -15 -107.5t-18 -126.5z" />
<glyph unicode="&#xc3;" horiz-adv-x="976" d="M16 -16l29 151q141 806 295 1317q23 3 80 2t205 12q5 -23 12 -45q4 1 14 2t15 2q15 -48 49.5 -199t73 -325t49.5 -219l157 -739q-88 -15 -131 -15q-89 0 -184 21q-3 9 -5.5 14.5t-5 9.5t-4 6.5t-5.5 4.5l-5 2.5t-7 1.5t-9 2q-18 55 -38 136.5t-32 120t-26 38.5 q-13 0 -27.5 -1t-30.5 -1q-11 -29 -34.5 -154.5t-57.5 -187.5q-3 0 -16 -2t-29 -2q-6 0 -182 4l-109 2l6 41h-47zM41 1528q97 379 319 379q61 0 119.5 -39.5t100.5 -95.5v2q8 -19 32 -19q29 0 58 44.5t39 82.5q74 8 202 8l4 -26q0 -3 1.5 -8.5t1.5 -8.5q8 0 19.5 1t14.5 1 l4 -26v2q2 -14 2 -37q0 -73 -28 -143.5t-87.5 -121t-137.5 -50.5q-71 0 -137 43t-91 104q-3 1 -9 2t-9 2q-23 0 -48.5 -9t-37.5 -26l2 2l-6 -12v2q-7 -21 -7 -31q0 -18 9 -39l-25 -28q-36 8 -135 8q-59 0 -129 -4q3 18 12 43q-13 0 -30 -1t-23 -1zM43 4q2 -2 4 -2h49 q68 0 136 -2t75 -2q23 0 27 2l6 2q26 47 49.5 175t40.5 167q18 0 36 1t23 1h27q5 0 41 -4q20 -43 51 -169.5t45 -164.5h2q79 -18 168 -18q52 0 107 10v2l-154 717q-11 46 -48.5 216t-71 317.5t-48.5 191.5q-90 -8 -178 -8h-43q-25 0 -31 -2q-87 -290 -160.5 -630.5 t-112.5 -568t-40 -231.5zM70 1550q35 2 100 2q103 0 139 -8v2q-8 19 -8 41t8 41l6 12q16 24 46.5 35t58.5 11q41 0 72 -48q45 -104 167 -104q74 0 130 45t82 110t26 136q0 25 -2 39l-4 6q-19 -1 -53.5 -1t-62.5 -1t-52 -4q-12 -42 -43 -85.5t-68 -43.5q-23 0 -44 15.5 t-40 37.5t-40.5 44.5t-55 38t-74.5 15.5q-195 0 -288 -336zM416 586q8 57 17.5 133.5t15.5 121t13 89t13.5 64.5t13.5 20q13 0 30.5 -97t47.5 -331q-18 0 -52 -1t-50 -1q-9 0 -25 1t-24 1zM483 606h60q-6 55 -15.5 134t-11.5 100q-3 -23 -15 -107.5t-18 -126.5z" />
<glyph unicode="&#xc4;" horiz-adv-x="948" d="M6 -16l29 151q141 806 295 1317q23 3 79.5 2t204.5 12q6 -30 11 -45q5 1 15 2t15 2q7 -43 40 -186.5t80 -340.5t52 -216l158 -739q-88 -15 -131 -15q-90 0 -184 21q-3 9 -5.5 14.5t-5 9.5t-4 6.5t-5.5 4.5l-5 2.5t-7 1.5t-9 2q-18 55 -38 136.5t-32.5 120t-26.5 38.5 q-13 0 -27 -1t-30 -1q-11 -29 -34.5 -154.5t-57.5 -187.5q-3 0 -16 -2t-29 -2q-6 0 -182 4l-109 2l6 41h-47zM33 4q2 -2 4 -2h49q68 0 136 -2t75 -2q23 0 27 2l6 2q26 47 49.5 175t40.5 167q18 0 36 1t23 1h27q5 0 41 -4q20 -43 51 -169.5t45 -164.5h2q79 -18 168 -18 q52 0 107 10v2l-154 717q-19 79 -89.5 385t-78.5 340q-90 -8 -178 -8h-43q-25 0 -31 -2q-87 -290 -160.5 -630.5t-112.5 -568t-40 -231.5zM139 1645q0 28 2 73.5t2 59.5q59 18 146 18q75 0 119 -20v-29q7 -3 20.5 -6t20.5 -6q0 -10 -7.5 -110.5t-11.5 -133.5l-242 2 q0 1 -3 17t-3 24h-35q-8 41 -8 111zM160 1636q0 -52 6 -82h6l199 -2l4 2v2q0 16 3 67t6 95t3 45q-25 11 -98 11q-81 0 -125 -13q0 -8 -2 -52.5t-2 -72.5zM406 586q8 57 17.5 133.5t15.5 121t13 89t13.5 64.5t13.5 20q13 0 30.5 -97t47.5 -331q-18 0 -52 -1t-50 -1 q-9 0 -25 1t-24 1zM473 606h59q-6 56 -15 135.5t-11 98.5q-3 -23 -15 -107.5t-18 -126.5zM496 1645q0 28 2 73.5t2 59.5q59 18 145 18q75 0 119 -20v-29q7 -3 20.5 -6t20.5 -6q0 -10 -7.5 -110.5t-11.5 -133.5l-241 2q0 1 -3 17t-3 24h-35q-8 41 -8 111zM516 1636 q0 -52 6 -82h6l199 -2h4v4q0 16 3 67t6 95t3 45q-25 11 -98 11q-81 0 -125 -13q0 -8 -2 -52.5t-2 -72.5z" />
<glyph unicode="&#xc5;" d="M6 -16l29 151q141 806 295 1317q23 3 79.5 2t204.5 12q6 -30 11 -45q5 1 15 2t15 2q7 -43 40 -186.5t80 -340.5t52 -216l158 -739q-88 -15 -131 -15q-90 0 -184 21q-3 9 -5.5 14.5t-5 9.5t-4 6.5t-5.5 4.5l-5 2.5t-7 1.5t-9 2q-18 55 -38 136.5t-32.5 120t-26.5 38.5 q-13 0 -27 -1t-30 -1q-11 -29 -34.5 -154.5t-57.5 -187.5q-3 0 -16 -2t-29 -2q-6 0 -182 4l-109 2l6 41h-47zM33 4q2 -2 4 -2h49q68 0 136 -2t75 -2q23 0 27 2l6 2q26 47 49.5 175t40.5 167q18 0 36 1t23 1h27q5 0 41 -4q20 -43 51 -169.5t45 -164.5h2q79 -18 168 -18 q52 0 107 10v2l-154 717q-19 79 -89.5 385t-78.5 340q-90 -8 -178 -8h-43q-25 0 -31 -2q-87 -290 -160.5 -630.5t-112.5 -568t-40 -231.5zM258 1731q0 99 39 155q61 49 158 49q147 0 200 -73v-4q37 -24 47.5 -60.5t10.5 -95.5q0 -94 -31 -160l-2 -2q-15 -22 -38 -36 t-54.5 -19.5t-51 -6.5t-51.5 -1q-34 0 -48.5 1t-40 6t-43 18.5t-31.5 35.5q-64 39 -64 193zM279 1731q0 -30 0.5 -46.5t4 -40.5t9.5 -37t17.5 -28t29 -23t43 -13t59.5 -5q150 0 181 53q28 76 28 150q0 52 -16 114q-47 62 -193 62q-88 0 -125.5 -43t-37.5 -143zM371 1737 q0 55 35 75q29 13 61 13q94 0 94 -86q0 -37 -5.5 -59t-19 -32.5t-25.5 -13.5t-37 -5q-7 -1 -11 -1h-21q-31 0 -47.5 18.5t-20 39t-3.5 51.5zM406 586q8 57 17.5 133.5t15.5 121t13 89t13.5 64.5t13.5 20q13 0 30.5 -97t47.5 -331q-18 0 -52 -1t-50 -1q-9 0 -25 1t-24 1z M432 1690q0 -27 2 -41h41q24 2 38.5 9.5t20 23t6.5 25t1 32.5q0 17 -6 20.5t-27 3.5q-23 0 -53 -10l2 2q-25 -20 -25 -65zM473 606h59q-6 56 -15 135.5t-11 98.5q-3 -23 -15 -107.5t-18 -126.5z" />
<glyph unicode="&#xc6;" horiz-adv-x="1546" d="M29 -23q28 161 51 306q17 111 39 208.5t130 547.5q59 244 97 401q275 12 844 12q285 0 301 -2q0 -15 2.5 -24t8.5 -12.5t9 -4.5t12 -1l9 1q6 -99 6 -115q0 -35 -2 -104.5t-2 -110.5q-84 -22 -244 -22h-71q-15 0 -47.5 1t-49.5 1q-72 0 -135 -8q0 -29 -3 -76t-3 -66v-24 h74q99 0 143 -8l6 -37q7 0 35 -4q10 -54 10 -123q0 -33 -2 -98t-2 -99q-63 -16 -154.5 -14.5t-93.5 -1.5q-6 -117 -6 -121q0 -45 2 -68q31 -2 94 -2h95q196 0 317 -10v-39q7 0 20.5 -1t20.5 -1v-22q2 -31 2 -84q0 -107 -22 -205q-95 0 -280.5 -3t-274.5 -3q-190 0 -318 8 q-2 5 -4 16t-4 14.5t-10 7t-23 3.5q-4 19 -15.5 59t-15.5 55v-2q-9 25 -20 76q-14 2 -78 2q-3 -7 -8 -21.5t-8 -21.5l2 2q-5 -19 -16 -59.5t-17 -61.5t-16 -44.5t-19 -32.5q-27 0 -81 2t-81 2t-80.5 -4t-82.5 -4q3 24 6 45q-4 -2 -15 -2q-12 -3 -32 -3zM53 -2q20 0 61.5 3 t61.5 3q29 0 86 -1t84 -1l6 4q11 49 66 232l6 4q68 0 90.5 -2t50.5 -2v-2q8 -42 29 -117t29 -109q128 -8 297 -8q90 0 271 3t271 3l4 4q15 83 15 181q0 50 -2 81v7q-91 8 -274 8.5t-255 3.5h-2q-18 40 -18 127q0 94 6 133q10 10 53.5 11.5t103 2t91.5 6.5q0 29 2 89t2 88 q0 61 -8 108q-46 6 -93 6h-65q-59 0 -90 6q-12 30 -12 80q0 24 3 68t3 65v27q69 10 166 10q28 0 85 -1t85 -1q130 0 211 19v4q0 31 2 96t2 98q0 75 -4 97v4q-717 0 -1111 -17q-64 -276 -117.5 -498.5t-75.5 -310.5t-36 -149t-20 -99l-13 -73q-3 -18 -17.5 -110t-29.5 -181z M430 582q7 89 17.5 132.5t48.5 147.5l2 -6q2 -7 32.5 -111.5t38.5 -156.5q-8 -8 -34 -8q-13 0 -38.5 2t-37.5 2q-19 0 -25 -2h-4zM498 602h2q18 -6 37 -6q3 0 5 1t5 1q-3 19 -14.5 59t-14.5 54q-6 -18 -9.5 -33.5t-6.5 -41t-4 -34.5z" />
<glyph unicode="&#xc7;" horiz-adv-x="1005" d="M33 694q0 227 10 381q0 18 4 27l-2 -4q17 202 133 299q63 43 180 43h31h60q119 0 208.5 -30t159.5 -110q77 -67 121.5 -168t44.5 -206q0 -43 -9.5 -98.5t-33.5 -55.5q-56 -12 -111 -12q-52 0 -182 18q-2 4 -4 11.5t-3 10t-4 6.5t-6.5 6t-9 3.5t-14.5 3.5 q-14 38 -18.5 100.5t-16.5 93.5t-51 31q-29 0 -50.5 -12.5t-33.5 -38t-19 -51.5t-9 -66.5t-2.5 -68t1 -71t1.5 -62.5v-40.5v-48t0.5 -48.5t2.5 -52t4.5 -47.5t7.5 -45t12 -34.5t16.5 -26.5t21.5 -12.5h-4q4 -2 18 -2q31 0 52 10t32 24t18.5 42t9.5 51t6.5 65.5t8.5 72.5 q22 0 78 2t86 2q80 0 137 -17q4 -25 10 -30.5t31 -10.5q27 -93 27 -159q0 -173 -106.5 -305t-278.5 -144q-2 -2 -2 -10q-30 -114 -59 -234q-23 2 -56 2q-25 0 -59.5 -2t-50.5 -2h-7q-21 0 -29.5 1t-14 7.5t-5.5 20.5v12q-31 0 -36 4.5t-5 24.5q0 18 19.5 86.5t23.5 93.5 q-89 11 -153 80t-94 165t-33 208v20q-4 176 -4 297zM53 694q0 -105 4 -297v-20q2 -76 16 -141.5t41.5 -124.5t78 -93t118.5 -34q23 0 37 2v-6q-5 -42 -29 -132.5t-24 -103.5q0 -8 35 -8q17 0 56.5 3t59.5 3q8 0 18 -1t15 -1v4q14 42 36.5 135t25.5 103l6 -2q111 5 198.5 68 t132 158.5t44.5 203.5q0 62 -23 143q-40 12 -119 12q-30 0 -80 -2t-67 -2q-3 -21 -6 -59t-5 -61.5t-10.5 -54t-22.5 -47.5t-40 -29.5t-64 -12.5q-25 0 -45.5 8.5t-35 28t-25 37.5t-16.5 52t-10 55t-5.5 62.5t-2 59.5t0 61t0.5 52q0 19 -1 58t-1.5 65t1 64t6 64t14 55 t23.5 46.5t37 29t52 11.5q56 0 85.5 -31t34.5 -68.5t10 -91t14 -77.5h4q121 -17 163 -17q56 0 107 13l6 2q21 62 21 131q0 136 -70.5 256t-187.5 168q-68 28 -215 28h-60h-31q-108 0 -161 -35q-64 -53 -99 -136.5t-35 -174.5q-10 -154 -10 -379z" />
<glyph unicode="&#xc8;" horiz-adv-x="964" d="M43 899q0 258 16 533q383 18 717 18q73 0 108 -4.5t48 -14t18 -30.5q33 -6 37 -17v2q8 -47 8 -108q0 -32 -4 -100t-4 -105q-100 -24 -264 -24h-74q-13 0 -40 1t-40 1q-52 0 -127 -7q0 -28 -3 -76t-3 -71v-18q7 0 18.5 -1t18.5 -1q13 0 40 1t40 1q18 0 58.5 -3.5 t43.5 -3.5q1 -5 2.5 -13.5t2 -11t3 -7t6 -6t10.5 -2.5t17 -1q11 -59 11 -124q0 -31 -2.5 -96.5t-2.5 -98.5q-58 -17 -148.5 -17t-100.5 -3q-7 -36 -7 -95q0 -47 3 -88q246 -12 389 -12q48 0 114 4v-25q0 -3 1 -9t1 -9q25 0 39 2v-24q4 -62 4 -95q0 -97 -24 -196 q-90 0 -269 -3t-268 -3q-184 0 -340 12v39q-7 0 -20.5 1t-20.5 1q0 158 -6 458t-6 449zM66 920q0 -151 5 -453t5 -457q120 -10 297 -10q90 0 271 3t271 3q21 82 21 174q0 32 -4 94v5q-46 -3 -88 -3q-77 0 -224.5 6.5t-224.5 6.5l-2 2q-8 52 -8 147q0 65 8 109 q13 10 109.5 10t138.5 12q0 32 1 91.5t1 87.5q0 71 -6 106v2q-28 1 -80 1t-94 1t-78 4l-2 2q-8 31 -8 78q0 28 3 81t3 81l8 2q31 4 137 4h162q149 0 238 20v3q0 31 3 96t3 98q0 47 -6 96q0 7 -150 7q-297 0 -698 -19q-12 -199 -12 -491zM182 1735l168 170q55 -44 108 -95 t130 -130.5t100 -102.5q35 -35 49 -45l-2 -2q29 -29 43 -39q-99 -21 -219 -21q-60 0 -110 7q-54 65 -144 141v-2q-32 26 -57 50.5t-44.5 45.5t-21.5 23zM211 1735l2 -2q6 -6 98 -90t109 -107q21 -4 98 -4q136 0 176 12q-13 12 -149 150.5t-193 183.5z" />
<glyph unicode="&#xc9;" horiz-adv-x="970" d="M35 899q0 258 16 533q383 18 717 18q161 0 170 -25q0 -17 9 -24.5t19.5 -10t12.5 -6.5v2q8 -47 8 -108q0 -32 -4 -100t-4 -105q-100 -24 -264 -24h-74q-13 0 -40 1t-40 1q-52 0 -127 -7q0 -28 -3 -76t-3 -71v-18q7 0 18.5 -1t18.5 -1q13 0 40 1t40 1q18 0 58.5 -3.5 t43.5 -3.5q1 -5 2.5 -13.5t2 -11t3 -7t6 -6t10.5 -2.5t17 -1q10 -54 10 -124q0 -31 -2 -96.5t-2 -98.5q-58 -17 -149 -17t-101 -3q-6 -31 -6 -95q0 -61 2 -88q246 -12 389 -12q49 0 115 4v-25q0 -3 1 -9t1 -9q25 0 39 2v-24q4 -62 4 -95q0 -97 -24 -196q-90 0 -269 -3 t-268 -3q-184 0 -340 12v39q-7 0 -20.5 1t-20.5 1q0 158 -6 458t-6 449zM57 920q0 -151 5.5 -453t5.5 -457q120 -10 297 -10q90 0 271 3t271 3q21 82 21 174q0 32 -4 94v5q-46 -3 -88 -3q-77 0 -224.5 6.5t-224.5 6.5l-2 2q-8 52 -8 147q0 65 8 109q13 10 109.5 10t138.5 12 q0 32 1 91.5t1 87.5q0 71 -6 106v2q-28 1 -80 1t-94 1t-78 4l-2 2q-8 31 -8 78q0 28 3 81t3 81l8 2q31 4 137 4h162q149 0 238 20v3q0 31 3 96t3 98q0 47 -6 96q0 7 -150 7q-297 0 -698 -19q-13 -216 -13 -491zM260 1534q72 65 192.5 188.5t194.5 182.5l39 -43l2 2l166 -172 q-3 -3 -78 -72h2q-126 -104 -147 -143q-50 -7 -111 -7q-142 0 -219 23q5 4 15.5 13.5t15.5 13.5zM303 1544q38 -12 174 -12q80 0 101 4q10 17 52 57t92 84t62 56l2 2l-141 143q-57 -45 -193 -183.5t-149 -150.5z" />
<glyph unicode="&#xca;" horiz-adv-x="972" d="M41 899q0 258 16 533q383 18 717 18q161 0 170 -25q0 -17 9 -24.5t19.5 -10t12.5 -6.5v2q8 -47 8 -108q0 -32 -4 -100t-4 -105q-100 -24 -264 -24h-74q-13 0 -40 1t-40 1q-52 0 -127 -7q0 -28 -3 -76t-3 -71v-18q7 0 18.5 -1t18.5 -1q14 0 40.5 1t39.5 1q18 0 58.5 -3.5 t43.5 -3.5q1 -5 2.5 -13.5t2 -11t3 -7t6 -6t10.5 -2.5t17 -1q11 -59 11 -124q0 -31 -2.5 -96.5t-2.5 -98.5q-58 -17 -148.5 -17t-100.5 -3q-7 -36 -7 -95q0 -61 2 -88q246 -12 390 -12q48 0 114 4v-25q0 -3 1 -9t1 -9q25 0 39 2v-24q4 -62 4 -95q0 -97 -24 -196 q-90 0 -269 -3t-268 -3q-184 0 -340 12v39q-7 0 -20.5 1t-20.5 1q0 158 -6 458t-6 449zM63 920q0 -151 5.5 -453t5.5 -457q120 -10 297 -10q90 0 271 3t271 3q21 82 21 174q0 32 -4 94v5q-46 -3 -88 -3q-77 0 -224.5 6.5t-224.5 6.5l-2 2q-8 52 -8 147q0 65 8 109 q13 10 109.5 10t138.5 12q0 32 1 91.5t1 87.5q0 71 -6 106v2q-28 1 -80 1t-94 1t-78 4l-2 2q-8 31 -8 78q0 28 3 81t3 81l8 2q31 4 137 4h162q149 0 238 20v3q0 31 3 96t3 98q0 47 -6 96q0 7 -150 7q-297 0 -698 -19q-13 -216 -13 -491zM127 1528q31 41 64 80t58 66.5 t63.5 64.5t58 55t65 58.5t62.5 56.5l41 -41l348 -346l-29 -29q2 -2 2 -4q0 -1 -20.5 -5t-57.5 -7.5t-71 -3.5q-6 0 -21.5 -0.5t-20.5 0t-18 2t-20 5.5t-20 11t-24 18l-27 27t-34 37q-11 -8 -28 -27t-30 -34t-34 -27t-45 -12q-10 0 -35 1.5t-79.5 5.5t-106.5 7q2 4 27 35z M166 1546q145 -12 182 -12q5 0 37 4q11 3 54.5 49t52.5 51q12 -7 52.5 -53.5t51.5 -46.5q18 -4 76 -4q36 0 71.5 3.5t57.5 7t26 3.5h4l-333 332q-27 -25 -88 -80.5t-92.5 -85t-75.5 -77t-76 -91.5z" />
<glyph unicode="&#xcb;" horiz-adv-x="978" d="M45 899q0 258 16 533q383 18 717 18q161 0 170 -25v2q0 -19 10 -26.5t20.5 -10t10.5 -8.5v4q8 -47 8 -108q0 -32 -4 -100t-4 -105q-100 -24 -264 -24h-74q-13 0 -40 1t-40 1q-52 0 -127 -7q0 -28 -3 -76t-3 -71v-18q7 0 18.5 -1t18.5 -1q13 0 40 1t40 1q18 0 58.5 -3.5 t43.5 -3.5q1 -5 2.5 -13.5t2 -11t3 -7t6 -6t10.5 -2.5t17 -1q11 -59 11 -124q0 -31 -2 -96.5t-2 -98.5q-58 -17 -149 -17t-101 -3q-6 -31 -6 -95q0 -61 2 -88q246 -12 389 -12q48 0 114 4v-25q0 -3 1 -9t1 -9q25 0 39 2v-24q4 -62 4 -95q0 -97 -24 -196q-90 0 -269 -3 t-268 -3q-184 0 -340 12v39q-7 0 -20.5 1t-20.5 1q0 158 -6 458t-6 449zM68 920q0 -151 5 -453t5 -457q120 -10 297 -10q90 0 271.5 3t271.5 3q20 79 20 174q0 32 -4 94v5q-47 -3 -88 -3q-77 0 -224.5 6.5t-224.5 6.5l-2 2q-8 52 -8 147q0 65 8 109q13 10 109.5 10t138.5 12 q0 32 1 91.5t1 87.5q0 71 -6 106v2q-28 1 -80 1t-94 1t-78 4l-2 2q-8 31 -8 78q0 28 3 81t3 81l8 2q31 4 137 4h162q149 0 238 20v3q0 31 3 96t3 98q0 47 -6 96q0 7 -150 7q-297 0 -698 -19q-12 -199 -12 -491zM180 1645q0 28 2 73.5t2 59.5q59 18 146 18q75 0 119 -20v-29 q7 -3 20 -6t20 -6q0 -11 -7 -111.5t-11 -132.5l-242 2q0 1 -3 17t-3 24h-35q-8 41 -8 111zM201 1636q0 -52 6 -82h6h199h4v2q0 16 3 67t6 95t3 45q-25 11 -98 11q-81 0 -125 -13q0 -8 -2 -52.5t-2 -72.5zM537 1645q0 28 2 73.5t2 59.5q59 18 145 18q75 0 119 -20v-29 q7 -3 20.5 -6t20.5 -6q0 -10 -7.5 -110.5t-11.5 -133.5l-241 2q0 1 -3 17t-3 24h-35q-8 41 -8 111zM557 1636q0 -52 6 -82h6l199 -2h4v4q0 16 3 67t6 95t3 45q-25 11 -98 11q-81 0 -125 -13q0 -8 -2 -52.5t-2 -72.5z" />
<glyph unicode="&#xcc;" horiz-adv-x="561" d="M-4 1735l168 170q70 -57 197.5 -190t189.5 -183l-2 -2q29 -29 43 -39q-99 -21 -219 -21q-61 0 -111 7q-56 68 -143 141v-2q-32 26 -57 50.5t-44.5 45.5t-21.5 23zM25 1735l2 -2q5 -5 97 -89.5t109 -107.5q21 -4 99 -4q136 0 176 12q-13 12 -149 150.5t-193 183.5z M115 -37q14 212 14 385q0 118 -7 353t-7 354q0 201 20 411q28 4 37 4q58 0 119.5 -5t122.5 -5h49h69v-41h41v-28q0 -163 -7 -493.5t-7 -500.5q0 -225 12 -436q-33 -33 -149 -33q-30 0 -90.5 2t-87.5 2q-44 0 -88 -10q0 8 1 24.5t1 24.5q-35 -5 -43 -8zM135 1057 q0 -118 7.5 -357.5t7.5 -363.5q0 -157 -13 -344q28 4 47 4q25 0 96 -4t109 -4q99 0 121 22q-12 220 -12 447q0 165 7 490t7 485v8h-49h-47q-77 0 -147.5 5t-106.5 5h-8v-4q-19 -175 -19 -389z" />
<glyph unicode="&#xcd;" horiz-adv-x="616" d="M47 -37q14 212 14 385q0 118 -7 353t-7 354q0 191 21 411q28 4 36 4q58 0 119.5 -5t122.5 -5h49h70v-41h41v-28q0 -163 -7 -493.5t-7 -500.5q0 -225 12 -436q-33 -33 -150 -33q-30 0 -90.5 2t-87.5 2q-44 0 -88 -10q0 8 1 24.5t1 24.5q-35 -5 -43 -8zM68 1057 q0 -118 7 -357.5t7 -363.5q0 -172 -12 -344q28 4 47 4q25 0 96 -4t109 -4q98 0 120 22q-12 220 -12 447q0 165 7 490t7 485v8h-49h-47q-77 0 -147.5 5t-106.5 5h-8v-4q-18 -166 -18 -389zM68 1534q72 65 192.5 188.5t194.5 182.5l39 -43l2 2l166 -172q-3 -3 -78 -72h2 q-128 -106 -148 -143q-50 -7 -110 -7q-142 0 -219 23q5 4 15 13.5t15 13.5q-70 13 -71 14zM111 1544q37 -12 174 -12q79 0 100 4q10 17 52.5 57t92.5 84t62 56l2 2l-141 143q-57 -45 -193 -183.5t-149 -150.5z" />
<glyph unicode="&#xce;" horiz-adv-x="712" d="M-10 1528q31 41 64.5 80.5t57.5 66t63.5 64.5t57 54.5t65 59.5t62.5 56l41 -41l349 -346l-29 -29q2 -2 2 -4q0 -1 -21 -5t-58 -7.5t-71 -3.5q-3 0 -21.5 -0.5t-23.5 0.5t-21 3.5t-26 9t-26 17.5t-32 28.5t-34 41.5q-11 -8 -28 -27t-30 -34t-34 -27t-45 -12q-10 0 -35 1.5 t-79.5 5.5t-106.5 7q5 9 26 35zM29 1546q145 -12 182 -12q5 0 37 4q11 3 54 49t52 51q12 -7 53 -53.5t52 -46.5q18 -4 76 -4q36 0 71.5 3.5t57.5 7t26 3.5h4l-334 332q-25 -24 -87.5 -80.5t-93 -85.5t-74.5 -76.5t-76 -91.5zM123 -37q14 212 14 385q0 118 -7 353t-7 354 q0 201 20 411q28 4 37 4q58 0 119.5 -5t122.5 -5h49h70v-41h41v-28q0 -163 -7.5 -493.5t-7.5 -500.5q0 -207 13 -436q-33 -33 -150 -33q-30 0 -90.5 2t-87.5 2q-44 0 -88 -10q0 8 1 24.5t1 24.5q-35 -5 -43 -8zM143 1057q0 -118 7.5 -357.5t7.5 -363.5q0 -157 -13 -344 q28 4 48 4q25 0 95.5 -4t108.5 -4q99 0 121 22q-12 220 -12 447q0 165 7 490t7 485v8h-49h-47q-77 0 -147.5 5t-106.5 5h-8v-4q-19 -175 -19 -389z" />
<glyph unicode="&#xcf;" horiz-adv-x="647" d="M18 1645q0 28 2.5 73.5t2.5 59.5q59 18 145 18q75 0 119 -20v-29q7 -3 20.5 -6t20.5 -6q0 -10 -7.5 -110.5t-11.5 -133.5l-241 2q-1 4 -4 18.5t-3 22.5h-34q-9 46 -9 111zM39 1636q0 -52 6 -82h6h199h4v2q0 16 3 67t6 95t3 45q-25 11 -98 11q-81 0 -125 -13 q0 -8 -2 -52.5t-2 -72.5zM98 -37q15 227 15 385q0 118 -7.5 353t-7.5 354q0 191 21 411q28 4 37 4q58 0 119 -5t122 -5h49h70v-41h41v-28q0 -163 -7 -493.5t-7 -500.5q0 -225 12 -436q-33 -33 -149 -33q-30 0 -91 2t-88 2q-44 0 -88 -10q0 8 1 24.5t1 24.5q-35 -5 -43 -8z M119 1057q0 -118 7 -357.5t7 -363.5q0 -172 -12 -344q28 4 47 4q25 0 96 -4t109 -4q99 0 121 22q-13 239 -13 447q0 165 7.5 490t7.5 485v8h-50h-47q-77 0 -147.5 5t-106.5 5h-8v-4q-18 -166 -18 -389zM375 1645q0 28 2 73.5t2 59.5q59 18 145 18q75 0 119 -20v-29 q7 -3 20.5 -6t20.5 -6q0 -11 -7 -111.5t-11 -132.5l-242 2q0 1 -3 17t-3 24h-35q-8 41 -8 111zM395 1636q0 -52 6 -82h7l198 -2h4v4q0 16 3 67t6.5 95t3.5 45q-25 11 -99 11q-81 0 -125 -13q0 -8 -2 -52.5t-2 -72.5z" />
<glyph unicode="&#xd0;" horiz-adv-x="1046" d="M23 817v43l116 -2q0 44 1 130t1 130q0 107 -4 307q225 39 355 39q86 0 161 -23.5t142.5 -72.5t121 -133.5t87.5 -198.5v2q55 -178 55 -368q0 -134 -31 -267q-27 -120 -63 -208.5t-74 -136.5t-72 -72t-67 -31q-78 -16 -209 -16q-51 0 -156 4t-164 4h-35q0 7 -1 21.5 t-1 21.5q-7 0 -19.5 -1t-19.5 -1q-8 240 -8 508h-67v41h-41q0 40 -4 127t-4 153zM43 807q0 -57 4 -137.5t4 -112.5h51q40 0 58 -2q0 -284 8 -547h49q47 0 145 -4t148 -4q125 0 197 16q171 37 260 433q30 147 30 262q0 317 -141 555q-108 178 -364 178q-40 0 -88 -4t-81.5 -9 t-86.5 -13t-78 -11q4 -200 4 -289q0 -48 -1 -140t-1 -140l-117 2v-33zM391.5 384.5q-0.5 10.5 1.5 33.5t2 35v116l129 -2q0 47 -3 148.5t-3 113.5l-121 2q0 24 1 70t1 66q0 44 -4 106q57 21 121 21q45 0 81.5 -21t58.5 -50t38 -74.5t23.5 -79.5t11 -80t4 -62t0.5 -39 q0 -79 -14.5 -153t-38.5 -115q-34 -52 -78.5 -68t-136.5 -16q-28 0 -44.5 5.5t-22.5 19t-6.5 24zM457 508l2 -150q14 0 37 1t30 1h15q81 9 123 72l-2 -2q23 38 37 110.5t14 147.5q0 222 -76 324l-4 4q-37 16 -76 16q-40 0 -98 -14q2 -31 2 -92q0 -16 -1 -39t-1 -35 q31 -2 80 -2v-41h41q0 -20 3 -134.5t3 -168.5z" />
<glyph unicode="&#xd1;" horiz-adv-x="1026" d="M49 854q0 303 21 582q49 20 114 20q108 0 224 -33q0 -1 3 -12t5 -13.5t10.5 -8t22.5 -7.5q14 -68 169 -315q1 -3 4.5 -7t4.5 -7q0 34 -6.5 121.5t-6.5 138.5q0 59 11 135q76 18 190 18q106 0 168 -12v-35q25 -3 41 -6l-2 -672q3 -118 2.5 -378t3.5 -371l-2 -29 q-19 -41 -94 -41q-23 0 -80 5t-88 5q-40 0 -74 -6q-2 4 -9.5 20t-10.5 25q-3 -1 -10.5 -2t-10.5 -2q-76 168 -182 441q-4 -160 -4 -238q0 -33 1 -111.5t1 -117.5q-58 -15 -88 -15q-33 0 -98 8.5t-107 8.5q-34 0 -74 -6v47q-7 -1 -20.5 -3.5t-20.5 -3.5v119q0 122 -4 373.5 t-4 384.5zM70 877q0 -127 4 -376.5t4 -371.5v-127l2 -2q28 4 47 4q33 0 103.5 -8t101.5 -8q41 0 71 10l3 2q-5 185 -5 211q0 185 15 391q170 -444 246 -612h2q28 4 47 4q27 0 88.5 -5t89.5 -5q63 0 76 22l2 29q-4 65 -4 297v200q0 168 -2 250l2 656q-72 8 -148 8 q-106 0 -172 -14v-7q-8 -41 -8 -110q0 -48 6 -137.5t6 -124.5q0 -55 -8 -82q-23 39 -91.5 150t-111.5 186t-47 100v2q-106 27 -205 27q-57 0 -94 -13q-20 -257 -20 -546zM84 1524q97 379 319 379q61 0 119.5 -40t100.5 -96v2q8 -18 32 -18q29 0 58 44.5t39 82.5q54 6 157 6 h11q12 1 15.5 0t11.5 -4.5t11 -12.5t3 -24q7 0 12.5 -1t10 -1.5t7.5 -3.5t5.5 -4.5t4 -6l2 -6t1 -8t0.5 -8v-9v-9.5q0 -127 -74.5 -221.5t-184.5 -94.5q-72 0 -136 42.5t-89 103.5q-20 4 -24 4q-36 0 -63 -19t-27 -55q0 -20 8 -39l-25 -28q-36 8 -135 8q-59 0 -129 -4 q3 18 12 43q-13 0 -30 -1t-23 -1zM113 1546q35 2 100 2q103 0 139 -8v2q-8 19 -8 41q0 43 31.5 70.5t79.5 27.5q53 0 80 -47q44 -102 170 -102q101 0 169 87t68 200q0 15 -4 43l-4 4q-19 -1 -53.5 -1t-62.5 -1t-52 -4q-12 -42 -43 -85.5t-68 -43.5q-23 0 -44 15.5t-40 37.5 t-40.5 44.5t-55 38t-74.5 15.5q-195 0 -288 -336z" />
<glyph unicode="&#xd2;" horiz-adv-x="966" d="M35 809v34v82.5t3 86.5t9 94.5t18.5 88t30.5 85t46.5 68.5t64.5 55q129 63 282 63q106 0 207.5 -36t159.5 -105q67 -67 96 -137v2q26 -56 33.5 -117t7.5 -147q0 -43 -0.5 -124.5t-1 -130.5t-3 -116.5t-7.5 -124.5l-6 -68q-16 -187 -82 -286q-57 -80 -168.5 -118 t-228.5 -38q-139 0 -239.5 44t-154.5 155v-2q-17 30 -28.5 65t-16.5 77t-7 73t-3 81t-2 72q-10 173 -10 324zM55 813q0 -70 2.5 -145t7.5 -170.5t7 -143.5q2 -109 29.5 -183.5t80.5 -115t118 -57t155 -16.5q111 0 219.5 36.5t161.5 110.5q62 97 77 277l7 67q5 58 7.5 129.5 t3 107.5t0 137t-0.5 120q0 64 -1 92t-9.5 77.5t-26.5 86.5q-26 75 -92 126.5t-144.5 73t-167.5 21.5q-96 0 -182.5 -23t-136.5 -73q-18 -21 -33.5 -46.5t-26.5 -46.5t-20 -55t-14.5 -53t-9.5 -59.5t-6.5 -55.5t-3.5 -60t-1 -53.5v-56.5v-49zM102 1735l168 170 q68 -55 196 -189.5t191 -183.5q-5 -5 41 -41q-99 -21 -219 -21q-60 0 -110 7q-54 65 -144 141v-2q-32 26 -57 50.5t-44.5 45.5t-21.5 23zM131 1735l2 -2q6 -6 98 -90t109 -107q21 -4 98 -4q136 0 176 12q-13 12 -149 150.5t-193 183.5zM276 752q0 411 228 411q34 0 61 -14 t44 -35t29 -52t18 -57t9.5 -59t4 -49t0.5 -35l4 -139v-98v-37q0 -126 -6.5 -173t-38.5 -83q-25 -31 -66 -47.5t-84 -16.5q-50 0 -85 18.5t-53 44.5t-29.5 69t-15 78t-7.5 87.5t-8 81.5q-5 88 -5 105zM340 711q0 -68 2 -103v2q5 -29 14 -131t25 -155l-2 2l6 -13 q41 -24 94 -24q84 0 135 57l-2 -2q30 38 35.5 75t5.5 162v44v98l-4 139v8q-1 8 -2.5 42t-3.5 52t-8.5 48.5t-16 47t-28 29.5t-43.5 13q-64 0 -117.5 -49.5t-69.5 -116.5v2q-20 -90 -20 -227z" />
<glyph unicode="&#xd3;" horiz-adv-x="966" d="M23 809v34v82.5t3 86.5t9 94.5t18.5 88t30.5 85t46.5 68.5t64.5 55q129 63 282 63q106 0 207.5 -36t159.5 -105q67 -67 96 -137v2q26 -56 33.5 -117t7.5 -147q0 -43 -0.5 -124.5t-1 -130.5t-3 -116.5t-7.5 -124.5l-6 -68q-16 -187 -82 -286q-57 -80 -169 -118t-229 -38 q-138 0 -238.5 44t-154.5 155v-2q-17 30 -28.5 65t-16.5 77t-7 73t-3 81t-2 72q-10 173 -10 324zM43 813q0 -70 2.5 -143.5t7 -173t6.5 -142.5q2 -109 29.5 -183.5t80.5 -115t118 -57t155 -16.5q111 0 219.5 36.5t161.5 110.5q63 99 78 277l6 67q4 47 6.5 93.5t3.5 106.5 t1 89v108v97q0 64 -1 92t-9.5 77.5t-26.5 86.5q-26 75 -92 126.5t-144.5 73t-167.5 21.5q-96 0 -182.5 -23t-136.5 -73q-18 -21 -33.5 -46.5t-26.5 -46.5t-20 -55t-14.5 -53t-9.5 -59.5t-6.5 -55.5t-3.5 -60t-1 -53.5v-56.5v-49zM264 752q0 411 228 411q39 0 69 -17.5 t47 -49t28 -62t15 -70.5t5 -59t1 -43l5 -139v-98v-29q0 -131 -7 -179.5t-39 -84.5q-52 -64 -149 -64q-43 0 -75 12t-51 36t-31.5 51t-19 65.5t-9 70.5t-6 74.5t-7.5 69.5q-4 70 -4 105zM281 1534q72 65 192.5 188.5t194.5 182.5l39 -43l2 2l165 -172q-14 -14 -77 -72h2 q-128 -106 -148 -143q-50 -7 -110 -7q-142 0 -219 23q5 4 15 13.5t15 13.5q-70 13 -71 14zM324 1544q38 -12 174 -12q79 0 100 4q10 17 52.5 57t92.5 84t62 56l2 2l-141 143q-57 -45 -193 -183.5t-149 -150.5zM328 711q0 -68 2 -103v2q5 -29 14 -131t25 -155l-2 2l6 -13 q41 -24 94 -24q84 0 135 57l-2 -2q30 38 35.5 75t5.5 162v44v98l-4 139v8q-1 8 -2.5 42t-3.5 52t-8.5 48.5t-16 47t-28 29.5t-43.5 13q-64 0 -117.5 -49.5t-69.5 -116.5v2q-20 -90 -20 -227z" />
<glyph unicode="&#xd4;" horiz-adv-x="970" d="M29 809v34v82.5t3 86.5t9 94.5t18.5 88t30.5 85t46.5 68.5t64.5 55q129 63 282 63q106 0 207.5 -36t159.5 -105q67 -67 96 -137v2q26 -56 33.5 -117t7.5 -147q0 -43 -0.5 -124.5t-1 -130.5t-3 -116.5t-7.5 -124.5l-6 -68q-16 -187 -82 -286q-57 -80 -169 -118t-229 -38 q-138 0 -238.5 44t-154.5 155v-2q-17 30 -28.5 65t-16.5 77t-7 73t-3 81t-2 72q-10 173 -10 324zM49 813q0 -70 2.5 -145t7.5 -170.5t7 -143.5q2 -109 29.5 -183.5t80.5 -115t118 -57t155 -16.5q111 0 219 36.5t161 110.5q63 99 78 277l6 67q4 47 6.5 93.5t3.5 106.5t1 89 v108v97q0 64 -1 92t-9.5 77.5t-26.5 86.5q-26 75 -92 126.5t-144.5 73t-167.5 21.5q-96 0 -182.5 -23t-136.5 -73q-18 -21 -33.5 -46.5t-26.5 -46.5t-20 -55t-14.5 -53t-9.5 -59.5t-6.5 -55.5t-3.5 -60t-1 -53.5v-56.5v-49zM127 1528q31 41 64 80t58 66.5t63.5 64.5t58 55 t65 58.5t62.5 56.5l41 -41l348 -346l-29 -29q2 -2 2 -4q0 -1 -20.5 -5t-57.5 -7.5t-71 -3.5q-6 0 -21.5 -0.5t-20.5 0t-18 2t-20 5.5t-20 11t-24 18l-27 27t-34 37q-11 -8 -28 -27t-30 -34t-34 -27t-45 -12q-10 0 -35 1.5t-79.5 5.5t-106.5 7q2 4 27 35zM166 1546 q145 -12 182 -12q5 0 37 4q11 3 54.5 49t52.5 51q12 -7 52.5 -53.5t51.5 -46.5q18 -4 76 -4q36 0 71.5 3.5t57.5 7t26 3.5h4l-333 332q-27 -25 -88 -80.5t-92.5 -85t-75.5 -77t-76 -91.5zM270 752q0 411 228 411q34 0 61 -14t44 -35t29 -52t18 -57t9.5 -59t4 -49t0.5 -35 l4 -139v-98v-37q0 -126 -6.5 -173t-38.5 -83q-25 -31 -66 -47.5t-84 -16.5t-75 12t-51 36t-31.5 51t-19 65.5t-9 70.5t-6 74.5t-7.5 69.5q-4 70 -4 105zM334 711q0 -68 2 -103v2q5 -29 14 -131t25 -155l-2 2l6 -13q41 -24 94 -24q84 0 135 57l-2 -2q30 38 35.5 75t5.5 162 v44v98l-4 139v8q-1 8 -2.5 42t-3.5 52t-8.5 48.5t-16 47t-28 29.5t-43.5 13q-64 0 -117.5 -49.5t-69.5 -116.5v2q-20 -90 -20 -227z" />
<glyph unicode="&#xd5;" horiz-adv-x="987" d="M37 809v34v82.5t3 86.5t9 94.5t18.5 88t30.5 85t46.5 68.5t64.5 55q129 63 283 63q106 0 207 -35.5t159 -105.5q67 -67 96 -137v2q26 -56 33.5 -117t7.5 -147q0 -43 -0.5 -124.5t-1 -130.5t-3 -116.5t-7.5 -124.5l-6 -68q-16 -187 -82 -286q-57 -80 -168.5 -118 t-228.5 -38q-139 0 -239.5 44t-154.5 155v-2q-17 30 -28.5 65t-16.5 77t-7 73t-3 81t-2 72q-10 173 -10 324zM51 1505q14 56 31.5 104.5t45.5 101t61.5 89t80.5 60.5t101 24q61 0 119 -39.5t100 -95.5v2q8 -18 33 -18q29 0 57.5 44.5t38.5 82.5q54 6 158 6q2 0 10 0.5 t11.5 0.5t10.5 -2t10 -6.5t6 -13t3 -20.5q7 0 12.5 -1t10 -2t7.5 -3.5t5.5 -4t4 -6.5t2 -6.5t1 -8t0.5 -8v-9v-9.5q0 -128 -74 -221.5t-184 -93.5q-72 0 -136.5 42t-89.5 103q-4 1 -9 2t-8.5 2t-6.5 1q-36 0 -63 -19t-27 -55q0 -20 8 -39l-25 -29q-36 8 -135 8 q-59 0 -129 -4q3 18 12 43q-13 0 -30 -1t-23 -1zM57 813q0 -70 2.5 -145t7.5 -170.5t7 -143.5q2 -109 29.5 -183.5t80.5 -115t118 -57t155 -16.5q111 0 219.5 36.5t161.5 110.5q62 97 77 277l7 67q5 58 7.5 129.5t3 107.5t0 137t-0.5 120q0 64 -1 92t-9.5 77.5t-26.5 86.5 q-26 75 -91.5 126.5t-144 73t-167.5 21.5q-96 0 -183 -23t-137 -73q-18 -21 -33.5 -46.5t-26.5 -46.5t-20 -55t-14.5 -53t-9.5 -59.5t-6.5 -55.5t-3.5 -60t-1 -53.5v-56.5v-49zM80 1528q35 2 100 2q103 0 139 -8v2q-8 19 -8 41q0 43 31.5 70.5t79.5 27.5q53 0 80 -47 q22 -52 67.5 -77.5t102.5 -25.5q101 0 169 87t68 200q0 15 -4 43l-4 4q-19 -1 -53.5 -1t-62.5 -1t-52 -4q-12 -42 -43 -85.5t-67 -43.5q-23 0 -44 15.5t-40 38t-40.5 45t-55 38t-74.5 15.5q-196 0 -289 -336zM279 752q0 411 227 411q34 0 61 -14t44 -35t29 -52t18 -57 t9.5 -59t4 -49t0.5 -35l4 -139v-98v-37q0 -126 -6.5 -173t-38.5 -83q-25 -31 -66 -47.5t-84 -16.5q-50 0 -85 18.5t-53 44.5t-29.5 69t-15 78t-7.5 87.5t-8 81.5q-4 70 -4 105zM342 711q0 -68 2 -103v2q5 -29 14 -131t25 -155l-2 2l6 -13q40 -24 94 -24q84 0 135 57l-2 -2 q30 38 35.5 75t5.5 162v44v98l-4 139v8q-1 8 -2.5 42t-3.5 52t-8.5 48.5t-16 47t-28 29.5t-43.5 13q-64 0 -117.5 -49.5t-69.5 -116.5v2q-20 -90 -20 -227z" />
<glyph unicode="&#xd6;" horiz-adv-x="976" d="M33 809v34v82.5t3 86.5t9 94.5t18.5 88t30.5 85t46.5 68.5t64.5 55q129 63 282 63q106 0 207.5 -36t159.5 -105q67 -67 96 -137v2q26 -56 33.5 -117t7.5 -147q0 -43 -0.5 -124.5t-1 -130.5t-3 -116.5t-7.5 -124.5l-6 -68q-16 -187 -82 -286q-57 -80 -168.5 -118 t-228.5 -38q-139 0 -239.5 44t-154.5 155v-2q-17 30 -28.5 65t-16.5 77t-7 73t-3 81t-2 72q-10 173 -10 324zM53 813q0 -70 2.5 -145t7.5 -170.5t7 -143.5q2 -109 29.5 -183.5t80.5 -115t118 -57t155 -16.5q111 0 219.5 36.5t161.5 110.5q62 97 77 277l7 67q5 58 7.5 129.5 t3 107.5t0 137t-0.5 120q0 64 -1 92t-9.5 77.5t-26.5 86.5q-26 75 -92 126.5t-144.5 73t-167.5 21.5q-96 0 -182.5 -23t-136.5 -73q-18 -21 -33.5 -46.5t-26.5 -46.5t-20 -55t-14.5 -53t-9.5 -59.5t-6.5 -55.5t-3.5 -60t-1 -53.5v-56.5v-49zM186 1645q0 28 2 73.5t2 59.5 q59 18 146 18q75 0 119 -20v-29q7 -3 20.5 -6t20.5 -6q0 -10 -7.5 -110.5t-11.5 -133.5l-241 2q-1 4 -4 18.5t-3 22.5h-34q-9 46 -9 111zM207 1636q0 -52 6 -82h6l199 -2h4v4q0 16 3 67t6 95t3 45q-25 11 -98 11q-81 0 -125 -13q0 -8 -2 -52.5t-2 -72.5zM274 752 q0 411 228 411q34 0 61 -14t44 -35t29 -52t18 -57t9.5 -59t4 -49t0.5 -35l4 -139v-98v-37q0 -126 -6.5 -173t-38.5 -83q-25 -31 -66 -47.5t-84 -16.5q-50 0 -85 18.5t-53 44.5t-29.5 69t-15 78t-7.5 87.5t-8 81.5q-5 88 -5 105zM338 711q0 -68 2 -103v2q5 -29 14 -131 t25 -155l-2 2l6 -13q41 -24 94 -24q84 0 135 57l-2 -2q30 38 35.5 75t5.5 162v44v98l-4 139v8q-1 8 -2.5 42t-3.5 52t-8.5 48.5t-16 47t-28 29.5t-43.5 13q-64 0 -117.5 -49.5t-69.5 -116.5v2q-20 -90 -20 -227zM543 1645q0 28 2 73.5t2 59.5q59 18 145 18q75 0 119 -20v-29 q7 -3 20.5 -6t20.5 -6q0 -11 -7 -111.5t-11 -132.5l-242 2q0 1 -3 17t-3 24h-35q-8 41 -8 111zM563 1636q0 -52 6 -82h6h199h4v2q0 16 3 67t6.5 95t3.5 45q-25 11 -99 11q-81 0 -125 -13q0 -8 -2 -52.5t-2 -72.5z" />
<glyph unicode="&#xd7;" horiz-adv-x="1579" d="M43 1507l1366 -4v-41h41v-633q0 -645 10 -852l-2 -2q-3 -11 -5.5 -16t-21 -13.5t-54 -12t-106.5 -6.5t-175 -3q-346 0 -1002 19q0 27 2 41h-43q10 232 10 422q0 177 -10 538t-10 563zM63 1487q0 -196 10.5 -550t10.5 -531q0 -170 -10 -402q621 -18 981 -18 q97 0 162.5 1.5t101 3.5t53.5 7t21.5 7.5t4 10.5t1.5 11q-13 237 -13 725v270q0 93 1.5 249.5t1.5 211.5zM276 207v260q0 572 7 850q58 -107 97.5 -197t54.5 -133.5t36 -119t31 -105.5q-24 -53 -45 -118.5t-62.5 -170.5t-118.5 -266zM338 389q27 66 55.5 144.5t36.5 97.5 q16 57 49 129q-14 40 -31 108t-40.5 136.5t-67.5 156.5q-2 -252 -2 -772zM510 199q23 74 106.5 262t92.5 211l219 -461q-50 -16 -297 -16q-51 0 -121 4zM526 1311h197q40 0 108.5 1t88.5 1q-26 -80 -72 -181t-86.5 -183t-50.5 -109q-3 7 -14 31.5t-19 43.5 q-122 295 -152 396zM592 215h39q158 0 268 12l-158 328q-11 -24 -44.5 -96t-60.5 -133t-44 -111zM594 1249q32 -108 129 -331q5 11 15.5 30t15.5 31q64 131 120 272q-33 -2 -110 -2h-170zM932 758q10 65 57.5 167t107.5 215.5t81 166.5q0 -95 2 -344.5t2 -384.5 q0 -288 -4 -359q-23 57 -82.5 166.5t-106.5 207.5t-57 165zM993 717q6 -35 26 -86.5t37 -86t54.5 -105t48.5 -91.5q2 80 2 242q0 66 -1 198t-1 197q-2 39 -2 102q-55 -83 -103 -193.5t-61 -176.5z" />
<glyph unicode="&#xd8;" horiz-adv-x="987" d="M41 696q0 110 12 340q1 11 3 43.5t3.5 49t6 42t12 46.5t18.5 40v-2q43 84 86 127l8 9q92 71 263 71q38 0 104 -4q3 29 10 36q10 7 29 7q14 -2 45 -2q20 0 65.5 2t67.5 2q76 0 117 -24q0 -19 -2 -25q17 -5 43 -16q0 -43 -19.5 -87t-19.5 -55v-4q98 -118 98 -336 q0 -32 -4 -110v-94q0 -344 -35 -529q-24 -99 -87 -163.5t-148.5 -91.5t-196.5 -27q-78 0 -100 -4q-15 -19 -34 -28t-32 -10t-47 -1h-65q-105 0 -144 -2q-6 9 -6 24q0 3 1 9.5t1 9.5q-31 0 -37 -2q-4 8 -4 24q0 47 45 168v-2q0 1 1 5t1 5q0 2 2 4q-61 236 -61 555zM61 694 q0 -309 62 -549v-8q-3 -10 -18 -50t-26 -75t-11 -49q0 -4 2 -6q23 2 75 2h107q73 0 88 4h-2l2 2q27 19 27 31h4q33 4 110 5t115 5q82 7 143.5 45t95.5 97t56.5 135t28 159.5t8.5 171t-1 168.5q0 25 -0.5 38t-0.5 33v36q4 70 4 108q0 216 -96 324v10q0 21 17.5 65t18.5 70 q-19 15 -92 15q-22 0 -67 -1t-66 -1q-37 0 -51 2h-2q-11 0 -14 -21.5t-7 -23.5q-117 6 -118 6q-161 0 -250 -68l-6 -6q-38 -38 -62 -77.5t-35 -85.5t-15.5 -78.5t-8 -89.5t-6.5 -85q-9 -132 -9 -258zM285 614q0 4 1 15t1 18l4 47q5 34 8 92t5.5 100.5t12 93t25 84t47 58.5 t76.5 31l16 -2q-33 -111 -101.5 -313t-88.5 -267q-6 15 -6 43zM375 881q37 119 53 174q-14 -12 -23.5 -28t-15 -26.5t-8.5 -32t-4 -28t-1.5 -32t-0.5 -27.5zM471 268q146 421 191 541v-8q0 -22 6 -98.5t6 -129.5q0 -111 -21 -190q-11 -46 -67 -76.5t-111 -40.5zM563 317 q55 27 70 72v-2q22 99 22 193q-71 -192 -92 -263z" />
<glyph unicode="&#xd9;" horiz-adv-x="985" d="M29 301q0 147 5 447t5 456q0 146 -2 209q25 0 80.5 2t83.5 2q96 0 166 -20q0 -5 -1 -15.5t-1 -15.5q7 -3 21.5 -5t21.5 -5q-9 -172 -9 -365q0 -282 27 -655v4q7 -37 59 -37q38 0 69.5 23t41.5 63v-4q8 183 11 526.5t7 485.5q36 0 102.5 7t108.5 7q88 0 129 -27v-24 q6 -2 41 -17v-14q11 -240 11 -395q0 -359 -35 -668q-21 -159 -135.5 -259.5t-284.5 -100.5q-129 0 -245 46.5t-194 138.5t-83 210zM49 301q2 -82 43.5 -148t108.5 -105.5t146 -60t163 -20.5q173 0 276.5 92t122.5 250q35 286 35 666q0 177 -10 395v2q-34 19 -111 19 q-81 0 -188 -15q-3 -103 -7 -452.5t-12 -538.5q-10 -47 -48 -74.5t-83 -27.5q-41 0 -74 23.5t-46 68.5q-27 332 -27 657q0 195 8 348v2q-58 15 -137 15q-29 0 -80.5 -2t-71.5 -2h-2l2 -2q0 -31 1 -95.5t1 -97.5q0 -151 -5 -450t-5 -447zM139 1735l168 170q70 -57 197.5 -190 t189.5 -183l-2 -2q29 -29 43 -39q-99 -21 -219 -21q-60 0 -110 7q-54 65 -144 141v-2q-32 26 -57 50.5t-44.5 45.5t-21.5 23zM168 1735l2 -2q6 -6 98 -90t109 -107q21 -4 98 -4q135 0 176 12q-13 12 -149 150.5t-193 183.5z" />
<glyph unicode="&#xda;" horiz-adv-x="987" d="M18 301q0 147 5.5 447t5.5 456q0 146 -2 209q25 0 80 2t83 2q96 0 166 -20q0 -5 -1 -15.5t-1 -15.5q7 -3 21.5 -5t21.5 -5q-8 -153 -8 -365q0 -282 27 -655v4q7 -37 59 -37q38 0 69.5 23t41.5 63v-4q8 183 11 526.5t7 485.5q36 0 102.5 7t108.5 7q88 0 129 -27v-24 q6 -2 41 -17v-14q10 -218 10 -395q0 -367 -34 -668q-21 -159 -135.5 -259.5t-284.5 -100.5q-129 0 -245.5 46.5t-194.5 138.5t-83 210zM39 301q2 -82 43.5 -148t108.5 -105.5t146 -60t163 -20.5q173 0 276.5 92t122.5 250q35 286 35 666q0 177 -10 395v2q-34 19 -111 19 q-81 0 -188 -15q-3 -103 -7 -452.5t-12 -538.5q-10 -47 -48 -74.5t-83 -27.5q-41 0 -74.5 23.5t-46.5 68.5q-26 319 -26 657q0 195 8 348v2q-58 15 -137 15q-29 0 -80.5 -2t-71.5 -2h-2l2 -2q0 -31 1 -95.5t1 -97.5q0 -151 -5 -450t-5 -447zM295 1534q72 65 192.5 188.5 t194.5 182.5l39 -43l2 2l166 -172q-3 -3 -78 -72h2q-126 -104 -147 -143q-50 -7 -111 -7q-142 0 -219 23q5 4 15.5 13.5t15.5 13.5zM338 1544q38 -12 174 -12q79 0 100 4q10 17 52.5 57t92.5 84t62 56l2 2l-141 143q-57 -45 -193 -183.5t-149 -150.5z" />
<glyph unicode="&#xdb;" horiz-adv-x="991" d="M27 301q0 147 5 447t5 456q0 146 -2 209q25 0 80.5 2t83.5 2q96 0 166 -20q0 -5 -1.5 -15.5t-1.5 -15.5q7 -3 22 -5t22 -5q-9 -172 -9 -365q0 -282 27 -655v4q7 -37 59 -37q38 0 69.5 23t41.5 63v-4q8 183 11 526.5t7 485.5q36 0 102.5 7t108.5 7q88 0 129 -27v-24 q6 -2 41 -17v-14q11 -240 11 -395q0 -359 -35 -668q-21 -159 -135.5 -259.5t-284.5 -100.5q-129 0 -245 46.5t-194 138.5t-83 210zM47 301q2 -82 43.5 -148t108.5 -105.5t146 -60t163 -20.5q173 0 276.5 92t122.5 250q35 286 35 666q0 177 -10 395v2q-34 19 -111 19 q-81 0 -188 -15q-3 -103 -7 -452.5t-12 -538.5q-10 -47 -48 -74.5t-83 -27.5q-41 0 -74.5 23.5t-46.5 68.5q-26 319 -26 657q0 195 8 348v2q-59 15 -137 15q-29 0 -80.5 -2t-71.5 -2h-2l2 -2q0 -31 1 -95.5t1 -97.5q0 -151 -5 -450t-5 -447zM109 1528q31 41 64.5 80.5 t57.5 66t63.5 64.5t57 54.5t65 59.5t62.5 56l41 -41l348 -346l-28 -29q2 -2 2 -4q0 -1 -21 -5t-58 -7.5t-71 -3.5q-3 0 -21.5 -0.5t-23.5 0.5t-21 3.5t-26 9t-26 17.5t-32 28.5t-34 41.5q-11 -8 -28 -27t-30 -34t-34 -27t-45 -12q-10 0 -35 1.5t-79.5 5.5t-106.5 7 q5 9 26 35zM147 1546q145 -12 183 -12q5 0 37 4q11 3 54 49t52 51q12 -7 53 -53.5t52 -46.5q18 -4 75 -4q36 0 71.5 3.5t58 7t26.5 3.5h4l-334 332q-27 -25 -88 -80.5t-92.5 -85t-75.5 -77t-76 -91.5z" />
<glyph unicode="&#xdc;" horiz-adv-x="995" d="M29 301q0 147 5 447t5 456q0 146 -2 209q25 0 80.5 2t83.5 2q96 0 166 -20q0 -5 -1 -15.5t-1 -15.5q7 -3 21.5 -5t21.5 -5q-9 -172 -9 -365q0 -282 27 -655v4q7 -37 59 -37q38 0 69.5 23t41.5 63v-4q8 183 11 526.5t7 485.5q36 0 102.5 7t108.5 7q88 0 129 -27v-24 q6 -2 41 -17v-14q11 -240 11 -395q0 -359 -35 -668q-21 -159 -135.5 -259.5t-284.5 -100.5q-129 0 -245 46.5t-194 138.5t-83 210zM49 301q2 -82 43.5 -148t108.5 -105.5t146 -60t163 -20.5q173 0 276.5 92t122.5 250q35 286 35 666q0 177 -10 395v2q-34 19 -111 19 q-81 0 -188 -15q-3 -103 -7 -452.5t-12 -538.5q-10 -47 -48 -74.5t-83 -27.5q-41 0 -74 23.5t-46 68.5q-27 332 -27 657q0 195 8 348v2q-58 15 -137 15q-29 0 -80.5 -2t-71.5 -2h-2l2 -2q0 -31 1 -95.5t1 -97.5q0 -151 -5 -450t-5 -447zM176 1645q0 28 2 73.5t2 59.5 q59 18 146 18q74 0 118 -20v-29q7 -3 20.5 -6t20.5 -6q0 -11 -7 -111.5t-11 -132.5l-242 2q0 1 -3 17t-3 24h-35q-8 41 -8 111zM197 1636q0 -52 6 -82h6l199 -2h4v4q0 16 3 67t6 95t3 45q-25 11 -98 11q-81 0 -125 -13q0 -8 -2 -52.5t-2 -72.5zM532 1645q0 28 2.5 73.5 t2.5 59.5q59 18 145 18q75 0 119 -20v-29q7 -3 20.5 -6t20.5 -6q0 -10 -7.5 -110.5t-11.5 -133.5l-241 2q-1 4 -4 18.5t-3 22.5h-34q-9 46 -9 111zM553 1636q0 -52 6 -82h6h199h4v2q0 16 3 67t6 95t3 45q-25 11 -98 11q-81 0 -125 -13q0 -8 -2 -52.5t-2 -72.5z" />
<glyph unicode="&#xdd;" horiz-adv-x="931" d="M-4 -23q42 129 147 396.5t127 328.5q-29 124 -129 356.5t-133 371.5q33 0 108.5 6t114.5 6q66 0 134 -23l6 -30q14 -2 35 -11q44 -182 73 -258q49 100 139 301q142 15 224 15q61 0 98 -9v-24q-1 -3 -2 -5t-2 -5q20 0 45 -7v-24q-49 -160 -133.5 -356t-162.5 -353 t-167.5 -357.5t-144.5 -361.5q-58 5 -76 5q-30 0 -82.5 -2.5t-89.5 -2.5q-53 0 -88 3q3 7 6 20t6 20h-53zM25 -4h4q16 -2 49 -2q32 0 97 3t93 3q35 0 51 -2q67 196 186.5 450.5t234.5 504.5t180 456v2q-32 4 -78 4q-111 0 -209 -12l-4 -2q-92 -226 -162 -350 q-65 133 -121 354q-35 16 -108 16q-38 0 -108 -6t-95 -6q28 -117 127.5 -350t128.5 -354v-5q-26 -67 -88 -224t-104 -269t-74 -211zM264 1534q72 65 192.5 188.5t194.5 182.5l39 -43l2 2l166 -172q-3 -3 -78 -72h2q-126 -104 -147 -143q-50 -7 -111 -7q-142 0 -219 23 q5 4 15.5 13.5t15.5 13.5zM307 1544q37 -12 174 -12q80 0 101 4q10 17 52 57t92 84t62 56l3 2l-142 143q-57 -45 -193 -183.5t-149 -150.5z" />
<glyph unicode="&#xde;" horiz-adv-x="952" d="M49 -37q17 296 17 504q0 118 -4.5 341t-4.5 341q0 183 9 367l319 -7v-41h41q0 -46 2 -91.5t2 -80.5q45 19 160 19q74 -4 146.5 -44.5t130 -108.5t93 -168.5t35.5 -213.5q0 -71 -11.5 -146.5t-37 -151.5t-62 -136t-91 -97.5t-119.5 -37.5q-127 0 -242 86q0 -83 -2 -148 t-4 -101t-2 -46q0 -21 6 -39q-30 -33 -137 -33q-20 0 -56.5 1t-52.5 1q-63 0 -94 -10q0 8 1 25.5t1 25.5q-29 -4 -43 -10zM72 -8q6 2 41 2q18 0 65.5 -1t73.5 -1q99 0 115 16q-5 20 -5 29t2 47t4.5 115.5t2.5 183.5q51 -49 123 -80t139 -31q61 0 112 36t85 94t58.5 131.5 t35 146.5t10.5 141q0 202 -99 335t-245 138q-32 0 -48.5 -0.5t-43 -3t-42 -8.5t-34 -16t-31.5 -26.5t-22 -39.5v129q0 44 -2 80.5t-2 79.5l-279 6q-8 -161 -8 -340q0 -113 4 -335t4 -343q0 -307 -14 -485zM372 747q0 17 0.5 54t0.5 57q0 36 0.5 54t2 39.5t6.5 30t11.5 18.5 t19 13t27.5 5t39 2q81 0 130.5 -37.5t60.5 -93.5q12 -42 12 -109q0 -95 -49 -158t-133 -63q-24 0 -43 3.5t-32.5 14t-23 19.5t-15 29t-9 33.5t-4.5 42.5t-1 46zM434 741q0 -115 15 -153q16 -8 51 -8q76 0 119 56t43 144q0 58 -13 103v2q-21 73 -129 73q-62 0 -74 -23.5 t-12 -130.5v-9v-54z" />
<glyph unicode="&#xdf;" horiz-adv-x="925" d="M4 481q0 113 2 337t2 339v279q164 49 336 49q88 0 168 -17.5t152 -55.5t124.5 -94t83.5 -137.5t31 -181.5q0 -151 -102 -329v-4q0 -9 8 -17q38 -46 57 -71.5t44.5 -68t36.5 -86t11 -93.5q0 -102 -36.5 -181t-97 -124.5t-131.5 -68t-148 -22.5q-19 0 -96 5l-4 16t-5 14.5 t-10 6.5t-22 4q-19 71 -19 145q0 6 -0.5 29.5t0 34.5t2.5 33t8 34t16 26t26.5 21t39.5 8h-2q70 11 70 95q0 41 -15.5 81t-39.5 64q-72 72 -72 164v14v2q9 51 33.5 95.5t48.5 69.5t42.5 52.5t18.5 50.5q0 18 -8 37v-2q-18 16 -45 25h2q-41 8 -98 8q-49 0 -70 -8v-2 q-6 -49 -6 -154q0 -67 2 -110v2q10 -158 10 -340q0 -5 3 -92.5t3 -237.5q0 -186 -39 -186q-151 0 -200 2h-10q-1 0 -6 -0.5t-9 -0.5t-11 1t-12 3.5t-10 7t-7.5 12.5t-2.5 18q-36 9 -39 10q-8 216 -8 489zM25 477q0 -260 8 -471q16 -4 20 -4h25q49 -2 201 -2q18 0 18 147 q0 263 -8 408q0 39 -5 154t-5 225q0 104 8 180q32 14 88 14q39 0 72 -5t66.5 -18t53 -40t19.5 -66q0 -63 -72 -127q-57 -51 -72 -145v-14q0 -38 20 -76t43.5 -65.5t43.5 -72t20 -93.5q0 -101 -86 -115q-21 -1 -36.5 -11.5t-22.5 -23t-11 -34t-4 -34t0.5 -36t0.5 -27.5 q0 -82 14 -125q62 -4 80 -4q75 0 142.5 21t125 64t91.5 117.5t34 172.5q0 47 -10.5 88.5t-35.5 82.5t-43.5 66t-55.5 70q-17 17 -17 27q0 7 6 16q101 169 101 319q0 93 -27.5 166.5t-74 121t-111 79t-135 44.5t-150.5 13q-155 0 -315 -45l-2 -2q2 -96 2 -284q0 -111 -2 -328 t-2 -328z" />
<glyph unicode="&#xe0;" horiz-adv-x="956" d="M16 545q0 232 116 362.5t294 130.5q57 0 88.5 -8.5t58.5 -40.5q1 7 2 17.5t1.5 15t2 11.5t3 9.5t4 6.5t6.5 5t9.5 2t12.5 1q12 0 34 -3t30 -3h18q38 0 203 -11l19 -18q0 -4 1 -11.5t1 -11.5h20l18 -18q5 -40 5 -51v-21q-2 -55 -2 -159q0 -78 2 -230.5t2 -230.5 q0 -101 -7 -248v-14v-9q0 -24 -1 -36.5t-11.5 -27t-30.5 -17.5h-28q-26 0 -70.5 3t-62.5 3q-16 0 -44 -3t-44 -3q-34 9 -43 40q-26 11 -33 23q-107 -66 -211 -66q-82 0 -152.5 58t-115.5 149t-70 197t-25 207zM37 545q0 -68 10.5 -141t35 -146.5t58.5 -131.5t85 -94t112 -36 q70 0 144.5 34t125.5 85q0 -13 -4 -34.5t-4 -37.5q0 -36 25 -45q15 0 44 3t44 3q21 0 66 -3t67 -3h24q27 6 27 55v29q8 120 8 268q0 77 -3 227t-3 228q0 96 2 145v21q0 17 -4 49q-56 4 -201 10h-22q-8 0 -28 1t-28 1q-10 0 -16.5 -7.5t-8.5 -23t-2.5 -26.5t-0.5 -31v-10v-10 q-14 34 -33.5 54t-51 28.5t-54.5 10t-70 1.5q-146 -5 -245 -138t-99 -335zM203 1401l168 170q68 -55 196 -189.5t191 -183.5l-2 -2q29 -29 43 -39q-94 -20 -219 -20q-68 0 -111 6q-56 68 -143 141v-2q-32 26 -57 50.5t-44.5 45.5t-21.5 23zM231 1401l2 -2q6 -6 98 -90 t109 -107q21 -4 99 -4q135 0 176 12q-13 12 -149 150.5t-193 183.5zM289 504q0 66 12 108q11 56 60.5 93.5t130.5 37.5q29 0 45.5 -2.5t30.5 -9.5t18.5 -20t9 -34t3 -52t-0.5 -73v-22v-21.5v-25.5q0 -44 -1.5 -69.5t-8.5 -54t-20 -43t-37 -24t-60 -9.5q-84 0 -133 63 t-49 158zM350 463q0 -160 121 -160q22 0 39 5t28.5 12.5t19 23t11.5 28.5t6 39t2.5 43.5t0.5 51.5v53q0 12 0.5 31.5t0.5 28t-1 22t-4 19t-8 12t-13.5 8.5t-20.5 2q-70 0 -114.5 -33.5t-55.5 -81.5v-2q-12 -42 -12 -102z" />
<glyph unicode="&#xe1;" horiz-adv-x="958" d="M6 545q0 232 116 362.5t294 130.5q57 0 88.5 -8.5t58.5 -40.5q1 7 2 17.5t1.5 15t2 11.5t3 9.5t4 6.5t6.5 5t9.5 2t12.5 1q12 0 34 -3t30 -3h18q38 0 203 -11l18 -18q0 -4 1 -11.5t1 -11.5h21l18 -18q4 -32 4 -51v-21q-2 -55 -2 -159q0 -78 2 -230.5t2 -230.5 q0 -122 -6 -248v-14v-9q0 -24 -1 -36.5t-11.5 -27t-30.5 -17.5h-28q-26 0 -71 3t-63 3q-15 0 -43.5 -3t-44.5 -3q-34 9 -43 40q-24 11 -32 23q-107 -66 -211 -66q-82 0 -152.5 58t-115.5 149t-70 197t-25 207zM27 545q0 -68 10.5 -141t35 -146.5t58.5 -131.5t85 -94t112 -36 q70 0 144.5 34t125.5 85q0 -13 -4 -34.5t-4 -37.5q0 -36 24 -45q16 0 44 3t44 3q22 0 67 -3t67 -3h24q27 6 27 55v29q8 120 8 268q0 77 -3 227t-3 228q0 96 2 145v21q0 17 -4 49q-56 4 -201 10h-22q-8 0 -28 1t-28 1q-10 0 -16.5 -7.5t-8.5 -23t-2.5 -26.5t-0.5 -31v-10v-10 q-14 34 -33.5 54t-51 28.5t-54.5 10t-70 1.5q-146 -5 -245 -138t-99 -335zM270 1200q72 65 192.5 188.5t194.5 182.5l39 -43l2 2l166 -172q-3 -3 -78 -72h2q-126 -104 -147 -143q-43 -6 -111 -6q-145 0 -219 22q5 4 15.5 13.5t15.5 13.5zM279 504q0 66 12 108q11 56 60 93.5 t130 37.5q29 0 45.5 -2.5t30.5 -9.5t18.5 -20.5t9.5 -35t3.5 -52.5t-0.5 -75v-65q0 -44 -1.5 -69.5t-8.5 -54t-20 -43t-37 -24t-60 -9.5q-84 0 -133 63t-49 158zM313 1210q38 -12 174 -12q80 0 101 4q10 17 52.5 57t92.5 84t62 56l2 2l-142 143q-57 -45 -193 -183.5 t-149 -150.5zM340 463q0 -160 121 -160q31 0 51.5 10t31.5 23.5t16 44.5t6 53.5t1 71.5v53q0 13 0.5 32t0.5 28t-1 21.5t-3.5 18.5t-7.5 12.5t-13.5 8.5t-20.5 2q-70 0 -114.5 -33.5t-55.5 -81.5v-2q-12 -42 -12 -102z" />
<glyph unicode="&#xe2;" horiz-adv-x="962" d="M14 545q0 232 116 362.5t294 130.5q57 0 88.5 -8.5t58.5 -40.5q1 7 2 17.5t1.5 15t2 11.5t3 9.5t4 6.5t6.5 5t9.5 2t12.5 1q12 0 34 -3t30 -3h18q38 0 203 -11l18 -18q0 -4 1.5 -11.5t1.5 -11.5h20l18 -18q5 -40 5 -51v-21q-3 -83 -3 -159q0 -78 2.5 -230.5t2.5 -230.5 q0 -101 -7 -248v-14v-9q0 -24 -1 -36.5t-11.5 -27t-30.5 -17.5h-28q-26 0 -70.5 3t-62.5 3q-16 0 -44 -3t-44 -3q-34 9 -43 40q-26 11 -33 23q-107 -66 -211 -66q-82 0 -152.5 58t-115.5 149t-70 197t-25 207zM35 545q0 -68 10.5 -141t35 -146.5t58.5 -131.5t85 -94t112 -36 q70 0 144.5 34t125.5 85q0 -13 -4 -34.5t-4 -37.5q0 -36 25 -45q15 0 44 3t44 3q21 0 66 -3t67 -3h24q27 6 27 55v29q8 120 8 268q0 77 -3 227t-3 228q0 96 2 145v21q0 17 -4 49q-56 4 -201 10h-22q-8 0 -28 1t-28 1q-10 0 -16.5 -7.5t-8.5 -23t-2.5 -26.5t-0.5 -31v-10v-10 q-14 34 -33.5 54t-51 28.5t-54.5 10t-70 1.5q-146 -5 -245 -138t-99 -335zM141 1198q31 41 64 80t58 66.5t63.5 64.5t58 55t65 58.5t62.5 56.5l41 -41l348 -346l-29 -29q2 -2 2 -4q0 -1 -20.5 -5t-57.5 -7.5t-71 -3.5q-3 0 -21.5 -0.5t-23.5 0.5t-21 3.5t-26 9t-26 17.5 t-32 28.5t-34 41.5q-12 -9 -35.5 -37t-48 -45.5t-54.5 -17.5q-10 0 -35 1.5t-79.5 5.5t-106.5 7q2 4 27 35zM180 1217q157 -13 182 -13q5 0 37 4q11 3 54.5 49.5t52.5 51.5q12 -7 52.5 -54t51.5 -47q18 -4 76 -4q36 0 71.5 4t58 7.5t26.5 3.5h4l-334 331q-28 -26 -88 -80.5 t-92 -84.5t-76 -77t-76 -91zM287 504q0 66 12 108q11 56 60 93.5t130 37.5q29 0 45.5 -2.5t30.5 -9.5t18.5 -20.5t9.5 -35t3.5 -52.5t-0.5 -75v-65q0 -44 -1.5 -69.5t-8.5 -54t-20 -43t-37 -24t-60 -9.5q-84 0 -133 63t-49 158zM348 463q0 -160 121 -160q31 0 51.5 10 t31.5 23.5t16 44.5t6 53.5t1 71.5v53q0 13 0.5 32t0.5 28t-1 21.5t-3.5 18.5t-7.5 12.5t-13.5 8.5t-20.5 2q-70 0 -114.5 -33.5t-55.5 -81.5v-2q-12 -42 -12 -102z" />
<glyph unicode="&#xe3;" horiz-adv-x="997" d="M23 545q0 232 115.5 362.5t293.5 130.5q57 0 89 -8.5t59 -40.5q1 7 2 17.5t1.5 15t2 11.5t3 9.5t4 6.5t6.5 5t9.5 2t12.5 1q12 0 33.5 -3t29.5 -3h18q38 0 203 -11l19 -18q0 -4 1 -11.5t1 -11.5h20l19 -18q4 -32 4 -51v-21q-2 -55 -2 -159q0 -78 2 -230.5t2 -230.5 q0 -122 -6 -248v-14v-9q0 -24 -1 -36.5t-11.5 -27t-30.5 -17.5h-29q-26 0 -70.5 3t-62.5 3q-16 0 -44 -3t-44 -3q-34 9 -43 40q-26 11 -33 23q-107 -66 -211 -66q-82 0 -152.5 58t-115 149t-69.5 197t-25 207zM43 545q0 -68 10.5 -141t35 -146.5t58.5 -131.5t85 -94t112 -36 q70 0 144.5 34t125.5 85q0 -13 -4 -34.5t-4 -37.5q0 -36 25 -45q15 0 44 3t44 3q21 0 66 -3t67 -3h25q17 4 21.5 17t4.5 38v29q8 120 8 268q0 77 -3 227t-3 228q0 96 2 145v21q0 17 -4 49q-56 4 -201 10h-22q-8 0 -27.5 1t-27.5 1q-10 0 -16.5 -7.5t-9 -23.5t-3 -27.5 t-0.5 -32.5v-7v-10q-14 34 -33.5 54t-51 28.5t-54.5 10t-70 1.5q-146 -5 -245 -138t-99 -335zM72 1190q97 379 319 379q61 0 119 -39.5t100 -95.5v2q8 -19 33 -19q29 0 57.5 44.5t38.5 82.5q74 8 203 8l4 -26q0 -3 1 -8.5t1 -8.5q8 0 20 1t15 1l4 -26v2q2 -14 2 -37 q0 -53 -17 -108t-48 -101.5t-80.5 -76t-108.5 -29.5q-71 0 -136.5 43t-90.5 104q-3 1 -8 2t-8 2q-66 0 -89 -35l3 2l-7 -12v2q-6 -18 -6 -31q0 -19 8 -38l-24 -29q-36 8 -135 8q-59 0 -129 -4q3 18 12 43q-13 0 -30 -1t-23 -1zM100 1212q35 2 101 2q103 0 139 -8v2 q-8 19 -8 41t8 41l6 13q30 45 105 45q40 0 71 -48q22 -52 66.5 -78t101.5 -26q74 0 130 45t82 110t26 136q0 25 -2 39l-4 6q-19 -1 -53.5 -1t-62.5 -1t-52 -4q-12 -42 -43 -85.5t-68 -43.5q-23 0 -44 15.5t-40 37.5t-40.5 44.5t-55 38t-74.5 15.5q-196 0 -289 -336zM295 504 q0 66 12 108q11 56 60.5 93.5t130.5 37.5q29 0 45.5 -2.5t30.5 -9.5t18.5 -20t9 -34t3 -52t-0.5 -73v-22v-21.5v-25.5q0 -44 -1.5 -69.5t-8.5 -54t-20 -43t-37 -24t-60 -9.5q-84 0 -133 63t-49 158zM356 463q0 -160 121 -160q22 0 39 5t28.5 12.5t19 23t11.5 28.5t6 39 t2.5 43.5t0.5 51.5v53q0 13 0.5 32t0.5 28t-1 21.5t-3.5 18.5t-7.5 12.5t-13.5 8.5t-20.5 2q-70 0 -114.5 -33.5t-55.5 -81.5v-2q-13 -45 -13 -102z" />
<glyph unicode="&#xe4;" horiz-adv-x="983" d="M20 545q0 232 116 362.5t294 130.5q57 0 89 -8.5t59 -40.5q1 7 2 19.5t1.5 16.5t2.5 11.5t4 10t6 5.5t10 4t14 1q12 0 34 -3t30 -3h18q38 0 203 -11l19 -18q0 -4 1 -11.5t1 -11.5h20l19 -18q4 -32 4 -51v-21q-2 -55 -2 -159q0 -78 2 -230.5t2 -230.5q0 -122 -6 -248v-14 v-9q0 -24 -1 -36.5t-11.5 -27t-30.5 -17.5h-29q-26 0 -70.5 3t-62.5 3q-16 0 -44 -3t-44 -3q-34 9 -43 40q-26 11 -33 23q-107 -66 -211 -66q-82 0 -152.5 58t-115.5 149t-70 197t-25 207zM41 545q0 -68 10.5 -141t35 -146.5t58.5 -131.5t85 -94t112 -36q70 0 144.5 34 t125.5 85q0 -13 -4 -34.5t-4 -37.5q0 -36 25 -45q15 0 44 3t44 3q21 0 66 -3t67 -3h24q27 6 27 55v29q8 120 8 268q0 77 -3 227t-3 228q0 96 2 145v21q0 17 -4 49q-56 4 -201 10h-22q-8 0 -27.5 1t-27.5 1q-10 0 -16.5 -7.5t-9 -23.5t-3 -27.5t-0.5 -32.5v-7v-10 q-14 34 -33.5 54t-51 28.5t-54.5 10t-70 1.5q-146 -5 -245 -138t-99 -335zM217 1534v43l320 -6v-41h41q0 -22 3 -131.5t3 -157.5q-22 -35 -99 -35q-17 0 -79 4h2q-11 0 -33.5 1t-36.5 1q-41 0 -72 -2v43q-7 0 -20.5 -1t-20.5 -1q0 40 -4 128.5t-4 154.5zM238 1524 q0 -57 4 -137.5t4 -112.5h35q28 0 83.5 -3t77.5 -3q68 0 80 20q0 47 -3 148.5t-3 113.5l-278 6v-32zM293 504q0 78 12 108q11 56 60.5 93.5t130.5 37.5q29 0 45.5 -2.5t30.5 -9.5t18.5 -20t9 -34t3 -52t-0.5 -73v-22v-21.5v-25.5q0 -44 -1.5 -69.5t-8.5 -54t-20 -43t-37 -24 t-60 -9.5q-84 0 -133 63t-49 158zM354 463q0 -160 121 -160q22 0 39 5t28.5 12.5t19 23t11.5 28.5t6 39t2.5 43.5t0.5 51.5v53q0 13 0.5 32t0.5 28t-1 21.5t-3.5 18.5t-7.5 12.5t-13.5 8.5t-20.5 2q-70 0 -114.5 -33.5t-55.5 -81.5v-2q-13 -45 -13 -102zM594 1534v43l319 -6 v-41h41q0 -22 3.5 -131.5t3.5 -157.5q-22 -35 -99 -35q-18 0 -80 4h2q-11 0 -33 1t-36 1q-41 0 -72 -2v43q-7 0 -20.5 -1t-20.5 -1q0 40 -4 128.5t-4 154.5zM614 1524q0 -57 4.5 -137.5t4.5 -112.5h34q29 0 84 -3t78 -3q67 0 80 20q0 47 -3 148.5t-3 113.5l-279 6v-32z" />
<glyph unicode="&#xe5;" horiz-adv-x="962" d="M14 545q0 232 116 362.5t294 130.5q57 0 88.5 -8.5t58.5 -40.5q1 7 2 17.5t1.5 15t2 11.5t3 9.5t4 6.5t6.5 5t9.5 2t12.5 1q12 0 34 -3t30 -3h18q38 0 203 -11l18 -18q0 -4 1.5 -11.5t1.5 -11.5h20l18 -18q5 -40 5 -51v-21q-3 -83 -3 -159q0 -78 2.5 -230.5t2.5 -230.5 q0 -101 -7 -248v-14v-9q0 -24 -1 -36.5t-11.5 -27t-30.5 -17.5h-28q-26 0 -70.5 3t-62.5 3q-16 0 -44 -3t-44 -3q-34 9 -43 40q-26 11 -33 23q-107 -66 -211 -66q-82 0 -152.5 58t-115.5 149t-70 197t-25 207zM35 545q0 -68 10.5 -141t35 -146.5t58.5 -131.5t85 -94t112 -36 q70 0 144.5 34t125.5 85q0 -13 -4 -34.5t-4 -37.5q0 -36 25 -45q15 0 44 3t44 3q21 0 66 -3t67 -3h24q27 6 27 55v29q8 120 8 268q0 77 -3 227t-3 228q0 96 2 145v21q0 17 -4 49q-56 4 -201 10h-22q-8 0 -28 1t-28 1q-10 0 -16.5 -7.5t-8.5 -23t-2.5 -26.5t-0.5 -31v-10v-10 q-14 34 -33.5 54t-51 28.5t-54.5 10t-70 1.5q-146 -5 -245 -138t-99 -335zM287 504q0 66 12 108q11 56 60 93.5t130 37.5q29 0 45.5 -2.5t30.5 -9.5t18.5 -20.5t9.5 -35t3.5 -52.5t-0.5 -75v-65q0 -44 -1.5 -69.5t-8.5 -54t-20 -43t-37 -24t-60 -9.5q-84 0 -133 63t-49 158z M301 1356q0 99 39 155q62 50 158 50q146 0 200 -74v-4q37 -24 47.5 -60.5t10.5 -95.5q0 -94 -31 -160l-2 -2q-15 -22 -38 -36t-54.5 -19.5t-51 -6.5t-51.5 -1q-34 0 -48.5 1t-40 6t-43 18.5t-31.5 35.5q-64 39 -64 193zM322 1356q0 -30 0.5 -46.5t4 -40.5t9.5 -37t17.5 -28 t29 -23t43 -13t59.5 -5q149 0 181 54q28 76 28 149q0 53 -16 115q-47 61 -193 61q-88 0 -125.5 -43t-37.5 -143zM348 463q0 -160 121 -160q31 0 51.5 10t31.5 23.5t16 44.5t6 53.5t1 71.5v53q0 13 0.5 32t0.5 28t-1 21.5t-3.5 18.5t-7.5 12.5t-13.5 8.5t-20.5 2 q-70 0 -114.5 -33.5t-55.5 -81.5v-2q-12 -42 -12 -102zM414 1362q0 56 35 76q27 12 61 12q94 0 94 -86q0 -37 -5.5 -59t-19 -32.5t-25.5 -13.5t-37 -5q-7 -1 -11 -1h-21q-31 0 -47.5 18.5t-20 39t-3.5 51.5zM475 1315q0 -27 2 -41h39q11 1 20 3t15.5 4t11.5 7t8.5 7.5t6 10 t4 9.5t2 12t0.5 11.5v13v12.5q0 17 -6 21t-27 4q-20 0 -53 -11l2 2q-25 -20 -25 -65z" />
<glyph unicode="&#xe6;" horiz-adv-x="1603" d="M152 289q0 142 98 234.5t268 92.5q110 0 187 -32v80v26q0 64 -62 64q-43 0 -75.5 -33t-32.5 -86q-75 -14 -175 -14q-26 0 -41 1t-37 5t-33 14t-11 27q-6 1 -11.5 2.5t-9 2.5t-6.5 3.5t-5 4t-3.5 5.5t-2 5.5t-1 7t-0.5 7.5v8.5v8.5q0 60 24.5 110.5t65 84.5t94.5 58 t113 35t120 11q173 0 263 -72q55 43 130.5 66.5t153.5 23.5q112 0 200 -38t143 -103t83.5 -148t28.5 -178q0 -42 -4 -104q-38 -11 -196 -19t-279 -8q-29 0 -43 2v-30q0 -32 1.5 -52.5t7 -44.5t15.5 -37.5t28.5 -22.5t45.5 -9q39 0 64.5 37t25.5 112v21q36 -4 66 -4 q21 0 65 2t68 2q36 0 88 -10q-4 -28 -4 -33q7 -1 22.5 -4t22.5 -4q-7 -50 -14 -138.5t-16.5 -133t-31.5 -64.5l2 4q-68 -96 -268 -96q-153 0 -237 19t-140 87q-2 2 -4 2q-159 -125 -323 -125q-111 0 -210 50.5t-158.5 135.5t-59.5 181zM172 289q0 -132 108 -218.5t257 -86.5 q161 0 331 137q53 -76 134.5 -98.5t238.5 -22.5q189 0 254 88q6 5 11 14t9.5 23t7.5 26t6 33.5t5 35.5t4 41t3.5 41t3.5 45t3 44q-27 6 -73 6q-25 0 -73 -2t-67 -2q-22 0 -28 2v-16q0 -75 -32.5 -113.5t-80.5 -38.5q-154 0 -160 248v35q25 -6 133 -6q105 0 230.5 7t154.5 15 q4 62 4 88q0 70 -10 127t-36.5 110.5t-70 89.5t-113.5 57.5t-163 21.5q-174 0 -284 -96q-40 37 -110.5 57t-152.5 20q-100 0 -188 -27.5t-149.5 -91.5t-61.5 -153q0 -14 5 -24t12 -14.5t21.5 -7t25 -3t32.5 -0.5h6q63 0 154 14q0 54 39 87.5t90 33.5q47 0 85 -32t38 -89v-73 q0 -41 2 -72q-83 47 -209 47q-164 0 -255 -87.5t-91 -219.5zM389 297q0 67 52 105t108 38q27 0 52 -5t51.5 -18t42.5 -40t16 -66q0 -49 -35 -83.5t-113 -34.5q-29 0 -63 6q-111 19 -111 98zM453 256q0 -21 11.5 -28t37.5 -9h2q35 -6 59 -6q66 0 97.5 29.5t31.5 70.5 q0 66 -102 66q-51 0 -94 -32t-43 -91zM1036 678q0 149 166 149q27 0 68 -18q34 -17 53.5 -52t19.5 -75v-20q0 -7 -12 -7q-2 0 -36.5 2t-71.5 2q-33 0 -75 -1t-54 -1q-35 0 -46.5 4.5t-11.5 16.5zM1106 678q3 0 12 1t17 1h88q94 0 100 -6v8q0 22 -17 64l-3 5v-1 q-46 16 -60 16q-66 0 -95.5 -22.5t-41.5 -65.5z" />
<glyph unicode="&#xe7;" horiz-adv-x="935" d="M55 659q0 80 7 134t34 125l-2 -3q19 75 114.5 114.5t221.5 39.5q16 -2 76 -2q6 0 23 1t26 1q93 0 176.5 -32t128.5 -95q1 -1 4 -3t4 -3q56 -40 72 -135t16 -266q-71 -11 -96 -11q-30 0 -64 3t-82 9t-57 7q-1 3 -2 10t-1.5 8.5t-2.5 6t-4.5 5.5t-6.5 3.5t-9.5 4t-14.5 3.5 q-7 46 -25.5 69t-62.5 23q-8 0 -36 -4h2q-20 -6 -35 -16t-24 -26t-14.5 -29t-7 -36t-2 -36t0 -39t0.5 -35q0 -19 -3 -68t-3 -61q0 -18 15 -27.5t28.5 -10.5t37.5 -1q57 0 84 18h-2q7 3 12.5 11t10.5 23.5t8 25.5t8 30t6 25q50 -4 80 -4q20 0 62 2t63 2q36 0 94 -10 q-2 -14 -2 -35l43 -6q-6 -95 -11.5 -151.5t-19 -117t-32.5 -82.5q-65 -92 -229 -102q-76 -186 -95 -281h-172q-23 0 -34.5 0.5t-26.5 2.5t-21 7.5t-6 14.5q1 3 3 8t3 8q-47 3 -47 25q66 176 80 229v2q-82 29 -137 84l-19 19q-129 97 -129 389v63q0 121 -6 172zM76 662 q6 -56 6 -117q0 -19 -1 -58t-1 -59q0 -67 6 -122t24 -112t48 -98t81 -72t119 -42l27 -2l-18 -56q-6 -17 -13.5 -37.5t-24.5 -69t-42 -118.5q0 -2 28 -2l195 2q5 26 46 138t48 138q82 5 139 26t91 71q13 13 22.5 42.5t16.5 82t10 89t8 107.5q-27 6 -78 6q-27 0 -79.5 -2 t-71.5 -2q-25 0 -31 2q-7 -35 -15 -56t-23 -40.5t-41 -28t-65 -8.5q-59 0 -100 27t-41 80v38v65.5t1 57.5t4 53.5t7.5 44t12 39t18.5 29t26 23.5t34.5 12.5t44.5 5.5q58 0 94 -37t47 -100q106 -18 184 -18q49 0 76 8q0 14 -1 40q-2 62 -3.5 92.5t-6.5 76t-12.5 70.5t-22 50 t-34.5 40q-92 88 -268 88q-14 0 -40 -1t-38 -1q-27 0 -41 2q-200 0 -276 -85.5t-76 -301.5zM897 -180l2 -4z" />
<glyph unicode="&#xe8;" horiz-adv-x="913" d="M25 547q0 200 47 325q42 98 149.5 150.5t237.5 52.5q119 0 212 -40.5t150 -110t86 -157.5t29 -189q0 -12 -6 -105q-39 -11 -207 -19t-295 -8q-24 0 -45 3v-35q0 -54 7 -87.5t30 -72.5v-4q25 -14 65 -14q43 0 72 39.5t29 119.5v21q46 -4 67 -4q23 0 71 2t71 2q34 0 92 -10 q0 -2 -1 -14.5t-1 -20.5l43 -6q0 -106 -10.5 -184t-35.5 -126.5t-51 -78.5t-72 -43.5t-83 -17t-98 -3.5h-25q-56 0 -84.5 0.5t-74 5.5t-72.5 14.5t-58 28.5t-55 47q-94 78 -139 224t-45 315zM43 526q0 -99 16 -187t49 -166.5t92 -129.5t138 -63q28 0 94.5 -3.5t104.5 -3.5 q96 0 164.5 20.5t107.5 76.5q13 11 22.5 38t15.5 74t9.5 82t7.5 99q1 17 2 26q-30 6 -80 6q-26 0 -77 -2t-70 -2q-25 0 -31 2v-16q0 -81 -35.5 -121.5t-87.5 -40.5q-157 0 -163 262v37q25 -6 141 -6q112 0 243 7t164 15q4 62 4 88q0 77 -11 139t-39.5 119t-74 95.5t-119 61 t-171.5 22.5q-124 0 -227.5 -50t-141.5 -139q-47 -125 -47 -340zM162 1401l168 170q55 -44 108 -95t130 -130.5t100 -102.5q35 -35 49 -45l-2 -2q29 -29 43 -39q-94 -20 -219 -20q-68 0 -111 6q-56 68 -143 141v-2q-32 26 -57 50.5t-44.5 45.5t-21.5 23zM190 1401l3 -2 q5 -5 97 -89.5t109 -107.5q21 -4 99 -4q136 0 176 12q-13 12 -149 150.5t-193 183.5zM324 694q0 158 174 158q36 0 71 -21q37 -19 58.5 -55t21.5 -78v-22q0 -6 -14 -6q-2 0 -40 2t-75 2q-36 0 -79 -1t-54 -1q-38 0 -50.5 4.5t-12.5 17.5zM391 692q7 0 19 1t20 1h90 q23 0 52.5 -1t35.5 -1l21 -2v8q0 47 -27 74l-2 2q-27 17 -61 17q-72 0 -104 -25.5t-44 -73.5z" />
<glyph unicode="&#xe9;" horiz-adv-x="917" d="M14 547q0 200 47 325q42 98 150 150.5t238 52.5q119 0 212 -40.5t150 -110t86 -157.5t29 -189q0 -12 -6 -105q-41 -11 -208.5 -19t-291.5 -8q-26 0 -47 3v-35q0 -54 7 -87.5t30 -72.5v-4q25 -14 65 -14q42 0 71 39t29 120v21q46 -4 68 -4q23 0 70 2t71 2q35 0 93 -10 q0 -2 -1.5 -14.5t-1.5 -20.5l44 -6q0 -71 -5.5 -129.5t-14.5 -102.5t-25.5 -78t-33 -57.5t-42 -39.5t-48 -25t-56 -14t-60 -6t-66.5 -1h-25q-70 0 -105.5 1.5t-86.5 10t-86.5 29t-64.5 55.5q-94 78 -139.5 224t-45.5 315zM33 526q0 -99 16 -187t49 -166.5t92 -129.5t138 -63 q28 0 94 -3.5t104 -3.5q96 0 165 20.5t108 76.5q13 11 22.5 38t15.5 74t9.5 82t7.5 99q1 17 2 26q-30 6 -80 6q-26 0 -77 -2t-70 -2q-25 0 -31 2v-16q0 -81 -35.5 -121.5t-87.5 -40.5q-158 0 -164 262v37q25 -6 142 -6q112 0 243 7t164 15q4 62 4 88q0 77 -11 139t-39.5 119 t-74 95.5t-119 61t-171.5 22.5q-124 0 -227.5 -50t-141.5 -139q-47 -125 -47 -340zM244 1200q72 65 192.5 188.5t194.5 182.5l39 -43l2 2l166 -172q-3 -3 -78 -72h2q-128 -106 -148 -143q-43 -6 -110 -6q-145 0 -219 22q5 4 15 13.5t15 13.5q-70 13 -71 14zM287 1210 q37 -12 174 -12q79 0 100 4q10 17 52.5 57t92.5 84t62 56l2 2l-141 143q-57 -45 -193 -183.5t-149 -150.5zM313 694q0 158 174 158q37 0 72 -21q37 -19 58.5 -55t21.5 -78v-22q0 -6 -14 -6q-2 0 -40 2t-75 2q-36 0 -79 -1t-54 -1q-39 0 -51.5 4.5t-12.5 17.5zM381 692 q7 0 19 1t20 1h90q23 0 52.5 -1t35.5 -1l20 -2v8q0 48 -26 74l-2 2q-27 17 -62 17q-72 0 -103.5 -25t-43.5 -74z" />
<glyph unicode="&#xea;" horiz-adv-x="919" d="M23 547q0 200 47 325q42 98 149.5 150.5t237.5 52.5q119 0 212 -40.5t150 -110t86 -157.5t29 -189q0 -12 -6 -105q-41 -11 -208.5 -19t-291.5 -8q-26 0 -47 3v-35q0 -54 7 -87.5t30 -72.5v-4q25 -14 65 -14q43 0 72 39.5t29 119.5v21q46 -4 67 -4q23 0 71 2t71 2 q34 0 92 -10q0 -2 -1 -14.5t-1 -20.5l43 -6q0 -71 -5.5 -129.5t-14.5 -102.5t-25.5 -78t-33 -57.5t-42 -39.5t-48 -25t-56 -14t-60 -6t-66.5 -1h-25q-70 0 -105.5 1.5t-86.5 10t-86.5 29t-64.5 55.5q-94 78 -139 224t-45 315zM41 526q0 -99 16 -187t49 -166.5t92 -129.5 t138 -63q28 0 94.5 -3.5t104.5 -3.5q96 0 164.5 20.5t107.5 76.5q13 11 22.5 38t15.5 74t9.5 82t7.5 99q1 17 2 26q-30 6 -80 6q-26 0 -77 -2t-70 -2q-25 0 -31 2v-16q0 -81 -35.5 -121.5t-87.5 -40.5q-158 0 -164 262v37q25 -6 142 -6q112 0 243 7t164 15q4 62 4 88 q0 77 -11 139t-39.5 119t-74 95.5t-119 61t-171.5 22.5q-124 0 -227.5 -50t-141.5 -139q-47 -125 -47 -340zM109 1198q31 41 64.5 80.5t57.5 66t63.5 64.5t57 54.5t65 59.5t62.5 56l41 -41l348 -346l-28 -29q2 -2 2 -4q0 -1 -21 -5t-58 -7.5t-71 -3.5q-3 0 -21.5 -0.5 t-23.5 0.5t-21 3.5t-26 9t-26 17.5t-32 28.5t-34 41.5q-11 -8 -28 -27t-30 -34t-34 -27t-45 -12q-10 0 -35 1.5t-79.5 5.5t-106.5 7q5 9 26 35zM147 1217q157 -13 183 -13q5 0 37 4q11 3 54 49.5t52 51.5q12 -7 53 -54t52 -47q18 -4 75 -4q36 0 71.5 4t58 7.5t26.5 3.5h4 l-334 331q-28 -26 -88 -80.5t-92 -84.5t-76 -77t-76 -91zM322 694q0 158 174 158q36 0 71 -21q37 -19 58.5 -55t21.5 -78v-22q0 -6 -14 -6q-2 0 -40 2t-75 2q-36 0 -79 -1t-54 -1q-38 0 -50.5 4.5t-12.5 17.5zM389 692q7 0 19 1t20 1h90q23 0 52.5 -1t35.5 -1l21 -2v8 q0 47 -27 74l-2 2q-27 17 -61 17q-72 0 -104 -25.5t-44 -73.5z" />
<glyph unicode="&#xeb;" horiz-adv-x="940" d="M33 547q0 200 47 325q42 98 149.5 150.5t237.5 52.5q119 0 212 -40.5t150 -110t86 -157.5t29 -189q0 -12 -6 -105q-39 -11 -207 -19t-295 -8q-24 0 -45 3v-35q0 -54 7 -87.5t30 -72.5v-4q25 -14 66 -14q42 0 71 39t29 120v21q46 -4 68 -4q24 0 71 2t70 2q34 0 92 -10 q0 -2 -1 -14.5t-1 -20.5l43 -6q0 -106 -10.5 -184t-35.5 -126.5t-51 -78.5t-72 -43.5t-83 -17t-98 -3.5h-25q-56 0 -84.5 0.5t-74 5.5t-72.5 14.5t-58 28.5t-55 47q-94 78 -139 224t-45 315zM51 526q0 -99 16 -187t49 -166.5t92 -129.5t138 -63q28 0 94.5 -3.5t104.5 -3.5 q96 0 164.5 20.5t107.5 76.5q13 11 22.5 38t15.5 74t9.5 82t7.5 99q1 17 2 26q-30 6 -79 6q-25 0 -77 -2t-71 -2q-25 0 -31 2v-16q0 -81 -35 -121.5t-87 -40.5q-158 0 -164 262v37q25 -6 141 -6q112 0 243.5 7t164.5 15q4 62 4 88q0 77 -11 139t-39.5 119t-74.5 95.5 t-119.5 61t-171.5 22.5q-124 0 -227.5 -50t-141.5 -139q-47 -125 -47 -340zM117 1534v43l319 -6v-41h41q0 -22 3 -131.5t3 -157.5q-22 -35 -98 -35q-18 0 -80 4h2q-11 0 -33 1t-36 1q-41 0 -72 -2v43q-7 0 -20.5 -1t-20.5 -1q0 40 -4 128.5t-4 154.5zM137 1524 q0 -57 4 -137.5t4 -112.5h35q28 0 84 -3t78 -3q68 0 80 20q0 47 -3 148.5t-3 113.5l-279 6v-32zM332 694q0 158 174 158q38 0 72 -21q36 -19 57.5 -55t21.5 -78v-22q0 -6 -14 -6q-2 0 -40 2t-75 2q-36 0 -79 -1t-54 -1q-38 0 -50.5 4.5t-12.5 17.5zM399 692q7 0 19 1t20 1 h90q23 0 52.5 -1t35.5 -1l21 -2v8q0 47 -27 74l-2 2q-27 17 -61 17q-72 0 -104 -25.5t-44 -73.5zM494 1534v43l319 -6v-41h41q0 -22 3 -131.5t3 -157.5q-22 -35 -98 -35q-18 0 -80 4h2q-11 0 -33.5 1t-36.5 1q-40 0 -71 -2v43q-7 0 -20.5 -1t-20.5 -1q0 40 -4 128.5 t-4 154.5zM514 1524q0 -57 4 -137.5t4 -112.5h35q29 0 84 -3t78 -3q67 0 80 20q0 47 -3 148.5t-3 113.5l-279 6v-32z" />
<glyph unicode="&#xec;" horiz-adv-x="538" d="M-12 1401l168 170q55 -44 108 -95t130 -130.5t100 -102.5q35 -35 49 -45l-2 -2q29 -29 43 -39q-94 -20 -219 -20q-68 0 -111 6q-56 68 -143 141v-2q-32 26 -57 50.5t-44.5 45.5t-21.5 23zM16 1401l2 -2q6 -6 98 -90t109 -107q21 -4 99 -4q136 0 176 12q-13 12 -149 150.5 t-193 183.5zM176 -29q10 137 10 283q0 82 -4 246t-4 250q0 132 15 301q14 0 20 2q28 4 33 4q6 0 59.5 -3t102.5 -3h47l55 -11v-34l41 -7q0 -118 -5 -356t-5 -362q0 -183 8 -316q-26 -28 -119 -28q-59 0 -90 2h2q-8 0 -24.5 1t-24.5 1q-42 0 -76 -11q0 16 4 52 q-27 -3 -45 -11zM199 0q4 2 32 2q19 0 76 -2t86 -2q84 0 94 14q-8 145 -8 330q0 128 4.5 362.5t5.5 319.5v6h-34h-47q-58 0 -114.5 3t-74.5 3h-8v-2q-12 -108 -12 -280q0 -81 4 -248t4 -254q0 -140 -8 -252z" />
<glyph unicode="&#xed;" horiz-adv-x="540" d="M-2 1200q72 65 192.5 188.5t194.5 182.5l39 -43l2 2l166 -172q-3 -3 -78 -72h2q-126 -104 -147 -143q-43 -6 -111 -6q-145 0 -219 22q5 4 15.5 13.5t15.5 13.5zM31 1051h55h47q63 0 120.5 3t61.5 3h9.5t9 -2t9.5 -6t6 -12.5t3 -20.5h6q13 0 33 -10q12 -138 12 -297 q0 -77 -4 -242.5t-4 -253.5q0 -133 11 -283q-37 11 -76 11q-8 0 -24.5 -1t-24.5 -1h2q-31 -2 -90 -2q-93 0 -119 28v19q-28 6 -41 22q8 133 8 316q0 122 -5 361.5t-5 367.5zM41 1210q37 -12 174 -12q79 0 100 4q10 17 52.5 57t92.5 84t62 56l2 2l-141 143 q-57 -45 -193 -183.5t-149 -150.5zM51 1024q1 -85 5.5 -319.5t4.5 -362.5q0 -185 -8 -330q10 -14 92 -14q29 0 87 2t77 2q29 0 33 -2q-8 112 -8 252q0 87 4 254t4 248q0 145 -12 280v2h-8q-18 0 -74.5 -3t-114.5 -3h-47h-35v-6z" />
<glyph unicode="&#xee;" horiz-adv-x="698" d="M-20 1198q31 41 64.5 80.5t57.5 66t63.5 64.5t57 54.5t65 59.5t62.5 56l41 -41l348 -346l-28 -29q2 -2 2 -4q0 -1 -21 -5t-58 -7.5t-71 -3.5q-6 0 -21.5 -0.5t-20.5 0t-17.5 2t-19.5 5.5t-20 11t-24.5 18t-27 27t-33.5 37q-11 -8 -28 -27t-30 -34t-34 -27t-45 -12 q-10 0 -35 1.5t-80 5.5t-107 7q2 4 27 35zM18 1217q157 -13 183 -13q5 0 37 4q11 3 54 49.5t52 51.5q12 -7 53 -54t52 -47q18 -4 75 -4q36 0 71.5 4t58 7.5t26.5 3.5h4l-334 331q-28 -26 -88 -80.5t-92 -84.5t-76 -77t-76 -91zM174 -29q10 137 10 283q0 82 -4 246t-4 250 q0 143 14 301q15 0 21 2q28 4 33 4q6 0 59.5 -3t102.5 -3h47l55 -11v-34l41 -7q0 -118 -5 -356t-5 -362q0 -183 8 -316q-26 -28 -119 -28q-59 0 -90 2h2q-8 0 -24.5 1t-24.5 1q-42 0 -76 -11q0 16 4 52q-27 -3 -45 -11zM197 0q4 2 32 2q19 0 76 -2t86 -2q84 0 94 14 q-8 145 -8 330q0 128 4.5 362.5t5.5 319.5v6h-34h-47q-58 0 -114.5 3t-74.5 3h-8v-2q-12 -108 -12 -280q0 -81 4 -248t4 -254q0 -140 -8 -252z" />
<glyph unicode="&#xef;" horiz-adv-x="727" d="M14 1534v43l320 -6v-41h41q0 -22 3 -131.5t3 -157.5q-22 -35 -98 -35q-18 0 -80 4h2q-11 0 -33.5 1t-36.5 1q-41 0 -72 -2v43q-7 0 -20 -1t-20 -1q0 40 -4.5 128.5t-4.5 154.5zM35 1524q0 -57 4 -137.5t4 -112.5h35q29 0 84.5 -3t77.5 -3q66 0 79 20q0 47 -3 148.5 t-3 113.5l-278 6v-32zM193 -29q10 137 10 283q0 82 -4 246t-4 250q0 143 14 301q14 0 20 2q28 4 33 4q6 0 59.5 -3t102.5 -3h47l55 -11v-34l41 -7q0 -118 -5 -356t-5 -362q0 -183 8 -316q-26 -28 -119 -28q-59 0 -90 2h2q-8 0 -24.5 1t-24.5 1q-42 0 -76 -11q0 7 5 52 q-27 -3 -45 -11zM215 0q4 2 33 2q19 0 76 -2t86 -2q84 0 94 14q-8 145 -8 330q0 128 4.5 362.5t5.5 319.5v6h-35h-47q-58 0 -114 3t-74 3h-9v-2q-12 -108 -12 -280q0 -81 4 -248t4 -254q0 -140 -8 -252zM391 1534v43l320 -6v-41h41q0 -22 3 -131.5t3 -157.5q-22 -35 -99 -35 q-17 0 -79 4h2q-11 0 -33.5 1t-36.5 1q-41 0 -72 -2v43q-7 0 -20.5 -1t-20.5 -1q0 40 -4 128.5t-4 154.5zM412 1524q0 -57 4 -137.5t4 -112.5h35q29 0 84 -3t77 -3q68 0 80 20q0 47 -3 148.5t-3 113.5l-278 6v-32z" />
<glyph unicode="&#xf0;" horiz-adv-x="1136" d="M33 475q0 116 20.5 198.5t69.5 145t135.5 93t212.5 30.5q121 0 205 -37l-4.5 49.5t-5.5 57t-9 54t-15 59.5t-23 54t-35 54q-247 -163 -326 -213q-15 21 -37 43l-4 -2q-18 18 -44.5 41.5t-31.5 27.5q-5 3 -11.5 7.5t-10 7t-9 7t-11 12t-13.5 18.5q-12 7 -21.5 17.5 t-31.5 43.5l20 10q95 44 203 127q-26 10 -78.5 41t-73.5 41q0 2 13 15q-10 6 -29.5 15t-24.5 11q0 12 17 29q24 22 48 43.5t42.5 37t24.5 21.5q46 43 89.5 73t61.5 30q15 0 35 -9.5t50.5 -29t33.5 -21.5q31 -23 123 -59q50 35 88.5 68t64.5 51t76 41q18 -27 37 -43q2 0 4 2 q9 -18 22 -28.5t27.5 -16.5t45.5 -29t67 -59l45 -45q-34 -22 -64.5 -40.5t-66 -40t-60.5 -36.5q65 -62 113 -150v2q26 -52 45.5 -112.5t34 -143t21 -131t18.5 -151.5q16 -141 16 -260q0 -607 -522 -607q-133 0 -242.5 41.5t-179.5 124.5q-132 102 -141 310l-2 57 q0 9 -1 26.5t-1 26.5zM53 475q0 -8 1 -26t1 -27l2 -57q0 -105 42 -186.5t113.5 -130t159.5 -73t187 -24.5q116 0 204 29.5t144 80.5t91 127t49 160t14 189q0 108 -17 258q-9 80 -14.5 121t-16.5 111.5t-22 111.5t-29 98t-40 95.5t-52.5 79.5t-68.5 73q54 35 96 59l45 27 q5 4 23 14.5t28 18.5q-36 38 -91.5 69t-90.5 78q-14 -7 -41.5 -26t-88 -63.5t-91.5 -66.5q-56 18 -129.5 62t-116.5 61h-6q-10 0 -19.5 -4t-35.5 -25.5t-64 -62.5q-16 -19 -119 -108q10 -6 51.5 -32.5t59.5 -37.5q57 -35 108 -47q-171 -122 -227 -164l-20 -14q3 -4 65.5 -54 t85.5 -82q120 75 324 213q54 -46 84.5 -104.5t38.5 -103t15.5 -114.5t16.5 -108q-1 0 -13.5 6t-16.5 8t-17.5 7.5t-22 8t-23.5 7t-29 6.5l-31.5 4.5t-37 3.5t-40.5 1q-120 0 -202.5 -29t-129 -88.5t-66.5 -138.5t-20 -191zM315 471q0 74 38.5 119t123.5 45q48 0 96 -12.5 t91.5 -37.5t70.5 -70t27 -103q0 -70 -55 -111t-152 -41q-78 0 -144.5 33.5t-86.5 99.5l-5 33q-4 28 -4 45zM379 424q0 -23 2 -37l4 -29q16 -41 65 -59t107 -18q85 0 134.5 37t49.5 98q0 46 -22.5 79t-60 49t-73 22.5t-73.5 6.5q-65 0 -99 -42.5t-34 -106.5z" />
<glyph unicode="&#xf1;" horiz-adv-x="946" d="M25 1190q97 379 319 379q61 0 119 -39.5t100 -95.5v2q8 -19 33 -19q29 0 57.5 44.5t38.5 82.5q74 8 203 8l4 -26q0 -3 1 -8.5t1 -8.5q8 0 20 1t15 1l4 -26v2q2 -14 2 -37q0 -53 -17 -108t-48 -101.5t-80.5 -76t-108.5 -29.5q-71 0 -136.5 43t-90.5 104q-3 1 -8.5 2 t-8.5 2q-65 0 -88 -35l2 2l-6 -12v2q-6 -18 -6 -31q0 -19 8 -38l-24 -29q-36 8 -135 8q-59 0 -129 -4q3 18 12 43q-13 0 -30 -1t-23 -1zM53 750q0 108 4 292q49 -6 93 -6q7 0 52.5 6.5t104.5 6.5q55 0 58 -25q0 -13 19 -21.5t22 -19.5v-10q99 61 217 61q65 0 126.5 -22.5 t92.5 -69.5l24 -18q54 -41 54 -344q0 -78 -4.5 -237t-4.5 -230q0 -82 4 -168q-81 -11 -172 -11h-38h-84q-3 21 -3 41h-38q-7 73 -7 248v103q0 78 -0.5 114t-6.5 92t-19 89q-15 6 -43 6q-61 0 -85 -41.5t-24 -157.5q0 -52 4 -153t4 -150q0 -89 -8 -154v-22q-75 -19 -119 -19 q-15 0 -45.5 2t-48.5 2q-51 0 -82 -4v45q-7 -1 -20 -2t-21 -2q0 131 -3 389t-3 390zM53 1212q35 2 101 2q103 0 139 -8v2q-8 19 -8 41t8 41l6 13q30 45 104 45q41 0 72 -48q22 -52 66.5 -78t101.5 -26q74 0 130 45t82 110t26 136q0 25 -2 39l-5 6q-19 -1 -53.5 -1t-62 -1 t-51.5 -4q-12 -42 -43 -85.5t-68 -43.5q-23 0 -44 15.5t-40 37.5t-40.5 44.5t-55 38t-74.5 15.5q-196 0 -289 -336zM74 709q0 -124 3 -360t3 -355q25 2 65 2q22 0 53.5 -1t45.5 -1q43 0 90 12v8q8 68 8 152q0 52 -4 155.5t-4 155.5q0 122 30.5 166.5t98.5 44.5q26 0 46 -5.5 t33 -20t21 -26.5t13 -37t6.5 -38.5t4 -45.5t3.5 -44q4 -34 4 -170v-151q0 -125 4 -154q24 0 62 -1t57 -1q73 0 137 10q-4 78 -4 129q0 72 4 235t4 242q0 298 -47 340q-69 64 -190 64q-23 0 -44.5 -2.5t-43.5 -9t-37 -11.5t-39 -17.5t-34 -18t-38 -21.5t-37 -21q0 3 1 21 t0.5 31.5t-2.5 30t-9 25.5t-19 9q-56 0 -108 -7t-61 -7q-50 0 -72 4q-4 -71 -4 -311z" />
<glyph unicode="&#xf2;" horiz-adv-x="929" d="M55 664v26v27t0.5 24t1.5 26t2.5 24.5t4 27.5t6 26t9 29.5t11.5 30.5h-2q1 10 5.5 25.5t6.5 15.5v-2q0 -1 -1 -3t-1 -3l2 4q30 65 122 98t206 33q16 -2 76 -2q6 0 23 1t26 1q78 0 151.5 -24.5t122.5 -71.5h-2q5 -5 12.5 -14t14.5 -16t14 -11l-2 2q39 -26 60.5 -97 t27.5 -146t6 -179q0 -145 -18 -300.5t-51 -192.5q-77 -107 -289 -107q-79 0 -121.5 2.5t-101 14t-104 38.5t-89.5 72l-18 18q-63 60 -86 153.5t-23 217.5v74q0 13 1 35.5t1 33.5q0 17 -2 46.5t-2 42.5zM76 666q0 -13 1 -41.5t1 -44.5v-152q0 -85 12 -152.5t41 -130.5 t85.5 -104t139.5 -55q30 0 99 -3t106 -3q96 0 163.5 20t106.5 76q18 18 30.5 65.5t19 125t9.5 128.5t6 136v9.5t0.5 8t0.5 8.5q0 12 -1 37q-3 82 -5.5 124t-10.5 101.5t-24.5 93.5t-42.5 50q-94 90 -268 90q-14 0 -40 -1t-38 -1q-27 0 -41 2q-105 0 -192 -30.5t-115 -88.5 q-43 -147 -43 -268zM160 1401l168 170q50 -41 104 -93.5t116.5 -117t98.5 -98.5l19 -19q35 -35 49 -45l-2 -2q29 -29 43 -39q-94 -20 -219 -20q-68 0 -111 6q-56 68 -143 141v-2q-32 26 -57 50.5t-44.5 45.5t-21.5 23zM188 1401l2 -2q6 -6 98 -90t109 -107q21 -4 99 -4 q136 0 176 12q-13 12 -149 150.5t-193 183.5zM344 385q1 23 1 107t6.5 135.5t23.5 64.5q41 51 123 51q143 0 143 -213q0 -37 -0.5 -59t-4 -53t-9.5 -49t-17.5 -39t-28 -32t-41.5 -18.5t-57 -7.5q-61 0 -100 27t-39 86zM406 342q0 -23 13.5 -34.5t26.5 -13t37 -1.5 q125 0 125 86q13 111 13 149q0 26 -0.5 36.5t-2.5 33t-7 33.5t-14.5 24.5t-25 19t-36.5 5.5q-14 0 -46 -4h3q-38 -9 -60 -37l-4 -4q-6 -3 -10 -18.5t-6 -40.5t-3.5 -50.5t-2 -58t-0.5 -53.5v-45.5v-26.5z" />
<glyph unicode="&#xf3;" horiz-adv-x="933" d="M45 664v26v27t0.5 24t1.5 26t2.5 24.5t4 27.5t6 26t9 29.5t11.5 30.5h-2q1 10 5.5 25.5t6.5 15.5v-2q0 -1 -1 -3t-1 -3l2 4q30 65 122 98t206 33q16 -2 76 -2q6 0 23 1t26 1q78 0 151.5 -24.5t122.5 -71.5h-2q5 -5 12.5 -14t14.5 -16t14 -11l-2 2q39 -26 60.5 -97 t27.5 -146t6 -179q0 -145 -18 -300.5t-51 -192.5q-77 -107 -289 -107q-79 0 -121.5 2.5t-101 14t-104 38.5t-89.5 72l-18 18q-63 60 -86 153.5t-23 217.5v74q0 13 1 35.5t1 33.5q0 17 -2 46.5t-2 42.5zM66 666q0 -13 1 -41.5t1 -44.5v-152q0 -85 12 -152.5t41 -130.5 t85.5 -104t139.5 -55q30 0 99 -3t106 -3q96 0 163.5 20t106.5 76q18 18 30.5 65.5t19 125t9.5 128.5t6 136v9.5t0.5 8t0.5 8.5q0 12 -1 37q-3 82 -5.5 124t-10.5 101.5t-24.5 93.5t-42.5 50q-94 90 -268 90q-14 0 -40 -1t-38 -1q-27 0 -41 2q-105 0 -192 -30.5t-115 -88.5 q-43 -147 -43 -268zM268 1200q72 65 192.5 188.5t194.5 182.5l39 -43l2 2l166 -172q-3 -3 -78 -72h2q-126 -104 -147 -143q-43 -6 -111 -6q-145 0 -219 22q5 4 15.5 13.5t15.5 13.5zM311 1210q37 -12 174 -12q80 0 101 4q10 17 52.5 57t92.5 84t62 56l2 2l-142 143 q-57 -45 -193 -183.5t-149 -150.5zM334 385q1 23 1 107t6.5 135.5t23.5 64.5q41 51 122 51q144 0 144 -213q0 -37 -0.5 -59t-4 -53t-9.5 -49t-17.5 -39t-28 -32t-41.5 -18.5t-57 -7.5q-61 0 -100 27t-39 86zM395 342q0 -23 14 -34.5t27 -13t37 -1.5q125 0 125 86 q12 102 12 149q0 26 -0.5 36.5t-2.5 33t-7 33.5t-14.5 24.5t-25 19t-36.5 5.5q-13 0 -45 -4h2q-37 -9 -59 -37l-4 -4q-23 -14 -23 -293z" />
<glyph unicode="&#xf4;" horiz-adv-x="937" d="M53 664v26v27t0.5 24t1.5 26t2.5 24.5t4 27.5t6 26t9 29.5t11.5 30.5h-2q1 10 5.5 25.5t6.5 15.5v-2q0 -1 -1 -3t-1 -3l2 4q30 65 122 98t206 33q16 -2 76 -2q6 0 23 1t26 1q78 0 151.5 -24.5t122.5 -71.5h-2q5 -5 12.5 -14t14.5 -16t14 -11l-2 2q39 -26 60.5 -97 t27.5 -146t6 -179q0 -145 -18 -300.5t-51 -192.5q-77 -107 -289 -107q-79 0 -121.5 2.5t-101 14t-104 38.5t-89.5 72l-18 18q-63 60 -86 153.5t-23 217.5v74q0 13 1 35.5t1 33.5q0 17 -2 46.5t-2 42.5zM74 666q0 -13 1 -41.5t1 -44.5v-152q0 -85 12 -152.5t41 -130.5 t85.5 -104t139.5 -55q30 0 99 -3t106 -3q96 0 163.5 20t106.5 76q18 18 30.5 65.5t19 125t9.5 128.5t6 136v9.5t0.5 8t0.5 8.5q0 12 -1 37q-3 82 -5.5 124t-10.5 101.5t-24.5 93.5t-42.5 50q-94 90 -268 90q-14 0 -40 -1t-38 -1q-27 0 -41 2q-105 0 -192 -30.5t-115 -88.5 q-43 -147 -43 -268zM129 1198q31 41 64 80t58 66.5t63.5 64.5t58 55t65 58.5t62.5 56.5l41 -41l348 -346l-29 -29q2 -2 2 -4q0 -1 -20.5 -5t-57.5 -7.5t-71 -3.5q-3 0 -21.5 -0.5t-23.5 0.5t-21.5 3.5t-26 9t-25.5 17.5t-32.5 28.5t-34.5 41.5q-11 -8 -28 -27t-30 -34 t-34 -27t-45 -12q-10 0 -35 1.5t-79.5 5.5t-106.5 7q2 4 27 35zM168 1217q157 -13 182 -13q5 0 37 4q11 3 54.5 49.5t52.5 51.5q12 -7 52.5 -54t51.5 -47q18 -4 76 -4q36 0 71.5 4t57.5 7.5t26 3.5h5l-334 331q-28 -26 -88 -80.5t-92 -84.5t-76 -77t-76 -91zM342 385 q1 23 1 107t6.5 135.5t23.5 64.5q41 51 123 51q143 0 143 -213q0 -37 -0.5 -59t-4 -53t-9.5 -49t-17.5 -39t-28 -32t-41.5 -18.5t-57 -7.5q-61 0 -100 27t-39 86zM403 342q0 -23 14 -34.5t27 -13t37 -1.5q125 0 125 86q12 102 12 149q0 26 -0.5 36.5t-2.5 33t-7 33.5 t-14.5 24.5t-25 19t-36.5 5.5q-13 0 -45 -4h2q-37 -9 -59 -37l-4 -4q-23 -14 -23 -293z" />
<glyph unicode="&#xf5;" horiz-adv-x="970" d="M51 1190q14 56 31.5 104.5t45.5 101t61.5 89t80.5 60.5t101 24q61 0 119 -39.5t100 -95.5v2q8 -19 33 -19q29 0 57.5 44.5t38.5 82.5q74 8 203 8l4 -26q0 -3 1 -8.5t1 -8.5q8 0 20 1t15 1l4 -26v2q2 -14 2 -37q0 -53 -17 -108t-48 -101.5t-80.5 -76t-108.5 -29.5 q-71 0 -137 43t-91 104q-3 1 -9 2t-9 2q-23 0 -48.5 -9t-37.5 -26l2 2l-6 -12v2q-6 -18 -6 -31q0 -19 8 -38l-25 -29q-36 8 -135 8q-59 0 -129 -4q3 18 12 43q-13 0 -30 -1t-23 -1zM61 664v26v27t0.5 24t1.5 26t2.5 24.5t4 27.5t6 26t9 29.5t11.5 30.5h-2q1 10 5.5 25.5 t6.5 15.5v-2q0 -1 -1 -3t-1 -3l2 4q30 65 122 98t206 33q16 -2 76 -2q6 0 23 1t26 1q78 0 152 -24.5t123 -71.5h-3q5 -5 12.5 -14t14.5 -16t14 -11l-2 2q39 -26 61 -97t28 -146.5t6 -178.5q0 -144 -18.5 -300t-51.5 -193q-77 -107 -289 -107q-79 0 -121.5 2.5t-101 14 t-104 38.5t-89.5 72l-18 18q-63 60 -86 153.5t-23 217.5v74q0 13 1.5 35.5t1.5 33.5q0 17 -2.5 46.5t-2.5 42.5zM80 1212q35 2 100 2q103 0 139 -8v2q-8 19 -8 41t8 41l7 13q30 45 104 45q41 0 72 -48q22 -52 66.5 -78t101.5 -26q74 0 129.5 45t81.5 110t26 136q0 25 -2 39 l-4 6q-19 -1 -53.5 -1t-62.5 -1t-52 -4q-12 -42 -43 -85.5t-67 -43.5q-23 0 -44 15.5t-40 37.5t-40.5 44.5t-55 38t-74.5 15.5q-196 0 -289 -336zM82 666q0 -13 1 -41.5t1 -44.5v-152q0 -85 12 -152.5t41 -130.5t85.5 -104t139.5 -55q30 0 99 -3t106 -3q96 0 164 20t107 76 q17 17 29.5 63.5t19 123t9.5 126t6 135.5q1 22 1 33q0 12 -1 37q-3 82 -5.5 124t-10.5 101.5t-24.5 93.5t-42.5 50q-94 90 -268 90q-14 0 -40 -1t-38 -1q-27 0 -41 2q-105 0 -192 -30.5t-115 -88.5q-43 -147 -43 -268zM350 385q1 23 1 107t6.5 135.5t23.5 64.5q41 51 123 51 q143 0 143 -213q0 -37 -0.5 -59t-4 -53t-9.5 -49t-17.5 -39t-28 -32t-41.5 -18.5t-57 -7.5q-61 0 -100 27t-39 86zM412 342q0 -23 13.5 -34.5t26.5 -13t37 -1.5q125 0 125 86q13 111 13 149q0 26 -0.5 36.5t-2.5 33t-7 33.5t-14.5 24.5t-25 19t-36.5 5.5q-13 0 -45 -4h2 q-38 -9 -60 -37l-4 -4q-6 -3 -10 -18.5t-6 -40.5t-3.5 -50.5t-2 -58t-0.5 -53.5v-45.5v-26.5z" />
<glyph unicode="&#xf6;" horiz-adv-x="954" d="M61 664v26v27t0.5 24t1.5 26t2.5 24.5t4 27.5t6 26t9 29.5t11.5 30.5h-2q1 10 5.5 25.5t6.5 15.5v-2q0 -1 -1 -3t-1 -3l2 4q30 65 122 98t206 33q16 -2 76 -2q6 0 23 1t26 1q78 0 152 -24.5t123 -71.5h-3q5 -5 12.5 -14t14.5 -16t14 -11l-2 2q39 -26 61 -97t28 -146.5 t6 -178.5q0 -144 -18.5 -300t-51.5 -193q-77 -107 -289 -107q-79 0 -121.5 2.5t-101 14t-104 38.5t-89.5 72l-18 18q-63 60 -86 153.5t-23 217.5v74q0 13 1.5 35.5t1.5 33.5q0 17 -2.5 46.5t-2.5 42.5zM82 666q0 -13 1 -41.5t1 -44.5v-152q0 -85 12 -152.5t41 -130.5 t85.5 -104t139.5 -55q30 0 99 -3t106 -3q96 0 164 20t107 76q17 17 29.5 63.5t19 123t9.5 126t6 135.5q1 22 1 33q0 12 -1 37q-3 82 -5.5 124t-10.5 101.5t-24.5 93.5t-42.5 50q-94 90 -268 90q-14 0 -40 -1t-38 -1q-27 0 -41 2q-105 0 -192 -30.5t-115 -88.5 q-43 -147 -43 -268zM131 1534v43l320 -6v-41h41q0 -22 3 -131.5t3 -157.5q-22 -35 -99 -35q-18 0 -80 4h3q-11 0 -33.5 1t-36.5 1q-41 0 -72 -2v43q-7 0 -20.5 -1t-20.5 -1q0 40 -4 128.5t-4 154.5zM152 1524q0 -57 4 -137.5t4 -112.5h35q29 0 83.5 -3t77.5 -3q68 0 80 20 q0 47 -3 148.5t-3 113.5l-278 6v-32zM350 385q1 23 1 107t6.5 135.5t23.5 64.5q41 51 123 51q143 0 143 -213q0 -37 -0.5 -59t-4 -53t-9.5 -49t-17.5 -39t-28 -32t-41.5 -18.5t-57 -7.5q-61 0 -100 27t-39 86zM412 342q0 -23 13.5 -34.5t26.5 -13t37 -1.5q125 0 125 86 q13 111 13 149q0 26 -0.5 36.5t-2.5 33t-7 33.5t-14.5 24.5t-25 19t-36.5 5.5q-13 0 -45 -4h2q-38 -9 -60 -37l-4 -4q-6 -3 -10 -18.5t-6 -40.5t-3.5 -50.5t-2 -58t-0.5 -53.5v-45.5v-26.5zM508 1534v43l319 -6v-41h41q0 -22 3 -131.5t3 -157.5q-22 -35 -98 -35q-18 0 -80 4 h2q-11 0 -33 1t-36 1q-41 0 -72 -2v43q-7 0 -20.5 -1t-20.5 -1q0 40 -4 128.5t-4 154.5zM528 1524q0 -57 4.5 -137.5t4.5 -112.5h34q29 0 84 -3t78 -3q68 0 80 20q0 47 -3 148.5t-3 113.5l-279 6v-32z" />
<glyph unicode="&#xf7;" horiz-adv-x="901" d="M-2 350q0 28 2 134t2 124h899v-41h41q0 -30 -2 -88.5t-2 -85.5q0 -59 8 -114q-22 0 -441 5t-446 5l-20 20v21h-21zM18 350q6 0 163 -2.5t348 -5t280 -2.5h76q-8 36 -8 92q0 26 2 78t2 78h-858q0 -2 -1.5 -33.5t-2.5 -75t-1 -73.5v-56zM291 106q0 32 2 82t2 64 q57 24 160 24q79 0 131 -24l4 -29q4 -1 11 -2.5t10 -2t8 -3.5t7 -7.5t3.5 -12.5t1.5 -19q0 -38 -6.5 -122.5t-10.5 -114.5l-274 2q-1 7 -3 20.5t-3 20.5h-35q-8 52 -8 124zM291 795q0 31 2 81t2 64q60 25 160 25q76 0 131 -25l4 -29q4 -1 11 -2.5t10 -2t8 -3.5t7 -7.5 t3.5 -12.5t1.5 -19q0 -38 -6.5 -122.5t-10.5 -114.5l-274 2q-1 7 -3 20.5t-3 20.5h-35q-8 52 -8 125zM311 96q0 -71 6 -94h7l231 -2h4v4q0 17 3 76t6 111t3 53q-27 12 -116 12q-105 0 -140 -16q0 -8 -2 -60t-2 -84zM311 784q0 -71 6 -94h7h231l4 -2v4q0 17 3 76t6 111t3 53 q-27 12 -116 12q-105 0 -140 -16q0 -8 -2 -60t-2 -84z" />
</font>
</defs>
</svg>
